<svg xmlns="http://www.w3.org/2000/svg" xmlns:xlink="http://www.w3.org/1999/xlink" width="300" zoomAndPan="magnify" viewBox="0 0 224.87999 37.5" height="50" preserveAspectRatio="xMidYMid meet" version="1.0"><defs><clipPath id="8ca39dd46e"><path d="M 174 5 L 210.542969 5 L 210.542969 36 L 174 36 Z M 174 5 " clip-rule="nonzero"/></clipPath><clipPath id="9236df8327"><path d="M 14.410156 13 L 17 13 L 17 15 L 14.410156 15 Z M 14.410156 13 " clip-rule="nonzero"/></clipPath></defs><g clip-path="url(#8ca39dd46e)"><path fill="#b08f80" d="M 209.59375 19.484375 L 208.46875 18.734375 C 206.675781 17.539062 204.488281 16.941406 202.269531 17.039062 L 196.785156 17.28125 L 195.140625 14.75 C 195.621094 14.671875 195.671875 14.207031 195.675781 13.636719 C 195.683594 13.011719 195.644531 12.5 195.015625 12.492188 L 193.667969 12.476562 L 192.40625 10.53125 C 192.867188 10.445312 192.914062 9.980469 192.925781 9.421875 C 192.933594 8.792969 192.890625 8.285156 192.261719 8.273438 L 190.929688 8.257812 L 189.710938 6.378906 C 189.566406 6.15625 189.226562 5.949219 188.960938 5.921875 L 187.65625 5.789062 C 187.386719 5.761719 187.203125 5.957031 187.246094 6.222656 L 189.03125 17.625 L 181.484375 17.957031 L 178.835938 14.484375 C 178.710938 14.316406 178.515625 14.21875 178.316406 14.214844 L 176.34375 14.191406 C 175.8125 14.183594 175.476562 14.796875 175.738281 15.289062 L 177.105469 19.277344 L 175.046875 19.554688 C 174.730469 19.546875 174.46875 19.816406 174.464844 20.148438 C 174.457031 20.480469 174.714844 20.753906 175.03125 20.757812 L 177.25 21.113281 L 175.605469 25.527344 C 175.332031 26.011719 175.652344 26.632812 176.183594 26.640625 L 178.15625 26.664062 C 178.355469 26.667969 178.550781 26.574219 178.683594 26.410156 L 181.792969 22.546875 L 189.136719 23.058594 L 186.734375 35.4375 C 186.683594 35.703125 186.863281 35.90625 187.128906 35.886719 L 188.125 35.820312 C 188.394531 35.804688 188.738281 35.609375 188.890625 35.386719 L 190.585938 32.902344 L 191.945312 32.921875 C 192.570312 32.929688 192.628906 32.421875 192.636719 31.796875 C 192.640625 31.21875 192.601562 30.75 192.113281 30.667969 L 193.417969 28.761719 L 194.976562 28.78125 C 195.601562 28.789062 195.570312 28.28125 195.578125 27.652344 C 195.585938 27.023438 195.632812 26.515625 195.003906 26.511719 L 194.953125 26.507812 L 196.9375 23.609375 L 202.179688 23.976562 C 204.394531 24.128906 206.597656 23.585938 208.421875 22.441406 L 209.566406 21.71875 C 210.417969 21.183594 210.433594 20.042969 209.59375 19.484375 " fill-opacity="1" fill-rule="nonzero"/></g><path fill="#b08f80" d="M 58.445312 12.6875 C 58.304688 12.566406 58.089844 12.578125 57.964844 12.71875 C 57.910156 12.785156 57.878906 12.863281 57.878906 12.945312 C 57.878906 13.039062 57.921875 13.132812 58 13.199219 C 58.332031 13.492188 58.648438 13.800781 58.949219 14.125 C 59.078125 14.261719 59.289062 14.273438 59.429688 14.144531 C 59.566406 14.015625 59.574219 13.800781 59.449219 13.664062 C 59.132812 13.320312 58.796875 12.996094 58.445312 12.6875 " fill-opacity="1" fill-rule="nonzero"/><path fill="#b08f80" d="M 58.207031 26.78125 C 57.847656 27.035156 57.472656 27.253906 57.085938 27.421875 C 56.960938 27.480469 56.886719 27.605469 56.886719 27.734375 C 56.886719 27.78125 56.894531 27.828125 56.914062 27.875 C 56.992188 28.046875 57.191406 28.125 57.363281 28.046875 C 57.792969 27.855469 58.207031 27.617188 58.601562 27.335938 C 58.757812 27.226562 58.792969 27.011719 58.683594 26.859375 C 58.570312 26.707031 58.359375 26.671875 58.207031 26.78125 " fill-opacity="1" fill-rule="nonzero"/><path fill="#b08f80" d="M 61.152344 23.644531 C 60.984375 23.5625 60.777344 23.632812 60.695312 23.800781 C 60.5 24.195312 60.277344 24.574219 60.03125 24.925781 C 59.988281 24.984375 59.96875 25.054688 59.96875 25.121094 C 59.96875 25.230469 60.019531 25.335938 60.113281 25.402344 C 60.265625 25.511719 60.476562 25.472656 60.585938 25.320312 C 60.855469 24.9375 61.097656 24.527344 61.308594 24.101562 C 61.386719 23.933594 61.316406 23.726562 61.152344 23.644531 " fill-opacity="1" fill-rule="nonzero"/><path fill="#b08f80" d="M 56.164062 11.082031 C 55.757812 10.855469 55.339844 10.644531 54.914062 10.457031 C 54.742188 10.382812 54.539062 10.460938 54.464844 10.632812 C 54.445312 10.675781 54.4375 10.722656 54.4375 10.769531 C 54.4375 10.898438 54.511719 11.023438 54.640625 11.082031 C 55.042969 11.257812 55.445312 11.457031 55.828125 11.675781 C 55.992188 11.765625 56.203125 11.710938 56.292969 11.546875 C 56.386719 11.378906 56.328125 11.171875 56.164062 11.082031 " fill-opacity="1" fill-rule="nonzero"/><path fill="#b08f80" d="M 60.910156 3.820312 C 60.828125 3.652344 60.625 3.582031 60.453125 3.660156 C 60.039062 3.863281 59.628906 4.070312 59.226562 4.289062 C 59.113281 4.347656 59.046875 4.464844 59.046875 4.585938 C 59.046875 4.640625 59.058594 4.695312 59.085938 4.746094 C 59.175781 4.914062 59.382812 4.976562 59.546875 4.886719 C 59.945312 4.675781 60.34375 4.472656 60.75 4.277344 C 60.921875 4.191406 60.988281 3.988281 60.910156 3.820312 " fill-opacity="1" fill-rule="nonzero"/><path fill="#b08f80" d="M 50.609375 11.097656 C 50.34375 11.460938 50.085938 11.851562 49.84375 12.261719 C 49.8125 12.316406 49.796875 12.378906 49.796875 12.4375 C 49.796875 12.550781 49.855469 12.664062 49.960938 12.730469 C 50.121094 12.824219 50.332031 12.773438 50.429688 12.609375 C 50.660156 12.21875 50.90625 11.84375 51.160156 11.5 C 51.269531 11.347656 51.234375 11.132812 51.085938 11.023438 C 50.933594 10.914062 50.71875 10.945312 50.609375 11.097656 " fill-opacity="1" fill-rule="nonzero"/><path fill="#b08f80" d="M 53.96875 8.65625 C 54.117188 8.535156 54.128906 8.320312 54.011719 8.175781 C 53.890625 8.035156 53.675781 8.015625 53.53125 8.136719 C 53.183594 8.433594 52.835938 8.734375 52.5 9.046875 C 52.425781 9.113281 52.386719 9.207031 52.386719 9.296875 C 52.386719 9.378906 52.417969 9.460938 52.480469 9.527344 C 52.605469 9.667969 52.820312 9.675781 52.960938 9.546875 C 53.292969 9.242188 53.628906 8.945312 53.96875 8.65625 " fill-opacity="1" fill-rule="nonzero"/><path fill="#b08f80" d="M 54.582031 27.929688 C 54.125 27.925781 53.683594 27.894531 53.269531 27.835938 C 53.082031 27.808594 52.910156 27.9375 52.882812 28.125 C 52.878906 28.140625 52.878906 28.15625 52.878906 28.171875 C 52.878906 28.339844 53.003906 28.484375 53.171875 28.507812 C 53.617188 28.570312 54.089844 28.605469 54.574219 28.609375 C 54.765625 28.613281 54.910156 28.464844 54.917969 28.269531 C 54.917969 28.082031 54.769531 27.929688 54.582031 27.929688 " fill-opacity="1" fill-rule="nonzero"/><path fill="#b08f80" d="M 52.265625 9.59375 C 51.816406 9.488281 51.359375 9.40625 50.902344 9.335938 C 50.714844 9.3125 50.542969 9.441406 50.515625 9.625 C 50.511719 9.644531 50.511719 9.660156 50.511719 9.675781 C 50.511719 9.84375 50.632812 9.988281 50.800781 10.011719 C 51.242188 10.078125 51.679688 10.15625 52.113281 10.257812 C 52.300781 10.300781 52.480469 10.183594 52.523438 10 C 52.554688 9.820312 52.449219 9.632812 52.265625 9.59375 " fill-opacity="1" fill-rule="nonzero"/><path fill="#b08f80" d="M 76.410156 0.0234375 C 75.949219 0.0273438 75.492188 0.0351562 75.035156 0.0585938 C 74.851562 0.0664062 74.710938 0.214844 74.710938 0.398438 C 74.710938 0.402344 74.710938 0.40625 74.710938 0.410156 C 74.71875 0.601562 74.878906 0.746094 75.066406 0.738281 C 75.515625 0.71875 75.964844 0.707031 76.414062 0.703125 C 76.605469 0.703125 76.753906 0.550781 76.753906 0.363281 C 76.75 0.175781 76.601562 0.0195312 76.410156 0.0234375 " fill-opacity="1" fill-rule="nonzero"/><path fill="#b08f80" d="M 72.296875 0.269531 C 71.839844 0.324219 71.386719 0.382812 70.933594 0.453125 C 70.765625 0.476562 70.644531 0.621094 70.644531 0.789062 C 70.644531 0.804688 70.644531 0.824219 70.648438 0.839844 C 70.675781 1.023438 70.847656 1.152344 71.035156 1.125 C 71.480469 1.058594 71.925781 1 72.375 0.949219 C 72.558594 0.925781 72.683594 0.757812 72.671875 0.570312 C 72.652344 0.386719 72.484375 0.25 72.296875 0.269531 " fill-opacity="1" fill-rule="nonzero"/><path fill="#b08f80" d="M 80.527344 0.207031 C 80.074219 0.160156 79.617188 0.125 79.160156 0.0976562 C 78.96875 0.0859375 78.808594 0.230469 78.796875 0.417969 C 78.796875 0.421875 78.796875 0.429688 78.796875 0.4375 C 78.796875 0.617188 78.933594 0.765625 79.117188 0.777344 C 79.566406 0.804688 80.015625 0.839844 80.464844 0.882812 C 80.648438 0.902344 80.816406 0.765625 80.835938 0.578125 C 80.867188 0.390625 80.714844 0.226562 80.527344 0.207031 " fill-opacity="1" fill-rule="nonzero"/><path fill="#b08f80" d="M 84.605469 0.824219 C 84.160156 0.730469 83.707031 0.644531 83.253906 0.570312 C 83.066406 0.539062 82.890625 0.664062 82.863281 0.847656 C 82.855469 0.867188 82.855469 0.886719 82.855469 0.90625 C 82.855469 1.070312 82.972656 1.210938 83.140625 1.242188 C 83.585938 1.316406 84.027344 1.398438 84.46875 1.492188 C 84.652344 1.527344 84.832031 1.410156 84.871094 1.226562 C 84.898438 1.039062 84.792969 0.859375 84.605469 0.824219 " fill-opacity="1" fill-rule="nonzero"/><path fill="#b08f80" d="M 61.875 19.660156 C 61.691406 19.664062 61.546875 19.816406 61.546875 20 C 61.539062 20.058594 61.546875 20.113281 61.546875 20.171875 C 61.558594 20.535156 61.527344 20.929688 61.46875 21.308594 C 61.464844 21.328125 61.464844 21.34375 61.464844 21.359375 C 61.464844 21.527344 61.589844 21.671875 61.757812 21.695312 C 61.945312 21.722656 62.117188 21.59375 62.144531 21.410156 C 62.199219 21.015625 62.230469 20.621094 62.230469 20.238281 C 62.230469 20.15625 62.230469 20.074219 62.226562 19.988281 C 62.21875 19.800781 62.0625 19.652344 61.875 19.660156 " fill-opacity="1" fill-rule="nonzero"/><path fill="#b08f80" d="M 68.230469 0.960938 C 67.785156 1.058594 67.339844 1.167969 66.894531 1.285156 C 66.742188 1.324219 66.640625 1.464844 66.640625 1.613281 C 66.640625 1.644531 66.644531 1.671875 66.652344 1.703125 C 66.703125 1.882812 66.886719 1.992188 67.070312 1.945312 C 67.503906 1.828125 67.941406 1.722656 68.378906 1.625 C 68.5625 1.582031 68.679688 1.398438 68.636719 1.214844 C 68.597656 1.035156 68.414062 0.917969 68.230469 0.960938 " fill-opacity="1" fill-rule="nonzero"/><path fill="#b08f80" d="M 61.664062 17.226562 C 61.503906 16.785156 61.304688 16.355469 61.082031 15.941406 C 60.992188 15.777344 60.785156 15.714844 60.621094 15.804688 C 60.507812 15.863281 60.441406 15.980469 60.441406 16.101562 C 60.441406 16.15625 60.453125 16.214844 60.484375 16.261719 C 60.691406 16.648438 60.871094 17.054688 61.023438 17.460938 C 61.089844 17.636719 61.289062 17.726562 61.464844 17.660156 C 61.640625 17.597656 61.730469 17.402344 61.664062 17.226562 " fill-opacity="1" fill-rule="nonzero"/><path fill="#b08f80" d="M 64.265625 2.089844 C 63.832031 2.238281 63.402344 2.398438 62.972656 2.5625 C 62.839844 2.617188 62.757812 2.742188 62.757812 2.878906 C 62.757812 2.921875 62.765625 2.964844 62.78125 3.003906 C 62.851562 3.179688 63.046875 3.265625 63.222656 3.199219 C 63.640625 3.035156 64.0625 2.878906 64.488281 2.730469 C 64.667969 2.667969 64.765625 2.476562 64.699219 2.296875 C 64.636719 2.121094 64.445312 2.027344 64.265625 2.089844 " fill-opacity="1" fill-rule="nonzero"/><path fill="#b08f80" d="M 94.570312 5.179688 C 94.964844 5.398438 95.355469 5.621094 95.738281 5.855469 C 95.902344 5.949219 96.109375 5.898438 96.207031 5.738281 C 96.304688 5.574219 96.253906 5.367188 96.089844 5.269531 C 95.699219 5.03125 95.300781 4.804688 94.898438 4.585938 C 94.734375 4.492188 94.527344 4.554688 94.4375 4.71875 C 94.40625 4.769531 94.394531 4.828125 94.394531 4.882812 C 94.394531 5.003906 94.457031 5.117188 94.570312 5.179688 " fill-opacity="1" fill-rule="nonzero"/><g clip-path="url(#9236df8327)"><path fill="#b08f80" d="M 16.191406 13.46875 C 15.765625 13.355469 15.339844 13.226562 14.90625 13.082031 C 14.730469 13.019531 14.535156 13.117188 14.472656 13.292969 C 14.460938 13.332031 14.457031 13.367188 14.457031 13.402344 C 14.457031 13.546875 14.546875 13.679688 14.6875 13.726562 C 15.132812 13.875 15.574219 14.011719 16.011719 14.128906 C 16.195312 14.175781 16.378906 14.070312 16.429688 13.886719 C 16.476562 13.707031 16.367188 13.519531 16.191406 13.46875 " fill-opacity="1" fill-rule="nonzero"/></g><path fill="#b08f80" d="M 28.175781 13.539062 C 27.734375 13.632812 27.289062 13.71875 26.847656 13.792969 C 26.683594 13.824219 26.566406 13.96875 26.566406 14.128906 C 26.566406 14.148438 26.566406 14.167969 26.570312 14.1875 C 26.601562 14.375 26.78125 14.496094 26.964844 14.464844 C 27.414062 14.386719 27.867188 14.300781 28.3125 14.207031 C 28.5 14.167969 28.601562 13.988281 28.578125 13.800781 C 28.539062 13.617188 28.359375 13.503906 28.175781 13.539062 " fill-opacity="1" fill-rule="nonzero"/><path fill="#b08f80" d="M 56.105469 7.011719 C 56.472656 6.75 56.84375 6.496094 57.222656 6.253906 C 57.378906 6.152344 57.425781 5.941406 57.324219 5.785156 C 57.222656 5.625 57.011719 5.578125 56.851562 5.683594 C 56.46875 5.929688 56.085938 6.1875 55.710938 6.453125 C 55.617188 6.519531 55.566406 6.625 55.566406 6.730469 C 55.566406 6.800781 55.589844 6.867188 55.628906 6.925781 C 55.738281 7.082031 55.949219 7.117188 56.105469 7.011719 " fill-opacity="1" fill-rule="nonzero"/><path fill="#b08f80" d="M 24.175781 14.148438 C 23.734375 14.183594 23.28125 14.210938 22.835938 14.226562 C 22.648438 14.234375 22.503906 14.382812 22.503906 14.566406 C 22.503906 14.570312 22.503906 14.574219 22.503906 14.578125 C 22.511719 14.765625 22.667969 14.914062 22.859375 14.90625 C 23.316406 14.890625 23.777344 14.863281 24.234375 14.824219 C 24.421875 14.808594 24.582031 14.644531 24.542969 14.457031 C 24.527344 14.269531 24.363281 14.128906 24.175781 14.148438 " fill-opacity="1" fill-rule="nonzero"/><path fill="#b08f80" d="M 20.148438 14.164062 C 19.707031 14.128906 19.261719 14.078125 18.816406 14.015625 C 18.628906 13.988281 18.457031 14.117188 18.433594 14.304688 C 18.429688 14.320312 18.425781 14.335938 18.425781 14.351562 C 18.425781 14.519531 18.550781 14.664062 18.71875 14.691406 C 19.179688 14.753906 19.636719 14.804688 20.09375 14.84375 C 20.28125 14.859375 20.445312 14.71875 20.460938 14.53125 C 20.480469 14.34375 20.335938 14.179688 20.148438 14.164062 " fill-opacity="1" fill-rule="nonzero"/><path fill="#b08f80" d="M 88.382812 2.519531 C 88.5625 2.578125 88.753906 2.480469 88.8125 2.300781 C 88.863281 2.121094 88.769531 1.929688 88.59375 1.871094 C 88.15625 1.730469 87.71875 1.597656 87.277344 1.472656 C 87.09375 1.421875 86.90625 1.527344 86.855469 1.710938 C 86.847656 1.742188 86.84375 1.773438 86.84375 1.804688 C 86.84375 1.953125 86.941406 2.089844 87.089844 2.128906 C 87.523438 2.25 87.953125 2.382812 88.382812 2.519531 " fill-opacity="1" fill-rule="nonzero"/><path fill="#b08f80" d="M 88.394531 19.140625 C 88.21875 19.566406 88.058594 20 87.914062 20.441406 C 87.902344 20.476562 87.898438 20.511719 87.898438 20.546875 C 87.898438 20.691406 87.988281 20.824219 88.132812 20.871094 C 88.308594 20.929688 88.503906 20.832031 88.5625 20.652344 C 88.703125 20.230469 88.855469 19.808594 89.023438 19.398438 C 89.097656 19.222656 89.011719 19.023438 88.839844 18.953125 C 88.664062 18.882812 88.46875 18.964844 88.394531 19.140625 " fill-opacity="1" fill-rule="nonzero"/><path fill="#b08f80" d="M 103.3125 8.429688 C 103.746094 8.328125 104.1875 8.234375 104.628906 8.15625 C 104.816406 8.125 104.945312 7.949219 104.90625 7.761719 C 104.871094 7.574219 104.695312 7.453125 104.507812 7.484375 C 104.054688 7.566406 103.605469 7.660156 103.15625 7.765625 C 103 7.800781 102.894531 7.941406 102.894531 8.097656 C 102.894531 8.125 102.894531 8.148438 102.902344 8.171875 C 102.945312 8.359375 103.128906 8.46875 103.3125 8.429688 " fill-opacity="1" fill-rule="nonzero"/><path fill="#b08f80" d="M 50.828125 27.023438 C 50.457031 26.804688 50.117188 26.546875 49.816406 26.25 C 49.679688 26.117188 49.464844 26.121094 49.332031 26.253906 C 49.269531 26.320312 49.234375 26.40625 49.234375 26.492188 C 49.234375 26.582031 49.269531 26.667969 49.335938 26.734375 C 49.675781 27.070312 50.0625 27.367188 50.480469 27.613281 C 50.640625 27.707031 50.851562 27.652344 50.949219 27.488281 C 51.042969 27.328125 50.988281 27.121094 50.828125 27.023438 " fill-opacity="1" fill-rule="nonzero"/><path fill="#b08f80" d="M 90.917969 3.445312 C 91.335938 3.613281 91.75 3.792969 92.160156 3.976562 C 92.332031 4.054688 92.535156 3.976562 92.609375 3.804688 C 92.691406 3.632812 92.613281 3.433594 92.441406 3.355469 C 92.023438 3.164062 91.601562 2.984375 91.175781 2.8125 C 91.003906 2.742188 90.804688 2.824219 90.730469 3 C 90.714844 3.039062 90.707031 3.085938 90.707031 3.128906 C 90.707031 3.261719 90.789062 3.390625 90.917969 3.445312 " fill-opacity="1" fill-rule="nonzero"/><path fill="#b08f80" d="M 48.144531 22.824219 C 48.109375 22.636719 47.933594 22.515625 47.75 22.546875 C 47.585938 22.574219 47.46875 22.71875 47.46875 22.882812 C 47.46875 22.902344 47.46875 22.921875 47.472656 22.941406 C 47.5625 23.425781 47.679688 23.886719 47.832031 24.3125 C 47.894531 24.488281 48.089844 24.582031 48.265625 24.519531 C 48.445312 24.457031 48.539062 24.261719 48.472656 24.085938 C 48.335938 23.695312 48.222656 23.269531 48.144531 22.824219 " fill-opacity="1" fill-rule="nonzero"/><path fill="#b08f80" d="M 48.023438 20.1875 C 48.050781 19.761719 48.101562 19.316406 48.171875 18.867188 C 48.191406 18.679688 48.074219 18.503906 47.890625 18.476562 C 47.703125 18.445312 47.527344 18.574219 47.5 18.761719 C 47.425781 19.230469 47.375 19.695312 47.34375 20.144531 C 47.34375 20.152344 47.34375 20.160156 47.34375 20.167969 C 47.34375 20.34375 47.480469 20.492188 47.660156 20.503906 C 47.847656 20.519531 48.011719 20.375 48.023438 20.1875 " fill-opacity="1" fill-rule="nonzero"/><path fill="#b08f80" d="M 49.0625 14.566406 C 48.886719 14.496094 48.6875 14.582031 48.617188 14.753906 C 48.445312 15.179688 48.289062 15.617188 48.144531 16.058594 C 48.136719 16.09375 48.132812 16.128906 48.132812 16.164062 C 48.132812 16.308594 48.222656 16.441406 48.367188 16.488281 C 48.546875 16.546875 48.738281 16.449219 48.796875 16.269531 C 48.933594 15.84375 49.082031 15.421875 49.25 15.007812 C 49.320312 14.835938 49.234375 14.636719 49.0625 14.566406 " fill-opacity="1" fill-rule="nonzero"/><path fill="#b08f80" d="M 48.132812 9.820312 C 48.320312 9.820312 48.476562 9.667969 48.476562 9.476562 C 48.476562 9.289062 48.324219 9.136719 48.136719 9.136719 L 48.011719 9.136719 C 47.59375 9.136719 47.175781 9.148438 46.753906 9.171875 C 46.574219 9.179688 46.433594 9.332031 46.433594 9.507812 C 46.433594 9.515625 46.433594 9.523438 46.433594 9.527344 C 46.441406 9.71875 46.601562 9.859375 46.792969 9.851562 C 47.199219 9.828125 47.605469 9.820312 48.011719 9.820312 L 48.132812 9.820312 " fill-opacity="1" fill-rule="nonzero"/><path fill="#b08f80" d="M 44.011719 9.457031 C 43.558594 9.527344 43.109375 9.605469 42.65625 9.695312 C 42.492188 9.726562 42.378906 9.867188 42.378906 10.027344 C 42.378906 10.050781 42.382812 10.070312 42.386719 10.089844 C 42.421875 10.277344 42.601562 10.398438 42.789062 10.363281 C 43.226562 10.277344 43.671875 10.199219 44.113281 10.128906 C 44.296875 10.101562 44.429688 9.929688 44.398438 9.742188 C 44.371094 9.558594 44.199219 9.429688 44.011719 9.457031 " fill-opacity="1" fill-rule="nonzero"/><path fill="#b08f80" d="M 36.035156 11.414062 L 34.730469 11.800781 C 34.582031 11.847656 34.484375 11.980469 34.484375 12.128906 C 34.484375 12.160156 34.488281 12.195312 34.5 12.226562 C 34.550781 12.40625 34.742188 12.507812 34.921875 12.453125 L 36.226562 12.070312 C 36.40625 12.015625 36.511719 11.824219 36.457031 11.648438 C 36.40625 11.464844 36.214844 11.363281 36.035156 11.414062 " fill-opacity="1" fill-rule="nonzero"/><path fill="#b08f80" d="M 39.980469 10.304688 C 39.539062 10.421875 39.097656 10.539062 38.660156 10.660156 C 38.507812 10.703125 38.410156 10.839844 38.410156 10.992188 C 38.410156 11.019531 38.414062 11.050781 38.421875 11.082031 C 38.472656 11.261719 38.660156 11.367188 38.839844 11.316406 C 39.277344 11.199219 39.714844 11.082031 40.152344 10.96875 C 40.335938 10.917969 40.441406 10.734375 40.398438 10.550781 C 40.351562 10.367188 40.164062 10.261719 39.980469 10.304688 " fill-opacity="1" fill-rule="nonzero"/><path fill="#b08f80" d="M 32.117188 12.558594 C 31.679688 12.679688 31.246094 12.800781 30.808594 12.914062 C 30.652344 12.953125 30.554688 13.089844 30.554688 13.242188 C 30.554688 13.269531 30.558594 13.300781 30.5625 13.328125 C 30.613281 13.511719 30.800781 13.621094 30.980469 13.574219 C 31.421875 13.457031 31.859375 13.335938 32.300781 13.214844 C 32.480469 13.164062 32.585938 12.976562 32.535156 12.792969 C 32.484375 12.613281 32.296875 12.507812 32.117188 12.558594 " fill-opacity="1" fill-rule="nonzero"/><path fill="#b08f80" d="M 107.269531 17.152344 C 107.082031 16.734375 106.875 16.320312 106.660156 15.910156 C 106.570312 15.746094 106.363281 15.683594 106.195312 15.773438 C 106.082031 15.832031 106.019531 15.953125 106.019531 16.074219 C 106.019531 16.128906 106.03125 16.183594 106.054688 16.234375 C 106.269531 16.628906 106.464844 17.03125 106.648438 17.433594 C 106.726562 17.605469 106.929688 17.683594 107.101562 17.605469 C 107.273438 17.527344 107.347656 17.328125 107.269531 17.152344 " fill-opacity="1" fill-rule="nonzero"/><path fill="#b08f80" d="M 124.316406 11.398438 C 123.929688 11.15625 123.535156 10.925781 123.136719 10.699219 C 122.976562 10.605469 122.765625 10.660156 122.671875 10.824219 C 122.644531 10.878906 122.628906 10.9375 122.628906 10.992188 C 122.628906 11.113281 122.691406 11.226562 122.800781 11.289062 C 123.191406 11.511719 123.578125 11.742188 123.960938 11.980469 C 124.121094 12.078125 124.332031 12.027344 124.429688 11.867188 C 124.53125 11.707031 124.480469 11.496094 124.316406 11.398438 " fill-opacity="1" fill-rule="nonzero"/><path fill="#b08f80" d="M 108.621094 7.046875 C 108.160156 7.0625 107.699219 7.089844 107.242188 7.128906 C 107.066406 7.144531 106.929688 7.292969 106.929688 7.46875 C 106.929688 7.476562 106.929688 7.484375 106.929688 7.496094 C 106.945312 7.683594 107.109375 7.824219 107.296875 7.804688 C 107.746094 7.769531 108.195312 7.746094 108.640625 7.730469 C 108.828125 7.722656 108.9375 7.570312 108.972656 7.378906 C 108.964844 7.191406 108.808594 7.042969 108.621094 7.046875 " fill-opacity="1" fill-rule="nonzero"/><path fill="#b08f80" d="M 126.617188 12.886719 C 126.464844 12.78125 126.25 12.824219 126.144531 12.980469 C 126.105469 13.035156 126.085938 13.101562 126.085938 13.167969 C 126.085938 13.277344 126.140625 13.386719 126.238281 13.453125 C 126.613281 13.703125 126.984375 13.960938 127.355469 14.21875 C 127.511719 14.328125 127.726562 14.289062 127.832031 14.132812 C 127.9375 13.980469 127.898438 13.765625 127.746094 13.660156 C 127.371094 13.398438 126.996094 13.140625 126.617188 12.886719 " fill-opacity="1" fill-rule="nonzero"/><path fill="#b08f80" d="M 134.503906 18.230469 C 134.117188 17.996094 133.734375 17.757812 133.355469 17.511719 C 133.195312 17.410156 132.984375 17.457031 132.882812 17.613281 C 132.847656 17.671875 132.828125 17.734375 132.828125 17.796875 C 132.828125 17.910156 132.882812 18.019531 132.984375 18.085938 C 133.371094 18.332031 133.757812 18.574219 134.148438 18.8125 C 134.308594 18.910156 134.515625 18.859375 134.617188 18.699219 C 134.710938 18.539062 134.660156 18.328125 134.503906 18.230469 " fill-opacity="1" fill-rule="nonzero"/><path fill="#b08f80" d="M 116.8125 8 C 116.371094 7.875 115.921875 7.765625 115.472656 7.667969 C 115.289062 7.625 115.105469 7.742188 115.066406 7.925781 C 115.0625 7.949219 115.058594 7.976562 115.058594 8 C 115.058594 8.15625 115.164062 8.296875 115.324219 8.332031 C 115.765625 8.429688 116.199219 8.535156 116.632812 8.65625 C 116.8125 8.707031 117 8.597656 117.050781 8.417969 C 117.101562 8.234375 116.992188 8.050781 116.8125 8 " fill-opacity="1" fill-rule="nonzero"/><path fill="#b08f80" d="M 112.75 7.214844 C 112.292969 7.160156 111.835938 7.121094 111.375 7.089844 C 111.1875 7.078125 111.027344 7.222656 111.015625 7.40625 C 111.015625 7.417969 111.015625 7.425781 111.015625 7.429688 C 111.015625 7.609375 111.152344 7.757812 111.332031 7.769531 C 111.78125 7.800781 112.226562 7.839844 112.671875 7.890625 C 112.859375 7.914062 113.027344 7.777344 113.050781 7.589844 C 113.0625 7.40625 112.9375 7.234375 112.75 7.214844 " fill-opacity="1" fill-rule="nonzero"/><path fill="#b08f80" d="M 138.070312 20.132812 C 137.660156 19.949219 137.257812 19.753906 136.855469 19.550781 C 136.6875 19.464844 136.484375 19.53125 136.398438 19.699219 C 136.375 19.75 136.359375 19.800781 136.359375 19.855469 C 136.359375 19.976562 136.429688 20.097656 136.546875 20.160156 C 136.957031 20.367188 137.371094 20.566406 137.785156 20.753906 C 137.957031 20.832031 138.160156 20.757812 138.238281 20.585938 C 138.316406 20.414062 138.242188 20.210938 138.070312 20.132812 " fill-opacity="1" fill-rule="nonzero"/><path fill="#b08f80" d="M 120.695312 9.429688 C 120.28125 9.238281 119.859375 9.054688 119.429688 8.882812 C 119.253906 8.8125 119.054688 8.898438 118.988281 9.070312 C 118.96875 9.113281 118.960938 9.15625 118.960938 9.199219 C 118.960938 9.332031 119.042969 9.460938 119.175781 9.515625 C 119.589844 9.683594 120.003906 9.859375 120.40625 10.050781 C 120.578125 10.128906 120.78125 10.054688 120.863281 9.882812 C 120.941406 9.710938 120.867188 9.507812 120.695312 9.429688 " fill-opacity="1" fill-rule="nonzero"/><path fill="#b08f80" d="M 129.980469 15.222656 C 129.828125 15.113281 129.613281 15.152344 129.507812 15.308594 C 129.464844 15.367188 129.445312 15.433594 129.445312 15.503906 C 129.445312 15.609375 129.496094 15.714844 129.589844 15.78125 L 130.707031 16.5625 C 130.867188 16.667969 131.078125 16.628906 131.183594 16.476562 C 131.289062 16.320312 131.253906 16.109375 131.097656 16.003906 L 129.980469 15.222656 " fill-opacity="1" fill-rule="nonzero"/><path fill="#b08f80" d="M 141.859375 21.472656 C 141.421875 21.363281 140.992188 21.242188 140.570312 21.105469 C 140.390625 21.046875 140.199219 21.144531 140.140625 21.324219 C 140.132812 21.359375 140.125 21.394531 140.125 21.429688 C 140.125 21.570312 140.21875 21.707031 140.363281 21.753906 C 140.800781 21.894531 141.242188 22.019531 141.691406 22.136719 C 141.875 22.179688 142.058594 22.070312 142.101562 21.886719 C 142.15625 21.703125 142.039062 21.519531 141.859375 21.472656 " fill-opacity="1" fill-rule="nonzero"/><path fill="#b08f80" d="M 161.84375 19.578125 C 161.398438 19.671875 160.957031 19.769531 160.511719 19.871094 C 160.355469 19.90625 160.246094 20.046875 160.246094 20.203125 C 160.246094 20.226562 160.25 20.253906 160.253906 20.277344 C 160.292969 20.460938 160.476562 20.578125 160.664062 20.535156 C 161.101562 20.433594 161.546875 20.335938 161.988281 20.242188 C 162.175781 20.203125 162.285156 20.023438 162.25 19.835938 C 162.210938 19.652344 162.03125 19.535156 161.84375 19.578125 " fill-opacity="1" fill-rule="nonzero"/><path fill="#b08f80" d="M 157.855469 20.480469 C 157.414062 20.582031 156.96875 20.683594 156.527344 20.78125 C 156.367188 20.816406 156.261719 20.957031 156.261719 21.113281 C 156.261719 21.136719 156.261719 21.160156 156.269531 21.1875 C 156.3125 21.371094 156.492188 21.488281 156.675781 21.445312 C 157.121094 21.347656 157.5625 21.246094 158.007812 21.144531 C 158.191406 21.101562 158.304688 20.917969 158.261719 20.734375 C 158.21875 20.550781 158.035156 20.4375 157.855469 20.480469 " fill-opacity="1" fill-rule="nonzero"/><path fill="#b08f80" d="M 170 18.464844 C 169.542969 18.476562 169.082031 18.496094 168.621094 18.527344 C 168.445312 18.542969 168.308594 18.691406 168.308594 18.871094 C 168.308594 18.875 168.308594 18.886719 168.308594 18.894531 C 168.320312 19.082031 168.484375 19.222656 168.671875 19.207031 C 169.121094 19.179688 169.570312 19.15625 170.015625 19.144531 C 170.203125 19.140625 170.347656 18.984375 170.351562 18.796875 C 170.34375 18.609375 170.1875 18.460938 170 18.464844 " fill-opacity="1" fill-rule="nonzero"/><path fill="#b08f80" d="M 165.886719 18.832031 C 165.4375 18.898438 164.984375 18.96875 164.535156 19.046875 C 164.371094 19.078125 164.253906 19.21875 164.253906 19.382812 C 164.253906 19.402344 164.253906 19.421875 164.257812 19.441406 C 164.289062 19.628906 164.464844 19.75 164.648438 19.71875 C 165.097656 19.640625 165.542969 19.570312 165.988281 19.503906 C 166.171875 19.476562 166.3125 19.304688 166.273438 19.117188 C 166.246094 18.933594 166.074219 18.800781 165.886719 18.832031 " fill-opacity="1" fill-rule="nonzero"/><path fill="#b08f80" d="M 145.828125 22.054688 C 145.382812 22.035156 144.9375 22 144.492188 21.949219 C 144.304688 21.929688 144.136719 22.0625 144.117188 22.25 C 144.117188 22.261719 144.113281 22.273438 144.113281 22.285156 C 144.113281 22.460938 144.242188 22.609375 144.414062 22.625 C 144.875 22.679688 145.335938 22.714844 145.796875 22.738281 C 145.984375 22.746094 146.144531 22.601562 146.152344 22.414062 C 146.144531 22.230469 146.019531 22.066406 145.828125 22.054688 " fill-opacity="1" fill-rule="nonzero"/><path fill="#b08f80" d="M 149.859375 21.941406 C 149.410156 21.984375 148.964844 22.019531 148.515625 22.042969 C 148.332031 22.054688 148.195312 22.203125 148.195312 22.382812 C 148.195312 22.390625 148.195312 22.398438 148.195312 22.402344 C 148.203125 22.589844 148.367188 22.734375 148.554688 22.722656 C 149.011719 22.699219 149.46875 22.664062 149.925781 22.617188 C 150.113281 22.597656 150.253906 22.433594 150.230469 22.246094 C 150.214844 22.058594 150.046875 21.921875 149.859375 21.941406 " fill-opacity="1" fill-rule="nonzero"/><path fill="#b08f80" d="M 153.871094 21.335938 C 153.425781 21.421875 152.984375 21.503906 152.539062 21.578125 C 152.371094 21.605469 152.253906 21.75 152.253906 21.914062 C 152.253906 21.929688 152.253906 21.949219 152.257812 21.96875 C 152.289062 22.15625 152.464844 22.28125 152.648438 22.25 C 153.097656 22.175781 153.550781 22.09375 154 22.007812 C 154.183594 21.96875 154.320312 21.792969 154.269531 21.605469 C 154.234375 21.421875 154.054688 21.300781 153.871094 21.335938 " fill-opacity="1" fill-rule="nonzero"/><path fill="#b08f80" d="M 92.007812 34.949219 C 91.628906 34.722656 91.269531 34.46875 90.941406 34.191406 C 90.796875 34.070312 90.582031 34.089844 90.460938 34.234375 C 90.40625 34.296875 90.382812 34.375 90.382812 34.453125 C 90.382812 34.550781 90.421875 34.648438 90.503906 34.714844 C 90.859375 35.011719 91.25 35.289062 91.65625 35.53125 C 91.816406 35.628906 92.027344 35.578125 92.125 35.417969 C 92.222656 35.253906 92.167969 35.046875 92.007812 34.949219 " fill-opacity="1" fill-rule="nonzero"/><path fill="#b08f80" d="M 95.714844 36.253906 C 95.269531 36.179688 94.835938 36.085938 94.425781 35.972656 C 94.242188 35.921875 94.054688 36.027344 94.003906 36.207031 C 93.996094 36.238281 93.992188 36.269531 93.992188 36.300781 C 93.992188 36.449219 94.089844 36.585938 94.242188 36.625 C 94.675781 36.75 95.136719 36.847656 95.605469 36.925781 C 95.792969 36.957031 95.96875 36.832031 96 36.644531 C 96.027344 36.460938 95.902344 36.285156 95.714844 36.253906 " fill-opacity="1" fill-rule="nonzero"/><path fill="#b08f80" d="M 99.070312 8.148438 C 99.222656 8.261719 99.4375 8.234375 99.550781 8.085938 C 99.664062 7.9375 99.636719 7.726562 99.492188 7.609375 L 99.277344 7.445312 C 98.988281 7.21875 98.691406 7 98.390625 6.785156 C 98.238281 6.675781 98.023438 6.707031 97.917969 6.863281 C 97.875 6.921875 97.851562 6.992188 97.851562 7.058594 C 97.851562 7.167969 97.902344 7.269531 97.992188 7.335938 C 98.289062 7.546875 98.578125 7.765625 98.863281 7.984375 L 99.070312 8.148438 " fill-opacity="1" fill-rule="nonzero"/><path fill="#b08f80" d="M 87.316406 26.917969 C 87.136719 26.929688 87.003906 27.082031 87.003906 27.257812 C 87.003906 27.265625 87.003906 27.273438 87.003906 27.285156 C 87.042969 27.761719 87.097656 28.226562 87.179688 28.667969 C 87.210938 28.855469 87.386719 28.976562 87.574219 28.941406 C 87.757812 28.910156 87.882812 28.734375 87.847656 28.546875 C 87.773438 28.128906 87.71875 27.683594 87.683594 27.230469 C 87.667969 27.042969 87.503906 26.902344 87.316406 26.917969 " fill-opacity="1" fill-rule="nonzero"/><path fill="#b08f80" d="M 96.710938 10.179688 C 96.304688 10.398438 95.90625 10.628906 95.515625 10.871094 C 95.410156 10.933594 95.351562 11.046875 95.351562 11.160156 C 95.351562 11.222656 95.367188 11.28125 95.402344 11.339844 C 95.503906 11.5 95.710938 11.550781 95.871094 11.453125 C 96.253906 11.214844 96.640625 10.992188 97.035156 10.777344 C 97.199219 10.691406 97.261719 10.484375 97.171875 10.316406 C 97.082031 10.152344 96.875 10.089844 96.710938 10.179688 " fill-opacity="1" fill-rule="nonzero"/><path fill="#b08f80" d="M 93.253906 12.464844 C 93.101562 12.585938 92.945312 12.710938 92.796875 12.839844 C 92.597656 13.011719 92.398438 13.1875 92.203125 13.375 C 92.132812 13.441406 92.101562 13.53125 92.101562 13.621094 C 92.101562 13.707031 92.132812 13.789062 92.191406 13.859375 C 92.324219 13.992188 92.539062 14 92.675781 13.867188 C 92.859375 13.691406 93.046875 13.519531 93.238281 13.359375 C 93.382812 13.234375 93.53125 13.113281 93.679688 12.996094 C 93.828125 12.875 93.851562 12.664062 93.734375 12.515625 C 93.613281 12.367188 93.402344 12.34375 93.253906 12.464844 " fill-opacity="1" fill-rule="nonzero"/><path fill="#b08f80" d="M 90.867188 15.410156 C 90.714844 15.304688 90.503906 15.339844 90.394531 15.492188 C 90.132812 15.855469 89.878906 16.25 89.632812 16.65625 C 89.601562 16.710938 89.585938 16.769531 89.585938 16.832031 C 89.585938 16.945312 89.644531 17.058594 89.753906 17.125 C 89.914062 17.21875 90.125 17.164062 90.21875 17.003906 C 90.453125 16.613281 90.699219 16.238281 90.945312 15.886719 C 91.0625 15.734375 91.019531 15.519531 90.867188 15.410156 " fill-opacity="1" fill-rule="nonzero"/><path fill="#b08f80" d="M 87.628906 22.851562 C 87.445312 22.820312 87.265625 22.941406 87.234375 23.128906 C 87.152344 23.585938 87.089844 24.042969 87.042969 24.5 C 87.042969 24.511719 87.042969 24.527344 87.042969 24.535156 C 87.042969 24.710938 87.175781 24.859375 87.351562 24.875 C 87.539062 24.894531 87.703125 24.757812 87.722656 24.570312 C 87.765625 24.128906 87.824219 23.6875 87.90625 23.246094 C 87.949219 23.0625 87.816406 22.882812 87.628906 22.851562 " fill-opacity="1" fill-rule="nonzero"/><path fill="#b08f80" d="M 88.609375 31.070312 C 88.53125 30.898438 88.332031 30.820312 88.160156 30.898438 C 88.035156 30.957031 87.960938 31.082031 87.960938 31.210938 C 87.960938 31.257812 87.96875 31.304688 87.988281 31.351562 C 88.183594 31.785156 88.40625 32.203125 88.652344 32.589844 C 88.75 32.75 88.960938 32.800781 89.121094 32.699219 C 89.28125 32.597656 89.328125 32.386719 89.226562 32.230469 C 89 31.867188 88.789062 31.476562 88.609375 31.070312 " fill-opacity="1" fill-rule="nonzero"/><path fill="#b08f80" d="M 102.554688 10.855469 C 102.691406 10.722656 102.691406 10.507812 102.5625 10.375 C 102.242188 10.042969 101.914062 9.71875 101.582031 9.40625 C 101.445312 9.277344 101.230469 9.285156 101.097656 9.421875 C 101.039062 9.484375 101.007812 9.570312 101.007812 9.65625 C 101.007812 9.746094 101.042969 9.835938 101.113281 9.902344 C 101.441406 10.210938 101.761719 10.523438 102.074219 10.847656 C 102.203125 10.984375 102.417969 10.988281 102.554688 10.855469 " fill-opacity="1" fill-rule="nonzero"/><path fill="#b08f80" d="M 108.015625 27.582031 C 107.839844 27.523438 107.648438 27.625 107.589844 27.804688 C 107.457031 28.222656 107.300781 28.640625 107.125 29.046875 C 107.105469 29.089844 107.09375 29.136719 107.09375 29.183594 C 107.09375 29.3125 107.171875 29.4375 107.300781 29.496094 C 107.476562 29.570312 107.675781 29.488281 107.75 29.316406 C 107.933594 28.890625 108.097656 28.449219 108.238281 28.007812 C 108.289062 27.828125 108.195312 27.636719 108.015625 27.582031 " fill-opacity="1" fill-rule="nonzero"/><path fill="#b08f80" d="M 105.835938 31.371094 C 105.585938 31.734375 105.3125 32.085938 105.03125 32.425781 C 104.976562 32.488281 104.949219 32.566406 104.949219 32.644531 C 104.949219 32.742188 104.988281 32.835938 105.070312 32.90625 C 105.210938 33.027344 105.425781 33.007812 105.546875 32.863281 C 105.847656 32.511719 106.136719 32.136719 106.398438 31.753906 C 106.503906 31.601562 106.464844 31.390625 106.308594 31.28125 C 106.15625 31.175781 105.941406 31.214844 105.835938 31.371094 " fill-opacity="1" fill-rule="nonzero"/><path fill="#b08f80" d="M 105.203125 13.558594 C 104.941406 13.183594 104.664062 12.8125 104.378906 12.453125 C 104.261719 12.304688 104.046875 12.277344 103.902344 12.394531 C 103.816406 12.460938 103.769531 12.5625 103.769531 12.664062 C 103.769531 12.738281 103.792969 12.8125 103.84375 12.875 C 104.121094 13.226562 104.390625 13.585938 104.644531 13.949219 C 104.753906 14.105469 104.964844 14.140625 105.121094 14.035156 C 105.273438 13.925781 105.308594 13.714844 105.203125 13.558594 " fill-opacity="1" fill-rule="nonzero"/><path fill="#b08f80" d="M 108.28125 21.507812 C 108.464844 21.472656 108.59375 21.296875 108.546875 21.113281 C 108.460938 20.667969 108.355469 20.210938 108.222656 19.757812 C 108.171875 19.578125 107.984375 19.472656 107.804688 19.523438 C 107.65625 19.566406 107.554688 19.703125 107.554688 19.851562 C 107.554688 19.882812 107.5625 19.910156 107.570312 19.945312 C 107.691406 20.378906 107.796875 20.816406 107.878906 21.238281 C 107.914062 21.425781 108.09375 21.542969 108.28125 21.507812 " fill-opacity="1" fill-rule="nonzero"/><path fill="#b08f80" d="M 103.117188 34.257812 C 102.761719 34.53125 102.394531 34.78125 102.023438 35.003906 C 101.917969 35.066406 101.855469 35.179688 101.855469 35.296875 C 101.855469 35.355469 101.875 35.414062 101.90625 35.472656 C 102 35.632812 102.210938 35.683594 102.371094 35.585938 C 102.765625 35.355469 103.15625 35.089844 103.53125 34.796875 C 103.679688 34.683594 103.710938 34.46875 103.59375 34.320312 C 103.480469 34.171875 103.265625 34.144531 103.117188 34.257812 " fill-opacity="1" fill-rule="nonzero"/><path fill="#b08f80" d="M 99.613281 36.054688 C 99.191406 36.171875 98.757812 36.261719 98.332031 36.316406 C 98.160156 36.339844 98.035156 36.484375 98.035156 36.652344 C 98.035156 36.667969 98.035156 36.683594 98.039062 36.695312 C 98.0625 36.882812 98.230469 37.015625 98.417969 36.992188 C 98.878906 36.933594 99.34375 36.835938 99.800781 36.710938 C 99.980469 36.65625 100.085938 36.46875 100.035156 36.289062 C 99.984375 36.105469 99.796875 36 99.613281 36.054688 " fill-opacity="1" fill-rule="nonzero"/><path fill="#b08f80" d="M 100.503906 8.523438 C 100.070312 8.675781 99.636719 8.835938 99.210938 9.007812 C 99.078125 9.0625 99 9.1875 99 9.324219 C 99 9.367188 99.007812 9.410156 99.023438 9.449219 C 99.09375 9.625 99.292969 9.710938 99.464844 9.640625 C 99.882812 9.472656 100.300781 9.316406 100.726562 9.167969 C 100.902344 9.109375 101.003906 8.914062 100.9375 8.738281 C 100.875 8.558594 100.683594 8.464844 100.503906 8.523438 " fill-opacity="1" fill-rule="nonzero"/><path fill="#b08f80" d="M 108.496094 23.539062 C 108.308594 23.542969 108.183594 23.710938 108.160156 23.886719 L 108.164062 24.15625 L 108.164062 24.320312 C 108.160156 24.617188 108.144531 24.914062 108.117188 25.210938 C 108.113281 25.21875 108.113281 25.230469 108.113281 25.242188 C 108.113281 25.417969 108.25 25.566406 108.425781 25.578125 C 108.613281 25.597656 108.777344 25.460938 108.796875 25.273438 C 108.824219 24.957031 108.839844 24.644531 108.84375 24.332031 L 108.847656 24.15625 L 108.84375 23.875 C 108.839844 23.6875 108.6875 23.535156 108.496094 23.539062 " fill-opacity="1" fill-rule="nonzero"/></svg>