<svg xmlns="http://www.w3.org/2000/svg" xmlns:xlink="http://www.w3.org/1999/xlink" width="300" zoomAndPan="magnify" viewBox="0 0 224.87999 52.499999" height="70" preserveAspectRatio="xMidYMid meet" version="1.0"><defs><g/><clipPath id="54f2eec74b"><path d="M 56 13 L 223.761719 13 L 223.761719 40 L 56 40 Z M 56 13 " clip-rule="nonzero"/></clipPath></defs><g clip-path="url(#54f2eec74b)"><path stroke-linecap="round" transform="matrix(0.742916, -0.00348417, 0.00348417, 0.742916, 68.273791, 25.61771)" fill="none" stroke-linejoin="miter" d="M 1.501536 1.499609 L 207.946193 1.500334 " stroke="#f2b705" stroke-width="3" stroke-opacity="1" stroke-miterlimit="4"/></g><g fill="#fabb17" fill-opacity="1"><g transform="translate(1.001319, 21.911096)"><g><path d="M 0.15625 0 L 1.753906 0 L 2.027344 -0.757812 L 4.363281 -0.757812 L 4.648438 0 L 6.230469 0 L 3.269531 -7.296875 L 3.121094 -7.296875 Z M 2.539062 -2.078125 L 3.199219 -3.910156 L 3.839844 -2.078125 Z M 2.539062 -2.078125 "/></g></g></g><g fill="#fabb17" fill-opacity="1"><g transform="translate(7.427528, 21.911096)"><g><path d="M 0.789062 -7.039062 L 0.789062 0 L 4.429688 0 L 4.429688 -1.40625 L 2.195312 -1.40625 L 2.195312 -7.039062 Z M 0.789062 -7.039062 "/></g></g></g><g fill="#fabb17" fill-opacity="1"><g transform="translate(12.279166, 21.911096)"><g><path d="M 5.867188 -0.433594 L 5.867188 -3.523438 L 4.441406 -3.523438 L 4.441406 -1.40625 C 4.3125 -1.386719 4.175781 -1.367188 4.046875 -1.367188 C 1.328125 -1.367188 1.199219 -5.574219 4.046875 -5.671875 C 4.792969 -5.691406 5.246094 -5.53125 5.523438 -5.414062 L 5.691406 -6.84375 C 5.5625 -6.882812 4.882812 -7.128906 4.046875 -7.097656 C -0.835938 -6.921875 -0.601562 0.0390625 4.046875 0.0390625 C 4.714844 0.0390625 5.328125 -0.128906 5.867188 -0.433594 Z M 5.867188 -0.433594 "/></g></g></g><g fill="#fabb17" fill-opacity="1"><g transform="translate(18.902192, 21.911096)"><g><path d="M 5.839844 -2.453125 L 5.839844 -7.039062 L 4.441406 -7.039062 L 4.441406 -2.460938 C 4.441406 -0.984375 2.15625 -0.984375 2.15625 -2.460938 L 2.15625 -7.039062 L 0.75 -7.039062 L 0.75 -2.453125 C 0.75 0.894531 5.839844 0.894531 5.839844 -2.453125 Z M 5.839844 -2.453125 "/></g></g></g><g fill="#fabb17" fill-opacity="1"><g transform="translate(25.505541, 21.911096)"><g><path d="M 2.195312 -3.828125 L 5.757812 0.148438 L 6.132812 0.148438 L 6.132812 -7.03125 L 4.714844 -7.03125 L 4.714844 -3.050781 L 1.160156 -7.1875 L 0.789062 -7.1875 L 0.789062 0 L 2.195312 0 Z M 2.195312 -3.828125 "/></g></g></g><g fill="#fabb17" fill-opacity="1"><g transform="translate(32.433641, 21.911096)"><g><path d="M 4.175781 0.0976562 C 9.019531 0.0976562 9.019531 -7.15625 4.175781 -7.15625 C -0.667969 -7.15625 -0.667969 0.0976562 4.175781 0.0976562 Z M 4.175781 -1.359375 C 1.359375 -1.359375 1.359375 -5.710938 4.175781 -5.710938 C 6.988281 -5.710938 6.988281 -1.359375 4.175781 -1.359375 Z M 4.175781 -1.359375 "/></g></g></g><g fill="#fabb17" fill-opacity="1"><g transform="translate(40.76901, 21.911096)"><g><path d="M 0.460938 -0.453125 C 1.417969 0.0390625 2.292969 0.0898438 2.6875 0.0585938 C 4.007812 -0.0117188 4.8125 -0.90625 4.8125 -2.078125 C 4.8125 -3.199219 3.871094 -3.828125 2.777344 -4.234375 C 2.371094 -4.371094 2.027344 -4.546875 1.988281 -4.941406 C 1.960938 -5.335938 2.1875 -5.699219 2.6875 -5.730469 C 2.90625 -5.738281 3.347656 -5.75 4.125 -5.433594 L 4.300781 -6.792969 C 3.398438 -7.109375 2.914062 -7.109375 2.550781 -7.089844 C 1.378906 -7.03125 0.5625 -6.125 0.5625 -4.941406 C 0.5625 -3.761719 1.546875 -3.199219 2.648438 -2.796875 C 3.042969 -2.65625 3.347656 -2.480469 3.375 -2.078125 C 3.417969 -1.695312 3.0625 -1.398438 2.648438 -1.367188 C 2.324219 -1.339844 1.445312 -1.359375 0.640625 -1.929688 Z M 0.460938 -0.453125 "/></g></g></g><g fill="#fabb17" fill-opacity="1"><g transform="translate(45.974926, 21.911096)"><g/></g></g><g fill="#fabb17" fill-opacity="1"><g transform="translate(48.769785, 21.911096)"><g><path d="M 2.882812 -7.039062 L 0.789062 -7.039062 L 0.789062 0 L 2.882812 0 C 7.570312 0 7.570312 -7.039062 2.882812 -7.039062 Z M 2.882812 -5.632812 C 5.621094 -5.632812 5.621094 -1.40625 2.882812 -1.40625 L 2.195312 -1.40625 L 2.195312 -5.632812 Z M 2.882812 -5.632812 "/></g></g></g><g fill="#fabb17" fill-opacity="1"><g transform="translate(55.697886, 21.911096)"><g><path d="M 4.429688 0 L 4.429688 -1.40625 L 2.195312 -1.40625 L 2.195312 -2.816406 L 4.046875 -2.816406 L 4.046875 -4.222656 L 2.195312 -4.222656 L 2.195312 -5.632812 L 4.3125 -5.632812 L 4.3125 -7.039062 L 0.789062 -7.039062 L 0.789062 0 Z M 4.429688 0 "/></g></g></g><g fill="#fabb17" fill-opacity="1"><g transform="translate(1.001319, 35.685381)"><g><path d="M 4.015625 -4.054688 L 1.242188 -7.148438 L 0.789062 -7.148438 L 0.789062 0 L 2.214844 0 L 2.214844 -3.929688 L 4.015625 -2.039062 L 5.820312 -3.929688 L 5.808594 0 L 7.234375 0 L 7.234375 -7.148438 L 6.792969 -7.148438 Z M 4.015625 -4.054688 "/></g></g></g><g fill="#fabb17" fill-opacity="1"><g transform="translate(9.031619, 35.685381)"><g><path d="M 2.195312 0 L 2.195312 -7.039062 L 0.789062 -7.039062 L 0.789062 0 Z M 2.195312 0 "/></g></g></g><g fill="#fabb17" fill-opacity="1"><g transform="translate(12.0233, 35.685381)"><g><path d="M 0.460938 -0.453125 C 1.417969 0.0390625 2.292969 0.0898438 2.6875 0.0585938 C 4.007812 -0.0117188 4.8125 -0.90625 4.8125 -2.078125 C 4.8125 -3.199219 3.871094 -3.828125 2.777344 -4.234375 C 2.371094 -4.371094 2.027344 -4.546875 1.988281 -4.941406 C 1.960938 -5.335938 2.1875 -5.699219 2.6875 -5.730469 C 2.90625 -5.738281 3.347656 -5.75 4.125 -5.433594 L 4.300781 -6.792969 C 3.398438 -7.109375 2.914062 -7.109375 2.550781 -7.089844 C 1.378906 -7.03125 0.5625 -6.125 0.5625 -4.941406 C 0.5625 -3.761719 1.546875 -3.199219 2.648438 -2.796875 C 3.042969 -2.65625 3.347656 -2.480469 3.375 -2.078125 C 3.417969 -1.695312 3.0625 -1.398438 2.648438 -1.367188 C 2.324219 -1.339844 1.445312 -1.359375 0.640625 -1.929688 Z M 0.460938 -0.453125 "/></g></g></g><g fill="#fabb17" fill-opacity="1"><g transform="translate(17.229216, 35.685381)"><g/></g></g><g fill="#fabb17" fill-opacity="1"><g transform="translate(20.024075, 35.685381)"><g><path d="M 5.265625 -5.40625 L 5.433594 -6.851562 C 5.011719 -7.039062 4.539062 -7.128906 4.046875 -7.128906 C -0.71875 -7.128906 -0.730469 0.0195312 4.046875 0.0195312 C 4.539062 0.0195312 5.160156 -0.0976562 5.59375 -0.277344 L 5.40625 -1.734375 C 5.140625 -1.59375 4.65625 -1.417969 4.046875 -1.417969 C 1.261719 -1.417969 1.261719 -5.710938 4.046875 -5.710938 C 4.65625 -5.710938 5 -5.542969 5.265625 -5.40625 Z M 5.265625 -5.40625 "/></g></g></g><g fill="#fabb17" fill-opacity="1"><g transform="translate(25.948387, 35.685381)"><g><path d="M 0.789062 -7.039062 L 0.789062 0 L 4.429688 0 L 4.429688 -1.40625 L 2.195312 -1.40625 L 2.195312 -7.039062 Z M 0.789062 -7.039062 "/></g></g></g><g fill="#fabb17" fill-opacity="1"><g transform="translate(30.800025, 35.685381)"><g><path d="M 2.195312 0 L 2.195312 -7.039062 L 0.789062 -7.039062 L 0.789062 0 Z M 2.195312 0 "/></g></g></g><g fill="#fabb17" fill-opacity="1"><g transform="translate(33.791707, 35.685381)"><g><path d="M 4.429688 0 L 4.429688 -1.40625 L 2.195312 -1.40625 L 2.195312 -2.816406 L 4.046875 -2.816406 L 4.046875 -4.222656 L 2.195312 -4.222656 L 2.195312 -5.632812 L 4.3125 -5.632812 L 4.3125 -7.039062 L 0.789062 -7.039062 L 0.789062 0 Z M 4.429688 0 "/></g></g></g><g fill="#fabb17" fill-opacity="1"><g transform="translate(38.751598, 35.685381)"><g><path d="M 2.195312 -3.828125 L 5.757812 0.148438 L 6.132812 0.148438 L 6.132812 -7.03125 L 4.714844 -7.03125 L 4.714844 -3.050781 L 1.160156 -7.1875 L 0.789062 -7.1875 L 0.789062 0 L 2.195312 0 Z M 2.195312 -3.828125 "/></g></g></g><g fill="#fabb17" fill-opacity="1"><g transform="translate(45.679698, 35.685381)"><g><path d="M 3.355469 0 L 3.355469 -5.632812 L 5.109375 -5.632812 L 5.109375 -7.03125 L 0.195312 -7.03125 L 0.195312 -5.632812 L 1.949219 -5.632812 L 1.949219 0 Z M 3.355469 0 "/></g></g></g><g fill="#fabb17" fill-opacity="1"><g transform="translate(51.062753, 35.685381)"><g><path d="M 4.429688 0 L 4.429688 -1.40625 L 2.195312 -1.40625 L 2.195312 -2.816406 L 4.046875 -2.816406 L 4.046875 -4.222656 L 2.195312 -4.222656 L 2.195312 -5.632812 L 4.3125 -5.632812 L 4.3125 -7.039062 L 0.789062 -7.039062 L 0.789062 0 Z M 4.429688 0 "/></g></g></g><g fill="#fabb17" fill-opacity="1"><g transform="translate(56.022644, 35.685381)"><g><path d="M 0.460938 -0.453125 C 1.417969 0.0390625 2.292969 0.0898438 2.6875 0.0585938 C 4.007812 -0.0117188 4.8125 -0.90625 4.8125 -2.078125 C 4.8125 -3.199219 3.871094 -3.828125 2.777344 -4.234375 C 2.371094 -4.371094 2.027344 -4.546875 1.988281 -4.941406 C 1.960938 -5.335938 2.1875 -5.699219 2.6875 -5.730469 C 2.90625 -5.738281 3.347656 -5.75 4.125 -5.433594 L 4.300781 -6.792969 C 3.398438 -7.109375 2.914062 -7.109375 2.550781 -7.089844 C 1.378906 -7.03125 0.5625 -6.125 0.5625 -4.941406 C 0.5625 -3.761719 1.546875 -3.199219 2.648438 -2.796875 C 3.042969 -2.65625 3.347656 -2.480469 3.375 -2.078125 C 3.417969 -1.695312 3.0625 -1.398438 2.648438 -1.367188 C 2.324219 -1.339844 1.445312 -1.359375 0.640625 -1.929688 Z M 0.460938 -0.453125 "/></g></g></g></svg>