<svg xmlns="http://www.w3.org/2000/svg" xmlns:xlink="http://www.w3.org/1999/xlink" width="300" zoomAndPan="magnify" viewBox="0 0 224.87999 135.000003" height="180" preserveAspectRatio="xMidYMid meet" version="1.0"><defs><filter x="0%" y="0%" width="100%" height="100%" id="ab4d991aee"><feColorMatrix values="0 0 0 0 1 0 0 0 0 1 0 0 0 0 1 0 0 0 1 0" color-interpolation-filters="sRGB"/></filter><mask id="83fc3d5c05"><g filter="url(#ab4d991aee)"><rect x="-22.487999" width="269.855988" fill="#000000" y="-13.5" height="162.000004" fill-opacity="0.85"/></g></mask><clipPath id="5272f9d4f5"><path d="M 1.113281 1.402344 L 197.660156 1.402344 L 197.660156 109.351562 L 1.113281 109.351562 Z M 1.113281 1.402344 " clip-rule="nonzero"/></clipPath><clipPath id="880b73f5e9"><rect x="0" width="198" y="0" height="110"/></clipPath></defs><g mask="url(#83fc3d5c05)"><g transform="matrix(1, 0, 0, 1, 13, 12)"><g clip-path="url(#880b73f5e9)"><g clip-path="url(#5272f9d4f5)"><path fill="#c35d39" d="M 49.191406 106.707031 C 47.636719 107.664062 47.636719 107.664062 47.238281 105.707031 C 47.238281 105.667969 47.195312 105.667969 47.15625 105.628906 C 46.835938 105.789062 46.519531 105.90625 46.238281 106.066406 C 45.679688 106.386719 45.398438 106.027344 45.199219 105.628906 C 45.082031 105.390625 45.242188 104.910156 44.839844 104.949219 C 44.480469 104.988281 44.242188 105.347656 44.242188 105.789062 C 44.242188 105.988281 44.121094 106.226562 44.363281 106.386719 C 42.484375 106.148438 43.683594 107.824219 43.046875 108.421875 C 42.167969 108.382812 42.085938 107.304688 41.367188 106.945312 C 41.128906 106.824219 40.96875 106.585938 40.769531 106.90625 C 40.332031 107.542969 39.492188 107.542969 38.933594 108.0625 C 38.695312 108.261719 37.015625 107.425781 36.9375 107.066406 C 36.738281 106.464844 35.339844 106.105469 34.902344 106.585938 C 34.820312 106.667969 34.820312 106.867188 34.820312 106.867188 C 35.339844 107.144531 35.898438 107.425781 36.5 107.742188 C 36.257812 108.222656 35.621094 108.421875 35.0625 108.0625 C 34.421875 107.664062 33.464844 107.863281 33.105469 106.984375 C 33.023438 106.785156 32.824219 106.746094 32.707031 106.984375 C 32.464844 107.585938 31.949219 107.503906 31.46875 107.425781 C 30.429688 107.226562 29.671875 107.863281 28.832031 108.222656 C 28.59375 108.304688 28.394531 108.460938 28.355469 108.144531 C 28.273438 107.34375 27.238281 107.503906 26.996094 106.824219 C 26.917969 106.585938 26.320312 106.785156 26.238281 106.984375 C 26 107.863281 25.203125 107.703125 24.722656 107.703125 C 23.765625 107.703125 23.566406 108.0625 23.882812 109.019531 C 22.925781 108.261719 21.929688 108.941406 20.96875 108.703125 C 20.691406 108.621094 20.292969 108.820312 20.089844 108.421875 C 19.933594 108.0625 20.089844 107.664062 20.332031 107.542969 C 21.011719 107.105469 20.371094 106.707031 20.25 106.625 C 19.890625 106.425781 19.773438 106.867188 19.734375 107.144531 C 19.574219 107.742188 19.492188 108.34375 19.375 108.941406 C 18.972656 109.019531 18.972656 108.742188 18.855469 108.503906 C 18.535156 107.902344 18.375 107.902344 17.777344 108.421875 C 17.617188 108.542969 17.378906 108.703125 17.175781 108.664062 C 16.617188 108.621094 16.257812 108.742188 15.980469 109.261719 C 15.78125 109.621094 15.5 109.699219 15.183594 109.421875 C 14.824219 109.101562 14.902344 108.902344 15.261719 108.664062 C 15.621094 108.460938 15.78125 108.0625 15.898438 107.664062 C 15.222656 107.425781 15.539062 108.304688 15.140625 108.222656 C 15.140625 107.425781 14.261719 106.945312 14.222656 106.066406 C 14.222656 105.988281 13.664062 105.988281 13.386719 106.148438 C 12.984375 106.386719 12.625 106.585938 12.226562 106.824219 C 12.066406 106.945312 11.910156 107.226562 11.667969 107.027344 C 11.507812 106.90625 11.429688 106.625 11.667969 106.425781 C 11.828125 106.265625 11.828125 106.148438 11.667969 105.988281 C 11.191406 105.507812 11.070312 105.070312 11.949219 104.871094 C 12.027344 104.871094 12.109375 104.589844 12.066406 104.472656 C 11.949219 104.152344 11.789062 104.511719 11.628906 104.511719 C 11.390625 104.511719 11.191406 104.472656 10.910156 104.628906 C 10.3125 105.03125 9.832031 104.828125 9.554688 104.113281 C 9.234375 103.191406 8.914062 102.234375 8.277344 101.476562 C 8.515625 101.316406 8.792969 101.199219 9.035156 101.039062 C 9.234375 100.878906 9.355469 100.636719 9.152344 100.359375 C 8.953125 100.078125 8.675781 100.199219 8.476562 100.320312 C 7.917969 100.558594 7.476562 100.277344 7.558594 99.679688 C 7.636719 99.203125 7.796875 98.84375 7.078125 98.882812 L 7.117188 98.921875 C 6.839844 98.082031 6 98.125 5.402344 97.84375 C 5.042969 97.644531 4.644531 97.683594 5.003906 97.164062 C 5.121094 97.007812 5.121094 96.726562 4.960938 96.6875 C 4.125 96.527344 4.5625 95.847656 4.445312 95.410156 C 4.203125 94.691406 4.683594 94.730469 5.121094 94.691406 C 5.363281 94.691406 5.839844 94.929688 5.722656 94.410156 C 5.601562 93.890625 5.320312 94.410156 5.160156 94.410156 C 4.125 94.25 5.203125 93.734375 5.003906 93.414062 C 4.644531 93.132812 4.363281 93.890625 4.042969 93.53125 C 3.84375 93.292969 3.40625 93.574219 3.445312 93.214844 C 3.445312 92.972656 3.324219 92.574219 3.765625 92.496094 C 4.601562 92.335938 3.84375 92.136719 3.765625 91.976562 C 3.644531 91.65625 3.125 92.375 3.125 91.777344 C 3.125 91.378906 3.644531 91.535156 3.804688 91.378906 C 4.085938 91.019531 4.363281 91.457031 4.523438 91.378906 C 4.445312 89.980469 4.402344 88.621094 4.242188 87.265625 C 4.164062 86.425781 3.644531 85.628906 4.5625 84.871094 C 4.644531 84.789062 4.324219 83.632812 4.203125 82.953125 C 4.804688 83.472656 4.804688 83.472656 5.203125 82.835938 C 5.28125 82.675781 5.441406 82.15625 5.480469 82.835938 C 5.519531 83.152344 5.679688 83.152344 5.800781 83.035156 C 5.921875 82.914062 5.921875 82.714844 6 82.515625 C 5.640625 82.554688 5.519531 81.636719 4.960938 82.234375 C 4.5625 82.675781 4.484375 82.394531 4.445312 81.917969 C 4.363281 81.117188 4.125 80.359375 3.964844 79.523438 C 4.242188 79.480469 4.363281 79.960938 4.722656 79.800781 C 4.722656 79.761719 4.761719 79.679688 4.722656 79.640625 C 4.5625 79.402344 4.445312 79.121094 4.242188 78.882812 C 3.324219 77.605469 3.324219 77.605469 4.523438 76.527344 C 4.644531 76.449219 4.683594 76.289062 4.882812 76.046875 C 4.324219 76.046875 4.085938 76.046875 4.085938 75.289062 C 4.085938 74.292969 4.285156 73.535156 4.84375 72.773438 C 5.160156 72.335938 5.003906 71.699219 4.804688 71.417969 C 4.484375 70.9375 4.484375 70.261719 4.164062 70.019531 C 3.125 69.183594 3.527344 68.105469 3.40625 67.105469 C 3.367188 66.828125 3.484375 66.546875 3.765625 66.507812 C 4.003906 66.46875 4.042969 66.789062 4.125 66.988281 C 4.402344 67.546875 3.765625 67.90625 3.765625 68.425781 C 4.882812 68.105469 5.082031 67.585938 4.523438 66.589844 C 4.125 65.828125 3.324219 65.03125 4.523438 64.273438 C 4.164062 64.074219 5.160156 63.15625 4.042969 63.355469 C 4.242188 62.675781 2.527344 62.277344 3.804688 61.476562 C 4.003906 61.359375 4.003906 61.117188 3.765625 61.039062 C 3.085938 60.839844 3.285156 60.121094 2.925781 59.683594 C 2.6875 59.402344 2.648438 59.003906 3.324219 58.804688 C 4.085938 58.605469 4.203125 57.527344 3.484375 57.128906 C 2.925781 56.808594 2.886719 56.367188 2.925781 55.929688 C 3.007812 55.25 3.324219 54.574219 2.648438 54.011719 C 2.566406 53.933594 2.527344 53.652344 2.765625 53.535156 C 3.167969 53.335938 3.484375 53.175781 2.726562 53.015625 C 2.449219 52.976562 2.648438 52.734375 2.765625 52.578125 C 3.167969 52.097656 3.605469 51.617188 2.648438 51.300781 C 2.328125 51.179688 2.605469 51.058594 2.648438 50.898438 C 2.808594 49.941406 3.765625 48.945312 2.367188 48.105469 C 2.207031 48.027344 2.046875 47.507812 2.40625 47.066406 C 3.367188 45.832031 2.925781 44.511719 2.289062 43.277344 C 2.128906 42.957031 1.96875 42.796875 2.40625 42.636719 C 2.449219 42.597656 2.488281 42.515625 2.527344 42.476562 C 1.410156 41.839844 2.207031 41.078125 2.246094 40.402344 C 2.246094 40.28125 1.890625 40.28125 1.929688 39.960938 C 2.367188 39.722656 2.648438 40.121094 3.007812 40.242188 C 3.167969 40.28125 3.285156 40.71875 3.445312 40.28125 C 3.527344 40.082031 3.804688 39.921875 3.445312 39.644531 C 2.765625 39.042969 2.246094 38.207031 1.371094 37.605469 C 1.890625 37.527344 2.289062 37.449219 2.6875 37.367188 C 2.167969 36.570312 2.289062 35.691406 2.046875 34.890625 C 1.96875 34.652344 2.046875 34.574219 2.289062 34.535156 C 3.207031 34.414062 3.324219 33.695312 3.367188 32.976562 C 3.445312 32.617188 3.882812 32.058594 3.046875 32.21875 C 3.046875 31.976562 3.007812 31.738281 3.007812 31.539062 C 3.085938 30.902344 3.085938 30.859375 2.40625 31.019531 C 2.246094 31.058594 2.089844 31.058594 2.046875 30.902344 C 1.96875 30.582031 1.929688 30.101562 2.207031 29.984375 C 4.203125 28.984375 2.40625 28.984375 1.609375 28.664062 C 3.40625 28.066406 2.605469 26.550781 2.925781 25.472656 C 3.125 24.871094 3.964844 24.234375 3.246094 23.4375 C 3.125 23.277344 3.167969 22.957031 2.808594 23.078125 C 2.566406 23.15625 2.289062 23.59375 2.207031 23.035156 C 2.167969 22.757812 2.527344 22.558594 2.886719 22.757812 C 3.046875 22.835938 3.167969 22.835938 3.207031 22.636719 C 3.246094 22.4375 3.207031 22.316406 3.007812 22.199219 C 2.605469 21.839844 2.605469 21.441406 3.046875 21.359375 C 4.285156 21.121094 4.003906 20.601562 3.324219 20.042969 C 2.6875 19.445312 2.726562 18.964844 3.566406 18.644531 C 4.324219 18.367188 4.722656 17.566406 5.679688 17.449219 C 6.558594 17.367188 5.320312 16.730469 5.640625 16.289062 C 5.203125 16.488281 4.921875 16.730469 4.683594 17.167969 C 4.445312 17.609375 3.84375 17.527344 3.40625 17.527344 C 2.925781 17.527344 3.007812 17.007812 2.964844 16.648438 C 2.847656 15.054688 2.925781 15.011719 4.324219 14.574219 C 4.882812 14.414062 5.519531 14.375 6 13.976562 C 6.480469 13.617188 6.398438 13.097656 6.320312 12.699219 C 6.238281 12.179688 5.761719 12.578125 5.480469 12.539062 C 5.28125 12.539062 5.121094 12.539062 5.003906 12.21875 C 5.402344 12.097656 5.839844 12.058594 6.160156 11.699219 C 6.398438 11.421875 6.71875 11.5 6.640625 11.9375 C 6.597656 12.140625 6.398438 12.378906 6.71875 12.457031 C 7.039062 12.5 7.238281 12.21875 7.238281 11.980469 C 7.199219 11.421875 7.558594 11.101562 7.917969 10.78125 C 8.074219 10.621094 8.074219 10.503906 8.394531 10.660156 C 9.035156 10.902344 9.074219 10.820312 9.113281 10.0625 C 9.152344 9.703125 9.472656 9.625 9.671875 9.824219 C 10.511719 10.660156 10.589844 9.824219 10.632812 9.34375 C 10.671875 8.585938 10.789062 8.746094 11.269531 9.105469 C 11.867188 9.585938 12.625 9.183594 12.785156 8.425781 C 12.828125 8.226562 12.667969 7.949219 12.945312 7.828125 C 13.265625 7.667969 13.464844 7.988281 13.546875 8.1875 C 13.746094 8.746094 14.542969 8.308594 14.742188 8.984375 C 14.78125 9.105469 14.980469 8.707031 15.101562 8.585938 C 15.421875 8.226562 14.742188 7.949219 14.980469 7.46875 C 15.660156 7.429688 16.179688 7.949219 16.660156 8.308594 C 17.097656 8.625 17.257812 8.386719 17.496094 8.265625 C 17.738281 8.148438 18.136719 8.226562 18.097656 7.746094 C 18.015625 7.1875 17.578125 7.429688 17.019531 7.308594 C 17.496094 6.910156 17.578125 6.550781 18.214844 7.027344 C 18.734375 7.429688 19.054688 8.226562 20.050781 8.027344 C 20.691406 7.90625 20.96875 7.507812 21.367188 7.148438 C 21.886719 6.671875 22.328125 5.910156 22.847656 7.109375 C 22.886719 7.230469 23.125 7.269531 23.285156 7.386719 C 23.484375 6.789062 23.644531 6.269531 23.84375 5.671875 C 24.242188 6.03125 24.242188 6.550781 24.125 6.75 C 23.882812 7.230469 24.082031 7.230469 24.402344 7.070312 C 24.84375 6.871094 25.320312 6.628906 25.679688 6.3125 C 25.917969 6.109375 25.960938 5.75 26.398438 6.070312 C 26.996094 6.511719 27.597656 6.152344 27.996094 5.75 C 29.035156 4.753906 29.191406 4.753906 29.671875 6.03125 C 29.992188 5.992188 30.109375 5.671875 30.109375 5.511719 C 30.269531 4.394531 30.828125 4.59375 31.429688 5.074219 C 32.105469 5.59375 32.746094 5.234375 32.90625 4.753906 C 33.105469 3.957031 33.625 4.316406 33.945312 4.316406 C 34.261719 4.316406 35.179688 4.15625 35.460938 4.195312 C 36.140625 4.273438 36.859375 3.757812 37.417969 3.957031 C 38.175781 4.273438 38.773438 3.714844 39.453125 3.957031 C 39.492188 3.957031 39.613281 3.875 39.730469 3.835938 C 39.054688 2.796875 40.171875 3.277344 40.371094 3.195312 C 40.847656 2.957031 41.289062 3.078125 41.007812 3.796875 C 40.929688 4.035156 40.847656 4.273438 41.167969 4.316406 C 41.449219 4.355469 41.410156 4.074219 41.449219 3.914062 C 41.488281 3.636719 41.847656 3.4375 41.527344 3.117188 C 41.367188 2.957031 41.488281 2.796875 41.648438 2.636719 C 41.886719 2.480469 42.046875 2.558594 42.207031 2.71875 C 42.367188 2.878906 42.328125 3.355469 42.84375 2.757812 C 43.445312 2.078125 43.605469 3.15625 43.804688 3.757812 C 44.242188 3.355469 44.601562 2.835938 45.121094 3.554688 C 45.398438 3.914062 45.800781 3.4375 46.199219 3.515625 C 46.636719 3.597656 47.15625 2.71875 47.753906 3.4375 C 47.796875 3.476562 48.234375 3.238281 48.355469 3.039062 C 48.554688 2.757812 48.15625 2.835938 48.074219 2.757812 C 47.753906 2.480469 48.113281 2.320312 48.15625 2.078125 C 48.515625 2.199219 48.953125 1.800781 49.230469 2.160156 C 49.472656 2.398438 49.230469 2.597656 48.992188 2.757812 C 48.433594 3.117188 48.273438 3.554688 48.832031 4.195312 C 48.714844 2.636719 49.433594 3.636719 49.910156 3.796875 C 49.992188 2.835938 50.390625 2.679688 51.070312 3.316406 C 51.1875 3.398438 51.46875 3.476562 51.546875 3.398438 C 52.785156 2.398438 52.746094 2.4375 54.300781 3.15625 C 54.78125 3.398438 55.339844 3.714844 55.9375 3.195312 C 56.617188 2.597656 57.015625 2.878906 57.175781 3.796875 C 57.214844 3.398438 58.214844 3.195312 57.335938 2.636719 C 57.296875 2.597656 57.375 2.078125 57.734375 1.960938 C 58.132812 1.839844 58.292969 2.078125 58.292969 2.398438 C 58.375 3.078125 58.414062 3.714844 59.292969 2.996094 C 59.371094 2.957031 59.53125 2.917969 59.609375 2.996094 C 60.53125 3.914062 61.40625 3.039062 62.207031 2.835938 C 62.765625 2.71875 63.402344 2.757812 63.921875 2.480469 C 64.203125 2.320312 64.601562 2.796875 64.601562 2.917969 C 64.5625 4.074219 65.398438 3.316406 65.957031 3.714844 C 65.597656 3.195312 65.4375 2.878906 65.238281 2.597656 C 65.28125 2.558594 65.320312 2.480469 65.359375 2.4375 C 65.71875 2.636719 66.117188 2.835938 66.4375 3.039062 C 66.714844 3.195312 67.035156 2.957031 67.277344 3.238281 C 68.234375 2.160156 69.269531 3.15625 70.230469 3.238281 C 71.546875 3.355469 72.863281 3.355469 74.179688 3.277344 C 74.539062 3.238281 74.980469 3.039062 75.058594 3.078125 C 76.097656 3.675781 76.9375 2.996094 77.894531 2.917969 C 78.8125 2.796875 80.007812 2.4375 80.769531 3.476562 C 80.769531 3.476562 80.847656 3.515625 80.886719 3.476562 C 82.207031 2.277344 82.804688 4.074219 83.800781 4.15625 C 83.839844 3.796875 83.363281 3.636719 83.523438 3.15625 C 84.359375 3.398438 85.320312 2.71875 86.15625 3.476562 C 86.316406 3.597656 86.476562 3.476562 86.515625 3.355469 C 86.636719 2.480469 87.394531 2.757812 87.914062 2.597656 C 88.074219 2.558594 88.433594 2.320312 88.59375 2.71875 C 88.671875 2.957031 88.792969 3.238281 88.472656 3.398438 C 88.234375 3.515625 88.234375 3.675781 88.433594 3.796875 C 88.632812 3.914062 88.792969 3.875 88.832031 3.636719 C 88.953125 2.996094 89.511719 2.796875 89.988281 2.519531 C 90.347656 2.71875 89.628906 3.796875 90.746094 3.398438 C 91.105469 3.277344 91.507812 4.035156 92.105469 3.4375 C 92.503906 3.039062 93.34375 3.597656 93.820312 2.996094 C 94.261719 3.4375 94.378906 3.117188 94.699219 2.796875 C 94.980469 2.519531 95.738281 2.71875 96.214844 2.796875 C 97.292969 2.996094 98.332031 3.277344 99.332031 2.558594 C 99.449219 2.480469 99.847656 2.597656 99.929688 2.71875 C 100.328125 3.316406 100.808594 3.15625 101.367188 3.078125 C 102.042969 2.957031 102.722656 2.957031 103.320312 2.480469 C 104.121094 1.839844 103.882812 2.835938 104.121094 3.078125 C 104.800781 2.519531 105.476562 2.160156 106.355469 2.519531 C 106.476562 2.558594 106.59375 2.636719 106.675781 2.597656 C 107.234375 2.277344 107.273438 2.636719 107.59375 2.996094 C 108.511719 3.996094 108.433594 2.558594 108.871094 2.320312 C 109.46875 2.597656 109.109375 3.039062 109.109375 3.476562 C 109.269531 3.078125 110.308594 3.796875 109.949219 2.71875 C 109.910156 2.558594 110.066406 2.398438 110.226562 2.4375 C 111.425781 2.679688 112.625 2.480469 113.78125 2.238281 C 114.101562 2.160156 114.21875 2.398438 114.019531 2.636719 C 113.859375 2.878906 113.78125 3.039062 114.101562 3.15625 C 114.460938 3.316406 114.378906 2.917969 114.5 2.796875 C 115.179688 2.121094 116.773438 2.238281 117.574219 2.835938 C 118.332031 3.398438 119.25 2.957031 120.089844 2.679688 C 120.726562 2.480469 121.523438 1.761719 122.042969 2.957031 C 122.164062 3.195312 122.644531 3.636719 122.722656 2.835938 C 122.722656 2.71875 122.800781 2.597656 122.921875 2.679688 C 123.601562 3.117188 124.4375 2.757812 125.039062 2.957031 C 125.835938 3.238281 126.355469 3.15625 126.914062 2.636719 C 127.273438 2.320312 127.59375 1.960938 127.992188 2.71875 C 128.269531 3.238281 129.03125 2.878906 129.46875 3.238281 C 129.707031 2.835938 129.429688 2.796875 129.269531 2.636719 C 129.109375 2.480469 129.1875 2.277344 129.308594 2.160156 C 129.429688 2.039062 129.546875 2.078125 129.707031 2.199219 C 130.066406 2.558594 130.585938 2.597656 131.066406 2.679688 C 131.425781 2.71875 131.664062 3.15625 131.902344 2.4375 C 132.023438 2.039062 132.542969 2.878906 133.0625 2.636719 C 133.980469 2.199219 133.339844 3.238281 133.738281 3.355469 C 134.140625 3.078125 133.738281 2.597656 134.019531 2.320312 C 134.578125 2.121094 135.058594 3.554688 135.65625 2.359375 C 136.296875 3.078125 136.8125 2.519531 137.414062 2.277344 C 137.691406 2.160156 137.929688 2.71875 138.25 2.957031 C 138.648438 2.71875 138.171875 1.601562 139.050781 1.878906 C 139.6875 2.078125 140.367188 1.839844 140.964844 2.078125 C 141.445312 2.277344 142.5625 1.640625 142.125 3.195312 C 142.683594 2.679688 142.28125 1.640625 143.402344 1.917969 C 144.078125 2.078125 144.519531 2.359375 144.957031 2.796875 C 145.316406 3.15625 145.714844 3.515625 146.113281 3.875 C 146.316406 3.515625 146.234375 3.117188 146.59375 2.757812 C 144.71875 3.15625 146.15625 1.800781 145.914062 1.679688 C 146.074219 2.078125 146.515625 2.199219 147.03125 1.71875 C 147.152344 1.640625 147.433594 1.558594 147.433594 1.640625 C 148.03125 2.519531 149.230469 1.761719 149.867188 2.519531 C 149.988281 2.636719 150.507812 2.917969 150.746094 2.597656 C 151.023438 2.238281 150.464844 2.277344 150.386719 2.078125 C 150.304688 1.878906 150.304688 1.71875 150.425781 1.558594 C 150.546875 1.402344 150.746094 1.480469 150.945312 1.519531 C 152.101562 1.878906 153.339844 1.878906 154.539062 2.160156 C 154.898438 2.238281 155.175781 2 155.535156 2.078125 C 155.535156 2.359375 155.535156 2.597656 155.535156 2.835938 C 155.535156 3.117188 155.496094 3.4375 155.894531 3.554688 C 156.292969 3.675781 156.613281 3.597656 156.773438 3.277344 C 157.492188 1.800781 158.929688 1.960938 160.207031 1.800781 C 161.203125 1.679688 162.082031 2.4375 163.121094 2.277344 C 163.238281 2.238281 163.480469 2.71875 163.320312 3.117188 C 163.238281 3.316406 162.878906 4.113281 163.917969 3.636719 C 164.515625 3.355469 165.195312 3.476562 165.4375 2.636719 C 165.476562 2.4375 165.996094 2.199219 166.074219 2.277344 C 167.230469 3.238281 168.429688 1.917969 169.585938 2.4375 C 169.707031 2.480469 169.785156 2.519531 169.90625 2.558594 C 170.386719 2.757812 170.746094 2.917969 171.183594 2.320312 C 171.542969 1.839844 172.101562 2.238281 172.339844 2.679688 C 172.5 3.039062 172.898438 3.195312 172.941406 2.957031 C 173.101562 2 173.777344 2.636719 174.179688 2.4375 C 174.296875 2.398438 174.578125 2.398438 174.617188 2.4375 C 174.894531 3.316406 175.933594 2.796875 176.332031 3.4375 C 176.375 3.515625 176.652344 3.636719 176.734375 3.554688 C 178.089844 2.519531 178.769531 3.996094 179.726562 4.355469 C 180.324219 4.59375 180.765625 4.714844 181.363281 4.472656 C 182 4.234375 182.679688 4.035156 183.359375 4.15625 C 183.957031 4.234375 184.554688 4.792969 185.15625 4.234375 C 185.394531 4.554688 186.472656 4.113281 185.914062 5.113281 C 185.835938 5.273438 185.992188 5.511719 186.035156 5.472656 C 187.070312 5.191406 186.074219 6.03125 186.511719 6.152344 C 186.992188 5.710938 187.550781 5.910156 188.03125 6.351562 C 188.507812 6.75 187.949219 7.1875 187.949219 7.746094 C 188.988281 6.828125 190.066406 7.347656 191.0625 7.507812 C 191.382812 7.546875 191.304688 8.507812 191.0625 9.023438 C 191.542969 9.304688 192.339844 8.664062 192.539062 9.625 C 192.582031 9.863281 192.738281 9.664062 192.820312 9.542969 C 193.339844 8.546875 193.738281 9.382812 193.976562 9.703125 C 194.695312 10.582031 194.816406 11.738281 195.496094 12.699219 C 195.695312 12.976562 195.253906 13.816406 194.933594 14.292969 C 194.535156 14.933594 194.65625 15.292969 195.214844 15.652344 C 195.335938 15.730469 195.496094 15.8125 195.453125 15.972656 C 195.375 16.410156 195.972656 17.207031 194.816406 17.128906 C 194.578125 17.089844 194.136719 16.96875 193.898438 17.289062 C 193.738281 17.527344 193.257812 17.726562 193.539062 18.085938 C 193.777344 18.40625 194.21875 18.566406 194.578125 18.125 C 194.777344 17.886719 195.015625 17.6875 195.253906 17.449219 C 195.695312 19.203125 195.652344 19.285156 194.335938 19.523438 C 195.773438 21.441406 195.734375 22.277344 194.136719 23.875 C 194.65625 23.996094 195.054688 24.15625 195.335938 24.632812 C 195.652344 25.191406 195.253906 25.632812 195.292969 26.109375 C 195.375 26.589844 194.855469 26.628906 194.617188 26.191406 C 194.335938 25.75 194.097656 25.992188 193.9375 26.191406 C 193.65625 26.507812 193.976562 27.988281 194.375 28.1875 C 195.652344 28.824219 195.773438 29.183594 195.09375 30.339844 C 195.335938 29.863281 196.210938 31.019531 196.210938 29.863281 C 196.292969 29.863281 196.371094 29.863281 196.414062 29.902344 C 196.570312 30.023438 196.613281 30.183594 196.453125 30.382812 C 196.171875 30.742188 195.894531 31.058594 195.652344 31.417969 C 195.535156 31.578125 195.292969 31.660156 195.375 31.976562 C 195.574219 32.539062 195.496094 32.816406 194.777344 32.9375 C 194.417969 32.976562 193.898438 33.457031 193.976562 33.972656 C 194.097656 34.453125 194.578125 34.652344 195.054688 34.535156 C 195.375 34.453125 195.652344 34.691406 196.011719 34.535156 C 196.332031 34.375 196.570312 34.8125 196.652344 34.972656 C 196.773438 35.25 196.210938 35.171875 196.210938 35.292969 C 196.171875 35.652344 195.335938 35.769531 195.894531 36.410156 C 196.132812 36.6875 195.535156 36.6875 195.292969 36.6875 C 194.816406 36.6875 194.457031 36.808594 194.976562 37.289062 C 195.453125 37.726562 195.574219 38.085938 195.175781 38.605469 C 194.933594 38.925781 195.375 39.285156 195.335938 39.644531 C 195.054688 39.84375 194.976562 40.160156 195.414062 39.960938 C 196.054688 39.683594 196.292969 40.042969 196.371094 40.480469 C 196.570312 41.757812 196.652344 43.074219 197.410156 44.234375 C 197.449219 44.3125 197.371094 44.433594 197.332031 44.554688 C 196.453125 43.753906 195.214844 44.074219 194.894531 45.191406 C 194.816406 45.472656 194.816406 45.472656 195.292969 45.351562 C 195.414062 45.910156 196.171875 46.347656 195.453125 47.027344 C 195.292969 47.1875 195.535156 47.347656 195.734375 47.425781 C 196.09375 47.585938 196.453125 47.746094 196.851562 47.945312 C 196.730469 48.464844 196.210938 48.585938 195.972656 48.984375 C 196.453125 49.222656 197.410156 49.304688 196.132812 49.941406 C 195.292969 50.339844 195.453125 51.660156 196.292969 52.65625 C 196.492188 52.894531 196.652344 52.976562 196.453125 53.296875 C 196.292969 53.535156 196.09375 53.652344 195.8125 53.613281 C 195.015625 53.496094 194.855469 53.773438 194.578125 54.414062 C 194.257812 55.089844 194.695312 54.890625 194.976562 54.933594 C 195.734375 55.011719 196.253906 55.171875 195.574219 56.050781 C 195.253906 56.488281 195.253906 57.085938 195.292969 57.644531 C 195.453125 57.765625 195.574219 57.644531 195.695312 57.527344 C 195.894531 57.367188 196.132812 57.167969 196.371094 57.445312 C 196.453125 57.527344 196.53125 57.765625 196.492188 57.847656 C 196.332031 58.046875 196.210938 58.363281 195.894531 58.246094 C 195.414062 58.003906 195.292969 58.445312 195.136719 58.683594 C 194.894531 59.164062 195.253906 59.324219 195.652344 59.402344 C 195.8125 59.402344 195.894531 58.921875 196.132812 59.203125 C 196.414062 59.480469 196.09375 59.839844 195.933594 59.960938 C 195.496094 60.359375 195.535156 60.679688 195.933594 61.039062 C 196.132812 61.199219 196.570312 61.199219 196.332031 61.636719 C 196.253906 61.757812 196.171875 61.957031 196.054688 61.957031 C 195.695312 61.957031 195.652344 61.558594 195.496094 61.359375 C 195.414062 61.238281 195.414062 61.039062 195.335938 60.800781 C 194.417969 61.359375 195.253906 62.15625 194.976562 62.636719 C 194.417969 63.59375 195.292969 63.753906 195.695312 64.273438 C 196.054688 63.875 195.8125 63.394531 195.972656 62.996094 C 196.691406 63.914062 196.332031 65.109375 195.214844 65.46875 C 194.933594 65.550781 194.65625 65.789062 194.734375 65.988281 C 195.054688 66.46875 194.457031 66.945312 194.855469 67.347656 C 194.894531 67.386719 195.136719 67.347656 195.253906 67.304688 C 195.414062 67.226562 195.613281 66.988281 195.652344 66.988281 C 197.25 68.183594 196.371094 66.429688 196.730469 66.148438 C 197.449219 66.90625 197.371094 67.507812 196.453125 67.90625 C 196.371094 67.945312 196.292969 67.945312 196.253906 67.984375 C 194.933594 68.582031 194.855469 68.863281 195.574219 70.21875 C 195.855469 69.941406 196.09375 69.660156 195.695312 69.300781 C 195.574219 69.183594 195.414062 68.984375 195.652344 68.863281 C 195.8125 68.785156 195.972656 68.785156 196.210938 69.023438 C 196.652344 69.503906 196.773438 69.980469 196.453125 71.097656 C 196.09375 71.136719 196.09375 70.660156 195.8125 70.621094 C 195.414062 70.539062 194.933594 70.101562 194.855469 70.980469 C 194.816406 71.21875 194.574219 71.496094 194.335938 71.699219 C 193.898438 72.097656 194.335938 72.457031 194.417969 72.816406 C 194.617188 72.535156 195.214844 73.175781 195.292969 72.375 C 195.335938 71.9375 196.054688 71.855469 196.414062 72.015625 C 196.890625 72.257812 196.292969 72.773438 196.371094 72.894531 C 196.890625 73.972656 196.292969 74.453125 195.453125 74.890625 C 195.375 74.929688 195.535156 75.371094 195.574219 75.648438 C 195.855469 75.53125 195.855469 75.128906 196.332031 75.089844 C 196.253906 76.289062 194.816406 76.847656 194.855469 78.285156 C 195.453125 77.566406 196.054688 77.683594 196.691406 77.84375 C 197.25 78.003906 197.011719 78.363281 196.890625 78.601562 C 196.570312 79.363281 195.8125 79.679688 195.214844 80.160156 C 195.09375 80.238281 194.816406 80.441406 194.855469 80.441406 C 195.972656 80.558594 195.175781 81.597656 195.613281 82.035156 C 196.09375 82.515625 195.972656 82.996094 195.292969 83.195312 C 195.09375 83.234375 194.894531 83.433594 194.933594 83.472656 C 195.496094 84.113281 194.855469 84.472656 194.65625 84.949219 C 194.574219 85.109375 194.296875 85.589844 194.976562 85.46875 C 195.453125 85.390625 195.574219 85.867188 195.414062 86.148438 C 194.855469 86.945312 195.335938 88.0625 194.335938 88.863281 C 194.855469 88.980469 195.335938 88.34375 195.496094 88.980469 C 195.695312 89.621094 195.375 90.257812 194.976562 90.660156 C 194.695312 90.976562 194.136719 91.535156 193.617188 90.699219 C 193.257812 91.378906 194.496094 91.855469 193.738281 92.496094 C 193.296875 92.375 193.578125 91.976562 193.378906 91.695312 C 192.859375 92.054688 193.058594 92.574219 193.058594 93.015625 C 193.058594 93.734375 192.421875 93.414062 192.140625 93.613281 C 192.300781 94.09375 192.539062 94.53125 192.179688 95.050781 C 191.902344 95.449219 192.101562 95.929688 192.300781 96.207031 C 192.941406 97.085938 192.300781 97.722656 192.0625 98.484375 C 191.78125 99.402344 191.503906 100.078125 190.382812 100 C 190.304688 100 190.226562 100.199219 190.144531 100.320312 C 190.425781 100.597656 191.0625 100.199219 191.101562 100.839844 C 191.144531 101.117188 191.0625 101.4375 190.785156 101.515625 C 190.304688 101.675781 189.867188 102.035156 189.347656 101.957031 C 189.226562 101.957031 189.066406 101.675781 189.066406 101.515625 C 189.066406 100.917969 189.707031 101.355469 189.90625 101.039062 C 189.425781 99.839844 188.90625 99.5625 187.828125 100.078125 C 187.589844 100.199219 187.03125 100.398438 187.191406 100.957031 C 187.351562 101.398438 187.710938 101.4375 188.109375 101.4375 C 188.308594 101.4375 188.390625 101.15625 188.589844 101.277344 C 188.46875 101.558594 188.347656 101.875 188.1875 102.15625 C 187.988281 102.515625 187.671875 102.675781 187.269531 102.554688 C 186.753906 102.355469 186.710938 102.355469 186.792969 102.792969 C 186.871094 103.113281 186.832031 103.3125 186.511719 103.394531 C 186.3125 103.472656 186.191406 103.3125 186.074219 103.152344 C 185.875 102.875 185.875 102.675781 186.234375 102.59375 C 186.710938 102.433594 186.511719 102.15625 186.394531 101.875 C 186.074219 101.199219 185.632812 101.957031 185.234375 101.796875 C 184.835938 101.636719 184.835938 102.074219 184.914062 102.273438 C 185.15625 102.953125 184.914062 103.394531 184.398438 103.710938 C 184.316406 103.792969 184.078125 103.753906 183.996094 103.671875 C 183.839844 103.59375 183.839844 103.351562 183.996094 103.3125 C 184.835938 102.953125 183.796875 102.675781 183.996094 102.273438 C 183.71875 103.035156 182.839844 102.792969 182.402344 103.433594 C 182 103.992188 181.164062 103.832031 180.445312 103.394531 C 180.566406 103.632812 180.722656 103.832031 180.84375 104.070312 C 180.164062 104.230469 179.367188 103.753906 178.886719 104.710938 C 178.570312 105.347656 178.050781 104.269531 177.449219 104.628906 C 177.050781 104.910156 176.453125 105.070312 176.375 104.191406 C 176.332031 103.871094 175.8125 103.910156 175.734375 104.03125 C 175.253906 104.789062 174.894531 104.511719 174.535156 103.871094 C 174.175781 104.429688 174.496094 104.710938 174.738281 105.03125 C 174.894531 105.230469 175.296875 105.46875 174.816406 105.75 C 174.535156 105.90625 174.296875 106.027344 173.976562 105.628906 C 173.660156 105.230469 173.140625 105.03125 173.21875 104.269531 C 172.5 104.910156 172.421875 105.546875 172.941406 105.988281 C 173.300781 106.308594 173.140625 106.464844 172.980469 106.707031 C 172.699219 107.226562 172.0625 107.183594 171.621094 107.503906 C 171.34375 107.703125 170.984375 107.386719 171.0625 106.824219 C 171.144531 106.226562 171.34375 105.589844 170.664062 105.109375 C 170.34375 105.429688 170.625 105.789062 170.464844 106.066406 C 170.304688 106.347656 169.945312 106.507812 170.027344 106.90625 C 169.546875 106.824219 169.109375 105.667969 168.589844 106.90625 C 168.550781 106.984375 167.472656 107.027344 166.953125 106.507812 C 166.394531 105.949219 167.191406 105.867188 167.230469 105.507812 C 167.273438 105.308594 167.632812 105.308594 167.589844 104.871094 C 166.832031 105.148438 166.074219 105.070312 165.277344 104.910156 C 164.15625 104.671875 164.117188 105.828125 163.878906 106.667969 C 164.316406 106.746094 164.398438 106.347656 164.636719 106.1875 C 165.394531 105.707031 165.792969 105.828125 166.035156 106.707031 C 166.113281 107.027344 166.59375 106.746094 166.59375 107.105469 C 164.957031 107.585938 163.441406 106.585938 161.84375 106.667969 C 161.402344 106.707031 161.601562 106.464844 161.5625 106.308594 C 161.484375 105.828125 161.445312 105.390625 161.5625 104.910156 C 161.644531 104.628906 161.601562 104.3125 161.125 104.472656 C 160.964844 104.511719 161.003906 104.511719 160.84375 104.3125 C 160.765625 104.152344 160.605469 103.992188 160.445312 103.953125 C 160.125 103.910156 160.207031 104.152344 160.285156 104.351562 C 160.484375 104.910156 159.648438 104.671875 159.726562 105.109375 C 160.085938 105.230469 160.804688 105.070312 160.804688 105.46875 C 160.804688 105.949219 160.367188 106.425781 160.085938 106.90625 C 160.046875 106.945312 159.847656 106.984375 159.808594 106.945312 C 158.96875 106.265625 158.410156 106.546875 157.972656 107.386719 C 157.929688 107.503906 157.570312 107.542969 157.453125 107.503906 C 157.210938 107.34375 157.691406 107.066406 157.410156 106.824219 C 157.09375 106.785156 157.171875 107.386719 156.691406 107.226562 C 156.773438 106.507812 157.011719 105.828125 157.410156 105.230469 C 157.492188 105.109375 157.613281 104.910156 157.652344 104.910156 C 158.171875 105.148438 158.53125 104.910156 158.328125 104.429688 C 158.050781 103.753906 157.8125 104.589844 157.53125 104.589844 C 156.613281 104.550781 156.652344 105.628906 156.015625 105.988281 C 155.535156 106.265625 155.136719 106.785156 154.578125 106.386719 C 153.859375 105.90625 154.578125 105.429688 154.777344 104.988281 C 153.9375 104.789062 153.9375 104.789062 153.820312 105.628906 C 153.820312 105.667969 153.621094 105.667969 153.539062 105.667969 C 153.179688 105.46875 153.421875 104.628906 152.582031 104.910156 C 151.703125 105.230469 152.5 105.789062 152.300781 106.226562 C 152.742188 105.949219 153.101562 105.707031 153.578125 105.589844 C 153.460938 105.90625 153.261719 106.1875 153.21875 106.507812 C 153.140625 106.824219 152.902344 107.105469 152.742188 106.984375 C 152.144531 106.625 151.542969 106.785156 150.945312 106.667969 C 150.066406 106.464844 150.027344 106.386719 150.066406 107.226562 C 150.066406 107.304688 150.027344 107.425781 149.945312 107.503906 C 149.707031 107.703125 149.429688 107.503906 149.1875 107.464844 C 149.027344 107.425781 149.027344 107.226562 149.148438 107.105469 C 150.148438 106.066406 148.75 105.707031 148.511719 104.988281 C 148.429688 104.710938 148.152344 105.230469 147.832031 105.269531 C 147.433594 105.308594 147.191406 104.230469 146.671875 105.070312 C 146.113281 105.988281 147.234375 105.667969 147.433594 106.027344 C 147.710938 106.507812 147.472656 106.867188 147.390625 107.304688 C 147.351562 107.542969 147.234375 107.703125 146.953125 107.703125 C 146.472656 107.703125 146.433594 107.425781 146.355469 106.984375 C 146.234375 106.347656 145.554688 106.546875 145.277344 106.746094 C 144.636719 107.144531 144.558594 106.90625 144.476562 106.308594 C 144.398438 105.707031 144.117188 105.628906 143.71875 106.105469 C 143.679688 106.148438 143.640625 106.226562 143.558594 106.265625 C 142.441406 107.304688 142.441406 107.304688 141.804688 105.90625 C 141.40625 106.066406 141.644531 106.386719 141.644531 106.667969 C 141.644531 106.867188 141.40625 107.105469 141.324219 106.984375 C 140.925781 106.066406 140.328125 107.066406 139.847656 106.824219 C 139.609375 106.707031 139.410156 106.507812 139.25 106.386719 C 138.890625 106.066406 138.890625 105.667969 138.691406 105.347656 C 138.449219 104.949219 138.011719 105.628906 137.371094 105.347656 C 138.691406 106.507812 138.691406 106.507812 137.332031 108.222656 C 137.730469 107.066406 137.453125 106.425781 136.613281 105.988281 C 136.292969 105.828125 136.574219 105.390625 136.695312 104.949219 C 136.214844 105.070312 135.777344 105.347656 135.375 104.949219 C 135.015625 104.589844 134.578125 104.789062 134.300781 105.109375 C 134.179688 105.230469 134.097656 105.75 134.457031 105.589844 C 135.058594 105.347656 135.417969 106.027344 136.015625 105.628906 C 135.617188 106.867188 134.777344 106.707031 134.097656 106.425781 C 133.582031 106.1875 133.421875 106.1875 133.101562 106.667969 C 132.503906 107.503906 132.222656 107.304688 131.542969 106.585938 C 130.867188 105.867188 130.585938 104.949219 129.867188 104.3125 C 129.589844 104.070312 129.46875 103.832031 129.109375 104.230469 C 128.871094 104.511719 128.429688 104.589844 128.949219 105.03125 C 129.546875 105.507812 128.589844 105.828125 128.789062 106.308594 L 128.832031 106.265625 C 128.191406 105.949219 127.992188 106.425781 127.832031 106.867188 C 127.632812 107.34375 127.671875 107.34375 127.234375 107.027344 C 126.753906 106.667969 126.273438 105.90625 125.835938 107.027344 C 125.515625 106.824219 125.597656 106.625 125.675781 106.425781 C 125.835938 106.105469 125.558594 105.867188 125.398438 105.828125 C 124.957031 105.667969 125.238281 106.066406 125.199219 106.1875 C 125.078125 106.464844 124.878906 106.308594 124.71875 106.265625 C 124.359375 106.1875 124.320312 105.867188 124.480469 105.667969 C 124.757812 105.269531 124.839844 104.949219 124.320312 104.550781 C 124 105.90625 123.203125 106.585938 121.804688 106.464844 C 121.085938 106.386719 120.40625 106.625 119.6875 106.824219 C 118.332031 107.226562 118.171875 107.066406 118.132812 105.667969 C 118.453125 105.828125 118.332031 106.707031 118.890625 106.265625 C 119.050781 106.148438 119.488281 105.347656 119.128906 104.988281 C 118.808594 104.671875 118.492188 105.230469 118.210938 105.507812 C 118.171875 105.546875 118.171875 105.628906 118.132812 105.707031 C 118.011719 105.949219 117.054688 105.828125 117.8125 106.507812 C 118.050781 106.707031 117.933594 107.144531 117.734375 107.34375 C 117.492188 107.542969 117.132812 107.386719 116.972656 107.144531 C 116.496094 106.585938 116.097656 106.746094 115.894531 107.304688 C 115.617188 108.101562 115.296875 107.585938 115.097656 107.34375 C 114.617188 106.824219 114.617188 106.867188 114.261719 107.386719 C 114.058594 107.664062 113.660156 107.503906 113.339844 107.503906 C 113.0625 107.027344 113.902344 106.984375 113.621094 106.507812 C 113.421875 106.386719 113.339844 106.625 113.222656 106.707031 C 113.023438 106.867188 112.824219 106.984375 112.625 106.746094 C 112.421875 106.507812 112.542969 106.265625 112.742188 106.066406 C 112.941406 105.90625 113.023438 105.707031 113.382812 105.707031 C 113.78125 105.75 113.820312 105.347656 113.699219 105.070312 C 113.542969 104.671875 111.785156 104.390625 111.546875 104.789062 C 111.066406 105.589844 110.546875 105.347656 109.867188 104.871094 C 109.988281 105.429688 110.269531 105.667969 110.628906 105.867188 C 110.945312 106.066406 111.144531 106.347656 110.90625 106.707031 C 110.667969 107.027344 110.425781 106.945312 110.027344 106.785156 C 109.070312 106.347656 108.710938 105.628906 108.871094 104.550781 C 108.433594 104.910156 107.992188 105.148438 108.3125 105.707031 C 108.589844 106.226562 108.550781 106.746094 108.113281 107.105469 C 107.59375 107.464844 107.234375 106.984375 106.835938 106.707031 C 106.636719 106.585938 106.515625 106.386719 106.234375 106.066406 C 106.554688 107.105469 105.835938 107.066406 105.316406 107.386719 C 104.640625 107.785156 104.480469 106.90625 103.921875 106.945312 C 103.761719 106.945312 103.921875 106.625 104 106.507812 C 104.28125 106.148438 104.082031 105.867188 103.839844 105.628906 C 103.480469 105.308594 103.523438 105.867188 103.28125 105.949219 C 102.882812 106.105469 102.484375 106.347656 102.164062 106.625 C 101.964844 106.785156 101.925781 107.144531 101.605469 106.867188 C 101.324219 106.585938 101.484375 106.308594 101.804688 106.1875 C 102.203125 106.027344 102.285156 105.75 102.164062 105.390625 C 102.042969 105.070312 101.644531 105.109375 101.367188 105.148438 C 101.046875 105.148438 100.847656 105.429688 101.007812 105.707031 C 101.527344 106.507812 101.007812 106.425781 100.488281 106.425781 C 100.207031 106.425781 99.890625 106.464844 99.609375 106.464844 C 99.050781 106.507812 98.8125 106.347656 99.089844 105.789062 C 99.25 105.429688 99.289062 104.988281 98.730469 104.988281 C 98.371094 104.988281 97.8125 105.03125 98.171875 105.707031 C 98.292969 105.90625 96.535156 107.464844 96.257812 107.464844 C 95.9375 107.464844 95.617188 107.34375 95.539062 107.066406 C 95.378906 106.667969 95.816406 106.464844 96.015625 106.464844 C 96.535156 106.425781 96.695312 106.105469 96.855469 105.707031 C 96.976562 105.429688 96.933594 105.269531 96.695312 105.148438 C 96.417969 104.988281 96.296875 105.109375 96.296875 105.429688 C 96.296875 105.75 96.058594 105.75 95.9375 105.628906 C 95.65625 105.230469 95.539062 104.710938 94.820312 104.910156 C 94.699219 104.949219 94.738281 104.429688 94.898438 104.152344 C 95.058594 103.871094 95.539062 103.871094 95.496094 103.433594 C 94.339844 103.710938 93.144531 105.070312 93.183594 106.027344 C 93.183594 106.066406 93.183594 106.105469 93.183594 106.148438 C 93.382812 106.90625 93.382812 106.90625 92.503906 107.144531 C 92.742188 106.347656 92.183594 105.90625 91.867188 105.308594 C 91.464844 104.550781 90.746094 104.988281 90.347656 104.589844 C 90.109375 104.589844 89.910156 104.628906 89.667969 104.628906 C 89.191406 104.988281 88.511719 105.269531 88.792969 106.105469 C 88.953125 106.507812 88.550781 106.425781 88.433594 106.425781 C 88.035156 106.464844 88.234375 106.226562 88.3125 106.105469 C 88.511719 105.789062 88.273438 105.507812 88.074219 105.46875 C 87.753906 105.390625 87.316406 105.429688 87.035156 105.589844 C 86.835938 105.707031 86.914062 106.027344 87.15625 106.226562 C 87.515625 106.507812 87.234375 106.707031 86.996094 106.785156 C 86.796875 106.867188 86.515625 107.144531 86.316406 106.746094 C 86.238281 106.585938 86.078125 106.425781 86.039062 106.265625 C 85.957031 105.988281 85.796875 105.867188 85.558594 105.949219 C 85.238281 106.027344 85.476562 106.265625 85.4375 106.464844 C 85.320312 107.34375 84.839844 107.585938 84.28125 107.183594 C 84.042969 106.984375 83.921875 106.746094 84.121094 106.667969 C 84.558594 106.464844 83.761719 105.667969 84.640625 105.789062 C 84.878906 105.828125 85.160156 105.75 85.121094 105.347656 C 85.078125 104.949219 84.71875 105.148438 84.558594 104.949219 C 84.28125 104.710938 84.28125 104.949219 84.121094 105.148438 C 83.601562 105.828125 82.921875 106.347656 83.125 107.34375 C 83.164062 107.585938 82.484375 107.664062 82.324219 107.503906 C 82.046875 107.265625 81.605469 107.144531 81.488281 106.746094 C 81.328125 106.1875 80.96875 106.265625 80.609375 106.507812 C 79.648438 107.144531 78.214844 107.066406 77.375 106.226562 C 76.894531 105.75 76.457031 106.148438 76.175781 106.105469 C 75.019531 105.90625 74.660156 107.183594 73.664062 107.226562 C 73.183594 107.265625 72.785156 107.382812 72.542969 106.984375 C 72.304688 106.585938 72.703125 106.347656 73.023438 106.1875 C 73.105469 106.148438 73.144531 106.027344 73.261719 105.90625 C 72.664062 105.507812 72.144531 105.230469 71.945312 106.226562 C 71.746094 107.183594 70.507812 106.984375 70.390625 106.90625 C 69.152344 106.226562 69.269531 107.34375 68.992188 107.863281 C 68.914062 107.984375 68.832031 108.101562 68.671875 108.382812 C 68.554688 107.785156 68.671875 107.183594 68.074219 106.984375 C 67.875 106.945312 67.992188 106.625 68.035156 106.625 C 69.230469 106.105469 67.835938 105.789062 67.953125 105.347656 C 67.953125 105.308594 67.875 105.230469 67.875 105.148438 C 67.835938 105.1875 67.753906 105.230469 67.753906 105.269531 C 67.554688 106.027344 67.355469 105.347656 67.15625 105.308594 C 66.558594 105.1875 66.875 105.507812 66.875 105.828125 C 66.835938 106.386719 66.597656 106.945312 66.714844 107.585938 C 66.757812 107.742188 66.558594 108.023438 66.238281 107.902344 C 66 107.824219 65.796875 107.703125 65.878906 107.425781 C 66 107.066406 66 106.785156 65.558594 106.464844 C 65.796875 107.863281 64.363281 107.503906 63.882812 108.222656 C 63.722656 108.460938 63.324219 108.183594 63.203125 107.902344 C 63.003906 107.503906 63.683594 107.542969 63.644531 107.183594 C 63.960938 107.226562 64.363281 107.144531 63.960938 106.785156 C 63.324219 106.148438 62.964844 105.429688 62.925781 104.429688 C 62.367188 104.871094 62.765625 105.746094 61.964844 105.707031 C 61.964844 105.707031 62.007812 105.707031 62.007812 105.707031 C 61.527344 105.667969 61.167969 105.867188 60.96875 106.347656 C 60.609375 107.226562 60.210938 107.304688 59.410156 106.746094 C 58.734375 106.265625 56.976562 106.625 56.617188 107.382812 C 56.496094 107.664062 56.21875 107.703125 55.980469 107.742188 C 55.539062 107.824219 55.738281 107.464844 55.621094 107.265625 C 55.300781 106.746094 54.859375 106.386719 55.019531 105.589844 C 55.101562 105.148438 54.421875 105.347656 54.101562 105.230469 C 53.78125 105.109375 53.664062 105.429688 53.625 105.707031 C 53.582031 106.148438 53.703125 106.265625 54.101562 106.105469 C 54.023438 106.308594 55.019531 106.386719 54.140625 106.707031 C 53.863281 106.785156 54.5 107.226562 54.023438 107.464844 C 53.183594 106.984375 53.34375 105.988281 52.945312 105.269531 C 52.707031 104.828125 52.546875 104.550781 52.105469 105.03125 C 51.707031 105.46875 51.269531 105.308594 50.789062 105.109375 C 50.308594 104.910156 50.46875 105.269531 50.46875 105.507812 L 50.507812 105.46875 C 49.632812 105.308594 49.511719 106.105469 49.191406 106.707031 Z M 181.640625 89.101562 C 181.402344 88.824219 181.125 88.542969 180.925781 88.265625 C 180.644531 87.863281 180.285156 87.90625 180.125 88.265625 C 179.566406 89.542969 178.726562 88.863281 178.128906 88.703125 C 177.410156 88.902344 178.570312 89.300781 177.808594 89.542969 C 177.25 89.699219 177.171875 90.058594 177.609375 90.300781 C 178.648438 90.859375 178.128906 91.058594 177.449219 91.335938 C 177.292969 91.417969 177.09375 91.578125 177.171875 91.9375 C 177.808594 91.65625 178.648438 91.535156 179.046875 91.179688 C 180.007812 90.257812 180.964844 90.417969 182.042969 90.617188 C 182.203125 90.660156 182.402344 90.859375 182.519531 90.699219 C 182.679688 90.5 182.601562 90.300781 182.441406 90.101562 C 182.320312 89.941406 181.921875 89.859375 182.082031 89.621094 C 182.878906 88.382812 181.5625 89.460938 181.640625 89.101562 C 181.800781 88.421875 182.601562 88.78125 182.960938 88.265625 C 182.121094 88.34375 182.203125 87.34375 181.5625 87.144531 C 181.523438 87.824219 181.125 88.464844 181.640625 89.101562 Z M 16.976562 63.433594 C 16.578125 63.675781 16.660156 63.953125 16.660156 64.191406 C 16.660156 64.433594 16.898438 64.75 16.539062 64.871094 C 16.179688 65.03125 16.179688 64.632812 15.980469 64.511719 C 15.742188 64.351562 15.421875 64.074219 15.023438 64.632812 C 16.699219 64.792969 14.902344 66.230469 16.019531 66.789062 C 15.820312 66.308594 16.539062 66.230469 16.257812 65.710938 C 16.179688 65.550781 16.417969 65.308594 16.617188 65.230469 C 16.699219 65.191406 16.816406 65.269531 16.898438 65.351562 C 17.175781 65.628906 16.859375 65.667969 16.699219 65.828125 C 16.460938 66.070312 16.460938 66.507812 16.617188 66.667969 C 17.175781 67.148438 16.617188 67.386719 16.378906 67.664062 C 17.296875 67.90625 17.257812 66.90625 17.816406 66.707031 C 17.976562 66.667969 17.894531 66.46875 17.777344 66.347656 C 17.417969 65.949219 17.378906 65.871094 17.816406 65.667969 C 18.296875 65.46875 18.414062 65.191406 17.976562 64.953125 C 17.417969 64.671875 17.335938 63.992188 16.976562 63.433594 Z M 15.898438 71.457031 C 15.941406 70.699219 16.539062 70.621094 17.058594 70.460938 C 17.65625 70.300781 17.695312 69.542969 17.65625 69.300781 C 17.578125 68.664062 17.097656 69.144531 16.816406 69.300781 C 16.460938 69.503906 16.140625 69.261719 15.820312 69.183594 C 15.660156 69.144531 15.699219 68.664062 15.382812 68.984375 C 15.140625 69.222656 15.261719 69.503906 15.5 69.621094 C 16.058594 69.941406 16.058594 70.261719 15.742188 70.78125 C 15.699219 70.859375 15.660156 71.21875 15.898438 71.457031 Z M 55.378906 105.109375 C 56.738281 105.546875 57.972656 105.628906 59.453125 105.667969 C 58.253906 104.511719 56.539062 104.3125 55.378906 105.109375 Z M 24.84375 104.828125 C 24.761719 105.546875 24.324219 106.066406 23.804688 106.027344 C 23.125 105.949219 23.363281 106.347656 23.445312 106.546875 C 23.605469 107.066406 24.402344 107.105469 24.882812 106.707031 C 25.640625 106.105469 25.160156 105.546875 24.84375 104.828125 Z M 77.375 20.679688 C 76.65625 19.882812 76.019531 21.28125 75.339844 20.679688 C 75.257812 20.800781 75.140625 20.921875 75.140625 21.039062 C 75.21875 21.441406 74.980469 21.878906 75.300781 22.359375 C 75.9375 21.558594 76.9375 21.519531 77.375 20.679688 Z M 18.015625 72.695312 C 18.335938 71.898438 18.773438 71.296875 18.613281 70.539062 C 18.574219 70.300781 18.933594 69.859375 18.535156 69.820312 C 17.976562 69.78125 18.097656 70.660156 17.535156 70.78125 C 17.378906 70.820312 17.296875 71.097656 17.378906 71.097656 C 18.296875 71.296875 17.65625 72.015625 18.015625 72.695312 Z M 39.210938 17.648438 C 38.972656 17.648438 38.972656 17.847656 38.933594 18.046875 C 38.695312 18.726562 39.292969 18.925781 39.570312 19.324219 C 39.691406 19.484375 39.8125 19.722656 40.089844 19.644531 C 40.449219 19.523438 40.289062 19.125 40.449219 18.886719 C 40.609375 18.605469 40.371094 18.484375 40.132812 18.40625 C 39.851562 18.328125 39.453125 18.40625 39.53125 17.886719 C 39.53125 17.726562 39.371094 17.648438 39.210938 17.648438 Z M 28.792969 105.828125 C 27.835938 105.667969 28.355469 106.464844 28.355469 106.625 C 28.433594 107.105469 29.152344 106.667969 29.3125 107.144531 C 29.792969 106.90625 29.953125 106.1875 29.910156 105.988281 C 29.753906 104.710938 29.035156 106.746094 28.792969 105.828125 Z M 36.617188 19.324219 C 36.738281 20.363281 37.375 20.523438 38.015625 20.679688 C 38.175781 20.722656 38.535156 21.039062 38.574219 20.5625 C 38.574219 20.320312 38.773438 20.003906 38.253906 19.882812 C 37.777344 19.804688 37.257812 19.5625 36.617188 19.324219 Z M 160.886719 3.835938 C 161.601562 3.835938 162.242188 3.757812 162.523438 2.996094 C 162.5625 2.878906 162.203125 2.4375 161.882812 2.558594 C 161.242188 2.71875 160.566406 2.917969 160.886719 3.835938 Z M 32.585938 104.113281 C 32.265625 104.390625 32.148438 104.75 31.789062 104.910156 C 31.589844 105.03125 31.429688 105.1875 31.667969 105.429688 C 31.988281 105.789062 32.105469 105.429688 32.226562 105.269531 C 32.585938 105.828125 31.546875 106.027344 31.949219 106.667969 C 32.265625 106.386719 32.824219 106.148438 32.867188 105.828125 C 32.984375 105.269531 32.425781 104.75 32.585938 104.113281 Z M 194.417969 12.539062 C 194.136719 11.738281 193.898438 11.222656 193.417969 10.863281 C 193.257812 10.742188 193.140625 10.621094 192.941406 10.703125 C 192.660156 10.78125 192.859375 10.980469 192.859375 11.140625 C 192.898438 12.019531 193.578125 12.21875 194.417969 12.539062 Z M 104.878906 105.230469 C 105.476562 105.230469 105.996094 105.390625 106.59375 105.308594 C 106.953125 105.269531 106.953125 105.03125 107.035156 104.789062 C 107.074219 104.671875 106.996094 104.390625 106.835938 104.472656 C 106.234375 104.75 105.277344 104.070312 104.878906 105.230469 Z M 120.6875 104.671875 C 120.847656 104.472656 120.765625 104.191406 120.648438 104.070312 C 120.488281 103.910156 120.328125 104.152344 120.167969 104.230469 C 119.808594 104.429688 120.089844 104.628906 120.128906 104.871094 C 120.246094 105.390625 120.726562 105.269531 121.007812 105.46875 C 121.285156 105.667969 121.445312 105.789062 121.683594 105.507812 C 121.765625 105.429688 121.84375 105.269531 121.804688 105.230469 C 121.605469 105.03125 121.367188 104.910156 121.046875 104.988281 C 120.648438 105.070312 120.648438 105.03125 120.6875 104.671875 Z M 15.859375 76.847656 C 16.5 77.566406 15.820312 78.125 15.78125 78.84375 C 16.738281 78.246094 17.65625 77.726562 15.859375 76.847656 Z M 18.335938 64.3125 C 18.136719 63.792969 17.816406 63.394531 18.214844 62.957031 C 18.414062 62.753906 18.296875 62.554688 18.136719 62.515625 C 17.777344 62.4375 17.378906 62.355469 17.058594 62.554688 C 16.976562 62.597656 16.976562 62.796875 16.9375 62.957031 C 17.816406 62.875 17.535156 64.074219 18.335938 64.3125 Z M 71.785156 20.082031 C 71.265625 20.320312 70.90625 19.363281 70.46875 19.964844 C 69.910156 20.722656 71.347656 20.640625 71.109375 21.359375 C 71.425781 20.921875 71.308594 20.402344 71.785156 20.082031 Z M 12.707031 24.035156 C 13.464844 24.792969 14.222656 24.632812 14.703125 24.472656 C 15.140625 24.3125 14.34375 23.914062 14.421875 23.277344 C 13.984375 23.953125 13.503906 24.15625 12.707031 24.035156 Z M 132.863281 103.953125 C 132.382812 104.390625 131.585938 104.230469 131.503906 105.03125 C 131.503906 105.148438 131.542969 105.308594 131.585938 105.429688 C 131.625 105.507812 131.746094 105.507812 131.824219 105.390625 C 132.222656 105.03125 132.941406 104.871094 132.863281 103.953125 Z M 17.136719 75.570312 C 17.097656 75.171875 17.058594 74.851562 17.058594 74.570312 C 17.058594 74.171875 16.699219 74.171875 16.5 74.011719 C 16.460938 73.972656 16.300781 74.09375 16.257812 74.132812 C 16.140625 74.371094 16.101562 74.691406 16.417969 74.769531 C 16.816406 74.890625 16.617188 75.410156 17.136719 75.570312 Z M 89.628906 106.265625 C 89.511719 106.347656 89.511719 106.746094 89.871094 106.867188 C 90.386719 107.066406 90.949219 107.105469 91.507812 107.066406 C 91.707031 107.066406 91.867188 106.945312 91.867188 106.746094 C 91.867188 106.507812 91.785156 106.308594 91.507812 106.226562 C 91.347656 106.1875 91.226562 105.988281 90.988281 106.109375 C 90.667969 106.308594 90.589844 106.265625 90.589844 105.90625 C 90.589844 105.390625 90.707031 104.871094 90.429688 104.390625 C 90.1875 104.390625 89.988281 104.429688 89.75 104.429688 C 89.789062 105.03125 90.308594 105.667969 89.628906 106.265625 Z M 50.550781 105.308594 C 50.46875 105.46875 50.308594 105.75 50.351562 105.789062 C 51.148438 106.667969 50.191406 107.027344 49.832031 107.585938 C 50.710938 107.742188 51.46875 107.464844 52.226562 106.945312 C 51.867188 106.425781 51.070312 106.308594 51.070312 105.507812 C 51.070312 105.46875 50.667969 105.429688 50.46875 105.390625 Z M 44.363281 106.347656 C 44.28125 106.425781 44.242188 106.546875 44.164062 106.585938 C 43.523438 106.824219 43.484375 107.464844 43.683594 107.863281 C 44.003906 108.421875 44.523438 108.023438 44.960938 107.863281 C 45.160156 107.785156 45.359375 107.703125 45.359375 107.265625 C 44.839844 107.664062 44.523438 107.625 44.601562 106.90625 C 44.640625 106.707031 44.5625 106.507812 44.363281 106.347656 C 44.363281 106.386719 44.402344 106.347656 44.363281 106.347656 Z M 61.527344 106.066406 C 61.328125 106.464844 61.246094 106.824219 61.6875 107.105469 C 62.046875 107.34375 62.523438 107.183594 62.726562 107.027344 C 63.125 106.707031 62.726562 106.425781 62.445312 106.148438 C 62.285156 105.988281 62.164062 105.75 62.007812 105.507812 C 62.007812 105.507812 62.046875 105.507812 62.046875 105.507812 C 61.808594 105.628906 61.648438 105.828125 61.527344 106.066406 Z M 178.847656 105.1875 C 178.289062 105.1875 177.609375 105.589844 177.609375 105.90625 C 177.609375 106.507812 177.929688 105.789062 178.128906 105.867188 C 178.25 105.90625 178.410156 105.988281 178.488281 106.105469 C 178.6875 106.347656 178.886719 106.667969 179.167969 106.464844 C 179.367188 106.308594 179.367188 105.949219 179.445312 105.707031 C 179.445312 105.230469 179.167969 105.1875 178.847656 105.1875 Z M 196.414062 37.847656 C 195.894531 38.367188 195.613281 39.003906 195.335938 39.644531 C 195.773438 39.644531 196.210938 39.5625 196.652344 39.601562 C 197.089844 39.644531 197.25 39.402344 197.410156 39.082031 C 197.449219 39.003906 197.410156 38.804688 197.332031 38.804688 C 196.851562 38.644531 196.890625 39.164062 196.691406 39.363281 C 196.652344 39.402344 196.570312 39.363281 196.371094 39.402344 C 196.492188 38.882812 196.570312 38.367188 196.414062 37.847656 Z M 128.75 106.105469 C 128.832031 106.386719 128.3125 106.707031 128.710938 106.984375 C 129.148438 107.304688 129.347656 106.667969 129.789062 106.625 C 130.226562 106.625 130.1875 106.109375 130.109375 105.828125 C 129.988281 105.546875 129.667969 105.46875 129.347656 105.667969 C 129.148438 105.828125 128.949219 105.988281 128.75 106.105469 C 128.710938 106.148438 128.75 106.105469 128.75 106.105469 Z M 180.84375 103.832031 C 180.484375 104.191406 180.285156 104.589844 180.285156 105.070312 C 180.285156 105.347656 180.285156 105.589844 180.566406 105.707031 C 180.882812 105.828125 181.042969 105.589844 181.164062 105.347656 C 181.363281 105.070312 181.441406 104.75 181.285156 104.511719 C 180.882812 103.992188 180.84375 103.992188 180.84375 103.832031 Z M 195.292969 45.3125 C 195.652344 45.511719 196.09375 45.589844 196.171875 46.109375 C 196.210938 46.347656 196.054688 46.828125 196.570312 46.667969 C 197.011719 46.546875 196.8125 46.109375 196.730469 45.789062 C 196.414062 45.113281 195.933594 45.03125 195.292969 45.3125 C 195.292969 45.351562 195.292969 45.3125 195.292969 45.3125 Z M 196.53125 85.109375 C 196.773438 85.148438 196.929688 85.03125 197.011719 84.789062 C 197.050781 84.671875 197.210938 84.472656 196.972656 84.511719 C 196.210938 84.710938 196.414062 83.714844 195.695312 83.632812 C 195.613281 84.351562 195.695312 84.910156 196.53125 85.109375 Z M 192.699219 94.96875 C 192.738281 95.328125 193.019531 95.6875 193.257812 96.007812 C 193.339844 96.128906 193.539062 96.007812 193.617188 95.929688 C 193.738281 95.808594 193.816406 95.648438 193.699219 95.570312 C 193.179688 95.25 193.539062 94.808594 193.457031 94.410156 C 193.019531 94.371094 192.660156 94.609375 192.699219 94.96875 Z M 123.761719 106.308594 C 123.121094 106.226562 123.480469 106.90625 123.28125 107.183594 C 123.082031 107.425781 123.640625 107.742188 123.878906 107.824219 C 124.28125 107.945312 124.238281 107.503906 124.398438 107.144531 C 124 107.027344 124.238281 106.386719 123.761719 106.308594 Z M 197.089844 37.007812 C 196.972656 36.929688 196.890625 36.769531 196.773438 36.769531 C 196.453125 36.769531 196.292969 37.007812 196.171875 37.289062 C 196.132812 37.367188 196.09375 37.488281 196.011719 37.527344 C 195.773438 37.648438 195.613281 37.765625 195.855469 38.007812 C 196.054688 38.164062 196.253906 38.046875 196.414062 37.847656 C 197.210938 38.007812 196.691406 37.167969 197.089844 37.007812 Z M 7.277344 98.84375 C 7.199219 98.84375 7.117188 98.84375 7.039062 98.84375 C 6.640625 98.644531 5.878906 98.285156 5.800781 98.601562 C 5.601562 99.28125 6.441406 99 6.757812 99.203125 C 6.957031 99.320312 7.039062 99.71875 7.316406 99.402344 C 7.4375 99.320312 7.277344 99 7.277344 98.84375 C 7.238281 98.800781 7.277344 98.84375 7.277344 98.84375 Z M 7.277344 98.84375 " fill-opacity="1" fill-rule="nonzero"/></g></g></g></g></svg>