<svg xmlns="http://www.w3.org/2000/svg" xmlns:xlink="http://www.w3.org/1999/xlink" width="100" zoomAndPan="magnify" viewBox="0 0 75 37.5" height="50" preserveAspectRatio="xMidYMid meet" version="1.0"><defs><g/></defs><g fill="#000000" fill-opacity="1"><g transform="translate(2.231079, 16.443653)"><g><path d="M 3.859375 -4.8125 L 3.859375 -4.015625 L 2.46875 -4.015625 L 2.46875 0 L 1.515625 0 L 1.515625 -4.015625 L 0.125 -4.015625 L 0.125 -4.8125 Z M 3.859375 -4.8125 "/></g></g></g><g fill="#000000" fill-opacity="1"><g transform="translate(6.224201, 16.443653)"><g><path d="M 2.625 0.0625 C 2.1875 0.0625 1.796875 -0.0234375 1.453125 -0.203125 C 1.117188 -0.378906 0.851562 -0.648438 0.65625 -1.015625 C 0.46875 -1.390625 0.375 -1.851562 0.375 -2.40625 C 0.375 -2.957031 0.46875 -3.414062 0.65625 -3.78125 C 0.851562 -4.15625 1.117188 -4.429688 1.453125 -4.609375 C 1.796875 -4.796875 2.1875 -4.890625 2.625 -4.890625 C 3.070312 -4.890625 3.460938 -4.796875 3.796875 -4.609375 C 4.128906 -4.429688 4.390625 -4.15625 4.578125 -3.78125 C 4.773438 -3.414062 4.875 -2.957031 4.875 -2.40625 C 4.875 -1.851562 4.773438 -1.390625 4.578125 -1.015625 C 4.390625 -0.648438 4.128906 -0.378906 3.796875 -0.203125 C 3.460938 -0.0234375 3.070312 0.0625 2.625 0.0625 Z M 2.625 -0.765625 C 3.03125 -0.765625 3.34375 -0.894531 3.5625 -1.15625 C 3.78125 -1.414062 3.890625 -1.832031 3.890625 -2.40625 C 3.890625 -2.976562 3.78125 -3.394531 3.5625 -3.65625 C 3.34375 -3.925781 3.03125 -4.0625 2.625 -4.0625 C 2.21875 -4.0625 1.90625 -3.925781 1.6875 -3.65625 C 1.46875 -3.394531 1.359375 -2.976562 1.359375 -2.40625 C 1.359375 -1.832031 1.46875 -1.414062 1.6875 -1.15625 C 1.90625 -0.894531 2.21875 -0.765625 2.625 -0.765625 Z M 2.625 -0.765625 "/></g></g></g><g fill="#000000" fill-opacity="1"><g transform="translate(11.472587, 16.443653)"><g><path d="M 2.359375 -4.8125 C 3.140625 -4.8125 3.734375 -4.609375 4.140625 -4.203125 C 4.554688 -3.804688 4.765625 -3.207031 4.765625 -2.40625 C 4.765625 -1.613281 4.554688 -1.015625 4.140625 -0.609375 C 3.734375 -0.203125 3.140625 0 2.359375 0 L 0.625 0 L 0.625 -4.8125 Z M 2.296875 -0.796875 C 2.796875 -0.796875 3.164062 -0.921875 3.40625 -1.171875 C 3.65625 -1.429688 3.78125 -1.84375 3.78125 -2.40625 C 3.78125 -2.96875 3.65625 -3.375 3.40625 -3.625 C 3.164062 -3.882812 2.796875 -4.015625 2.296875 -4.015625 L 1.578125 -4.015625 L 1.578125 -0.796875 Z M 2.296875 -0.796875 "/></g></g></g><g fill="#000000" fill-opacity="1"><g transform="translate(16.622133, 16.443653)"><g><path d="M 2.625 0.0625 C 2.1875 0.0625 1.796875 -0.0234375 1.453125 -0.203125 C 1.117188 -0.378906 0.851562 -0.648438 0.65625 -1.015625 C 0.46875 -1.390625 0.375 -1.851562 0.375 -2.40625 C 0.375 -2.957031 0.46875 -3.414062 0.65625 -3.78125 C 0.851562 -4.15625 1.117188 -4.429688 1.453125 -4.609375 C 1.796875 -4.796875 2.1875 -4.890625 2.625 -4.890625 C 3.070312 -4.890625 3.460938 -4.796875 3.796875 -4.609375 C 4.128906 -4.429688 4.390625 -4.15625 4.578125 -3.78125 C 4.773438 -3.414062 4.875 -2.957031 4.875 -2.40625 C 4.875 -1.851562 4.773438 -1.390625 4.578125 -1.015625 C 4.390625 -0.648438 4.128906 -0.378906 3.796875 -0.203125 C 3.460938 -0.0234375 3.070312 0.0625 2.625 0.0625 Z M 2.625 -0.765625 C 3.03125 -0.765625 3.34375 -0.894531 3.5625 -1.15625 C 3.78125 -1.414062 3.890625 -1.832031 3.890625 -2.40625 C 3.890625 -2.976562 3.78125 -3.394531 3.5625 -3.65625 C 3.34375 -3.925781 3.03125 -4.0625 2.625 -4.0625 C 2.21875 -4.0625 1.90625 -3.925781 1.6875 -3.65625 C 1.46875 -3.394531 1.359375 -2.976562 1.359375 -2.40625 C 1.359375 -1.832031 1.46875 -1.414062 1.6875 -1.15625 C 1.90625 -0.894531 2.21875 -0.765625 2.625 -0.765625 Z M 2.625 -0.765625 "/></g></g></g><g fill="#000000" fill-opacity="1"><g transform="translate(21.870519, 16.443653)"><g><path d="M 2.140625 0.0625 C 1.804688 0.0625 1.507812 0.0234375 1.25 -0.046875 C 0.988281 -0.128906 0.769531 -0.238281 0.59375 -0.375 C 0.414062 -0.507812 0.28125 -0.660156 0.1875 -0.828125 L 0.71875 -1.453125 L 0.796875 -1.453125 C 0.941406 -1.242188 1.125 -1.070312 1.34375 -0.9375 C 1.570312 -0.8125 1.835938 -0.75 2.140625 -0.75 C 2.390625 -0.75 2.578125 -0.800781 2.703125 -0.90625 C 2.835938 -1.019531 2.90625 -1.171875 2.90625 -1.359375 C 2.90625 -1.472656 2.882812 -1.566406 2.84375 -1.640625 C 2.800781 -1.722656 2.726562 -1.789062 2.625 -1.84375 C 2.53125 -1.894531 2.40625 -1.941406 2.25 -1.984375 L 1.625 -2.125 C 1.1875 -2.226562 0.863281 -2.394531 0.65625 -2.625 C 0.445312 -2.851562 0.34375 -3.148438 0.34375 -3.515625 C 0.34375 -3.785156 0.410156 -4.023438 0.546875 -4.234375 C 0.679688 -4.441406 0.878906 -4.601562 1.140625 -4.71875 C 1.398438 -4.832031 1.710938 -4.890625 2.078125 -4.890625 C 2.441406 -4.890625 2.753906 -4.835938 3.015625 -4.734375 C 3.285156 -4.640625 3.515625 -4.492188 3.703125 -4.296875 L 3.234375 -3.640625 L 3.140625 -3.640625 C 3.003906 -3.785156 2.847656 -3.894531 2.671875 -3.96875 C 2.492188 -4.039062 2.296875 -4.078125 2.078125 -4.078125 C 1.816406 -4.078125 1.613281 -4.03125 1.46875 -3.9375 C 1.332031 -3.84375 1.265625 -3.710938 1.265625 -3.546875 C 1.265625 -3.398438 1.3125 -3.28125 1.40625 -3.1875 C 1.507812 -3.101562 1.675781 -3.035156 1.90625 -2.984375 L 2.546875 -2.84375 C 3.015625 -2.75 3.351562 -2.582031 3.5625 -2.34375 C 3.769531 -2.101562 3.875 -1.796875 3.875 -1.421875 C 3.875 -1.117188 3.804688 -0.851562 3.671875 -0.625 C 3.546875 -0.40625 3.351562 -0.234375 3.09375 -0.109375 C 2.832031 0.00390625 2.515625 0.0625 2.140625 0.0625 Z M 2.140625 0.0625 "/></g></g></g><g fill="#000000" fill-opacity="1"><g transform="translate(26.008606, 16.443653)"><g/></g></g><g fill="#000000" fill-opacity="1"><g transform="translate(27.599925, 16.443653)"><g><path d="M 1.578125 -4.8125 L 1.578125 -0.796875 L 3.75 -0.796875 L 3.75 0 L 0.625 0 L 0.625 -4.8125 Z M 1.578125 -4.8125 "/></g></g></g><g fill="#000000" fill-opacity="1"><g transform="translate(31.500797, 16.443653)"><g><path d="M 2.625 0.0625 C 2.1875 0.0625 1.796875 -0.0234375 1.453125 -0.203125 C 1.117188 -0.378906 0.851562 -0.648438 0.65625 -1.015625 C 0.46875 -1.390625 0.375 -1.851562 0.375 -2.40625 C 0.375 -2.957031 0.46875 -3.414062 0.65625 -3.78125 C 0.851562 -4.15625 1.117188 -4.429688 1.453125 -4.609375 C 1.796875 -4.796875 2.1875 -4.890625 2.625 -4.890625 C 3.070312 -4.890625 3.460938 -4.796875 3.796875 -4.609375 C 4.128906 -4.429688 4.390625 -4.15625 4.578125 -3.78125 C 4.773438 -3.414062 4.875 -2.957031 4.875 -2.40625 C 4.875 -1.851562 4.773438 -1.390625 4.578125 -1.015625 C 4.390625 -0.648438 4.128906 -0.378906 3.796875 -0.203125 C 3.460938 -0.0234375 3.070312 0.0625 2.625 0.0625 Z M 2.625 -0.765625 C 3.03125 -0.765625 3.34375 -0.894531 3.5625 -1.15625 C 3.78125 -1.414062 3.890625 -1.832031 3.890625 -2.40625 C 3.890625 -2.976562 3.78125 -3.394531 3.5625 -3.65625 C 3.34375 -3.925781 3.03125 -4.0625 2.625 -4.0625 C 2.21875 -4.0625 1.90625 -3.925781 1.6875 -3.65625 C 1.46875 -3.394531 1.359375 -2.976562 1.359375 -2.40625 C 1.359375 -1.832031 1.46875 -1.414062 1.6875 -1.15625 C 1.90625 -0.894531 2.21875 -0.765625 2.625 -0.765625 Z M 2.625 -0.765625 "/></g></g></g><g fill="#000000" fill-opacity="1"><g transform="translate(36.749183, 16.443653)"><g><path d="M 2.140625 0.0625 C 1.804688 0.0625 1.507812 0.0234375 1.25 -0.046875 C 0.988281 -0.128906 0.769531 -0.238281 0.59375 -0.375 C 0.414062 -0.507812 0.28125 -0.660156 0.1875 -0.828125 L 0.71875 -1.453125 L 0.796875 -1.453125 C 0.941406 -1.242188 1.125 -1.070312 1.34375 -0.9375 C 1.570312 -0.8125 1.835938 -0.75 2.140625 -0.75 C 2.390625 -0.75 2.578125 -0.800781 2.703125 -0.90625 C 2.835938 -1.019531 2.90625 -1.171875 2.90625 -1.359375 C 2.90625 -1.472656 2.882812 -1.566406 2.84375 -1.640625 C 2.800781 -1.722656 2.726562 -1.789062 2.625 -1.84375 C 2.53125 -1.894531 2.40625 -1.941406 2.25 -1.984375 L 1.625 -2.125 C 1.1875 -2.226562 0.863281 -2.394531 0.65625 -2.625 C 0.445312 -2.851562 0.34375 -3.148438 0.34375 -3.515625 C 0.34375 -3.785156 0.410156 -4.023438 0.546875 -4.234375 C 0.679688 -4.441406 0.878906 -4.601562 1.140625 -4.71875 C 1.398438 -4.832031 1.710938 -4.890625 2.078125 -4.890625 C 2.441406 -4.890625 2.753906 -4.835938 3.015625 -4.734375 C 3.285156 -4.640625 3.515625 -4.492188 3.703125 -4.296875 L 3.234375 -3.640625 L 3.140625 -3.640625 C 3.003906 -3.785156 2.847656 -3.894531 2.671875 -3.96875 C 2.492188 -4.039062 2.296875 -4.078125 2.078125 -4.078125 C 1.816406 -4.078125 1.613281 -4.03125 1.46875 -3.9375 C 1.332031 -3.84375 1.265625 -3.710938 1.265625 -3.546875 C 1.265625 -3.398438 1.3125 -3.28125 1.40625 -3.1875 C 1.507812 -3.101562 1.675781 -3.035156 1.90625 -2.984375 L 2.546875 -2.84375 C 3.015625 -2.75 3.351562 -2.582031 3.5625 -2.34375 C 3.769531 -2.101562 3.875 -1.796875 3.875 -1.421875 C 3.875 -1.117188 3.804688 -0.851562 3.671875 -0.625 C 3.546875 -0.40625 3.351562 -0.234375 3.09375 -0.109375 C 2.832031 0.00390625 2.515625 0.0625 2.140625 0.0625 Z M 2.140625 0.0625 "/></g></g></g><g fill="#000000" fill-opacity="1"><g transform="translate(40.88727, 16.443653)"><g/></g></g><g fill="#000000" fill-opacity="1"><g transform="translate(42.478589, 16.443653)"><g><path d="M 2.640625 0.0625 C 2.191406 0.0625 1.796875 -0.0234375 1.453125 -0.203125 C 1.117188 -0.390625 0.851562 -0.664062 0.65625 -1.03125 C 0.46875 -1.40625 0.375 -1.863281 0.375 -2.40625 C 0.375 -2.945312 0.46875 -3.398438 0.65625 -3.765625 C 0.851562 -4.140625 1.117188 -4.421875 1.453125 -4.609375 C 1.796875 -4.796875 2.191406 -4.890625 2.640625 -4.890625 C 3.097656 -4.890625 3.488281 -4.796875 3.8125 -4.609375 C 4.132812 -4.429688 4.367188 -4.15625 4.515625 -3.78125 L 3.8125 -3.359375 L 3.734375 -3.359375 C 3.628906 -3.609375 3.488281 -3.785156 3.3125 -3.890625 C 3.132812 -4.003906 2.910156 -4.0625 2.640625 -4.0625 C 2.234375 -4.0625 1.914062 -3.925781 1.6875 -3.65625 C 1.46875 -3.394531 1.359375 -2.976562 1.359375 -2.40625 C 1.359375 -1.832031 1.46875 -1.410156 1.6875 -1.140625 C 1.914062 -0.878906 2.234375 -0.75 2.640625 -0.75 C 3.265625 -0.75 3.644531 -1.054688 3.78125 -1.671875 L 3.859375 -1.671875 L 4.5625 -1.296875 C 4.4375 -0.835938 4.210938 -0.492188 3.890625 -0.265625 C 3.578125 -0.046875 3.160156 0.0625 2.640625 0.0625 Z M 2.640625 0.0625 "/></g></g></g><g fill="#000000" fill-opacity="1"><g transform="translate(47.203124, 16.443653)"><g><path d="M 2.625 0.0625 C 2.1875 0.0625 1.796875 -0.0234375 1.453125 -0.203125 C 1.117188 -0.378906 0.851562 -0.648438 0.65625 -1.015625 C 0.46875 -1.390625 0.375 -1.851562 0.375 -2.40625 C 0.375 -2.957031 0.46875 -3.414062 0.65625 -3.78125 C 0.851562 -4.15625 1.117188 -4.429688 1.453125 -4.609375 C 1.796875 -4.796875 2.1875 -4.890625 2.625 -4.890625 C 3.070312 -4.890625 3.460938 -4.796875 3.796875 -4.609375 C 4.128906 -4.429688 4.390625 -4.15625 4.578125 -3.78125 C 4.773438 -3.414062 4.875 -2.957031 4.875 -2.40625 C 4.875 -1.851562 4.773438 -1.390625 4.578125 -1.015625 C 4.390625 -0.648438 4.128906 -0.378906 3.796875 -0.203125 C 3.460938 -0.0234375 3.070312 0.0625 2.625 0.0625 Z M 2.625 -0.765625 C 3.03125 -0.765625 3.34375 -0.894531 3.5625 -1.15625 C 3.78125 -1.414062 3.890625 -1.832031 3.890625 -2.40625 C 3.890625 -2.976562 3.78125 -3.394531 3.5625 -3.65625 C 3.34375 -3.925781 3.03125 -4.0625 2.625 -4.0625 C 2.21875 -4.0625 1.90625 -3.925781 1.6875 -3.65625 C 1.46875 -3.394531 1.359375 -2.976562 1.359375 -2.40625 C 1.359375 -1.832031 1.46875 -1.414062 1.6875 -1.15625 C 1.90625 -0.894531 2.21875 -0.765625 2.625 -0.765625 Z M 2.625 -0.765625 "/></g></g></g><g fill="#000000" fill-opacity="1"><g transform="translate(52.45151, 16.443653)"><g><path d="M 1.5 0 L 0.625 0 L 0.625 -4.8125 L 1.875 -4.8125 L 3.09375 -1.28125 L 3.15625 -1.28125 L 4.375 -4.8125 L 5.59375 -4.8125 L 5.59375 0 L 4.6875 0 L 4.6875 -3.1875 L 4.609375 -3.203125 L 3.484375 0 L 2.703125 0 L 1.578125 -3.203125 L 1.5 -3.1875 Z M 1.5 0 "/></g></g></g><g fill="#000000" fill-opacity="1"><g transform="translate(58.668525, 16.443653)"><g><path d="M 0.625 0 L 0.625 -4.8125 L 2.6875 -4.8125 C 2.976562 -4.8125 3.226562 -4.765625 3.4375 -4.671875 C 3.644531 -4.578125 3.800781 -4.441406 3.90625 -4.265625 C 4.007812 -4.097656 4.0625 -3.898438 4.0625 -3.671875 C 4.0625 -3.453125 4.007812 -3.257812 3.90625 -3.09375 C 3.800781 -2.9375 3.648438 -2.8125 3.453125 -2.71875 L 3.453125 -2.640625 C 3.765625 -2.566406 4 -2.425781 4.15625 -2.21875 C 4.320312 -2.007812 4.40625 -1.75 4.40625 -1.4375 C 4.40625 -0.976562 4.265625 -0.625 3.984375 -0.375 C 3.710938 -0.125 3.300781 0 2.75 0 Z M 2.484375 -2.890625 C 2.929688 -2.890625 3.15625 -3.09375 3.15625 -3.5 C 3.15625 -3.695312 3.097656 -3.847656 2.984375 -3.953125 C 2.878906 -4.054688 2.710938 -4.109375 2.484375 -4.109375 L 1.578125 -4.109375 L 1.578125 -2.890625 Z M 2.65625 -0.75 C 3.1875 -0.75 3.453125 -0.988281 3.453125 -1.46875 C 3.453125 -1.945312 3.1875 -2.1875 2.65625 -2.1875 L 1.578125 -2.1875 L 1.578125 -0.75 Z M 2.65625 -0.75 "/></g></g></g><g fill="#000000" fill-opacity="1"><g transform="translate(63.379882, 16.443653)"><g><path d="M 2.625 0.0625 C 2.1875 0.0625 1.796875 -0.0234375 1.453125 -0.203125 C 1.117188 -0.378906 0.851562 -0.648438 0.65625 -1.015625 C 0.46875 -1.390625 0.375 -1.851562 0.375 -2.40625 C 0.375 -2.957031 0.46875 -3.414062 0.65625 -3.78125 C 0.851562 -4.15625 1.117188 -4.429688 1.453125 -4.609375 C 1.796875 -4.796875 2.1875 -4.890625 2.625 -4.890625 C 3.070312 -4.890625 3.460938 -4.796875 3.796875 -4.609375 C 4.128906 -4.429688 4.390625 -4.15625 4.578125 -3.78125 C 4.773438 -3.414062 4.875 -2.957031 4.875 -2.40625 C 4.875 -1.851562 4.773438 -1.390625 4.578125 -1.015625 C 4.390625 -0.648438 4.128906 -0.378906 3.796875 -0.203125 C 3.460938 -0.0234375 3.070312 0.0625 2.625 0.0625 Z M 2.625 -0.765625 C 3.03125 -0.765625 3.34375 -0.894531 3.5625 -1.15625 C 3.78125 -1.414062 3.890625 -1.832031 3.890625 -2.40625 C 3.890625 -2.976562 3.78125 -3.394531 3.5625 -3.65625 C 3.34375 -3.925781 3.03125 -4.0625 2.625 -4.0625 C 2.21875 -4.0625 1.90625 -3.925781 1.6875 -3.65625 C 1.46875 -3.394531 1.359375 -2.976562 1.359375 -2.40625 C 1.359375 -1.832031 1.46875 -1.414062 1.6875 -1.15625 C 1.90625 -0.894531 2.21875 -0.765625 2.625 -0.765625 Z M 2.625 -0.765625 "/></g></g></g><g fill="#000000" fill-opacity="1"><g transform="translate(68.628268, 16.443653)"><g><path d="M 2.140625 0.0625 C 1.804688 0.0625 1.507812 0.0234375 1.25 -0.046875 C 0.988281 -0.128906 0.769531 -0.238281 0.59375 -0.375 C 0.414062 -0.507812 0.28125 -0.660156 0.1875 -0.828125 L 0.71875 -1.453125 L 0.796875 -1.453125 C 0.941406 -1.242188 1.125 -1.070312 1.34375 -0.9375 C 1.570312 -0.8125 1.835938 -0.75 2.140625 -0.75 C 2.390625 -0.75 2.578125 -0.800781 2.703125 -0.90625 C 2.835938 -1.019531 2.90625 -1.171875 2.90625 -1.359375 C 2.90625 -1.472656 2.882812 -1.566406 2.84375 -1.640625 C 2.800781 -1.722656 2.726562 -1.789062 2.625 -1.84375 C 2.53125 -1.894531 2.40625 -1.941406 2.25 -1.984375 L 1.625 -2.125 C 1.1875 -2.226562 0.863281 -2.394531 0.65625 -2.625 C 0.445312 -2.851562 0.34375 -3.148438 0.34375 -3.515625 C 0.34375 -3.785156 0.410156 -4.023438 0.546875 -4.234375 C 0.679688 -4.441406 0.878906 -4.601562 1.140625 -4.71875 C 1.398438 -4.832031 1.710938 -4.890625 2.078125 -4.890625 C 2.441406 -4.890625 2.753906 -4.835938 3.015625 -4.734375 C 3.285156 -4.640625 3.515625 -4.492188 3.703125 -4.296875 L 3.234375 -3.640625 L 3.140625 -3.640625 C 3.003906 -3.785156 2.847656 -3.894531 2.671875 -3.96875 C 2.492188 -4.039062 2.296875 -4.078125 2.078125 -4.078125 C 1.816406 -4.078125 1.613281 -4.03125 1.46875 -3.9375 C 1.332031 -3.84375 1.265625 -3.710938 1.265625 -3.546875 C 1.265625 -3.398438 1.3125 -3.28125 1.40625 -3.1875 C 1.507812 -3.101562 1.675781 -3.035156 1.90625 -2.984375 L 2.546875 -2.84375 C 3.015625 -2.75 3.351562 -2.582031 3.5625 -2.34375 C 3.769531 -2.101562 3.875 -1.796875 3.875 -1.421875 C 3.875 -1.117188 3.804688 -0.851562 3.671875 -0.625 C 3.546875 -0.40625 3.351562 -0.234375 3.09375 -0.109375 C 2.832031 0.00390625 2.515625 0.0625 2.140625 0.0625 Z M 2.140625 0.0625 "/></g></g></g><g fill="#000000" fill-opacity="1"><g transform="translate(19.083623, 25.712016)"><g><path d="M 1.578125 0 L 0.625 0 L 0.625 -4.8125 L 1.578125 -4.8125 Z M 1.578125 0 "/></g></g></g><g fill="#000000" fill-opacity="1"><g transform="translate(21.291042, 25.712016)"><g><path d="M 1.546875 0 L 0.625 0 L 0.625 -4.8125 L 1.71875 -4.8125 L 3.65625 -1.71875 L 3.734375 -1.734375 L 3.734375 -4.8125 L 4.65625 -4.8125 L 4.65625 0 L 3.671875 0 L 1.625 -3.3125 L 1.546875 -3.296875 Z M 1.546875 0 "/></g></g></g><g fill="#000000" fill-opacity="1"><g transform="translate(26.572375, 25.712016)"><g><path d="M 2.640625 0.0625 C 2.191406 0.0625 1.796875 -0.0234375 1.453125 -0.203125 C 1.117188 -0.390625 0.851562 -0.664062 0.65625 -1.03125 C 0.46875 -1.40625 0.375 -1.863281 0.375 -2.40625 C 0.375 -2.945312 0.46875 -3.398438 0.65625 -3.765625 C 0.851562 -4.140625 1.117188 -4.421875 1.453125 -4.609375 C 1.796875 -4.796875 2.191406 -4.890625 2.640625 -4.890625 C 3.097656 -4.890625 3.488281 -4.796875 3.8125 -4.609375 C 4.132812 -4.429688 4.367188 -4.15625 4.515625 -3.78125 L 3.8125 -3.359375 L 3.734375 -3.359375 C 3.628906 -3.609375 3.488281 -3.785156 3.3125 -3.890625 C 3.132812 -4.003906 2.910156 -4.0625 2.640625 -4.0625 C 2.234375 -4.0625 1.914062 -3.925781 1.6875 -3.65625 C 1.46875 -3.394531 1.359375 -2.976562 1.359375 -2.40625 C 1.359375 -1.832031 1.46875 -1.410156 1.6875 -1.140625 C 1.914062 -0.878906 2.234375 -0.75 2.640625 -0.75 C 3.265625 -0.75 3.644531 -1.054688 3.78125 -1.671875 L 3.859375 -1.671875 L 4.5625 -1.296875 C 4.4375 -0.835938 4.210938 -0.492188 3.890625 -0.265625 C 3.578125 -0.046875 3.160156 0.0625 2.640625 0.0625 Z M 2.640625 0.0625 "/></g></g></g><g fill="#000000" fill-opacity="1"><g transform="translate(31.296911, 25.712016)"><g><path d="M 1.578125 -4.8125 L 1.578125 -0.796875 L 3.75 -0.796875 L 3.75 0 L 0.625 0 L 0.625 -4.8125 Z M 1.578125 -4.8125 "/></g></g></g><g fill="#000000" fill-opacity="1"><g transform="translate(35.197783, 25.712016)"><g><path d="M 2.546875 0.0625 C 1.890625 0.0625 1.398438 -0.09375 1.078125 -0.40625 C 0.753906 -0.71875 0.59375 -1.1875 0.59375 -1.8125 L 0.59375 -4.8125 L 1.53125 -4.8125 L 1.53125 -1.8125 C 1.53125 -1.457031 1.613281 -1.191406 1.78125 -1.015625 C 1.945312 -0.847656 2.203125 -0.765625 2.546875 -0.765625 C 3.234375 -0.765625 3.578125 -1.113281 3.578125 -1.8125 L 3.578125 -4.8125 L 4.515625 -4.8125 L 4.515625 -1.8125 C 4.515625 -1.1875 4.351562 -0.71875 4.03125 -0.40625 C 3.707031 -0.09375 3.210938 0.0625 2.546875 0.0625 Z M 2.546875 0.0625 "/></g></g></g><g fill="#000000" fill-opacity="1"><g transform="translate(40.304498, 25.712016)"><g><path d="M 2.640625 0 L 1.6875 0 L 1.6875 -1.890625 L 0.015625 -4.8125 L 1.046875 -4.8125 L 2.140625 -2.921875 L 2.234375 -2.921875 L 3.3125 -4.8125 L 4.296875 -4.8125 L 2.640625 -1.890625 Z M 2.640625 0 "/></g></g></g><g fill="#000000" fill-opacity="1"><g transform="translate(44.630381, 25.712016)"><g><path d="M 1.578125 -2.109375 L 1.578125 -0.796875 L 3.875 -0.796875 L 3.875 0 L 0.625 0 L 0.625 -4.8125 L 3.828125 -4.8125 L 3.828125 -4.015625 L 1.578125 -4.015625 L 1.578125 -2.890625 L 3.546875 -2.890625 L 3.546875 -2.109375 Z M 1.578125 -2.109375 "/></g></g></g><g fill="#000000" fill-opacity="1"><g transform="translate(48.771763, 25.712016)"><g><path d="M 1.546875 0 L 0.625 0 L 0.625 -4.8125 L 1.71875 -4.8125 L 3.65625 -1.71875 L 3.734375 -1.734375 L 3.734375 -4.8125 L 4.65625 -4.8125 L 4.65625 0 L 3.671875 0 L 1.625 -3.3125 L 1.546875 -3.296875 Z M 1.546875 0 "/></g></g></g><g fill="#000000" fill-opacity="1"><g transform="translate(54.053095, 25.712016)"><g><path d="M 0.921875 0.03125 C 0.804688 0.03125 0.703125 0.0078125 0.609375 -0.03125 C 0.523438 -0.0820312 0.457031 -0.148438 0.40625 -0.234375 C 0.363281 -0.316406 0.34375 -0.410156 0.34375 -0.515625 C 0.34375 -0.617188 0.363281 -0.710938 0.40625 -0.796875 C 0.457031 -0.878906 0.523438 -0.945312 0.609375 -1 C 0.703125 -1.050781 0.804688 -1.078125 0.921875 -1.078125 C 1.046875 -1.078125 1.148438 -1.050781 1.234375 -1 C 1.328125 -0.957031 1.394531 -0.894531 1.4375 -0.8125 C 1.488281 -0.726562 1.515625 -0.632812 1.515625 -0.53125 C 1.515625 -0.363281 1.460938 -0.226562 1.359375 -0.125 C 1.253906 -0.0195312 1.109375 0.03125 0.921875 0.03125 Z M 0.921875 -2.5625 C 0.804688 -2.5625 0.703125 -2.582031 0.609375 -2.625 C 0.523438 -2.675781 0.457031 -2.742188 0.40625 -2.828125 C 0.363281 -2.910156 0.34375 -3.003906 0.34375 -3.109375 C 0.34375 -3.210938 0.363281 -3.304688 0.40625 -3.390625 C 0.457031 -3.472656 0.523438 -3.539062 0.609375 -3.59375 C 0.703125 -3.644531 0.804688 -3.671875 0.921875 -3.671875 C 1.046875 -3.671875 1.148438 -3.644531 1.234375 -3.59375 C 1.328125 -3.550781 1.394531 -3.488281 1.4375 -3.40625 C 1.488281 -3.320312 1.515625 -3.226562 1.515625 -3.125 C 1.515625 -2.957031 1.460938 -2.820312 1.359375 -2.71875 C 1.253906 -2.613281 1.109375 -2.5625 0.921875 -2.5625 Z M 0.921875 -2.5625 "/></g></g></g></svg>