<svg xmlns="http://www.w3.org/2000/svg" xmlns:xlink="http://www.w3.org/1999/xlink" width="100" zoomAndPan="magnify" viewBox="0 0 75 37.5" height="50" preserveAspectRatio="xMidYMid meet" version="1.0"><defs><g/></defs><g fill="#222222" fill-opacity="1"><g transform="translate(4.728884, 21.818421)"><g><path d="M 1.96875 0 L 0.828125 0 L 0.828125 -6.3125 L 2.453125 -6.3125 L 4.046875 -1.671875 L 4.140625 -1.671875 L 5.734375 -6.3125 L 7.328125 -6.3125 L 7.328125 0 L 6.140625 0 L 6.140625 -4.171875 L 6.03125 -4.1875 L 4.578125 0 L 3.53125 0 L 2.078125 -4.1875 L 1.96875 -4.171875 Z M 1.96875 0 "/></g></g></g><g fill="#222222" fill-opacity="1"><g transform="translate(12.873132, 21.818421)"><g><path d="M 2.0625 0 L 0.828125 0 L 0.828125 -6.3125 L 2.0625 -6.3125 Z M 2.0625 0 "/></g></g></g><g fill="#222222" fill-opacity="1"><g transform="translate(15.764835, 21.818421)"><g><path d="M 2.796875 0.09375 C 2.359375 0.09375 1.96875 0.0390625 1.625 -0.0625 C 1.289062 -0.175781 1.007812 -0.320312 0.78125 -0.5 C 0.550781 -0.675781 0.375 -0.867188 0.25 -1.078125 L 0.9375 -1.90625 L 1.046875 -1.90625 C 1.234375 -1.625 1.472656 -1.398438 1.765625 -1.234375 C 2.066406 -1.066406 2.410156 -0.984375 2.796875 -0.984375 C 3.128906 -0.984375 3.378906 -1.050781 3.546875 -1.1875 C 3.722656 -1.332031 3.8125 -1.53125 3.8125 -1.78125 C 3.8125 -1.9375 3.78125 -2.0625 3.71875 -2.15625 C 3.664062 -2.257812 3.578125 -2.347656 3.453125 -2.421875 C 3.328125 -2.492188 3.15625 -2.554688 2.9375 -2.609375 L 2.125 -2.796875 C 1.5625 -2.921875 1.140625 -3.132812 0.859375 -3.4375 C 0.578125 -3.738281 0.4375 -4.128906 0.4375 -4.609375 C 0.4375 -4.960938 0.523438 -5.273438 0.703125 -5.546875 C 0.890625 -5.816406 1.148438 -6.023438 1.484375 -6.171875 C 1.828125 -6.328125 2.238281 -6.40625 2.71875 -6.40625 C 3.207031 -6.40625 3.625 -6.335938 3.96875 -6.203125 C 4.3125 -6.078125 4.601562 -5.882812 4.84375 -5.625 L 4.234375 -4.78125 L 4.125 -4.78125 C 3.945312 -4.96875 3.738281 -5.109375 3.5 -5.203125 C 3.269531 -5.296875 3.007812 -5.34375 2.71875 -5.34375 C 2.375 -5.34375 2.113281 -5.28125 1.9375 -5.15625 C 1.757812 -5.03125 1.671875 -4.863281 1.671875 -4.65625 C 1.671875 -4.457031 1.734375 -4.296875 1.859375 -4.171875 C 1.984375 -4.054688 2.195312 -3.96875 2.5 -3.90625 L 3.328125 -3.734375 C 3.941406 -3.597656 4.382812 -3.375 4.65625 -3.0625 C 4.9375 -2.757812 5.078125 -2.359375 5.078125 -1.859375 C 5.078125 -1.460938 4.992188 -1.117188 4.828125 -0.828125 C 4.660156 -0.535156 4.40625 -0.304688 4.0625 -0.140625 C 3.71875 0.015625 3.296875 0.09375 2.796875 0.09375 Z M 2.796875 0.09375 "/></g></g></g><g fill="#222222" fill-opacity="1"><g transform="translate(21.1857, 21.818421)"><g/></g></g><g fill="#222222" fill-opacity="1"><g transform="translate(23.270318, 21.818421)"><g><path d="M 5.0625 -6.3125 L 5.0625 -5.265625 L 3.234375 -5.265625 L 3.234375 0 L 2 0 L 2 -5.265625 L 0.171875 -5.265625 L 0.171875 -6.3125 Z M 5.0625 -6.3125 "/></g></g></g><g fill="#222222" fill-opacity="1"><g transform="translate(28.501281, 21.818421)"><g><path d="M 0.828125 0 L 0.828125 -6.3125 L 3.359375 -6.3125 C 4.003906 -6.3125 4.492188 -6.160156 4.828125 -5.859375 C 5.160156 -5.554688 5.328125 -5.140625 5.328125 -4.609375 C 5.328125 -4.234375 5.226562 -3.921875 5.03125 -3.671875 C 4.84375 -3.429688 4.554688 -3.242188 4.171875 -3.109375 L 4.171875 -3.015625 C 4.367188 -2.929688 4.53125 -2.804688 4.65625 -2.640625 C 4.78125 -2.472656 4.894531 -2.21875 5 -1.875 L 5.625 0 L 4.34375 0 L 3.734375 -1.890625 C 3.671875 -2.078125 3.597656 -2.222656 3.515625 -2.328125 C 3.441406 -2.429688 3.34375 -2.503906 3.21875 -2.546875 C 3.09375 -2.597656 2.929688 -2.625 2.734375 -2.625 L 2.0625 -2.625 L 2.0625 0 Z M 3.203125 -3.625 C 3.804688 -3.625 4.109375 -3.90625 4.109375 -4.46875 C 4.109375 -5.039062 3.804688 -5.328125 3.203125 -5.328125 L 2.0625 -5.328125 L 2.0625 -3.625 Z M 3.203125 -3.625 "/></g></g></g><g fill="#222222" fill-opacity="1"><g transform="translate(34.401221, 21.818421)"><g><path d="M 6.0625 0 L 4.75 0 L 4.265625 -1.453125 L 1.859375 -1.453125 L 1.375 0 L 0.09375 0 L 2.28125 -6.3125 L 3.875 -6.3125 Z M 3 -5 L 2.1875 -2.5 L 3.921875 -2.5 L 3.109375 -5 Z M 3 -5 "/></g></g></g><g fill="#222222" fill-opacity="1"><g transform="translate(40.551488, 21.818421)"><g><path d="M 0.828125 0 L 0.828125 -6.3125 L 3.515625 -6.3125 C 3.898438 -6.3125 4.226562 -6.25 4.5 -6.125 C 4.769531 -6.007812 4.972656 -5.835938 5.109375 -5.609375 C 5.242188 -5.378906 5.3125 -5.113281 5.3125 -4.8125 C 5.3125 -4.53125 5.242188 -4.28125 5.109375 -4.0625 C 4.984375 -3.851562 4.789062 -3.679688 4.53125 -3.546875 L 4.53125 -3.46875 C 4.925781 -3.363281 5.234375 -3.171875 5.453125 -2.890625 C 5.671875 -2.617188 5.78125 -2.285156 5.78125 -1.890625 C 5.78125 -1.285156 5.597656 -0.816406 5.234375 -0.484375 C 4.867188 -0.160156 4.328125 0 3.609375 0 Z M 3.25 -3.796875 C 3.832031 -3.796875 4.125 -4.054688 4.125 -4.578125 C 4.125 -4.847656 4.050781 -5.046875 3.90625 -5.171875 C 3.769531 -5.304688 3.550781 -5.375 3.25 -5.375 L 2.0625 -5.375 L 2.0625 -3.796875 Z M 3.484375 -0.984375 C 4.171875 -0.984375 4.515625 -1.296875 4.515625 -1.921875 C 4.515625 -2.554688 4.171875 -2.875 3.484375 -2.875 L 2.0625 -2.875 L 2.0625 -0.984375 Z M 3.484375 -0.984375 "/></g></g></g><g fill="#222222" fill-opacity="1"><g transform="translate(46.723332, 21.818421)"><g><path d="M 6.0625 0 L 4.75 0 L 4.265625 -1.453125 L 1.859375 -1.453125 L 1.375 0 L 0.09375 0 L 2.28125 -6.3125 L 3.875 -6.3125 Z M 3 -5 L 2.1875 -2.5 L 3.921875 -2.5 L 3.109375 -5 Z M 3 -5 "/></g></g></g><g fill="#222222" fill-opacity="1"><g transform="translate(52.873599, 21.818421)"><g><path d="M 2.21875 0.09375 C 1.675781 0.09375 1.226562 -0.00390625 0.875 -0.203125 C 0.519531 -0.410156 0.265625 -0.6875 0.109375 -1.03125 L 0.8125 -1.890625 L 0.921875 -1.890625 C 1.035156 -1.609375 1.195312 -1.390625 1.40625 -1.234375 C 1.613281 -1.078125 1.859375 -1 2.140625 -1 C 2.453125 -1 2.679688 -1.085938 2.828125 -1.265625 C 2.984375 -1.453125 3.0625 -1.75 3.0625 -2.15625 L 3.0625 -6.3125 L 4.3125 -6.3125 L 4.3125 -2.140625 C 4.3125 -1.378906 4.132812 -0.816406 3.78125 -0.453125 C 3.4375 -0.0859375 2.914062 0.09375 2.21875 0.09375 Z M 2.21875 0.09375 "/></g></g></g><g fill="#222222" fill-opacity="1"><g transform="translate(57.96645, 21.818421)"><g><path d="M 3.4375 0.09375 C 2.863281 0.09375 2.351562 -0.0234375 1.90625 -0.265625 C 1.46875 -0.503906 1.125 -0.863281 0.875 -1.34375 C 0.625 -1.832031 0.5 -2.4375 0.5 -3.15625 C 0.5 -3.875 0.625 -4.476562 0.875 -4.96875 C 1.125 -5.457031 1.46875 -5.816406 1.90625 -6.046875 C 2.351562 -6.285156 2.863281 -6.40625 3.4375 -6.40625 C 4.019531 -6.40625 4.53125 -6.285156 4.96875 -6.046875 C 5.40625 -5.816406 5.75 -5.457031 6 -4.96875 C 6.25 -4.476562 6.375 -3.875 6.375 -3.15625 C 6.375 -2.4375 6.25 -1.832031 6 -1.34375 C 5.75 -0.851562 5.40625 -0.488281 4.96875 -0.25 C 4.53125 -0.0195312 4.019531 0.09375 3.4375 0.09375 Z M 3.4375 -1 C 3.976562 -1 4.390625 -1.171875 4.671875 -1.515625 C 4.953125 -1.859375 5.09375 -2.40625 5.09375 -3.15625 C 5.09375 -3.90625 4.953125 -4.453125 4.671875 -4.796875 C 4.390625 -5.148438 3.976562 -5.328125 3.4375 -5.328125 C 2.90625 -5.328125 2.492188 -5.148438 2.203125 -4.796875 C 1.921875 -4.453125 1.78125 -3.90625 1.78125 -3.15625 C 1.78125 -2.40625 1.921875 -1.859375 2.203125 -1.515625 C 2.492188 -1.171875 2.90625 -1 3.4375 -1 Z M 3.4375 -1 "/></g></g></g><g fill="#222222" fill-opacity="1"><g transform="translate(64.841801, 21.818421)"><g><path d="M 2.796875 0.09375 C 2.359375 0.09375 1.96875 0.0390625 1.625 -0.0625 C 1.289062 -0.175781 1.007812 -0.320312 0.78125 -0.5 C 0.550781 -0.675781 0.375 -0.867188 0.25 -1.078125 L 0.9375 -1.90625 L 1.046875 -1.90625 C 1.234375 -1.625 1.472656 -1.398438 1.765625 -1.234375 C 2.066406 -1.066406 2.410156 -0.984375 2.796875 -0.984375 C 3.128906 -0.984375 3.378906 -1.050781 3.546875 -1.1875 C 3.722656 -1.332031 3.8125 -1.53125 3.8125 -1.78125 C 3.8125 -1.9375 3.78125 -2.0625 3.71875 -2.15625 C 3.664062 -2.257812 3.578125 -2.347656 3.453125 -2.421875 C 3.328125 -2.492188 3.15625 -2.554688 2.9375 -2.609375 L 2.125 -2.796875 C 1.5625 -2.921875 1.140625 -3.132812 0.859375 -3.4375 C 0.578125 -3.738281 0.4375 -4.128906 0.4375 -4.609375 C 0.4375 -4.960938 0.523438 -5.273438 0.703125 -5.546875 C 0.890625 -5.816406 1.148438 -6.023438 1.484375 -6.171875 C 1.828125 -6.328125 2.238281 -6.40625 2.71875 -6.40625 C 3.207031 -6.40625 3.625 -6.335938 3.96875 -6.203125 C 4.3125 -6.078125 4.601562 -5.882812 4.84375 -5.625 L 4.234375 -4.78125 L 4.125 -4.78125 C 3.945312 -4.96875 3.738281 -5.109375 3.5 -5.203125 C 3.269531 -5.296875 3.007812 -5.34375 2.71875 -5.34375 C 2.375 -5.34375 2.113281 -5.28125 1.9375 -5.15625 C 1.757812 -5.03125 1.671875 -4.863281 1.671875 -4.65625 C 1.671875 -4.457031 1.734375 -4.296875 1.859375 -4.171875 C 1.984375 -4.054688 2.195312 -3.96875 2.5 -3.90625 L 3.328125 -3.734375 C 3.941406 -3.597656 4.382812 -3.375 4.65625 -3.0625 C 4.9375 -2.757812 5.078125 -2.359375 5.078125 -1.859375 C 5.078125 -1.460938 4.992188 -1.117188 4.828125 -0.828125 C 4.660156 -0.535156 4.40625 -0.304688 4.0625 -0.140625 C 3.71875 0.015625 3.296875 0.09375 2.796875 0.09375 Z M 2.796875 0.09375 "/></g></g></g></svg>