<svg xmlns="http://www.w3.org/2000/svg" xmlns:xlink="http://www.w3.org/1999/xlink" width="300" zoomAndPan="magnify" viewBox="0 0 224.87999 225" height="300" preserveAspectRatio="xMidYMid meet" version="1.0"><defs><filter x="0%" y="0%" width="100%" height="100%" id="64d876c664"><feColorMatrix values="0 0 0 0 1 0 0 0 0 1 0 0 0 0 1 0 0 0 1 0" color-interpolation-filters="sRGB"/></filter><g/><clipPath id="b839f2045f"><path d="M 6 0.0585938 L 219 0.0585938 L 219 224.9375 L 6 224.9375 Z M 6 0.0585938 " clip-rule="nonzero"/></clipPath><mask id="c5c14eaa1c"><g filter="url(#64d876c664)"><rect x="-22.487999" width="269.855988" fill="#000000" y="-22.5" height="270" fill-opacity="0.07"/></g></mask><clipPath id="e5cf80a3fb"><path d="M 1 0.0585938 L 212.570312 0.0585938 L 212.570312 224.9375 L 1 224.9375 Z M 1 0.0585938 " clip-rule="nonzero"/></clipPath><clipPath id="e4ab2464cd"><rect x="0" width="213" y="0" height="225"/></clipPath><mask id="a47af74b73"><g filter="url(#64d876c664)"><rect x="-22.487999" width="269.855988" fill="#000000" y="-22.5" height="270" fill-opacity="0.99"/></g></mask><clipPath id="4e866b9102"><rect x="0" width="139" y="0" height="187"/></clipPath></defs><g clip-path="url(#b839f2045f)"><g mask="url(#c5c14eaa1c)"><g transform="matrix(1, 0, 0, 1, 6, -0.000000000000003234)"><g clip-path="url(#e4ab2464cd)"><g clip-path="url(#e5cf80a3fb)"><path fill="#222222" d="M 178.929688 70.757812 C 179.246094 70.492188 179.457031 70.15625 179.558594 69.753906 C 179.660156 69.351562 179.632812 68.957031 179.480469 68.574219 C 178.179688 65.308594 176.996094 61.992188 175.851562 58.785156 C 174.691406 55.542969 173.496094 52.195312 172.171875 48.871094 C 172.03125 48.507812 171.796875 48.214844 171.476562 47.996094 C 171.15625 47.773438 170.800781 47.660156 170.410156 47.652344 C 166.125 47.582031 161.949219 47.957031 157.910156 48.320312 C 155.492188 48.535156 153.003906 48.757812 150.519531 48.878906 C 144.925781 33.085938 139.414062 17.105469 134.585938 1.492188 C 134.457031 1.078125 134.214844 0.746094 133.863281 0.496094 C 133.511719 0.242188 133.117188 0.121094 132.683594 0.136719 C 132.25 0.148438 131.867188 0.289062 131.527344 0.5625 C 131.191406 0.832031 130.972656 1.179688 130.867188 1.601562 C 123.289062 32.269531 87.335938 53.578125 66.464844 63.589844 C 60.425781 65.222656 54.367188 67.257812 48.507812 69.230469 C 42.648438 71.199219 36.578125 73.238281 30.59375 74.851562 C 25.691406 76.171875 20.261719 77.988281 17.964844 82.882812 C 16.96875 85.003906 16.789062 87.203125 17.058594 89.417969 C 14.097656 90.375 11.351562 91.398438 8.878906 92.46875 C 5.566406 93.90625 3.113281 96.226562 1.972656 99.007812 C 0.445312 102.722656 2.613281 109.191406 4.964844 115.496094 C 5.121094 115.914062 5.261719 116.292969 5.382812 116.628906 C 6.074219 118.523438 6.386719 119.382812 6.699219 120.242188 C 7.011719 121.097656 7.324219 121.957031 8.011719 123.84375 C 8.515625 125.222656 9.039062 126.574219 9.640625 127.847656 C 9.652344 127.875 9.664062 127.898438 9.675781 127.925781 C 10.914062 130.519531 12.492188 132.785156 14.972656 134.261719 C 16.847656 135.34375 18.863281 135.867188 21.023438 135.835938 C 22.453125 135.828125 23.855469 135.632812 25.230469 135.246094 C 26.921875 134.777344 29.878906 133.964844 33.28125 132.800781 C 34.3125 134.445312 35.652344 135.96875 37.472656 136.980469 C 39.265625 137.945312 41.179688 138.40625 43.214844 138.367188 C 45.921875 138.367188 48.648438 137.644531 51.035156 136.835938 C 51.164062 137.257812 51.296875 137.683594 51.433594 138.121094 C 43.84375 143.882812 37.902344 152.980469 37.21875 154.046875 C 31.871094 162.394531 28.296875 170.75 25.28125 181.984375 L 19.984375 201.726562 C 19.914062 201.972656 19.898438 202.222656 19.929688 202.476562 C 19.964844 202.734375 20.042969 202.972656 20.171875 203.195312 C 20.300781 203.417969 20.464844 203.605469 20.667969 203.761719 C 20.871094 203.917969 21.097656 204.03125 21.34375 204.097656 C 21.59375 204.164062 21.84375 204.179688 22.097656 204.144531 C 22.351562 204.113281 22.589844 204.03125 22.8125 203.902344 C 23.035156 203.773438 23.222656 203.605469 23.378906 203.402344 C 23.535156 203.199219 23.644531 202.972656 23.710938 202.726562 L 29.007812 182.984375 C 31.917969 172.152344 35.347656 164.121094 40.472656 156.125 C 42.628906 152.753906 47.378906 146.433594 52.664062 142.070312 C 54.570312 148.144531 56.585938 154.46875 57.542969 157.449219 C 58.195312 159.253906 59.613281 159.714844 61.042969 158.21875 C 61.609375 157.550781 62.207031 156.859375 62.824219 156.167969 C 68.160156 150.1875 74.148438 144.957031 80.789062 140.472656 C 81.292969 140.136719 81.953125 139.695312 82.636719 139.28125 C 84.523438 138.128906 86.109375 137.4375 87.621094 137.105469 C 90.015625 136.582031 92.375 137.0625 93.78125 138.367188 C 95.730469 140.171875 95.84375 143.371094 95.085938 145.738281 C 94.164062 148.628906 92.097656 151.152344 90.105469 153.589844 C 89.867188 153.878906 89.726562 154.210938 89.679688 154.585938 C 89.636719 154.957031 89.695312 155.3125 89.859375 155.652344 C 90.023438 155.988281 90.265625 156.253906 90.585938 156.453125 C 90.90625 156.648438 91.253906 156.746094 91.628906 156.738281 C 95.074219 156.691406 98.445312 159.25 99.304688 162.582031 C 100.167969 165.914062 98.464844 169.796875 95.425781 171.417969 C 95.230469 171.519531 95.058594 171.652344 94.910156 171.816406 C 94.761719 171.976562 94.644531 172.160156 94.558594 172.363281 C 94.472656 172.566406 94.421875 172.777344 94.410156 172.996094 C 94.394531 173.214844 94.417969 173.433594 94.480469 173.644531 C 94.539062 173.855469 94.632812 174.050781 94.761719 174.230469 C 94.886719 174.410156 95.039062 174.5625 95.21875 174.691406 C 95.398438 174.816406 95.597656 174.910156 95.808594 174.972656 C 96.019531 175.03125 96.234375 175.054688 96.457031 175.042969 C 98.875 174.898438 101.867188 177.078125 102.46875 180.574219 C 103.144531 184.496094 100.949219 188.214844 99.578125 190.085938 C 98.007812 192.21875 96.09375 194.066406 94.066406 196.023438 C 93.273438 196.792969 92.453125 197.582031 91.660156 198.390625 C 90.785156 199.277344 89.964844 200.101562 89.191406 200.875 C 82.332031 207.75 78.890625 211.199219 76.632812 222.566406 C 76.582031 222.816406 76.582031 223.070312 76.632812 223.320312 C 76.683594 223.570312 76.78125 223.800781 76.921875 224.015625 C 77.066406 224.226562 77.242188 224.40625 77.457031 224.546875 C 77.667969 224.6875 77.898438 224.785156 78.152344 224.835938 C 78.277344 224.859375 78.402344 224.871094 78.527344 224.871094 C 78.753906 224.871094 78.96875 224.832031 79.179688 224.757812 C 79.390625 224.683594 79.578125 224.574219 79.753906 224.433594 C 79.925781 224.289062 80.066406 224.125 80.183594 223.933594 C 80.296875 223.742188 80.375 223.535156 80.421875 223.316406 C 82.449219 213.09375 85.222656 210.316406 91.925781 203.601562 C 92.703125 202.820312 93.53125 201.992188 94.414062 201.09375 C 95.171875 200.324219 95.972656 199.546875 96.75 198.796875 C 98.804688 196.816406 100.925781 194.765625 102.691406 192.367188 C 105.683594 188.289062 106.953125 183.867188 106.273438 179.921875 C 106.128906 179.09375 105.894531 178.292969 105.566406 177.523438 C 105.238281 176.75 104.828125 176.023438 104.332031 175.347656 C 103.835938 174.671875 103.265625 174.058594 102.628906 173.515625 C 101.992188 172.96875 101.300781 172.503906 100.554688 172.117188 C 102.949219 169.261719 103.992188 165.28125 103.042969 161.617188 C 102.042969 157.746094 98.921875 154.636719 95.164062 153.425781 C 96.625 151.492188 97.984375 149.351562 98.765625 146.910156 C 100.140625 142.601562 99.214844 138.136719 96.40625 135.535156 C 94.050781 133.355469 90.460938 132.535156 86.796875 133.335938 C 85.402344 133.65625 84.066406 134.140625 82.792969 134.789062 C 82.308594 133.175781 81.792969 131.472656 81.289062 129.792969 L 80.511719 127.210938 C 82.921875 126.417969 85.332031 125.605469 87.71875 124.765625 C 101.859375 120.644531 118.546875 119.226562 134.71875 120.773438 C 150.9375 122.328125 165.59375 126.777344 175.988281 133.296875 C 176.332031 133.511719 176.703125 133.609375 177.105469 133.589844 C 177.507812 133.570312 177.871094 133.441406 178.191406 133.195312 C 178.511719 132.949219 178.730469 132.632812 178.855469 132.25 C 178.976562 131.863281 178.976562 131.480469 178.859375 131.09375 C 173.894531 115.042969 168.222656 98.632812 162.476562 82.433594 C 163.746094 81.574219 165.023438 80.726562 166.265625 79.902344 C 170.429688 77.144531 174.730469 74.292969 178.929688 70.757812 Z M 24.203125 131.519531 C 21.472656 132.273438 18.828125 132.0625 16.949219 130.945312 C 15.773438 130.207031 14.832031 129.242188 14.125 128.046875 L 15.019531 127.734375 C 16.933594 127.0625 18.738281 126.429688 19.820312 126.015625 C 20.0625 125.925781 20.28125 125.792969 20.472656 125.617188 C 20.660156 125.441406 20.808594 125.238281 20.917969 125 C 21.023438 124.765625 21.082031 124.519531 21.089844 124.261719 C 21.097656 124 21.054688 123.75 20.964844 123.507812 C 20.871094 123.269531 20.734375 123.054688 20.554688 122.867188 C 20.375 122.679688 20.167969 122.535156 19.929688 122.433594 C 19.691406 122.328125 19.445312 122.277344 19.183594 122.273438 C 18.925781 122.269531 18.675781 122.316406 18.4375 122.414062 C 17.40625 122.808594 15.542969 123.460938 13.742188 124.09375 C 13.296875 124.25 12.851562 124.40625 12.414062 124.558594 C 12.148438 123.902344 11.894531 123.21875 11.636719 122.515625 C 10.949219 120.636719 10.640625 119.777344 10.328125 118.921875 C 10.261719 118.742188 10.199219 118.5625 10.128906 118.375 C 11.058594 118.042969 11.996094 117.714844 12.914062 117.390625 C 14.28125 116.914062 15.554688 116.464844 16.589844 116.089844 C 16.832031 116.003906 17.046875 115.875 17.234375 115.703125 C 17.425781 115.53125 17.574219 115.328125 17.683594 115.097656 C 17.792969 114.863281 17.851562 114.621094 17.863281 114.363281 C 17.875 114.109375 17.839844 113.859375 17.75 113.621094 C 17.664062 113.378906 17.535156 113.164062 17.363281 112.976562 C 17.1875 112.785156 16.988281 112.636719 16.753906 112.53125 C 16.523438 112.421875 16.277344 112.359375 16.023438 112.347656 C 15.765625 112.335938 15.519531 112.375 15.277344 112.464844 C 14.253906 112.832031 12.988281 113.277344 11.632812 113.753906 C 10.703125 114.082031 9.75 114.414062 8.804688 114.75 C 8.734375 114.558594 8.660156 114.359375 8.582031 114.148438 C 8.082031 112.808594 7.308594 110.738281 6.640625 108.578125 L 12.871094 106.339844 C 13.117188 106.257812 13.332031 106.128906 13.523438 105.957031 C 13.714844 105.785156 13.863281 105.582031 13.976562 105.351562 C 14.085938 105.117188 14.148438 104.875 14.160156 104.617188 C 14.171875 104.363281 14.136719 104.113281 14.050781 103.871094 C 13.964844 103.628906 13.832031 103.414062 13.660156 103.222656 C 13.488281 103.035156 13.285156 102.882812 13.050781 102.773438 C 12.820312 102.667969 12.574219 102.605469 12.316406 102.59375 C 12.058594 102.582031 11.8125 102.621094 11.570312 102.710938 L 5.652344 104.832031 C 5.277344 103.015625 5.152344 101.414062 5.542969 100.472656 C 6.5625 97.980469 9.03125 96.605469 10.414062 96.007812 C 12.671875 95.03125 15.179688 94.089844 17.886719 93.203125 C 18.238281 94.375 18.65625 95.535156 19.089844 96.679688 C 21.078125 101.945312 23.015625 107.042969 24.902344 111.980469 C 26.785156 116.910156 28.726562 122.003906 30.71875 127.265625 C 30.957031 127.894531 31.222656 128.589844 31.523438 129.316406 C 28.441406 130.351562 25.765625 131.089844 24.203125 131.519531 Z M 78.628906 137.269531 C 71.851562 141.847656 65.726562 147.175781 60.253906 153.253906 C 58.988281 149.292969 57.148438 143.492188 55.527344 138.289062 L 55.519531 138.269531 C 55.230469 137.339844 54.949219 136.4375 54.683594 135.574219 C 59.667969 133.875 64.726562 132.269531 69.648438 130.707031 C 72.019531 129.953125 74.425781 129.191406 76.839844 128.410156 L 77.589844 130.898438 C 78.191406 132.890625 78.800781 134.917969 79.359375 136.785156 C 79.097656 136.960938 78.847656 137.125 78.628906 137.269531 Z M 68.480469 127.03125 C 62.523438 128.921875 56.363281 130.875 50.34375 132.992188 C 46.894531 134.203125 42.523438 135.367188 39.347656 133.601562 C 36.882812 132.234375 35.566406 129.179688 34.328125 125.902344 C 32.339844 120.636719 30.402344 115.539062 28.511719 110.605469 C 26.632812 105.675781 24.695312 100.578125 22.703125 95.320312 C 21.277344 91.546875 20.007812 87.609375 21.460938 84.519531 C 23.054688 81.121094 27.53125 79.667969 31.597656 78.574219 C 37.699219 76.933594 43.820312 74.875 49.738281 72.886719 C 55.035156 71.105469 60.496094 69.269531 65.917969 67.742188 L 84.683594 121.738281 C 79.300781 123.59375 73.808594 125.335938 68.480469 127.03125 Z M 173.703125 127.542969 C 163.261719 122.066406 149.765625 118.339844 135.085938 116.933594 C 119.09375 115.402344 102.585938 116.695312 88.367188 120.578125 L 69.535156 66.390625 C 84.859375 58.910156 98.421875 50.152344 108.835938 41.011719 C 120.546875 30.730469 128.570312 19.835938 132.753906 8.550781 C 137.269531 22.757812 142.273438 37.1875 147.332031 51.449219 C 147.347656 51.488281 147.359375 51.527344 147.375 51.566406 C 149.269531 56.910156 151.167969 62.226562 153.0625 67.511719 C 160.125 87.273438 167.414062 107.660156 173.703125 127.542969 Z M 161.144531 78.679688 C 159.660156 74.503906 158.175781 70.347656 156.695312 66.214844 C 155.089844 61.726562 153.480469 57.210938 151.863281 52.667969 C 154.027344 52.539062 156.167969 52.347656 158.257812 52.160156 C 161.78125 51.84375 165.410156 51.515625 169.0625 51.5 C 170.175781 54.371094 171.210938 57.269531 172.214844 60.078125 C 173.21875 62.890625 174.257812 65.792969 175.378906 68.6875 C 171.679688 71.6875 167.847656 74.226562 164.136719 76.6875 C 163.152344 77.339844 162.148438 78.003906 161.144531 78.679688 Z M 196.945312 21.992188 L 182.984375 38.539062 C 182.820312 38.730469 182.625 38.886719 182.398438 39 C 182.171875 39.117188 181.929688 39.183594 181.675781 39.203125 C 181.421875 39.226562 181.175781 39.195312 180.933594 39.117188 C 180.691406 39.042969 180.472656 38.921875 180.277344 38.757812 C 180.082031 38.59375 179.925781 38.398438 179.808594 38.171875 C 179.691406 37.945312 179.621094 37.707031 179.601562 37.453125 C 179.578125 37.203125 179.605469 36.953125 179.679688 36.710938 C 179.753906 36.46875 179.875 36.25 180.035156 36.050781 L 193.992188 19.507812 C 194.160156 19.3125 194.355469 19.15625 194.582031 19.039062 C 194.808594 18.921875 195.050781 18.851562 195.304688 18.828125 C 195.5625 18.808594 195.808594 18.835938 196.054688 18.914062 C 196.296875 18.988281 196.519531 19.109375 196.714844 19.277344 C 196.910156 19.441406 197.066406 19.636719 197.183594 19.863281 C 197.300781 20.089844 197.371094 20.332031 197.390625 20.585938 C 197.414062 20.84375 197.386719 21.089844 197.308594 21.335938 C 197.230469 21.578125 197.109375 21.796875 196.945312 21.992188 Z M 208.546875 47.335938 L 192.101562 53.53125 C 191.859375 53.621094 191.613281 53.664062 191.359375 53.65625 C 191.101562 53.648438 190.855469 53.589844 190.625 53.484375 C 190.390625 53.378906 190.1875 53.234375 190.011719 53.046875 C 189.835938 52.859375 189.703125 52.648438 189.613281 52.40625 C 189.523438 52.167969 189.480469 51.921875 189.488281 51.664062 C 189.496094 51.410156 189.554688 51.164062 189.660156 50.929688 C 189.765625 50.699219 189.914062 50.492188 190.097656 50.320312 C 190.285156 50.144531 190.5 50.011719 190.738281 49.921875 L 207.1875 43.726562 C 207.425781 43.636719 207.671875 43.597656 207.929688 43.605469 C 208.183594 43.613281 208.429688 43.671875 208.660156 43.777344 C 208.894531 43.882812 209.097656 44.027344 209.273438 44.214844 C 209.449219 44.402344 209.582031 44.613281 209.671875 44.851562 C 209.761719 45.09375 209.804688 45.339844 209.796875 45.59375 C 209.785156 45.851562 209.730469 46.09375 209.625 46.328125 C 209.519531 46.5625 209.371094 46.765625 209.1875 46.941406 C 209 47.113281 208.785156 47.246094 208.546875 47.339844 Z M 212.09375 75.5 C 211.976562 75.726562 211.820312 75.921875 211.625 76.089844 C 211.429688 76.253906 211.210938 76.375 210.964844 76.453125 C 210.722656 76.53125 210.472656 76.558594 210.21875 76.539062 C 209.964844 76.515625 209.722656 76.449219 209.496094 76.332031 L 193.851562 68.265625 C 193.625 68.148438 193.429688 67.992188 193.261719 67.796875 C 193.097656 67.601562 192.976562 67.382812 192.898438 67.140625 C 192.820312 66.894531 192.792969 66.648438 192.8125 66.390625 C 192.835938 66.136719 192.902344 65.894531 193.019531 65.667969 C 193.136719 65.441406 193.292969 65.246094 193.492188 65.082031 C 193.6875 64.914062 193.90625 64.792969 194.148438 64.714844 C 194.394531 64.636719 194.640625 64.609375 194.898438 64.632812 C 195.152344 64.652344 195.394531 64.722656 195.621094 64.839844 L 211.261719 72.902344 C 211.492188 73.019531 211.6875 73.175781 211.851562 73.371094 C 212.015625 73.566406 212.140625 73.785156 212.21875 74.027344 C 212.292969 74.273438 212.324219 74.523438 212.300781 74.777344 C 212.28125 75.03125 212.210938 75.273438 212.09375 75.5 Z M 212.09375 75.5 " fill-opacity="1" fill-rule="nonzero"/></g></g></g></g></g><g mask="url(#a47af74b73)"><g transform="matrix(1, 0, 0, 1, 43, 19)"><g clip-path="url(#4e866b9102)"><g fill="#6a4933" fill-opacity="1"><g transform="translate(3.96531, 20.697391)"><g><path d="M 10.1875 -3.609375 L 15.265625 -15.21875 L 17.609375 -15.21875 L 18.453125 0 L 16.109375 0 L 15.484375 -13.078125 L 15.40625 -13.078125 L 9.609375 0 L 9.28125 0 L 3.609375 -12.546875 L 3.515625 -12.546875 L 2.890625 0 L 1.890625 0 L 2.734375 -15.21875 L 4.875 -15.21875 Z M 10.1875 -3.609375 "/></g></g></g><g fill="#6a4933" fill-opacity="1"><g transform="translate(24.403565, 20.697391)"><g><path d="M 2.40625 -5.65625 C 2.40625 -4 2.773438 -2.804688 3.515625 -2.078125 C 4.265625 -1.347656 5.171875 -0.984375 6.234375 -0.984375 C 7.304688 -0.984375 8.289062 -1.191406 9.1875 -1.609375 L 9.1875 -0.796875 C 7.9375 -0.078125 6.734375 0.28125 5.578125 0.28125 C 4.097656 0.28125 2.894531 -0.171875 1.96875 -1.078125 C 1.050781 -1.984375 0.59375 -3.289062 0.59375 -5 C 0.59375 -6.71875 1.101562 -8.09375 2.125 -9.125 C 3.144531 -10.15625 4.375 -10.671875 5.8125 -10.671875 C 6.9375 -10.671875 7.875 -10.226562 8.625 -9.34375 C 9.375 -8.457031 9.75 -7.226562 9.75 -5.65625 Z M 4.640625 -9.578125 C 4.109375 -9.316406 3.648438 -8.898438 3.265625 -8.328125 C 2.878906 -7.753906 2.625 -7.09375 2.5 -6.34375 L 7.890625 -6.34375 C 7.835938 -6.988281 7.6875 -7.539062 7.4375 -8 C 7.1875 -8.457031 6.882812 -8.796875 6.53125 -9.015625 C 5.894531 -9.390625 5.265625 -9.578125 4.640625 -9.578125 Z M 4.640625 -9.578125 "/></g></g></g><g fill="#6a4933" fill-opacity="1"><g transform="translate(35.185937, 20.697391)"><g/></g></g><g fill="#6a4933" fill-opacity="1"><g transform="translate(40.933472, 20.697391)"><g><path d="M 2.40625 -5.65625 C 2.40625 -4 2.773438 -2.804688 3.515625 -2.078125 C 4.265625 -1.347656 5.171875 -0.984375 6.234375 -0.984375 C 7.304688 -0.984375 8.289062 -1.191406 9.1875 -1.609375 L 9.1875 -0.796875 C 7.9375 -0.078125 6.734375 0.28125 5.578125 0.28125 C 4.097656 0.28125 2.894531 -0.171875 1.96875 -1.078125 C 1.050781 -1.984375 0.59375 -3.289062 0.59375 -5 C 0.59375 -6.71875 1.101562 -8.09375 2.125 -9.125 C 3.144531 -10.15625 4.375 -10.671875 5.8125 -10.671875 C 6.9375 -10.671875 7.875 -10.226562 8.625 -9.34375 C 9.375 -8.457031 9.75 -7.226562 9.75 -5.65625 Z M 4.640625 -9.578125 C 4.109375 -9.316406 3.648438 -8.898438 3.265625 -8.328125 C 2.878906 -7.753906 2.625 -7.09375 2.5 -6.34375 L 7.890625 -6.34375 C 7.835938 -6.988281 7.6875 -7.539062 7.4375 -8 C 7.1875 -8.457031 6.882812 -8.796875 6.53125 -9.015625 C 5.894531 -9.390625 5.265625 -9.578125 4.640625 -9.578125 Z M 4.640625 -9.578125 "/></g></g></g><g fill="#6a4933" fill-opacity="1"><g transform="translate(51.715844, 20.697391)"><g><path d="M 3.71875 -8.921875 C 4.363281 -9.535156 4.925781 -9.976562 5.40625 -10.25 C 5.894531 -10.53125 6.46875 -10.671875 7.125 -10.671875 C 7.78125 -10.671875 8.390625 -10.410156 8.953125 -9.890625 C 9.515625 -9.367188 9.796875 -8.46875 9.796875 -7.1875 L 9.796875 0 L 7.84375 0 L 7.84375 -6.96875 C 7.84375 -7.71875 7.707031 -8.28125 7.4375 -8.65625 C 7.164062 -9.03125 6.703125 -9.21875 6.046875 -9.21875 C 5.398438 -9.21875 4.648438 -8.785156 3.796875 -7.921875 L 3.796875 0 L 1.84375 0 L 1.84375 -7.21875 C 1.84375 -8.257812 1.453125 -9.09375 0.671875 -9.71875 L 1.84375 -10.59375 Z M 3.71875 -8.921875 "/></g></g></g><g fill="#6a4933" fill-opacity="1"><g transform="translate(63.210914, 20.697391)"><g><path d="M 5.234375 0.28125 C 3.898438 0.28125 2.789062 -0.171875 1.90625 -1.078125 C 1.03125 -1.992188 0.59375 -3.285156 0.59375 -4.953125 C 0.59375 -6.628906 1.0625 -8 2 -9.0625 C 2.945312 -10.132812 4.148438 -10.671875 5.609375 -10.671875 C 6.421875 -10.671875 7.332031 -10.46875 8.34375 -10.0625 L 8.109375 -8.546875 C 6.765625 -9.253906 5.609375 -9.609375 4.640625 -9.609375 C 3.847656 -9.210938 3.273438 -8.566406 2.921875 -7.671875 C 2.566406 -6.785156 2.390625 -5.914062 2.390625 -5.0625 C 2.390625 -3.894531 2.726562 -2.921875 3.40625 -2.140625 C 4.09375 -1.367188 4.910156 -0.984375 5.859375 -0.984375 C 6.804688 -0.984375 7.679688 -1.191406 8.484375 -1.609375 L 8.484375 -0.796875 C 7.378906 -0.078125 6.296875 0.28125 5.234375 0.28125 Z M 5.234375 0.28125 "/></g></g></g><g fill="#6a4933" fill-opacity="1"><g transform="translate(72.544913, 20.697391)"><g><path d="M 6.546875 -2.4375 L 6.546875 -4.796875 C 5.441406 -4.722656 4.535156 -4.476562 3.828125 -4.0625 C 3.128906 -3.65625 2.78125 -3.210938 2.78125 -2.734375 C 2.78125 -2.253906 2.898438 -1.84375 3.140625 -1.5 C 3.390625 -1.15625 3.707031 -0.914062 4.09375 -0.78125 C 4.59375 -0.875 5.125 -1.125 5.6875 -1.53125 C 6.257812 -1.945312 6.546875 -2.25 6.546875 -2.4375 Z M 8.4375 -3.0625 C 8.4375 -1.96875 8.832031 -1.140625 9.625 -0.578125 L 8.4375 0.296875 L 6.578125 -1.375 C 5.359375 -0.269531 4.238281 0.28125 3.21875 0.28125 C 2.539062 0.28125 1.960938 0.0664062 1.484375 -0.359375 C 1.003906 -0.796875 0.765625 -1.335938 0.765625 -1.984375 C 0.765625 -2.640625 0.957031 -3.179688 1.34375 -3.609375 C 1.738281 -4.035156 2.253906 -4.363281 2.890625 -4.59375 C 3.992188 -5.007812 5.210938 -5.269531 6.546875 -5.375 L 6.546875 -7.53125 C 6.546875 -8.8125 5.8125 -9.453125 4.34375 -9.453125 C 3.5 -9.453125 2.503906 -9.265625 1.359375 -8.890625 L 1.15625 -9.46875 C 1.457031 -9.71875 1.988281 -9.976562 2.75 -10.25 C 3.507812 -10.53125 4.234375 -10.671875 4.921875 -10.671875 C 5.609375 -10.671875 6.1875 -10.578125 6.65625 -10.390625 C 7.125 -10.203125 7.46875 -9.992188 7.6875 -9.765625 C 7.90625 -9.535156 8.078125 -9.222656 8.203125 -8.828125 C 8.328125 -8.429688 8.394531 -8.113281 8.40625 -7.875 C 8.425781 -7.644531 8.4375 -7.34375 8.4375 -6.96875 Z M 8.4375 -3.0625 "/></g></g></g><g fill="#6a4933" fill-opacity="1"><g transform="translate(82.752532, 20.697391)"><g><path d="M 3.71875 -8.921875 C 4.363281 -9.535156 4.925781 -9.976562 5.40625 -10.25 C 5.894531 -10.53125 6.46875 -10.671875 7.125 -10.671875 C 7.78125 -10.671875 8.390625 -10.410156 8.953125 -9.890625 C 9.515625 -9.367188 9.796875 -8.46875 9.796875 -7.1875 L 9.796875 0 L 7.84375 0 L 7.84375 -6.96875 C 7.84375 -7.71875 7.707031 -8.28125 7.4375 -8.65625 C 7.164062 -9.03125 6.703125 -9.21875 6.046875 -9.21875 C 5.398438 -9.21875 4.648438 -8.785156 3.796875 -7.921875 L 3.796875 0 L 1.84375 0 L 1.84375 -7.21875 C 1.84375 -8.257812 1.453125 -9.09375 0.671875 -9.71875 L 1.84375 -10.59375 Z M 3.71875 -8.921875 "/></g></g></g><g fill="#6a4933" fill-opacity="1"><g transform="translate(94.247602, 20.697391)"><g><path d="M 4.015625 -2.015625 C 4.015625 -1.554688 4.109375 -1.210938 4.296875 -0.984375 C 4.484375 -0.753906 4.789062 -0.640625 5.21875 -0.640625 C 5.644531 -0.640625 6.15625 -0.753906 6.75 -0.984375 L 6.75 -0.34375 C 5.863281 0.0703125 5.066406 0.28125 4.359375 0.28125 C 3.660156 0.28125 3.109375 0.0859375 2.703125 -0.296875 C 2.296875 -0.691406 2.09375 -1.304688 2.09375 -2.140625 L 2.09375 -9.5625 L 0.234375 -9.921875 L 0.234375 -10.390625 L 2.09375 -10.390625 L 2.09375 -11.21875 L 4.015625 -12.625 L 4.015625 -10.390625 L 6.75 -10.390625 L 6.75 -9.5625 L 4.015625 -9.5625 Z M 4.015625 -2.015625 "/></g></g></g><g fill="#6a4933" fill-opacity="1"><g transform="translate(101.811366, 20.697391)"><g><path d="M 6.546875 -2.4375 L 6.546875 -4.796875 C 5.441406 -4.722656 4.535156 -4.476562 3.828125 -4.0625 C 3.128906 -3.65625 2.78125 -3.210938 2.78125 -2.734375 C 2.78125 -2.253906 2.898438 -1.84375 3.140625 -1.5 C 3.390625 -1.15625 3.707031 -0.914062 4.09375 -0.78125 C 4.59375 -0.875 5.125 -1.125 5.6875 -1.53125 C 6.257812 -1.945312 6.546875 -2.25 6.546875 -2.4375 Z M 8.4375 -3.0625 C 8.4375 -1.96875 8.832031 -1.140625 9.625 -0.578125 L 8.4375 0.296875 L 6.578125 -1.375 C 5.359375 -0.269531 4.238281 0.28125 3.21875 0.28125 C 2.539062 0.28125 1.960938 0.0664062 1.484375 -0.359375 C 1.003906 -0.796875 0.765625 -1.335938 0.765625 -1.984375 C 0.765625 -2.640625 0.957031 -3.179688 1.34375 -3.609375 C 1.738281 -4.035156 2.253906 -4.363281 2.890625 -4.59375 C 3.992188 -5.007812 5.210938 -5.269531 6.546875 -5.375 L 6.546875 -7.53125 C 6.546875 -8.8125 5.8125 -9.453125 4.34375 -9.453125 C 3.5 -9.453125 2.503906 -9.265625 1.359375 -8.890625 L 1.15625 -9.46875 C 1.457031 -9.71875 1.988281 -9.976562 2.75 -10.25 C 3.507812 -10.53125 4.234375 -10.671875 4.921875 -10.671875 C 5.609375 -10.671875 6.1875 -10.578125 6.65625 -10.390625 C 7.125 -10.203125 7.46875 -9.992188 7.6875 -9.765625 C 7.90625 -9.535156 8.078125 -9.222656 8.203125 -8.828125 C 8.328125 -8.429688 8.394531 -8.113281 8.40625 -7.875 C 8.425781 -7.644531 8.4375 -7.34375 8.4375 -6.96875 Z M 8.4375 -3.0625 "/></g></g></g><g fill="#6a4933" fill-opacity="1"><g transform="translate(112.018985, 20.697391)"><g><path d="M 3.40625 0 L 1.46875 0 L 1.46875 -10.390625 L 2.796875 -10.390625 L 3.328125 -8.453125 C 3.640625 -8.992188 4.128906 -9.5 4.796875 -9.96875 C 5.460938 -10.445312 6.144531 -10.738281 6.84375 -10.84375 L 7.078125 -9.265625 C 6.515625 -9.265625 5.875 -9.085938 5.15625 -8.734375 C 4.445312 -8.378906 3.863281 -7.988281 3.40625 -7.5625 Z M 3.40625 0 "/></g></g></g><g fill="#6a4933" fill-opacity="1"><g transform="translate(119.329859, 20.697391)"><g><path d="M 2.40625 -11.65625 L 1.5 -11.65625 L 5.453125 -15.96875 L 6.734375 -14.828125 Z M 1.71875 0 L 1.71875 -10.390625 L 3.625 -10.390625 L 3.625 0 Z M 1.71875 0 "/></g></g></g><g fill="#6a4933" fill-opacity="1"><g transform="translate(124.686559, 20.697391)"><g><path d="M 6.546875 -2.4375 L 6.546875 -4.796875 C 5.441406 -4.722656 4.535156 -4.476562 3.828125 -4.0625 C 3.128906 -3.65625 2.78125 -3.210938 2.78125 -2.734375 C 2.78125 -2.253906 2.898438 -1.84375 3.140625 -1.5 C 3.390625 -1.15625 3.707031 -0.914062 4.09375 -0.78125 C 4.59375 -0.875 5.125 -1.125 5.6875 -1.53125 C 6.257812 -1.945312 6.546875 -2.25 6.546875 -2.4375 Z M 8.4375 -3.0625 C 8.4375 -1.96875 8.832031 -1.140625 9.625 -0.578125 L 8.4375 0.296875 L 6.578125 -1.375 C 5.359375 -0.269531 4.238281 0.28125 3.21875 0.28125 C 2.539062 0.28125 1.960938 0.0664062 1.484375 -0.359375 C 1.003906 -0.796875 0.765625 -1.335938 0.765625 -1.984375 C 0.765625 -2.640625 0.957031 -3.179688 1.34375 -3.609375 C 1.738281 -4.035156 2.253906 -4.363281 2.890625 -4.59375 C 3.992188 -5.007812 5.210938 -5.269531 6.546875 -5.375 L 6.546875 -7.53125 C 6.546875 -8.8125 5.8125 -9.453125 4.34375 -9.453125 C 3.5 -9.453125 2.503906 -9.265625 1.359375 -8.890625 L 1.15625 -9.46875 C 1.457031 -9.71875 1.988281 -9.976562 2.75 -10.25 C 3.507812 -10.53125 4.234375 -10.671875 4.921875 -10.671875 C 5.609375 -10.671875 6.1875 -10.578125 6.65625 -10.390625 C 7.125 -10.203125 7.46875 -9.992188 7.6875 -9.765625 C 7.90625 -9.535156 8.078125 -9.222656 8.203125 -8.828125 C 8.328125 -8.429688 8.394531 -8.113281 8.40625 -7.875 C 8.425781 -7.644531 8.4375 -7.34375 8.4375 -6.96875 Z M 8.4375 -3.0625 "/></g></g></g><g fill="#6a4933" fill-opacity="1"><g transform="translate(0.891955, 52.628357)"><g><path d="M 3.671875 -8.921875 C 4.316406 -9.535156 4.878906 -9.976562 5.359375 -10.25 C 5.847656 -10.53125 6.347656 -10.671875 6.859375 -10.671875 C 7.367188 -10.671875 7.828125 -10.582031 8.234375 -10.40625 C 8.640625 -10.238281 9.054688 -9.96875 9.484375 -9.59375 C 9.921875 -9.21875 10.269531 -8.632812 10.53125 -7.84375 C 10.800781 -7.0625 10.9375 -6.195312 10.9375 -5.25 C 10.9375 -4.3125 10.78125 -3.4375 10.46875 -2.625 C 10.164062 -1.8125 9.6875 -1.101562 9.03125 -0.5 C 8.375 0.09375 7.582031 0.390625 6.65625 0.390625 C 5.726562 0.390625 4.734375 0.03125 3.671875 -0.6875 L 3.671875 4.875 L 1.71875 4.875 L 1.71875 -7.28125 C 1.71875 -8.34375 1.320312 -9.179688 0.53125 -9.796875 L 1.71875 -10.671875 Z M 3.671875 -7.515625 L 3.671875 -1.359375 C 5.773438 -0.359375 7.265625 -0.519531 8.140625 -1.84375 C 8.609375 -2.59375 8.84375 -3.582031 8.84375 -4.8125 C 8.84375 -6.050781 8.644531 -7.109375 8.25 -7.984375 C 7.863281 -8.867188 7.378906 -9.398438 6.796875 -9.578125 C 6.265625 -9.523438 5.738281 -9.335938 5.21875 -9.015625 C 4.707031 -8.691406 4.320312 -8.382812 4.0625 -8.09375 C 3.800781 -7.8125 3.671875 -7.617188 3.671875 -7.515625 Z M 3.671875 -7.515625 "/></g></g></g><g fill="#6a4933" fill-opacity="1"><g transform="translate(12.387025, 52.628357)"><g><path d="M 6.15625 -10.671875 C 7.507812 -10.671875 8.625 -10.207031 9.5 -9.28125 C 10.382812 -8.363281 10.828125 -7.101562 10.828125 -5.5 C 10.828125 -4.46875 10.648438 -3.5625 10.296875 -2.78125 C 9.941406 -2 9.484375 -1.394531 8.921875 -0.96875 C 7.828125 -0.132812 6.609375 0.28125 5.265625 0.28125 C 3.929688 0.28125 2.820312 -0.175781 1.9375 -1.09375 C 1.0625 -2.019531 0.625 -3.285156 0.625 -4.890625 C 0.625 -5.921875 0.796875 -6.828125 1.140625 -7.609375 C 1.484375 -8.390625 1.9375 -8.992188 2.5 -9.421875 C 3.59375 -10.253906 4.8125 -10.671875 6.15625 -10.671875 Z M 5.703125 -0.5 C 6.378906 -0.5 6.953125 -0.757812 7.421875 -1.28125 C 8.285156 -2.207031 8.71875 -3.429688 8.71875 -4.953125 C 8.71875 -6.472656 8.453125 -7.660156 7.921875 -8.515625 C 7.398438 -9.367188 6.550781 -9.796875 5.375 -9.796875 C 4.5 -9.453125 3.835938 -8.851562 3.390625 -8 C 2.941406 -7.15625 2.71875 -6.128906 2.71875 -4.921875 C 2.71875 -3.722656 2.960938 -2.6875 3.453125 -1.8125 C 3.941406 -0.9375 4.691406 -0.5 5.703125 -0.5 Z M 5.703125 -0.5 "/></g></g></g><g fill="#6a4933" fill-opacity="1"><g transform="translate(23.882094, 52.628357)"><g><path d="M 9.75 -3.078125 C 9.75 -2.023438 10.140625 -1.179688 10.921875 -0.546875 L 9.75 0.296875 L 7.859375 -1.375 C 7.242188 -0.789062 6.691406 -0.367188 6.203125 -0.109375 C 5.710938 0.148438 5.207031 0.28125 4.6875 0.28125 C 4.164062 0.28125 3.707031 0.203125 3.3125 0.046875 C 2.914062 -0.109375 2.5 -0.363281 2.0625 -0.71875 C 1.625 -1.082031 1.269531 -1.648438 1 -2.421875 C 0.726562 -3.191406 0.59375 -4.191406 0.59375 -5.421875 C 0.59375 -6.648438 0.957031 -7.828125 1.6875 -8.953125 C 2.414062 -10.078125 3.414062 -10.640625 4.6875 -10.640625 C 5.632812 -10.640625 6.671875 -10.285156 7.796875 -9.578125 L 7.796875 -15.703125 L 9.75 -15.703125 Z M 7.796875 -2.328125 L 7.796875 -8.734375 C 6.984375 -9.265625 6.238281 -9.53125 5.5625 -9.53125 C 4.675781 -9.53125 3.960938 -9.113281 3.421875 -8.28125 C 2.890625 -7.445312 2.625 -6.398438 2.625 -5.140625 C 2.625 -3.890625 2.816406 -2.882812 3.203125 -2.125 C 3.597656 -1.363281 4.085938 -0.910156 4.671875 -0.765625 C 5.203125 -0.804688 5.722656 -0.929688 6.234375 -1.140625 C 6.753906 -1.359375 7.144531 -1.578125 7.40625 -1.796875 C 7.664062 -2.023438 7.796875 -2.203125 7.796875 -2.328125 Z M 7.796875 -2.328125 "/></g></g></g><g fill="#6a4933" fill-opacity="1"><g transform="translate(35.377164, 52.628357)"><g><path d="M 2.40625 -5.65625 C 2.40625 -4 2.773438 -2.804688 3.515625 -2.078125 C 4.265625 -1.347656 5.171875 -0.984375 6.234375 -0.984375 C 7.304688 -0.984375 8.289062 -1.191406 9.1875 -1.609375 L 9.1875 -0.796875 C 7.9375 -0.078125 6.734375 0.28125 5.578125 0.28125 C 4.097656 0.28125 2.894531 -0.171875 1.96875 -1.078125 C 1.050781 -1.984375 0.59375 -3.289062 0.59375 -5 C 0.59375 -6.71875 1.101562 -8.09375 2.125 -9.125 C 3.144531 -10.15625 4.375 -10.671875 5.8125 -10.671875 C 6.9375 -10.671875 7.875 -10.226562 8.625 -9.34375 C 9.375 -8.457031 9.75 -7.226562 9.75 -5.65625 Z M 4.640625 -9.578125 C 4.109375 -9.316406 3.648438 -8.898438 3.265625 -8.328125 C 2.878906 -7.753906 2.625 -7.09375 2.5 -6.34375 L 7.890625 -6.34375 C 7.835938 -6.988281 7.6875 -7.539062 7.4375 -8 C 7.1875 -8.457031 6.882812 -8.796875 6.53125 -9.015625 C 5.894531 -9.390625 5.265625 -9.578125 4.640625 -9.578125 Z M 4.640625 -9.578125 "/></g></g></g><g fill="#6a4933" fill-opacity="1"><g transform="translate(46.159536, 52.628357)"><g><path d="M 3.40625 0 L 1.46875 0 L 1.46875 -10.390625 L 2.796875 -10.390625 L 3.328125 -8.453125 C 3.640625 -8.992188 4.128906 -9.5 4.796875 -9.96875 C 5.460938 -10.445312 6.144531 -10.738281 6.84375 -10.84375 L 7.078125 -9.265625 C 6.515625 -9.265625 5.875 -9.085938 5.15625 -8.734375 C 4.445312 -8.378906 3.863281 -7.988281 3.40625 -7.5625 Z M 3.40625 0 "/></g></g></g><g fill="#6a4933" fill-opacity="1"><g transform="translate(53.47041, 52.628357)"><g/></g></g><g fill="#6a4933" fill-opacity="1"><g transform="translate(59.217945, 52.628357)"><g><path d="M 6.546875 -2.4375 L 6.546875 -4.796875 C 5.441406 -4.722656 4.535156 -4.476562 3.828125 -4.0625 C 3.128906 -3.65625 2.78125 -3.210938 2.78125 -2.734375 C 2.78125 -2.253906 2.898438 -1.84375 3.140625 -1.5 C 3.390625 -1.15625 3.707031 -0.914062 4.09375 -0.78125 C 4.59375 -0.875 5.125 -1.125 5.6875 -1.53125 C 6.257812 -1.945312 6.546875 -2.25 6.546875 -2.4375 Z M 8.4375 -3.0625 C 8.4375 -1.96875 8.832031 -1.140625 9.625 -0.578125 L 8.4375 0.296875 L 6.578125 -1.375 C 5.359375 -0.269531 4.238281 0.28125 3.21875 0.28125 C 2.539062 0.28125 1.960938 0.0664062 1.484375 -0.359375 C 1.003906 -0.796875 0.765625 -1.335938 0.765625 -1.984375 C 0.765625 -2.640625 0.957031 -3.179688 1.34375 -3.609375 C 1.738281 -4.035156 2.253906 -4.363281 2.890625 -4.59375 C 3.992188 -5.007812 5.210938 -5.269531 6.546875 -5.375 L 6.546875 -7.53125 C 6.546875 -8.8125 5.8125 -9.453125 4.34375 -9.453125 C 3.5 -9.453125 2.503906 -9.265625 1.359375 -8.890625 L 1.15625 -9.46875 C 1.457031 -9.71875 1.988281 -9.976562 2.75 -10.25 C 3.507812 -10.53125 4.234375 -10.671875 4.921875 -10.671875 C 5.609375 -10.671875 6.1875 -10.578125 6.65625 -10.390625 C 7.125 -10.203125 7.46875 -9.992188 7.6875 -9.765625 C 7.90625 -9.535156 8.078125 -9.222656 8.203125 -8.828125 C 8.328125 -8.429688 8.394531 -8.113281 8.40625 -7.875 C 8.425781 -7.644531 8.4375 -7.34375 8.4375 -6.96875 Z M 8.4375 -3.0625 "/></g></g></g><g fill="#6a4933" fill-opacity="1"><g transform="translate(69.425564, 52.628357)"><g><path d="M 8.78125 -10.390625 L 9.65625 -10.390625 L 5.71875 0.34375 C 5.21875 1.75 4.460938 2.878906 3.453125 3.734375 C 2.441406 4.597656 1.328125 5.039062 0.109375 5.0625 L 0.34375 3.90625 C 2.414062 3.832031 4.023438 2.492188 5.171875 -0.109375 L 0.5 -10.390625 L 2.546875 -10.390625 L 6.0625 -2.59375 Z M 8.78125 -10.390625 "/></g></g></g><g fill="#6a4933" fill-opacity="1"><g transform="translate(79.56423, 52.628357)"><g><path d="M 9.125 -3.078125 C 9.125 -2.023438 9.519531 -1.191406 10.3125 -0.578125 L 9.125 0.28125 L 7.265625 -1.40625 C 6.640625 -0.800781 6.078125 -0.367188 5.578125 -0.109375 C 5.085938 0.148438 4.507812 0.28125 3.84375 0.28125 C 3.175781 0.28125 2.5625 0.0234375 2 -0.484375 C 1.445312 -1.003906 1.171875 -1.894531 1.171875 -3.15625 L 1.171875 -10.390625 L 3.125 -10.390625 L 3.125 -3.03125 C 3.125 -2.300781 3.257812 -1.742188 3.53125 -1.359375 C 3.800781 -0.984375 4.269531 -0.796875 4.9375 -0.796875 C 5.601562 -0.796875 6.347656 -1.289062 7.171875 -2.28125 L 7.171875 -10.390625 L 9.125 -10.390625 Z M 9.125 -3.078125 "/></g></g></g><g fill="#6a4933" fill-opacity="1"><g transform="translate(90.599513, 52.628357)"><g><path d="M 9.75 -3.078125 C 9.75 -2.023438 10.140625 -1.179688 10.921875 -0.546875 L 9.75 0.296875 L 7.859375 -1.375 C 7.242188 -0.789062 6.691406 -0.367188 6.203125 -0.109375 C 5.710938 0.148438 5.207031 0.28125 4.6875 0.28125 C 4.164062 0.28125 3.707031 0.203125 3.3125 0.046875 C 2.914062 -0.109375 2.5 -0.363281 2.0625 -0.71875 C 1.625 -1.082031 1.269531 -1.648438 1 -2.421875 C 0.726562 -3.191406 0.59375 -4.191406 0.59375 -5.421875 C 0.59375 -6.648438 0.957031 -7.828125 1.6875 -8.953125 C 2.414062 -10.078125 3.414062 -10.640625 4.6875 -10.640625 C 5.632812 -10.640625 6.671875 -10.285156 7.796875 -9.578125 L 7.796875 -15.703125 L 9.75 -15.703125 Z M 7.796875 -2.328125 L 7.796875 -8.734375 C 6.984375 -9.265625 6.238281 -9.53125 5.5625 -9.53125 C 4.675781 -9.53125 3.960938 -9.113281 3.421875 -8.28125 C 2.890625 -7.445312 2.625 -6.398438 2.625 -5.140625 C 2.625 -3.890625 2.816406 -2.882812 3.203125 -2.125 C 3.597656 -1.363281 4.085938 -0.910156 4.671875 -0.765625 C 5.203125 -0.804688 5.722656 -0.929688 6.234375 -1.140625 C 6.753906 -1.359375 7.144531 -1.578125 7.40625 -1.796875 C 7.664062 -2.023438 7.796875 -2.203125 7.796875 -2.328125 Z M 7.796875 -2.328125 "/></g></g></g><g fill="#6a4933" fill-opacity="1"><g transform="translate(102.094582, 52.628357)"><g><path d="M 6.546875 -2.4375 L 6.546875 -4.796875 C 5.441406 -4.722656 4.535156 -4.476562 3.828125 -4.0625 C 3.128906 -3.65625 2.78125 -3.210938 2.78125 -2.734375 C 2.78125 -2.253906 2.898438 -1.84375 3.140625 -1.5 C 3.390625 -1.15625 3.707031 -0.914062 4.09375 -0.78125 C 4.59375 -0.875 5.125 -1.125 5.6875 -1.53125 C 6.257812 -1.945312 6.546875 -2.25 6.546875 -2.4375 Z M 8.4375 -3.0625 C 8.4375 -1.96875 8.832031 -1.140625 9.625 -0.578125 L 8.4375 0.296875 L 6.578125 -1.375 C 5.359375 -0.269531 4.238281 0.28125 3.21875 0.28125 C 2.539062 0.28125 1.960938 0.0664062 1.484375 -0.359375 C 1.003906 -0.796875 0.765625 -1.335938 0.765625 -1.984375 C 0.765625 -2.640625 0.957031 -3.179688 1.34375 -3.609375 C 1.738281 -4.035156 2.253906 -4.363281 2.890625 -4.59375 C 3.992188 -5.007812 5.210938 -5.269531 6.546875 -5.375 L 6.546875 -7.53125 C 6.546875 -8.8125 5.8125 -9.453125 4.34375 -9.453125 C 3.5 -9.453125 2.503906 -9.265625 1.359375 -8.890625 L 1.15625 -9.46875 C 1.457031 -9.71875 1.988281 -9.976562 2.75 -10.25 C 3.507812 -10.53125 4.234375 -10.671875 4.921875 -10.671875 C 5.609375 -10.671875 6.1875 -10.578125 6.65625 -10.390625 C 7.125 -10.203125 7.46875 -9.992188 7.6875 -9.765625 C 7.90625 -9.535156 8.078125 -9.222656 8.203125 -8.828125 C 8.328125 -8.429688 8.394531 -8.113281 8.40625 -7.875 C 8.425781 -7.644531 8.4375 -7.34375 8.4375 -6.96875 Z M 8.4375 -3.0625 "/></g></g></g><g fill="#6a4933" fill-opacity="1"><g transform="translate(112.302201, 52.628357)"><g><path d="M 3.40625 0 L 1.46875 0 L 1.46875 -10.390625 L 2.796875 -10.390625 L 3.328125 -8.453125 C 3.640625 -8.992188 4.128906 -9.5 4.796875 -9.96875 C 5.460938 -10.445312 6.144531 -10.738281 6.84375 -10.84375 L 7.078125 -9.265625 C 6.515625 -9.265625 5.875 -9.085938 5.15625 -8.734375 C 4.445312 -8.378906 3.863281 -7.988281 3.40625 -7.5625 Z M 3.40625 0 "/></g></g></g><g fill="#6a4933" fill-opacity="1"><g transform="translate(119.613075, 52.628357)"><g><path d="M 4.015625 -2.015625 C 4.015625 -1.554688 4.109375 -1.210938 4.296875 -0.984375 C 4.484375 -0.753906 4.789062 -0.640625 5.21875 -0.640625 C 5.644531 -0.640625 6.15625 -0.753906 6.75 -0.984375 L 6.75 -0.34375 C 5.863281 0.0703125 5.066406 0.28125 4.359375 0.28125 C 3.660156 0.28125 3.109375 0.0859375 2.703125 -0.296875 C 2.296875 -0.691406 2.09375 -1.304688 2.09375 -2.140625 L 2.09375 -9.5625 L 0.234375 -9.921875 L 0.234375 -10.390625 L 2.09375 -10.390625 L 2.09375 -11.21875 L 4.015625 -12.625 L 4.015625 -10.390625 L 6.75 -10.390625 L 6.75 -9.5625 L 4.015625 -9.5625 Z M 4.015625 -2.015625 "/></g></g></g><g fill="#6a4933" fill-opacity="1"><g transform="translate(127.176839, 52.628357)"><g><path d="M 2.40625 -5.65625 C 2.40625 -4 2.773438 -2.804688 3.515625 -2.078125 C 4.265625 -1.347656 5.171875 -0.984375 6.234375 -0.984375 C 7.304688 -0.984375 8.289062 -1.191406 9.1875 -1.609375 L 9.1875 -0.796875 C 7.9375 -0.078125 6.734375 0.28125 5.578125 0.28125 C 4.097656 0.28125 2.894531 -0.171875 1.96875 -1.078125 C 1.050781 -1.984375 0.59375 -3.289062 0.59375 -5 C 0.59375 -6.71875 1.101562 -8.09375 2.125 -9.125 C 3.144531 -10.15625 4.375 -10.671875 5.8125 -10.671875 C 6.9375 -10.671875 7.875 -10.226562 8.625 -9.34375 C 9.375 -8.457031 9.75 -7.226562 9.75 -5.65625 Z M 4.640625 -9.578125 C 4.109375 -9.316406 3.648438 -8.898438 3.265625 -8.328125 C 2.878906 -7.753906 2.625 -7.09375 2.5 -6.34375 L 7.890625 -6.34375 C 7.835938 -6.988281 7.6875 -7.539062 7.4375 -8 C 7.1875 -8.457031 6.882812 -8.796875 6.53125 -9.015625 C 5.894531 -9.390625 5.265625 -9.578125 4.640625 -9.578125 Z M 4.640625 -9.578125 "/></g></g></g><g fill="#6a4933" fill-opacity="1"><g transform="translate(11.269519, 84.559323)"><g><path d="M 6.546875 -2.4375 L 6.546875 -4.796875 C 5.441406 -4.722656 4.535156 -4.476562 3.828125 -4.0625 C 3.128906 -3.65625 2.78125 -3.210938 2.78125 -2.734375 C 2.78125 -2.253906 2.898438 -1.84375 3.140625 -1.5 C 3.390625 -1.15625 3.707031 -0.914062 4.09375 -0.78125 C 4.59375 -0.875 5.125 -1.125 5.6875 -1.53125 C 6.257812 -1.945312 6.546875 -2.25 6.546875 -2.4375 Z M 8.4375 -3.0625 C 8.4375 -1.96875 8.832031 -1.140625 9.625 -0.578125 L 8.4375 0.296875 L 6.578125 -1.375 C 5.359375 -0.269531 4.238281 0.28125 3.21875 0.28125 C 2.539062 0.28125 1.960938 0.0664062 1.484375 -0.359375 C 1.003906 -0.796875 0.765625 -1.335938 0.765625 -1.984375 C 0.765625 -2.640625 0.957031 -3.179688 1.34375 -3.609375 C 1.738281 -4.035156 2.253906 -4.363281 2.890625 -4.59375 C 3.992188 -5.007812 5.210938 -5.269531 6.546875 -5.375 L 6.546875 -7.53125 C 6.546875 -8.8125 5.8125 -9.453125 4.34375 -9.453125 C 3.5 -9.453125 2.503906 -9.265625 1.359375 -8.890625 L 1.15625 -9.46875 C 1.457031 -9.71875 1.988281 -9.976562 2.75 -10.25 C 3.507812 -10.53125 4.234375 -10.671875 4.921875 -10.671875 C 5.609375 -10.671875 6.1875 -10.578125 6.65625 -10.390625 C 7.125 -10.203125 7.46875 -9.992188 7.6875 -9.765625 C 7.90625 -9.535156 8.078125 -9.222656 8.203125 -8.828125 C 8.328125 -8.429688 8.394531 -8.113281 8.40625 -7.875 C 8.425781 -7.644531 8.4375 -7.34375 8.4375 -6.96875 Z M 8.4375 -3.0625 "/></g></g></g><g fill="#6a4933" fill-opacity="1"><g transform="translate(21.477138, 84.559323)"><g/></g></g><g fill="#6a4933" fill-opacity="1"><g transform="translate(27.224673, 84.559323)"><g><path d="M 7.078125 -10.390625 L 7.078125 -9.5625 L 4.296875 -9.5625 L 4.296875 0 L 2.375 0 L 2.375 -9.5625 L 0.484375 -9.921875 L 0.484375 -10.390625 L 2.390625 -10.390625 C 2.484375 -12.015625 2.914062 -13.335938 3.6875 -14.359375 C 4.457031 -15.390625 5.503906 -15.90625 6.828125 -15.90625 C 7.253906 -15.90625 7.835938 -15.8125 8.578125 -15.625 L 8.34375 -14.140625 C 8.007812 -14.316406 7.578125 -14.472656 7.046875 -14.609375 C 6.515625 -14.753906 6.113281 -14.828125 5.84375 -14.828125 C 5.320312 -14.566406 4.941406 -13.984375 4.703125 -13.078125 C 4.460938 -12.171875 4.328125 -11.273438 4.296875 -10.390625 Z M 7.078125 -10.390625 "/></g></g></g><g fill="#6a4933" fill-opacity="1"><g transform="translate(34.880387, 84.559323)"><g><path d="M 6.15625 -10.671875 C 7.507812 -10.671875 8.625 -10.207031 9.5 -9.28125 C 10.382812 -8.363281 10.828125 -7.101562 10.828125 -5.5 C 10.828125 -4.46875 10.648438 -3.5625 10.296875 -2.78125 C 9.941406 -2 9.484375 -1.394531 8.921875 -0.96875 C 7.828125 -0.132812 6.609375 0.28125 5.265625 0.28125 C 3.929688 0.28125 2.820312 -0.175781 1.9375 -1.09375 C 1.0625 -2.019531 0.625 -3.285156 0.625 -4.890625 C 0.625 -5.921875 0.796875 -6.828125 1.140625 -7.609375 C 1.484375 -8.390625 1.9375 -8.992188 2.5 -9.421875 C 3.59375 -10.253906 4.8125 -10.671875 6.15625 -10.671875 Z M 5.703125 -0.5 C 6.378906 -0.5 6.953125 -0.757812 7.421875 -1.28125 C 8.285156 -2.207031 8.71875 -3.429688 8.71875 -4.953125 C 8.71875 -6.472656 8.453125 -7.660156 7.921875 -8.515625 C 7.398438 -9.367188 6.550781 -9.796875 5.375 -9.796875 C 4.5 -9.453125 3.835938 -8.851562 3.390625 -8 C 2.941406 -7.15625 2.71875 -6.128906 2.71875 -4.921875 C 2.71875 -3.722656 2.960938 -2.6875 3.453125 -1.8125 C 3.941406 -0.9375 4.691406 -0.5 5.703125 -0.5 Z M 5.703125 -0.5 "/></g></g></g><g fill="#6a4933" fill-opacity="1"><g transform="translate(46.375456, 84.559323)"><g><path d="M 3.40625 0 L 1.46875 0 L 1.46875 -10.390625 L 2.796875 -10.390625 L 3.328125 -8.453125 C 3.640625 -8.992188 4.128906 -9.5 4.796875 -9.96875 C 5.460938 -10.445312 6.144531 -10.738281 6.84375 -10.84375 L 7.078125 -9.265625 C 6.515625 -9.265625 5.875 -9.085938 5.15625 -8.734375 C 4.445312 -8.378906 3.863281 -7.988281 3.40625 -7.5625 Z M 3.40625 0 "/></g></g></g><g fill="#6a4933" fill-opacity="1"><g transform="translate(53.68633, 84.559323)"><g><path d="M 13.515625 -10.671875 C 15.328125 -10.671875 16.234375 -9.296875 16.234375 -6.546875 L 16.234375 0 L 14.296875 0 L 14.296875 -6.734375 C 14.296875 -8.023438 14.050781 -8.804688 13.5625 -9.078125 C 13.3125 -9.210938 12.96875 -9.28125 12.53125 -9.28125 C 12.101562 -9.28125 11.640625 -9.144531 11.140625 -8.875 C 10.640625 -8.613281 10.273438 -8.3125 10.046875 -7.96875 L 10.046875 0 L 8.09375 0 L 8.09375 -6.84375 C 8.09375 -7.65625 7.96875 -8.265625 7.71875 -8.671875 C 7.476562 -9.078125 7.117188 -9.28125 6.640625 -9.28125 C 6.171875 -9.28125 5.71875 -9.171875 5.28125 -8.953125 C 4.84375 -8.742188 4.492188 -8.53125 4.234375 -8.3125 C 3.972656 -8.101562 3.84375 -7.972656 3.84375 -7.921875 L 3.84375 0 L 1.90625 0 L 1.90625 -7.21875 C 1.90625 -8.257812 1.515625 -9.09375 0.734375 -9.71875 L 1.90625 -10.59375 L 3.75 -8.921875 C 4.46875 -9.515625 5.09375 -9.953125 5.625 -10.234375 C 6.164062 -10.523438 6.726562 -10.671875 7.3125 -10.671875 C 8.644531 -10.671875 9.472656 -10.046875 9.796875 -8.796875 C 10.328125 -9.410156 10.9375 -9.875 11.625 -10.1875 C 12.320312 -10.507812 12.953125 -10.671875 13.515625 -10.671875 Z M 13.515625 -10.671875 "/></g></g></g><g fill="#6a4933" fill-opacity="1"><g transform="translate(71.57266, 84.559323)"><g><path d="M 6.546875 -2.4375 L 6.546875 -4.796875 C 5.441406 -4.722656 4.535156 -4.476562 3.828125 -4.0625 C 3.128906 -3.65625 2.78125 -3.210938 2.78125 -2.734375 C 2.78125 -2.253906 2.898438 -1.84375 3.140625 -1.5 C 3.390625 -1.15625 3.707031 -0.914062 4.09375 -0.78125 C 4.59375 -0.875 5.125 -1.125 5.6875 -1.53125 C 6.257812 -1.945312 6.546875 -2.25 6.546875 -2.4375 Z M 8.4375 -3.0625 C 8.4375 -1.96875 8.832031 -1.140625 9.625 -0.578125 L 8.4375 0.296875 L 6.578125 -1.375 C 5.359375 -0.269531 4.238281 0.28125 3.21875 0.28125 C 2.539062 0.28125 1.960938 0.0664062 1.484375 -0.359375 C 1.003906 -0.796875 0.765625 -1.335938 0.765625 -1.984375 C 0.765625 -2.640625 0.957031 -3.179688 1.34375 -3.609375 C 1.738281 -4.035156 2.253906 -4.363281 2.890625 -4.59375 C 3.992188 -5.007812 5.210938 -5.269531 6.546875 -5.375 L 6.546875 -7.53125 C 6.546875 -8.8125 5.8125 -9.453125 4.34375 -9.453125 C 3.5 -9.453125 2.503906 -9.265625 1.359375 -8.890625 L 1.15625 -9.46875 C 1.457031 -9.71875 1.988281 -9.976562 2.75 -10.25 C 3.507812 -10.53125 4.234375 -10.671875 4.921875 -10.671875 C 5.609375 -10.671875 6.1875 -10.578125 6.65625 -10.390625 C 7.125 -10.203125 7.46875 -9.992188 7.6875 -9.765625 C 7.90625 -9.535156 8.078125 -9.222656 8.203125 -8.828125 C 8.328125 -8.429688 8.394531 -8.113281 8.40625 -7.875 C 8.425781 -7.644531 8.4375 -7.34375 8.4375 -6.96875 Z M 8.4375 -3.0625 "/></g></g></g><g fill="#6a4933" fill-opacity="1"><g transform="translate(81.780279, 84.559323)"><g><path d="M 3.40625 0 L 1.46875 0 L 1.46875 -10.390625 L 2.796875 -10.390625 L 3.328125 -8.453125 C 3.640625 -8.992188 4.128906 -9.5 4.796875 -9.96875 C 5.460938 -10.445312 6.144531 -10.738281 6.84375 -10.84375 L 7.078125 -9.265625 C 6.515625 -9.265625 5.875 -9.085938 5.15625 -8.734375 C 4.445312 -8.378906 3.863281 -7.988281 3.40625 -7.5625 Z M 3.40625 0 "/></g></g></g><g fill="#6a4933" fill-opacity="1"><g transform="translate(89.091153, 84.559323)"><g/></g></g><g fill="#6a4933" fill-opacity="1"><g transform="translate(94.838687, 84.559323)"><g><path d="M 9.125 -3.078125 C 9.125 -2.023438 9.519531 -1.191406 10.3125 -0.578125 L 9.125 0.28125 L 7.265625 -1.40625 C 6.640625 -0.800781 6.078125 -0.367188 5.578125 -0.109375 C 5.085938 0.148438 4.507812 0.28125 3.84375 0.28125 C 3.175781 0.28125 2.5625 0.0234375 2 -0.484375 C 1.445312 -1.003906 1.171875 -1.894531 1.171875 -3.15625 L 1.171875 -10.390625 L 3.125 -10.390625 L 3.125 -3.03125 C 3.125 -2.300781 3.257812 -1.742188 3.53125 -1.359375 C 3.800781 -0.984375 4.269531 -0.796875 4.9375 -0.796875 C 5.601562 -0.796875 6.347656 -1.289062 7.171875 -2.28125 L 7.171875 -10.390625 L 9.125 -10.390625 Z M 9.125 -3.078125 "/></g></g></g><g fill="#6a4933" fill-opacity="1"><g transform="translate(105.87397, 84.559323)"><g><path d="M 3.71875 -8.921875 C 4.363281 -9.535156 4.925781 -9.976562 5.40625 -10.25 C 5.894531 -10.53125 6.46875 -10.671875 7.125 -10.671875 C 7.78125 -10.671875 8.390625 -10.410156 8.953125 -9.890625 C 9.515625 -9.367188 9.796875 -8.46875 9.796875 -7.1875 L 9.796875 0 L 7.84375 0 L 7.84375 -6.96875 C 7.84375 -7.71875 7.707031 -8.28125 7.4375 -8.65625 C 7.164062 -9.03125 6.703125 -9.21875 6.046875 -9.21875 C 5.398438 -9.21875 4.648438 -8.785156 3.796875 -7.921875 L 3.796875 0 L 1.84375 0 L 1.84375 -7.21875 C 1.84375 -8.257812 1.453125 -9.09375 0.671875 -9.71875 L 1.84375 -10.59375 Z M 3.71875 -8.921875 "/></g></g></g><g fill="#6a4933" fill-opacity="1"><g transform="translate(117.36904, 84.559323)"><g><path d="M 6.546875 -2.4375 L 6.546875 -4.796875 C 5.441406 -4.722656 4.535156 -4.476562 3.828125 -4.0625 C 3.128906 -3.65625 2.78125 -3.210938 2.78125 -2.734375 C 2.78125 -2.253906 2.898438 -1.84375 3.140625 -1.5 C 3.390625 -1.15625 3.707031 -0.914062 4.09375 -0.78125 C 4.59375 -0.875 5.125 -1.125 5.6875 -1.53125 C 6.257812 -1.945312 6.546875 -2.25 6.546875 -2.4375 Z M 8.4375 -3.0625 C 8.4375 -1.96875 8.832031 -1.140625 9.625 -0.578125 L 8.4375 0.296875 L 6.578125 -1.375 C 5.359375 -0.269531 4.238281 0.28125 3.21875 0.28125 C 2.539062 0.28125 1.960938 0.0664062 1.484375 -0.359375 C 1.003906 -0.796875 0.765625 -1.335938 0.765625 -1.984375 C 0.765625 -2.640625 0.957031 -3.179688 1.34375 -3.609375 C 1.738281 -4.035156 2.253906 -4.363281 2.890625 -4.59375 C 3.992188 -5.007812 5.210938 -5.269531 6.546875 -5.375 L 6.546875 -7.53125 C 6.546875 -8.8125 5.8125 -9.453125 4.34375 -9.453125 C 3.5 -9.453125 2.503906 -9.265625 1.359375 -8.890625 L 1.15625 -9.46875 C 1.457031 -9.71875 1.988281 -9.976562 2.75 -10.25 C 3.507812 -10.53125 4.234375 -10.671875 4.921875 -10.671875 C 5.609375 -10.671875 6.1875 -10.578125 6.65625 -10.390625 C 7.125 -10.203125 7.46875 -9.992188 7.6875 -9.765625 C 7.90625 -9.535156 8.078125 -9.222656 8.203125 -8.828125 C 8.328125 -8.429688 8.394531 -8.113281 8.40625 -7.875 C 8.425781 -7.644531 8.4375 -7.34375 8.4375 -6.96875 Z M 8.4375 -3.0625 "/></g></g></g><g fill="#6a4933" fill-opacity="1"><g transform="translate(19.531656, 116.490288)"><g><path d="M 5.234375 0.28125 C 3.898438 0.28125 2.789062 -0.171875 1.90625 -1.078125 C 1.03125 -1.992188 0.59375 -3.285156 0.59375 -4.953125 C 0.59375 -6.628906 1.0625 -8 2 -9.0625 C 2.945312 -10.132812 4.148438 -10.671875 5.609375 -10.671875 C 6.421875 -10.671875 7.332031 -10.46875 8.34375 -10.0625 L 8.109375 -8.546875 C 6.765625 -9.253906 5.609375 -9.609375 4.640625 -9.609375 C 3.847656 -9.210938 3.273438 -8.566406 2.921875 -7.671875 C 2.566406 -6.785156 2.390625 -5.914062 2.390625 -5.0625 C 2.390625 -3.894531 2.726562 -2.921875 3.40625 -2.140625 C 4.09375 -1.367188 4.910156 -0.984375 5.859375 -0.984375 C 6.804688 -0.984375 7.679688 -1.191406 8.484375 -1.609375 L 8.484375 -0.796875 C 7.378906 -0.078125 6.296875 0.28125 5.234375 0.28125 Z M 5.234375 0.28125 "/></g></g></g><g fill="#6a4933" fill-opacity="1"><g transform="translate(28.865656, 116.490288)"><g><path d="M 6.15625 -10.671875 C 7.507812 -10.671875 8.625 -10.207031 9.5 -9.28125 C 10.382812 -8.363281 10.828125 -7.101562 10.828125 -5.5 C 10.828125 -4.46875 10.648438 -3.5625 10.296875 -2.78125 C 9.941406 -2 9.484375 -1.394531 8.921875 -0.96875 C 7.828125 -0.132812 6.609375 0.28125 5.265625 0.28125 C 3.929688 0.28125 2.820312 -0.175781 1.9375 -1.09375 C 1.0625 -2.019531 0.625 -3.285156 0.625 -4.890625 C 0.625 -5.921875 0.796875 -6.828125 1.140625 -7.609375 C 1.484375 -8.390625 1.9375 -8.992188 2.5 -9.421875 C 3.59375 -10.253906 4.8125 -10.671875 6.15625 -10.671875 Z M 5.703125 -0.5 C 6.378906 -0.5 6.953125 -0.757812 7.421875 -1.28125 C 8.285156 -2.207031 8.71875 -3.429688 8.71875 -4.953125 C 8.71875 -6.472656 8.453125 -7.660156 7.921875 -8.515625 C 7.398438 -9.367188 6.550781 -9.796875 5.375 -9.796875 C 4.5 -9.453125 3.835938 -8.851562 3.390625 -8 C 2.941406 -7.15625 2.71875 -6.128906 2.71875 -4.921875 C 2.71875 -3.722656 2.960938 -2.6875 3.453125 -1.8125 C 3.941406 -0.9375 4.691406 -0.5 5.703125 -0.5 Z M 5.703125 -0.5 "/></g></g></g><g fill="#6a4933" fill-opacity="1"><g transform="translate(40.360726, 116.490288)"><g><path d="M 13.515625 -10.671875 C 15.328125 -10.671875 16.234375 -9.296875 16.234375 -6.546875 L 16.234375 0 L 14.296875 0 L 14.296875 -6.734375 C 14.296875 -8.023438 14.050781 -8.804688 13.5625 -9.078125 C 13.3125 -9.210938 12.96875 -9.28125 12.53125 -9.28125 C 12.101562 -9.28125 11.640625 -9.144531 11.140625 -8.875 C 10.640625 -8.613281 10.273438 -8.3125 10.046875 -7.96875 L 10.046875 0 L 8.09375 0 L 8.09375 -6.84375 C 8.09375 -7.65625 7.96875 -8.265625 7.71875 -8.671875 C 7.476562 -9.078125 7.117188 -9.28125 6.640625 -9.28125 C 6.171875 -9.28125 5.71875 -9.171875 5.28125 -8.953125 C 4.84375 -8.742188 4.492188 -8.53125 4.234375 -8.3125 C 3.972656 -8.101562 3.84375 -7.972656 3.84375 -7.921875 L 3.84375 0 L 1.90625 0 L 1.90625 -7.21875 C 1.90625 -8.257812 1.515625 -9.09375 0.734375 -9.71875 L 1.90625 -10.59375 L 3.75 -8.921875 C 4.46875 -9.515625 5.09375 -9.953125 5.625 -10.234375 C 6.164062 -10.523438 6.726562 -10.671875 7.3125 -10.671875 C 8.644531 -10.671875 9.472656 -10.046875 9.796875 -8.796875 C 10.328125 -9.410156 10.9375 -9.875 11.625 -10.1875 C 12.320312 -10.507812 12.953125 -10.671875 13.515625 -10.671875 Z M 13.515625 -10.671875 "/></g></g></g><g fill="#6a4933" fill-opacity="1"><g transform="translate(58.247056, 116.490288)"><g><path d="M 9.125 -3.078125 C 9.125 -2.023438 9.519531 -1.191406 10.3125 -0.578125 L 9.125 0.28125 L 7.265625 -1.40625 C 6.640625 -0.800781 6.078125 -0.367188 5.578125 -0.109375 C 5.085938 0.148438 4.507812 0.28125 3.84375 0.28125 C 3.175781 0.28125 2.5625 0.0234375 2 -0.484375 C 1.445312 -1.003906 1.171875 -1.894531 1.171875 -3.15625 L 1.171875 -10.390625 L 3.125 -10.390625 L 3.125 -3.03125 C 3.125 -2.300781 3.257812 -1.742188 3.53125 -1.359375 C 3.800781 -0.984375 4.269531 -0.796875 4.9375 -0.796875 C 5.601562 -0.796875 6.347656 -1.289062 7.171875 -2.28125 L 7.171875 -10.390625 L 9.125 -10.390625 Z M 9.125 -3.078125 "/></g></g></g><g fill="#6a4933" fill-opacity="1"><g transform="translate(69.282338, 116.490288)"><g><path d="M 3.71875 -8.921875 C 4.363281 -9.535156 4.925781 -9.976562 5.40625 -10.25 C 5.894531 -10.53125 6.46875 -10.671875 7.125 -10.671875 C 7.78125 -10.671875 8.390625 -10.410156 8.953125 -9.890625 C 9.515625 -9.367188 9.796875 -8.46875 9.796875 -7.1875 L 9.796875 0 L 7.84375 0 L 7.84375 -6.96875 C 7.84375 -7.71875 7.707031 -8.28125 7.4375 -8.65625 C 7.164062 -9.03125 6.703125 -9.21875 6.046875 -9.21875 C 5.398438 -9.21875 4.648438 -8.785156 3.796875 -7.921875 L 3.796875 0 L 1.84375 0 L 1.84375 -7.21875 C 1.84375 -8.257812 1.453125 -9.09375 0.671875 -9.71875 L 1.84375 -10.59375 Z M 3.71875 -8.921875 "/></g></g></g><g fill="#6a4933" fill-opacity="1"><g transform="translate(80.777408, 116.490288)"><g><path d="M 1.71875 0 L 1.71875 -10.390625 L 3.625 -10.390625 L 3.625 0 Z M 1.5 -13.59375 C 1.5 -13.925781 1.609375 -14.207031 1.828125 -14.4375 C 2.046875 -14.664062 2.320312 -14.78125 2.65625 -14.78125 C 2.988281 -14.78125 3.269531 -14.664062 3.5 -14.4375 C 3.738281 -14.207031 3.859375 -13.929688 3.859375 -13.609375 C 3.859375 -13.285156 3.738281 -13 3.5 -12.75 C 3.269531 -12.507812 2.992188 -12.390625 2.671875 -12.390625 C 2.347656 -12.390625 2.070312 -12.503906 1.84375 -12.734375 C 1.613281 -12.972656 1.5 -13.257812 1.5 -13.59375 Z M 1.5 -13.59375 "/></g></g></g><g fill="#6a4933" fill-opacity="1"><g transform="translate(86.134108, 116.490288)"><g><path d="M 9.75 -3.078125 C 9.75 -2.023438 10.140625 -1.179688 10.921875 -0.546875 L 9.75 0.296875 L 7.859375 -1.375 C 7.242188 -0.789062 6.691406 -0.367188 6.203125 -0.109375 C 5.710938 0.148438 5.207031 0.28125 4.6875 0.28125 C 4.164062 0.28125 3.707031 0.203125 3.3125 0.046875 C 2.914062 -0.109375 2.5 -0.363281 2.0625 -0.71875 C 1.625 -1.082031 1.269531 -1.648438 1 -2.421875 C 0.726562 -3.191406 0.59375 -4.191406 0.59375 -5.421875 C 0.59375 -6.648438 0.957031 -7.828125 1.6875 -8.953125 C 2.414062 -10.078125 3.414062 -10.640625 4.6875 -10.640625 C 5.632812 -10.640625 6.671875 -10.285156 7.796875 -9.578125 L 7.796875 -15.703125 L 9.75 -15.703125 Z M 7.796875 -2.328125 L 7.796875 -8.734375 C 6.984375 -9.265625 6.238281 -9.53125 5.5625 -9.53125 C 4.675781 -9.53125 3.960938 -9.113281 3.421875 -8.28125 C 2.890625 -7.445312 2.625 -6.398438 2.625 -5.140625 C 2.625 -3.890625 2.816406 -2.882812 3.203125 -2.125 C 3.597656 -1.363281 4.085938 -0.910156 4.671875 -0.765625 C 5.203125 -0.804688 5.722656 -0.929688 6.234375 -1.140625 C 6.753906 -1.359375 7.144531 -1.578125 7.40625 -1.796875 C 7.664062 -2.023438 7.796875 -2.203125 7.796875 -2.328125 Z M 7.796875 -2.328125 "/></g></g></g><g fill="#6a4933" fill-opacity="1"><g transform="translate(97.629178, 116.490288)"><g><path d="M 6.546875 -2.4375 L 6.546875 -4.796875 C 5.441406 -4.722656 4.535156 -4.476562 3.828125 -4.0625 C 3.128906 -3.65625 2.78125 -3.210938 2.78125 -2.734375 C 2.78125 -2.253906 2.898438 -1.84375 3.140625 -1.5 C 3.390625 -1.15625 3.707031 -0.914062 4.09375 -0.78125 C 4.59375 -0.875 5.125 -1.125 5.6875 -1.53125 C 6.257812 -1.945312 6.546875 -2.25 6.546875 -2.4375 Z M 8.4375 -3.0625 C 8.4375 -1.96875 8.832031 -1.140625 9.625 -0.578125 L 8.4375 0.296875 L 6.578125 -1.375 C 5.359375 -0.269531 4.238281 0.28125 3.21875 0.28125 C 2.539062 0.28125 1.960938 0.0664062 1.484375 -0.359375 C 1.003906 -0.796875 0.765625 -1.335938 0.765625 -1.984375 C 0.765625 -2.640625 0.957031 -3.179688 1.34375 -3.609375 C 1.738281 -4.035156 2.253906 -4.363281 2.890625 -4.59375 C 3.992188 -5.007812 5.210938 -5.269531 6.546875 -5.375 L 6.546875 -7.53125 C 6.546875 -8.8125 5.8125 -9.453125 4.34375 -9.453125 C 3.5 -9.453125 2.503906 -9.265625 1.359375 -8.890625 L 1.15625 -9.46875 C 1.457031 -9.71875 1.988281 -9.976562 2.75 -10.25 C 3.507812 -10.53125 4.234375 -10.671875 4.921875 -10.671875 C 5.609375 -10.671875 6.1875 -10.578125 6.65625 -10.390625 C 7.125 -10.203125 7.46875 -9.992188 7.6875 -9.765625 C 7.90625 -9.535156 8.078125 -9.222656 8.203125 -8.828125 C 8.328125 -8.429688 8.394531 -8.113281 8.40625 -7.875 C 8.425781 -7.644531 8.4375 -7.34375 8.4375 -6.96875 Z M 8.4375 -3.0625 "/></g></g></g><g fill="#6a4933" fill-opacity="1"><g transform="translate(107.836797, 116.490288)"><g><path d="M 9.75 -3.078125 C 9.75 -2.023438 10.140625 -1.179688 10.921875 -0.546875 L 9.75 0.296875 L 7.859375 -1.375 C 7.242188 -0.789062 6.691406 -0.367188 6.203125 -0.109375 C 5.710938 0.148438 5.207031 0.28125 4.6875 0.28125 C 4.164062 0.28125 3.707031 0.203125 3.3125 0.046875 C 2.914062 -0.109375 2.5 -0.363281 2.0625 -0.71875 C 1.625 -1.082031 1.269531 -1.648438 1 -2.421875 C 0.726562 -3.191406 0.59375 -4.191406 0.59375 -5.421875 C 0.59375 -6.648438 0.957031 -7.828125 1.6875 -8.953125 C 2.414062 -10.078125 3.414062 -10.640625 4.6875 -10.640625 C 5.632812 -10.640625 6.671875 -10.285156 7.796875 -9.578125 L 7.796875 -15.703125 L 9.75 -15.703125 Z M 7.796875 -2.328125 L 7.796875 -8.734375 C 6.984375 -9.265625 6.238281 -9.53125 5.5625 -9.53125 C 4.675781 -9.53125 3.960938 -9.113281 3.421875 -8.28125 C 2.890625 -7.445312 2.625 -6.398438 2.625 -5.140625 C 2.625 -3.890625 2.816406 -2.882812 3.203125 -2.125 C 3.597656 -1.363281 4.085938 -0.910156 4.671875 -0.765625 C 5.203125 -0.804688 5.722656 -0.929688 6.234375 -1.140625 C 6.753906 -1.359375 7.144531 -1.578125 7.40625 -1.796875 C 7.664062 -2.023438 7.796875 -2.203125 7.796875 -2.328125 Z M 7.796875 -2.328125 "/></g></g></g><g fill="#6a4933" fill-opacity="1"><g transform="translate(4.464232, 148.421254)"><g><path d="M 6.546875 -2.4375 L 6.546875 -4.796875 C 5.441406 -4.722656 4.535156 -4.476562 3.828125 -4.0625 C 3.128906 -3.65625 2.78125 -3.210938 2.78125 -2.734375 C 2.78125 -2.253906 2.898438 -1.84375 3.140625 -1.5 C 3.390625 -1.15625 3.707031 -0.914062 4.09375 -0.78125 C 4.59375 -0.875 5.125 -1.125 5.6875 -1.53125 C 6.257812 -1.945312 6.546875 -2.25 6.546875 -2.4375 Z M 8.4375 -3.0625 C 8.4375 -1.96875 8.832031 -1.140625 9.625 -0.578125 L 8.4375 0.296875 L 6.578125 -1.375 C 5.359375 -0.269531 4.238281 0.28125 3.21875 0.28125 C 2.539062 0.28125 1.960938 0.0664062 1.484375 -0.359375 C 1.003906 -0.796875 0.765625 -1.335938 0.765625 -1.984375 C 0.765625 -2.640625 0.957031 -3.179688 1.34375 -3.609375 C 1.738281 -4.035156 2.253906 -4.363281 2.890625 -4.59375 C 3.992188 -5.007812 5.210938 -5.269531 6.546875 -5.375 L 6.546875 -7.53125 C 6.546875 -8.8125 5.8125 -9.453125 4.34375 -9.453125 C 3.5 -9.453125 2.503906 -9.265625 1.359375 -8.890625 L 1.15625 -9.46875 C 1.457031 -9.71875 1.988281 -9.976562 2.75 -10.25 C 3.507812 -10.53125 4.234375 -10.671875 4.921875 -10.671875 C 5.609375 -10.671875 6.1875 -10.578125 6.65625 -10.390625 C 7.125 -10.203125 7.46875 -9.992188 7.6875 -9.765625 C 7.90625 -9.535156 8.078125 -9.222656 8.203125 -8.828125 C 8.328125 -8.429688 8.394531 -8.113281 8.40625 -7.875 C 8.425781 -7.644531 8.4375 -7.34375 8.4375 -6.96875 Z M 8.4375 -3.0625 "/></g></g></g><g fill="#6a4933" fill-opacity="1"><g transform="translate(14.671851, 148.421254)"><g><path d="M 9.75 -3.078125 C 9.75 -2.023438 10.140625 -1.179688 10.921875 -0.546875 L 9.75 0.296875 L 7.859375 -1.375 C 7.242188 -0.789062 6.691406 -0.367188 6.203125 -0.109375 C 5.710938 0.148438 5.207031 0.28125 4.6875 0.28125 C 4.164062 0.28125 3.707031 0.203125 3.3125 0.046875 C 2.914062 -0.109375 2.5 -0.363281 2.0625 -0.71875 C 1.625 -1.082031 1.269531 -1.648438 1 -2.421875 C 0.726562 -3.191406 0.59375 -4.191406 0.59375 -5.421875 C 0.59375 -6.648438 0.957031 -7.828125 1.6875 -8.953125 C 2.414062 -10.078125 3.414062 -10.640625 4.6875 -10.640625 C 5.632812 -10.640625 6.671875 -10.285156 7.796875 -9.578125 L 7.796875 -15.703125 L 9.75 -15.703125 Z M 7.796875 -2.328125 L 7.796875 -8.734375 C 6.984375 -9.265625 6.238281 -9.53125 5.5625 -9.53125 C 4.675781 -9.53125 3.960938 -9.113281 3.421875 -8.28125 C 2.890625 -7.445312 2.625 -6.398438 2.625 -5.140625 C 2.625 -3.890625 2.816406 -2.882812 3.203125 -2.125 C 3.597656 -1.363281 4.085938 -0.910156 4.671875 -0.765625 C 5.203125 -0.804688 5.722656 -0.929688 6.234375 -1.140625 C 6.753906 -1.359375 7.144531 -1.578125 7.40625 -1.796875 C 7.664062 -2.023438 7.796875 -2.203125 7.796875 -2.328125 Z M 7.796875 -2.328125 "/></g></g></g><g fill="#6a4933" fill-opacity="1"><g transform="translate(26.16692, 148.421254)"><g><path d="M 13.515625 -10.671875 C 15.328125 -10.671875 16.234375 -9.296875 16.234375 -6.546875 L 16.234375 0 L 14.296875 0 L 14.296875 -6.734375 C 14.296875 -8.023438 14.050781 -8.804688 13.5625 -9.078125 C 13.3125 -9.210938 12.96875 -9.28125 12.53125 -9.28125 C 12.101562 -9.28125 11.640625 -9.144531 11.140625 -8.875 C 10.640625 -8.613281 10.273438 -8.3125 10.046875 -7.96875 L 10.046875 0 L 8.09375 0 L 8.09375 -6.84375 C 8.09375 -7.65625 7.96875 -8.265625 7.71875 -8.671875 C 7.476562 -9.078125 7.117188 -9.28125 6.640625 -9.28125 C 6.171875 -9.28125 5.71875 -9.171875 5.28125 -8.953125 C 4.84375 -8.742188 4.492188 -8.53125 4.234375 -8.3125 C 3.972656 -8.101562 3.84375 -7.972656 3.84375 -7.921875 L 3.84375 0 L 1.90625 0 L 1.90625 -7.21875 C 1.90625 -8.257812 1.515625 -9.09375 0.734375 -9.71875 L 1.90625 -10.59375 L 3.75 -8.921875 C 4.46875 -9.515625 5.09375 -9.953125 5.625 -10.234375 C 6.164062 -10.523438 6.726562 -10.671875 7.3125 -10.671875 C 8.644531 -10.671875 9.472656 -10.046875 9.796875 -8.796875 C 10.328125 -9.410156 10.9375 -9.875 11.625 -10.1875 C 12.320312 -10.507812 12.953125 -10.671875 13.515625 -10.671875 Z M 13.515625 -10.671875 "/></g></g></g><g fill="#6a4933" fill-opacity="1"><g transform="translate(44.05325, 148.421254)"><g><path d="M 1.71875 0 L 1.71875 -10.390625 L 3.625 -10.390625 L 3.625 0 Z M 1.5 -13.59375 C 1.5 -13.925781 1.609375 -14.207031 1.828125 -14.4375 C 2.046875 -14.664062 2.320312 -14.78125 2.65625 -14.78125 C 2.988281 -14.78125 3.269531 -14.664062 3.5 -14.4375 C 3.738281 -14.207031 3.859375 -13.929688 3.859375 -13.609375 C 3.859375 -13.285156 3.738281 -13 3.5 -12.75 C 3.269531 -12.507812 2.992188 -12.390625 2.671875 -12.390625 C 2.347656 -12.390625 2.070312 -12.503906 1.84375 -12.734375 C 1.613281 -12.972656 1.5 -13.257812 1.5 -13.59375 Z M 1.5 -13.59375 "/></g></g></g><g fill="#6a4933" fill-opacity="1"><g transform="translate(49.409951, 148.421254)"><g><path d="M 3.71875 -8.921875 C 4.363281 -9.535156 4.925781 -9.976562 5.40625 -10.25 C 5.894531 -10.53125 6.46875 -10.671875 7.125 -10.671875 C 7.78125 -10.671875 8.390625 -10.410156 8.953125 -9.890625 C 9.515625 -9.367188 9.796875 -8.46875 9.796875 -7.1875 L 9.796875 0 L 7.84375 0 L 7.84375 -6.96875 C 7.84375 -7.71875 7.707031 -8.28125 7.4375 -8.65625 C 7.164062 -9.03125 6.703125 -9.21875 6.046875 -9.21875 C 5.398438 -9.21875 4.648438 -8.785156 3.796875 -7.921875 L 3.796875 0 L 1.84375 0 L 1.84375 -7.21875 C 1.84375 -8.257812 1.453125 -9.09375 0.671875 -9.71875 L 1.84375 -10.59375 Z M 3.71875 -8.921875 "/></g></g></g><g fill="#6a4933" fill-opacity="1"><g transform="translate(60.90502, 148.421254)"><g><path d="M 1.71875 0 L 1.71875 -10.390625 L 3.625 -10.390625 L 3.625 0 Z M 1.5 -13.59375 C 1.5 -13.925781 1.609375 -14.207031 1.828125 -14.4375 C 2.046875 -14.664062 2.320312 -14.78125 2.65625 -14.78125 C 2.988281 -14.78125 3.269531 -14.664062 3.5 -14.4375 C 3.738281 -14.207031 3.859375 -13.929688 3.859375 -13.609375 C 3.859375 -13.285156 3.738281 -13 3.5 -12.75 C 3.269531 -12.507812 2.992188 -12.390625 2.671875 -12.390625 C 2.347656 -12.390625 2.070312 -12.503906 1.84375 -12.734375 C 1.613281 -12.972656 1.5 -13.257812 1.5 -13.59375 Z M 1.5 -13.59375 "/></g></g></g><g fill="#6a4933" fill-opacity="1"><g transform="translate(66.26172, 148.421254)"><g><path d="M 3.890625 -9.703125 C 3.484375 -9.703125 3.15625 -9.550781 2.90625 -9.25 C 2.65625 -8.945312 2.53125 -8.609375 2.53125 -8.234375 C 2.53125 -7.859375 2.707031 -7.5 3.0625 -7.15625 C 3.425781 -6.8125 3.863281 -6.503906 4.375 -6.234375 C 4.894531 -5.972656 5.40625 -5.695312 5.90625 -5.40625 C 6.414062 -5.113281 6.847656 -4.734375 7.203125 -4.265625 C 7.566406 -3.804688 7.75 -3.296875 7.75 -2.734375 C 7.75 -1.878906 7.398438 -1.160156 6.703125 -0.578125 C 6.015625 -0.00390625 5.078125 0.28125 3.890625 0.28125 C 2.703125 0.28125 1.617188 0.00390625 0.640625 -0.546875 L 0.640625 -1.421875 C 1.679688 -0.898438 2.625 -0.640625 3.46875 -0.640625 C 4.3125 -0.640625 4.925781 -0.804688 5.3125 -1.140625 C 5.695312 -1.484375 5.890625 -1.875 5.890625 -2.3125 C 5.890625 -2.75 5.710938 -3.140625 5.359375 -3.484375 C 5.015625 -3.828125 4.59375 -4.128906 4.09375 -4.390625 C 3.601562 -4.648438 3.113281 -4.925781 2.625 -5.21875 C 2.132812 -5.507812 1.710938 -5.882812 1.359375 -6.34375 C 1.015625 -6.800781 0.84375 -7.351562 0.84375 -8 C 0.84375 -8.65625 1.109375 -9.265625 1.640625 -9.828125 C 2.171875 -10.390625 2.988281 -10.671875 4.09375 -10.671875 C 5.195312 -10.671875 6.253906 -10.46875 7.265625 -10.0625 L 7.03125 -8.546875 C 5.894531 -9.160156 4.847656 -9.546875 3.890625 -9.703125 Z M 3.890625 -9.703125 "/></g></g></g><g fill="#6a4933" fill-opacity="1"><g transform="translate(74.814051, 148.421254)"><g><path d="M 4.015625 -2.015625 C 4.015625 -1.554688 4.109375 -1.210938 4.296875 -0.984375 C 4.484375 -0.753906 4.789062 -0.640625 5.21875 -0.640625 C 5.644531 -0.640625 6.15625 -0.753906 6.75 -0.984375 L 6.75 -0.34375 C 5.863281 0.0703125 5.066406 0.28125 4.359375 0.28125 C 3.660156 0.28125 3.109375 0.0859375 2.703125 -0.296875 C 2.296875 -0.691406 2.09375 -1.304688 2.09375 -2.140625 L 2.09375 -9.5625 L 0.234375 -9.921875 L 0.234375 -10.390625 L 2.09375 -10.390625 L 2.09375 -11.21875 L 4.015625 -12.625 L 4.015625 -10.390625 L 6.75 -10.390625 L 6.75 -9.5625 L 4.015625 -9.5625 Z M 4.015625 -2.015625 "/></g></g></g><g fill="#6a4933" fill-opacity="1"><g transform="translate(82.377815, 148.421254)"><g><path d="M 3.40625 0 L 1.46875 0 L 1.46875 -10.390625 L 2.796875 -10.390625 L 3.328125 -8.453125 C 3.640625 -8.992188 4.128906 -9.5 4.796875 -9.96875 C 5.460938 -10.445312 6.144531 -10.738281 6.84375 -10.84375 L 7.078125 -9.265625 C 6.515625 -9.265625 5.875 -9.085938 5.15625 -8.734375 C 4.445312 -8.378906 3.863281 -7.988281 3.40625 -7.5625 Z M 3.40625 0 "/></g></g></g><g fill="#6a4933" fill-opacity="1"><g transform="translate(89.688689, 148.421254)"><g><path d="M 6.546875 -2.4375 L 6.546875 -4.796875 C 5.441406 -4.722656 4.535156 -4.476562 3.828125 -4.0625 C 3.128906 -3.65625 2.78125 -3.210938 2.78125 -2.734375 C 2.78125 -2.253906 2.898438 -1.84375 3.140625 -1.5 C 3.390625 -1.15625 3.707031 -0.914062 4.09375 -0.78125 C 4.59375 -0.875 5.125 -1.125 5.6875 -1.53125 C 6.257812 -1.945312 6.546875 -2.25 6.546875 -2.4375 Z M 8.4375 -3.0625 C 8.4375 -1.96875 8.832031 -1.140625 9.625 -0.578125 L 8.4375 0.296875 L 6.578125 -1.375 C 5.359375 -0.269531 4.238281 0.28125 3.21875 0.28125 C 2.539062 0.28125 1.960938 0.0664062 1.484375 -0.359375 C 1.003906 -0.796875 0.765625 -1.335938 0.765625 -1.984375 C 0.765625 -2.640625 0.957031 -3.179688 1.34375 -3.609375 C 1.738281 -4.035156 2.253906 -4.363281 2.890625 -4.59375 C 3.992188 -5.007812 5.210938 -5.269531 6.546875 -5.375 L 6.546875 -7.53125 C 6.546875 -8.8125 5.8125 -9.453125 4.34375 -9.453125 C 3.5 -9.453125 2.503906 -9.265625 1.359375 -8.890625 L 1.15625 -9.46875 C 1.457031 -9.71875 1.988281 -9.976562 2.75 -10.25 C 3.507812 -10.53125 4.234375 -10.671875 4.921875 -10.671875 C 5.609375 -10.671875 6.1875 -10.578125 6.65625 -10.390625 C 7.125 -10.203125 7.46875 -9.992188 7.6875 -9.765625 C 7.90625 -9.535156 8.078125 -9.222656 8.203125 -8.828125 C 8.328125 -8.429688 8.394531 -8.113281 8.40625 -7.875 C 8.425781 -7.644531 8.4375 -7.34375 8.4375 -6.96875 Z M 8.4375 -3.0625 "/></g></g></g><g fill="#6a4933" fill-opacity="1"><g transform="translate(99.896308, 148.421254)"><g><path d="M 3.71875 -8.921875 C 4.363281 -9.535156 4.925781 -9.976562 5.40625 -10.25 C 5.894531 -10.53125 6.46875 -10.671875 7.125 -10.671875 C 7.78125 -10.671875 8.390625 -10.410156 8.953125 -9.890625 C 9.515625 -9.367188 9.796875 -8.46875 9.796875 -7.1875 L 9.796875 0 L 7.84375 0 L 7.84375 -6.96875 C 7.84375 -7.71875 7.707031 -8.28125 7.4375 -8.65625 C 7.164062 -9.03125 6.703125 -9.21875 6.046875 -9.21875 C 5.398438 -9.21875 4.648438 -8.785156 3.796875 -7.921875 L 3.796875 0 L 1.84375 0 L 1.84375 -7.21875 C 1.84375 -8.257812 1.453125 -9.09375 0.671875 -9.71875 L 1.84375 -10.59375 Z M 3.71875 -8.921875 "/></g></g></g><g fill="#6a4933" fill-opacity="1"><g transform="translate(111.391377, 148.421254)"><g><path d="M 9.75 -3.078125 C 9.75 -2.023438 10.140625 -1.179688 10.921875 -0.546875 L 9.75 0.296875 L 7.859375 -1.375 C 7.242188 -0.789062 6.691406 -0.367188 6.203125 -0.109375 C 5.710938 0.148438 5.207031 0.28125 4.6875 0.28125 C 4.164062 0.28125 3.707031 0.203125 3.3125 0.046875 C 2.914062 -0.109375 2.5 -0.363281 2.0625 -0.71875 C 1.625 -1.082031 1.269531 -1.648438 1 -2.421875 C 0.726562 -3.191406 0.59375 -4.191406 0.59375 -5.421875 C 0.59375 -6.648438 0.957031 -7.828125 1.6875 -8.953125 C 2.414062 -10.078125 3.414062 -10.640625 4.6875 -10.640625 C 5.632812 -10.640625 6.671875 -10.285156 7.796875 -9.578125 L 7.796875 -15.703125 L 9.75 -15.703125 Z M 7.796875 -2.328125 L 7.796875 -8.734375 C 6.984375 -9.265625 6.238281 -9.53125 5.5625 -9.53125 C 4.675781 -9.53125 3.960938 -9.113281 3.421875 -8.28125 C 2.890625 -7.445312 2.625 -6.398438 2.625 -5.140625 C 2.625 -3.890625 2.816406 -2.882812 3.203125 -2.125 C 3.597656 -1.363281 4.085938 -0.910156 4.671875 -0.765625 C 5.203125 -0.804688 5.722656 -0.929688 6.234375 -1.140625 C 6.753906 -1.359375 7.144531 -1.578125 7.40625 -1.796875 C 7.664062 -2.023438 7.796875 -2.203125 7.796875 -2.328125 Z M 7.796875 -2.328125 "/></g></g></g><g fill="#6a4933" fill-opacity="1"><g transform="translate(122.886447, 148.421254)"><g><path d="M 6.15625 -10.671875 C 7.507812 -10.671875 8.625 -10.207031 9.5 -9.28125 C 10.382812 -8.363281 10.828125 -7.101562 10.828125 -5.5 C 10.828125 -4.46875 10.648438 -3.5625 10.296875 -2.78125 C 9.941406 -2 9.484375 -1.394531 8.921875 -0.96875 C 7.828125 -0.132812 6.609375 0.28125 5.265625 0.28125 C 3.929688 0.28125 2.820312 -0.175781 1.9375 -1.09375 C 1.0625 -2.019531 0.625 -3.285156 0.625 -4.890625 C 0.625 -5.921875 0.796875 -6.828125 1.140625 -7.609375 C 1.484375 -8.390625 1.9375 -8.992188 2.5 -9.421875 C 3.59375 -10.253906 4.8125 -10.671875 6.15625 -10.671875 Z M 5.703125 -0.5 C 6.378906 -0.5 6.953125 -0.757812 7.421875 -1.28125 C 8.285156 -2.207031 8.71875 -3.429688 8.71875 -4.953125 C 8.71875 -6.472656 8.453125 -7.660156 7.921875 -8.515625 C 7.398438 -9.367188 6.550781 -9.796875 5.375 -9.796875 C 4.5 -9.453125 3.835938 -8.851562 3.390625 -8 C 2.941406 -7.15625 2.71875 -6.128906 2.71875 -4.921875 C 2.71875 -3.722656 2.960938 -2.6875 3.453125 -1.8125 C 3.941406 -0.9375 4.691406 -0.5 5.703125 -0.5 Z M 5.703125 -0.5 "/></g></g></g><g fill="#6a4933" fill-opacity="1"><g transform="translate(24.680524, 180.35222)"><g><path d="M 4.015625 -2.015625 C 4.015625 -1.554688 4.109375 -1.210938 4.296875 -0.984375 C 4.484375 -0.753906 4.789062 -0.640625 5.21875 -0.640625 C 5.644531 -0.640625 6.15625 -0.753906 6.75 -0.984375 L 6.75 -0.34375 C 5.863281 0.0703125 5.066406 0.28125 4.359375 0.28125 C 3.660156 0.28125 3.109375 0.0859375 2.703125 -0.296875 C 2.296875 -0.691406 2.09375 -1.304688 2.09375 -2.140625 L 2.09375 -9.5625 L 0.234375 -9.921875 L 0.234375 -10.390625 L 2.09375 -10.390625 L 2.09375 -11.21875 L 4.015625 -12.625 L 4.015625 -10.390625 L 6.75 -10.390625 L 6.75 -9.5625 L 4.015625 -9.5625 Z M 4.015625 -2.015625 "/></g></g></g><g fill="#6a4933" fill-opacity="1"><g transform="translate(32.244289, 180.35222)"><g><path d="M 9.125 -3.078125 C 9.125 -2.023438 9.519531 -1.191406 10.3125 -0.578125 L 9.125 0.28125 L 7.265625 -1.40625 C 6.640625 -0.800781 6.078125 -0.367188 5.578125 -0.109375 C 5.085938 0.148438 4.507812 0.28125 3.84375 0.28125 C 3.175781 0.28125 2.5625 0.0234375 2 -0.484375 C 1.445312 -1.003906 1.171875 -1.894531 1.171875 -3.15625 L 1.171875 -10.390625 L 3.125 -10.390625 L 3.125 -3.03125 C 3.125 -2.300781 3.257812 -1.742188 3.53125 -1.359375 C 3.800781 -0.984375 4.269531 -0.796875 4.9375 -0.796875 C 5.601562 -0.796875 6.347656 -1.289062 7.171875 -2.28125 L 7.171875 -10.390625 L 9.125 -10.390625 Z M 9.125 -3.078125 "/></g></g></g><g fill="#6a4933" fill-opacity="1"><g transform="translate(43.279571, 180.35222)"><g><path d="M 3.890625 -9.703125 C 3.484375 -9.703125 3.15625 -9.550781 2.90625 -9.25 C 2.65625 -8.945312 2.53125 -8.609375 2.53125 -8.234375 C 2.53125 -7.859375 2.707031 -7.5 3.0625 -7.15625 C 3.425781 -6.8125 3.863281 -6.503906 4.375 -6.234375 C 4.894531 -5.972656 5.40625 -5.695312 5.90625 -5.40625 C 6.414062 -5.113281 6.847656 -4.734375 7.203125 -4.265625 C 7.566406 -3.804688 7.75 -3.296875 7.75 -2.734375 C 7.75 -1.878906 7.398438 -1.160156 6.703125 -0.578125 C 6.015625 -0.00390625 5.078125 0.28125 3.890625 0.28125 C 2.703125 0.28125 1.617188 0.00390625 0.640625 -0.546875 L 0.640625 -1.421875 C 1.679688 -0.898438 2.625 -0.640625 3.46875 -0.640625 C 4.3125 -0.640625 4.925781 -0.804688 5.3125 -1.140625 C 5.695312 -1.484375 5.890625 -1.875 5.890625 -2.3125 C 5.890625 -2.75 5.710938 -3.140625 5.359375 -3.484375 C 5.015625 -3.828125 4.59375 -4.128906 4.09375 -4.390625 C 3.601562 -4.648438 3.113281 -4.925781 2.625 -5.21875 C 2.132812 -5.507812 1.710938 -5.882812 1.359375 -6.34375 C 1.015625 -6.800781 0.84375 -7.351562 0.84375 -8 C 0.84375 -8.65625 1.109375 -9.265625 1.640625 -9.828125 C 2.171875 -10.390625 2.988281 -10.671875 4.09375 -10.671875 C 5.195312 -10.671875 6.253906 -10.46875 7.265625 -10.0625 L 7.03125 -8.546875 C 5.894531 -9.160156 4.847656 -9.546875 3.890625 -9.703125 Z M 3.890625 -9.703125 "/></g></g></g><g fill="#6a4933" fill-opacity="1"><g transform="translate(51.831902, 180.35222)"><g/></g></g><g fill="#6a4933" fill-opacity="1"><g transform="translate(57.579437, 180.35222)"><g><path d="M 3.40625 0 L 1.46875 0 L 1.46875 -10.390625 L 2.796875 -10.390625 L 3.328125 -8.453125 C 3.640625 -8.992188 4.128906 -9.5 4.796875 -9.96875 C 5.460938 -10.445312 6.144531 -10.738281 6.84375 -10.84375 L 7.078125 -9.265625 C 6.515625 -9.265625 5.875 -9.085938 5.15625 -8.734375 C 4.445312 -8.378906 3.863281 -7.988281 3.40625 -7.5625 Z M 3.40625 0 "/></g></g></g><g fill="#6a4933" fill-opacity="1"><g transform="translate(64.89031, 180.35222)"><g><path d="M 2.40625 -5.65625 C 2.40625 -4 2.773438 -2.804688 3.515625 -2.078125 C 4.265625 -1.347656 5.171875 -0.984375 6.234375 -0.984375 C 7.304688 -0.984375 8.289062 -1.191406 9.1875 -1.609375 L 9.1875 -0.796875 C 7.9375 -0.078125 6.734375 0.28125 5.578125 0.28125 C 4.097656 0.28125 2.894531 -0.171875 1.96875 -1.078125 C 1.050781 -1.984375 0.59375 -3.289062 0.59375 -5 C 0.59375 -6.71875 1.101562 -8.09375 2.125 -9.125 C 3.144531 -10.15625 4.375 -10.671875 5.8125 -10.671875 C 6.9375 -10.671875 7.875 -10.226562 8.625 -9.34375 C 9.375 -8.457031 9.75 -7.226562 9.75 -5.65625 Z M 4.640625 -9.578125 C 4.109375 -9.316406 3.648438 -8.898438 3.265625 -8.328125 C 2.878906 -7.753906 2.625 -7.09375 2.5 -6.34375 L 7.890625 -6.34375 C 7.835938 -6.988281 7.6875 -7.539062 7.4375 -8 C 7.1875 -8.457031 6.882812 -8.796875 6.53125 -9.015625 C 5.894531 -9.390625 5.265625 -9.578125 4.640625 -9.578125 Z M 4.640625 -9.578125 "/></g></g></g><g fill="#6a4933" fill-opacity="1"><g transform="translate(75.672683, 180.35222)"><g><path d="M 9.75 -3.078125 C 9.75 -2.023438 10.140625 -1.179688 10.921875 -0.546875 L 9.75 0.296875 L 7.859375 -1.375 C 7.242188 -0.789062 6.691406 -0.367188 6.203125 -0.109375 C 5.710938 0.148438 5.207031 0.28125 4.6875 0.28125 C 4.164062 0.28125 3.707031 0.203125 3.3125 0.046875 C 2.914062 -0.109375 2.5 -0.363281 2.0625 -0.71875 C 1.625 -1.082031 1.269531 -1.648438 1 -2.421875 C 0.726562 -3.191406 0.59375 -4.191406 0.59375 -5.421875 C 0.59375 -6.648438 0.957031 -7.828125 1.6875 -8.953125 C 2.414062 -10.078125 3.414062 -10.640625 4.6875 -10.640625 C 5.632812 -10.640625 6.671875 -10.285156 7.796875 -9.578125 L 7.796875 -15.703125 L 9.75 -15.703125 Z M 7.796875 -2.328125 L 7.796875 -8.734375 C 6.984375 -9.265625 6.238281 -9.53125 5.5625 -9.53125 C 4.675781 -9.53125 3.960938 -9.113281 3.421875 -8.28125 C 2.890625 -7.445312 2.625 -6.398438 2.625 -5.140625 C 2.625 -3.890625 2.816406 -2.882812 3.203125 -2.125 C 3.597656 -1.363281 4.085938 -0.910156 4.671875 -0.765625 C 5.203125 -0.804688 5.722656 -0.929688 6.234375 -1.140625 C 6.753906 -1.359375 7.144531 -1.578125 7.40625 -1.796875 C 7.664062 -2.023438 7.796875 -2.203125 7.796875 -2.328125 Z M 7.796875 -2.328125 "/></g></g></g><g fill="#6a4933" fill-opacity="1"><g transform="translate(87.167752, 180.35222)"><g><path d="M 2.40625 -5.65625 C 2.40625 -4 2.773438 -2.804688 3.515625 -2.078125 C 4.265625 -1.347656 5.171875 -0.984375 6.234375 -0.984375 C 7.304688 -0.984375 8.289062 -1.191406 9.1875 -1.609375 L 9.1875 -0.796875 C 7.9375 -0.078125 6.734375 0.28125 5.578125 0.28125 C 4.097656 0.28125 2.894531 -0.171875 1.96875 -1.078125 C 1.050781 -1.984375 0.59375 -3.289062 0.59375 -5 C 0.59375 -6.71875 1.101562 -8.09375 2.125 -9.125 C 3.144531 -10.15625 4.375 -10.671875 5.8125 -10.671875 C 6.9375 -10.671875 7.875 -10.226562 8.625 -9.34375 C 9.375 -8.457031 9.75 -7.226562 9.75 -5.65625 Z M 4.640625 -9.578125 C 4.109375 -9.316406 3.648438 -8.898438 3.265625 -8.328125 C 2.878906 -7.753906 2.625 -7.09375 2.5 -6.34375 L 7.890625 -6.34375 C 7.835938 -6.988281 7.6875 -7.539062 7.4375 -8 C 7.1875 -8.457031 6.882812 -8.796875 6.53125 -9.015625 C 5.894531 -9.390625 5.265625 -9.578125 4.640625 -9.578125 Z M 4.640625 -9.578125 "/></g></g></g><g fill="#6a4933" fill-opacity="1"><g transform="translate(97.950125, 180.35222)"><g><path d="M 3.890625 -9.703125 C 3.484375 -9.703125 3.15625 -9.550781 2.90625 -9.25 C 2.65625 -8.945312 2.53125 -8.609375 2.53125 -8.234375 C 2.53125 -7.859375 2.707031 -7.5 3.0625 -7.15625 C 3.425781 -6.8125 3.863281 -6.503906 4.375 -6.234375 C 4.894531 -5.972656 5.40625 -5.695312 5.90625 -5.40625 C 6.414062 -5.113281 6.847656 -4.734375 7.203125 -4.265625 C 7.566406 -3.804688 7.75 -3.296875 7.75 -2.734375 C 7.75 -1.878906 7.398438 -1.160156 6.703125 -0.578125 C 6.015625 -0.00390625 5.078125 0.28125 3.890625 0.28125 C 2.703125 0.28125 1.617188 0.00390625 0.640625 -0.546875 L 0.640625 -1.421875 C 1.679688 -0.898438 2.625 -0.640625 3.46875 -0.640625 C 4.3125 -0.640625 4.925781 -0.804688 5.3125 -1.140625 C 5.695312 -1.484375 5.890625 -1.875 5.890625 -2.3125 C 5.890625 -2.75 5.710938 -3.140625 5.359375 -3.484375 C 5.015625 -3.828125 4.59375 -4.128906 4.09375 -4.390625 C 3.601562 -4.648438 3.113281 -4.925781 2.625 -5.21875 C 2.132812 -5.507812 1.710938 -5.882812 1.359375 -6.34375 C 1.015625 -6.800781 0.84375 -7.351562 0.84375 -8 C 0.84375 -8.65625 1.109375 -9.265625 1.640625 -9.828125 C 2.171875 -10.390625 2.988281 -10.671875 4.09375 -10.671875 C 5.195312 -10.671875 6.253906 -10.46875 7.265625 -10.0625 L 7.03125 -8.546875 C 5.894531 -9.160156 4.847656 -9.546875 3.890625 -9.703125 Z M 3.890625 -9.703125 "/></g></g></g><g fill="#6a4933" fill-opacity="1"><g transform="translate(106.502455, 180.35222)"><g><path d="M 3.796875 -3.625 L 3.109375 -15.015625 L 5.28125 -15.015625 L 4.59375 -3.625 Z M 5.453125 -0.921875 C 5.453125 -0.566406 5.320312 -0.289062 5.0625 -0.09375 C 4.800781 0.101562 4.507812 0.203125 4.1875 0.203125 C 3.875 0.203125 3.585938 0.109375 3.328125 -0.078125 C 3.066406 -0.273438 2.9375 -0.5625 2.9375 -0.9375 C 2.9375 -1.3125 3.054688 -1.613281 3.296875 -1.84375 C 3.546875 -2.082031 3.84375 -2.203125 4.1875 -2.203125 C 4.539062 -2.203125 4.835938 -2.078125 5.078125 -1.828125 C 5.328125 -1.585938 5.453125 -1.285156 5.453125 -0.921875 Z M 5.453125 -0.921875 "/></g></g></g></g></g></g></svg>