<svg xmlns="http://www.w3.org/2000/svg" xmlns:xlink="http://www.w3.org/1999/xlink" width="500" zoomAndPan="magnify" viewBox="0 0 375 149.999998" height="200" preserveAspectRatio="xMidYMid meet" version="1.0"><defs><clipPath id="173f725887"><path d="M 38 23 L 375 23 L 375 128.296875 L 38 128.296875 Z M 38 23 " clip-rule="nonzero"/></clipPath></defs><g clip-path="url(#173f725887)"><path fill="#94221e" d="M 373.46875 76.90625 C 372.871094 77.65625 372.046875 78.328125 371.597656 79.226562 C 370.925781 81.019531 370.777344 83.039062 369.804688 84.683594 C 369.132812 85.953125 367.484375 87.75 366.589844 87.601562 C 365.316406 87.449219 363.898438 85.804688 363.148438 84.460938 C 362.328125 82.964844 361.878906 81.019531 361.878906 79.226562 C 361.726562 71.746094 361.652344 64.269531 361.804688 56.792969 C 361.878906 50.882812 361.128906 49.464844 355.523438 47.742188 C 351.707031 46.472656 349.988281 47.144531 348.640625 51.109375 C 346.625 57.015625 344.828125 63.148438 342.960938 69.128906 C 342.734375 69.878906 342.4375 70.550781 342.210938 71.296875 C 341.539062 70.175781 341.3125 69.203125 341.3125 68.15625 C 341.164062 63.523438 340.941406 58.734375 340.714844 54.101562 C 340.566406 50.285156 338.398438 48.265625 334.285156 47.296875 C 330.621094 46.472656 329.273438 48.941406 328.152344 51.558594 C 327.257812 53.726562 326.433594 55.96875 325.609375 58.136719 C 324.863281 60.230469 324.117188 62.476562 323.21875 64.941406 C 322.84375 64.34375 322.695312 64.269531 322.695312 64.121094 C 322.695312 60.753906 322.621094 57.242188 322.621094 53.875 C 322.621094 48.789062 322.46875 48.566406 317.535156 47.59375 C 314.171875 46.921875 313.496094 47.445312 313.347656 50.808594 C 313.273438 58.511719 313.421875 66.214844 312.972656 73.992188 C 312.824219 77.28125 311.777344 80.71875 310.582031 83.859375 C 309.832031 86.03125 308.488281 88.722656 305.421875 88.273438 C 302.28125 87.824219 301.980469 84.90625 301.832031 82.515625 C 301.683594 73.019531 301.609375 63.523438 301.683594 53.949219 C 301.683594 51.40625 301.609375 49.464844 298.691406 48.789062 C 295.925781 48.117188 292.933594 46.773438 291.511719 50.808594 C 282.613281 43.929688 275.210938 45.652344 270.203125 55.746094 C 266.613281 62.921875 266.238281 70.773438 266.988281 78.625 C 267.136719 79.972656 267.511719 81.542969 267.136719 82.8125 C 266.464844 85.355469 265.492188 88.273438 262.199219 88.421875 C 258.910156 88.570312 257.789062 85.804688 257.492188 83.335938 C 256.890625 79.375 256.445312 75.261719 256.742188 71.296875 C 257.117188 66.664062 258.386719 62.027344 259.210938 57.390625 C 259.957031 53.203125 258.015625 50.960938 253.75 51.183594 C 252.105469 51.257812 250.609375 51.707031 249.039062 51.855469 C 247.171875 52.082031 245.375 52.453125 243.507812 52.679688 C 243.65625 52.453125 243.957031 52.082031 244.105469 51.855469 C 243.058594 49.914062 242.460938 47.296875 240.890625 46.25 C 239.542969 45.425781 236.628906 45.875 234.984375 46.773438 C 231.691406 48.566406 230.71875 53.949219 233.1875 56.941406 C 234.609375 58.660156 234.683594 60.15625 233.859375 61.875 C 231.167969 67.632812 228.402344 73.46875 225.636719 79.226562 C 225.261719 79.972656 224.515625 80.644531 223.992188 81.320312 C 223.316406 79.972656 223.316406 78.851562 223.316406 77.65625 C 223.390625 69.503906 223.46875 61.351562 223.46875 53.203125 C 223.46875 52.007812 223.242188 50.511719 222.570312 49.761719 C 220.027344 47.296875 215.617188 47.820312 213.445312 50.660156 C 213.074219 50.4375 212.773438 50.210938 212.398438 49.988281 C 206.042969 44.679688 198.867188 45.574219 194.230469 52.453125 C 188.921875 60.457031 188.472656 69.429688 188.769531 78.625 C 188.847656 81.167969 188.023438 84.160156 186.675781 86.328125 C 184.808594 89.542969 181.441406 89.019531 180.171875 85.582031 C 179.5 83.710938 179.050781 81.617188 179.050781 79.671875 C 178.976562 70.773438 178.976562 61.953125 179.199219 53.054688 C 179.273438 49.390625 177.03125 48.867188 174.339844 48.34375 C 171.871094 47.820312 169.777344 47.820312 169.253906 51.257812 C 162.675781 45.351562 155.871094 45.050781 151.234375 50.734375 C 149.066406 53.351562 147.195312 56.640625 146.222656 59.859375 C 144.953125 64.121094 144.578125 68.679688 144.128906 73.09375 C 143.53125 77.953125 141.738281 82.140625 138.222656 85.582031 C 135.753906 87.898438 133.660156 87.449219 132.464844 84.382812 C 131.71875 82.214844 131.117188 79.824219 131.117188 77.503906 C 131.195312 67.558594 131.492188 57.613281 131.640625 47.667969 C 131.640625 45.875 132.390625 45.128906 134.183594 45.203125 C 137.101562 45.203125 139.941406 45.128906 142.859375 45.128906 C 145.402344 45.128906 146.148438 43.632812 146.296875 41.464844 C 146.523438 38.996094 144.804688 38.996094 143.15625 38.921875 C 141.886719 38.847656 140.617188 38.847656 139.34375 38.769531 C 132.015625 38.546875 132.015625 38.546875 132.316406 31.367188 C 132.316406 30.996094 132.316406 30.695312 132.316406 30.472656 C 132.464844 24.863281 132.390625 24.714844 126.78125 23.515625 C 126.332031 23.441406 125.960938 23.367188 125.511719 23.292969 C 123.191406 22.769531 122.070312 23.667969 121.847656 25.984375 C 121.695312 29.125 121.398438 32.191406 121.398438 35.332031 C 121.398438 37.425781 120.574219 38.246094 118.40625 37.949219 C 116.386719 37.800781 114.367188 37.722656 112.273438 37.722656 C 109.210938 37.800781 109.285156 40.265625 108.984375 42.285156 C 108.609375 44.679688 110.332031 44.753906 112.050781 44.753906 C 113.996094 44.753906 115.863281 44.902344 117.808594 44.902344 C 119.828125 44.902344 120.574219 45.726562 120.574219 47.820312 C 120.5 54.324219 120.648438 60.90625 120.351562 67.410156 C 120.125 72.945312 117.210938 77.429688 112.722656 81.992188 C 113.546875 69.953125 103.300781 67.035156 97.46875 61.128906 C 98.964844 58.210938 100.683594 55.671875 101.65625 52.902344 C 103.078125 48.714844 101.132812 46.472656 96.796875 46.621094 C 89.46875 46.847656 84.832031 55.222656 88.121094 61.726562 C 88.722656 62.847656 88.796875 64.71875 88.273438 65.691406 C 85.65625 70.699219 82.8125 75.636719 79.671875 80.347656 C 79.074219 82.140625 76.980469 83.414062 75.261719 84.832031 C 74.664062 82.664062 73.464844 80.496094 73.464844 78.328125 C 73.390625 70.699219 73.691406 63.148438 73.988281 55.519531 C 74.066406 52.753906 73.09375 50.886719 70.773438 49.390625 C 65.613281 46.25 61.726562 46.398438 58.136719 51.257812 C 55.222656 55.148438 53.203125 59.707031 51.035156 64.046875 C 49.988281 65.988281 49.539062 68.007812 48.714844 70.027344 C 48.492188 69.953125 48.191406 69.953125 47.894531 69.878906 C 47.894531 68.757812 47.894531 67.558594 47.894531 66.511719 C 47.96875 61.578125 48.042969 56.640625 48.042969 51.78125 C 48.042969 49.164062 44.976562 47.222656 41.460938 47.296875 C 38.546875 47.371094 39.070312 49.613281 39.070312 51.257812 C 38.996094 62.625 38.996094 73.992188 38.921875 85.28125 C 38.921875 86.628906 38.996094 88.046875 39.292969 89.46875 C 39.96875 93.058594 41.386719 93.957031 45.050781 94.03125 C 48.492188 94.105469 48.492188 91.863281 48.941406 89.46875 C 50.960938 78.703125 54.023438 68.308594 60.304688 59.035156 C 61.128906 57.765625 62.324219 56.566406 63.445312 55.371094 C 64.195312 57.164062 64.195312 58.511719 64.195312 59.859375 C 64.121094 68.457031 63.820312 76.980469 64.121094 85.582031 C 64.195312 88.796875 64.867188 92.460938 68.679688 93.730469 C 72.417969 95.003906 75.410156 92.984375 77.804688 90.441406 C 79.824219 88.421875 81.691406 86.105469 83.261719 83.710938 C 86.179688 79.300781 88.722656 74.738281 91.414062 70.25 C 92.011719 69.203125 92.683594 68.308594 93.804688 66.664062 C 96.871094 70.027344 99.9375 72.945312 102.253906 76.234375 C 104.574219 79.523438 104.125 83.9375 101.808594 85.953125 C 99.789062 87.824219 97.320312 87.375 93.433594 84.757812 C 90.515625 82.8125 89.246094 83.039062 87.449219 85.953125 C 85.429688 89.171875 85.953125 90.890625 89.46875 92.460938 C 98.742188 96.648438 109.507812 93.882812 115.640625 85.65625 C 117.433594 83.261719 118.855469 80.644531 120.726562 77.804688 C 121.546875 80.796875 122.070312 83.335938 122.894531 85.804688 C 124.3125 89.992188 126.78125 93.207031 131.566406 93.882812 C 136.277344 94.554688 139.121094 91.5625 141.585938 88.199219 C 142.785156 86.476562 143.679688 84.757812 144.878906 82.664062 C 149.515625 96.648438 162.675781 97.769531 170.972656 85.65625 C 176.507812 96.347656 181.667969 96.796875 191.015625 87.375 C 199.390625 96.199219 201.632812 96.273438 214.046875 88.125 C 214.195312 88.273438 214.417969 88.347656 214.492188 88.570312 C 215.09375 90.742188 213.96875 92.160156 212.550781 93.582031 C 207.242188 98.890625 201.257812 103.902344 196.847656 110.03125 C 190.941406 118.332031 196.25 127.679688 206.492188 128.054688 C 210.457031 128.203125 213.820312 126.855469 216.738281 124.238281 C 219.878906 121.472656 221.746094 117.882812 222.046875 113.921875 C 222.792969 106.96875 222.792969 99.863281 223.390625 92.910156 C 223.542969 90.964844 224.140625 88.648438 225.335938 87.152344 C 231.167969 79.671875 236.03125 71.671875 239.542969 62.921875 C 241.488281 58.210938 243.433594 57.242188 248.816406 58.960938 C 248.667969 60.082031 248.367188 61.128906 248.292969 62.324219 C 247.84375 67.632812 247.171875 72.945312 247.097656 78.253906 C 247.023438 82.515625 248.21875 86.554688 250.984375 89.84375 C 255.84375 95.601562 262.875 95.453125 267.433594 89.46875 C 267.957031 88.871094 268.480469 88.273438 269.15625 87.449219 C 272.222656 92.3125 276.183594 94.628906 281.71875 93.882812 C 286.953125 93.132812 290.167969 89.542969 293.308594 85.207031 C 294.953125 89.84375 297.269531 93.058594 301.980469 93.957031 C 306.917969 94.777344 309.984375 92.160156 311.925781 88.125 C 313.125 90.140625 313.648438 92.386719 314.992188 93.207031 C 320.003906 96.199219 323.890625 93.804688 324.039062 88.199219 C 324.039062 86.703125 324.039062 85.207031 324.117188 83.710938 C 324.488281 76.234375 326.210938 69.128906 329.351562 62.324219 C 329.875 61.277344 330.621094 60.382812 331.667969 58.886719 C 331.816406 60.382812 332.042969 61.054688 332.042969 61.652344 C 332.789062 69.203125 333.460938 76.757812 334.433594 84.308594 C 334.585938 86.03125 335.554688 88.125 336.828125 88.945312 C 338.472656 89.992188 340.789062 90.367188 342.660156 90.140625 C 343.40625 90.066406 344.15625 87.523438 344.53125 85.953125 C 346.175781 78.925781 347.519531 71.820312 349.089844 64.644531 C 349.539062 62.773438 350.511719 61.054688 351.257812 59.335938 C 351.859375 60.082031 351.933594 60.753906 352.007812 61.351562 C 352.15625 67.035156 352.15625 72.71875 352.53125 78.328125 C 352.753906 82.664062 353.652344 86.777344 356.492188 90.292969 C 361.355469 96.050781 369.128906 95.152344 372.121094 88.347656 C 373.242188 85.730469 373.765625 82.8125 374.140625 80.046875 C 374.886719 78.925781 373.917969 77.953125 373.46875 76.90625 Z M 167.460938 81.992188 C 166.261719 85.058594 164.394531 88.199219 160.65625 87.824219 C 156.765625 87.449219 155.796875 83.9375 155.195312 80.796875 C 154.597656 78.101562 154.523438 75.261719 154 71.375 C 154.75 68.007812 155.347656 63.371094 156.691406 59.109375 C 157.890625 55.371094 160.65625 53.5 163.496094 53.875 C 167.160156 54.324219 168.507812 57.089844 169.105469 60.082031 C 170.75 67.410156 170.300781 74.886719 167.460938 81.992188 Z M 212.625 79.972656 C 212.25 81.394531 211.800781 83.113281 210.753906 84.011719 C 209.035156 85.65625 207.015625 87.449219 204.921875 87.75 C 202.230469 88.125 200.886719 85.28125 200.210938 82.8125 C 197.894531 74.8125 198.34375 66.960938 201.332031 59.257812 C 201.855469 57.988281 202.605469 56.792969 203.503906 55.820312 C 206.71875 52.378906 211.503906 53.128906 212.925781 57.539062 C 214.046875 60.753906 214.195312 64.269531 214.792969 67.710938 C 214.195312 71.820312 213.523438 76.007812 212.625 79.972656 Z M 212.773438 119.976562 C 211.355469 123.191406 207.839844 124.539062 205.074219 123.417969 C 202.53125 122.371094 201.257812 119.527344 202.15625 116.015625 C 204.175781 108.835938 209.484375 103.902344 214.792969 99.039062 C 215.617188 106.441406 215.691406 113.398438 212.773438 119.976562 Z M 290.09375 80.871094 C 289.570312 82.738281 288.371094 84.609375 287.027344 86.03125 C 284.261719 89.09375 280.820312 88.570312 278.949219 84.90625 C 278.054688 83.113281 277.230469 81.09375 277.15625 79.148438 C 277.082031 73.617188 277.230469 68.007812 277.753906 62.550781 C 277.902344 60.457031 279.027344 58.210938 280.296875 56.417969 C 283.289062 52.15625 288.597656 52.753906 290.390625 57.613281 C 291.589844 60.90625 291.8125 64.644531 292.558594 68.382812 C 291.8125 72.570312 291.214844 76.832031 290.09375 80.871094 Z M 290.09375 80.871094 " fill-opacity="1" fill-rule="nonzero"/></g><path fill="#94221e" d="M 8.484375 63.820312 C 9.757812 64.570312 11.253906 64.644531 12.75 65.09375 C 12.972656 64.941406 13.195312 64.71875 13.421875 64.492188 C 6.019531 51.109375 9.609375 39.742188 18.507812 29.273438 C 18.953125 29.347656 19.328125 29.425781 19.703125 29.5 C 19.777344 30.320312 19.851562 31.21875 19.851562 32.042969 C 19.777344 50.359375 19.777344 68.679688 19.476562 86.925781 C 19.402344 90.816406 18.28125 94.703125 17.683594 98.59375 C 17.535156 99.714844 17.308594 100.683594 17.011719 102.332031 C 21.347656 101.808594 24.1875 99.714844 25.609375 96.648438 C 27.480469 92.460938 29.347656 87.972656 29.421875 83.5625 C 29.945312 65.09375 29.796875 46.546875 29.796875 28.003906 C 29.796875 26.808594 29.050781 25.085938 28.078125 24.5625 C 25.3125 22.695312 22.09375 21.796875 18.730469 23.667969 C 8.785156 29.199219 2.726562 37.648438 1.007812 48.941406 C 0.113281 55.445312 2.804688 60.53125 8.484375 63.820312 Z M 8.484375 63.820312 " fill-opacity="1" fill-rule="nonzero"/></svg>