<svg xmlns="http://www.w3.org/2000/svg" xmlns:xlink="http://www.w3.org/1999/xlink" width="500" zoomAndPan="magnify" viewBox="0 0 375 374.999991" height="500" preserveAspectRatio="xMidYMid meet" version="1.0"><defs><clipPath id="931b7f9cbd"><path d="M 0 25.8125 L 375 25.8125 L 375 361 L 0 361 Z M 0 25.8125 " clip-rule="nonzero"/></clipPath></defs><g clip-path="url(#931b7f9cbd)"><path fill="#94221e" d="M 375.007812 90.875 L 375.007812 238.410156 C 375.007812 274.328125 345.886719 303.449219 309.96875 303.449219 L 265.640625 303.449219 C 260.78125 303.449219 256.105469 305.335938 252.613281 308.695312 L 206.308594 353.230469 C 195.820312 363.320312 179.21875 363.320312 168.730469 353.230469 L 122.429688 308.695312 C 118.917969 305.320312 114.257812 303.449219 109.398438 303.449219 L 65.03125 303.449219 C 29.105469 303.449219 0 274.34375 0 238.425781 L 0 90.875 C 0 54.957031 29.105469 25.851562 65.023438 25.851562 L 309.984375 25.851562 C 345.886719 25.851562 375.007812 54.957031 375.007812 90.875 Z M 375.007812 90.875 " fill-opacity="1" fill-rule="nonzero"/></g><path fill="#fafafa" d="M 199.835938 145.609375 L 199.835938 153.769531 L 209.410156 151.523438 L 209.410156 197.667969 L 220.492188 197.667969 L 220.492188 139.367188 L 213.914062 139.367188 Z M 236.144531 185.667969 C 234.191406 185.667969 232.601562 186.28125 231.355469 187.503906 C 230.109375 188.722656 229.476562 190.222656 229.476562 192.007812 C 229.476562 193.726562 230.109375 195.195312 231.355469 196.425781 C 232.601562 197.640625 234.191406 198.265625 236.144531 198.265625 C 238.085938 198.265625 239.683594 197.640625 240.933594 196.425781 C 242.179688 195.203125 242.8125 193.726562 242.8125 192.007812 C 242.8125 190.222656 242.179688 188.730469 240.933594 187.503906 C 239.691406 186.28125 238.09375 185.667969 236.144531 185.667969 Z M 245.886719 148.445312 L 274.617188 148.445312 L 252.636719 197.667969 L 263.714844 197.667969 L 285.617188 146.945312 L 285.617188 139.367188 L 245.886719 139.367188 Z M 317.683594 162.515625 L 339.164062 139.367188 L 326.003906 139.367188 L 304.4375 162.941406 L 304.4375 139.367188 L 293.773438 139.367188 L 293.773438 197.667969 L 304.4375 197.667969 L 304.4375 176.761719 L 310.015625 170.6875 L 326.667969 197.667969 L 339.746094 197.667969 Z M 317.683594 162.515625 " fill-opacity="1" fill-rule="nonzero"/><path fill="#ffffff" d="M 169.929688 154.660156 C 169.929688 172.460938 156.890625 183.78125 145.433594 193.71875 C 143.957031 194.996094 142.484375 196.273438 141.054688 197.554688 L 136.523438 201.589844 C 130.863281 207.003906 124.914062 212.121094 118.664062 216.890625 C 115.410156 219.003906 111.238281 219.003906 107.984375 216.890625 C 101.988281 212.269531 96.175781 207.300781 90.667969 202.078125 L 85.601562 197.546875 C 84.226562 196.316406 82.792969 195.085938 81.417969 193.859375 C 69.316406 183.332031 56.773438 172.40625 56.773438 154.648438 C 56.085938 135.753906 70.84375 119.875 89.734375 119.132812 C 98.78125 118.886719 107.441406 122.722656 113.300781 129.613281 C 119.160156 122.722656 127.863281 118.835938 136.914062 119.132812 C 155.8125 119.875 170.578125 135.769531 169.929688 154.660156 Z M 169.929688 154.660156 " fill-opacity="1" fill-rule="nonzero"/></svg>