<svg xmlns="http://www.w3.org/2000/svg" xmlns:xlink="http://www.w3.org/1999/xlink" width="1920" zoomAndPan="magnify" viewBox="0 0 1440 74.999997" height="100" preserveAspectRatio="xMidYMid meet" version="1.0"><defs><filter x="0%" y="0%" width="100%" height="100%" id="7c96b50997"><feColorMatrix values="0 0 0 0 1 0 0 0 0 1 0 0 0 0 1 0 0 0 1 0" color-interpolation-filters="sRGB"/></filter><mask id="e369ff10b7"><g filter="url(#7c96b50997)"><rect x="-144" width="1728" fill="#000000" y="-7.5" height="89.999996" fill-opacity="0.97"/></g></mask><clipPath id="24d7c800fb"><path d="M 0 7 L 1440 7 L 1440 14 L 0 14 Z M 0 7 " clip-rule="nonzero"/></clipPath><clipPath id="28496c299b"><rect x="0" width="1440" y="0" height="21"/></clipPath></defs><g mask="url(#e369ff10b7)"><g transform="matrix(1, 0, 0, 1, 0, 28)"><g clip-path="url(#28496c299b)"><g clip-path="url(#24d7c800fb)"><path fill="#94221e" d="M -0.00390625 9.5 L 13.496094 9.480469 L 13.503906 13.980469 L 0.00390625 14 M 17.996094 9.472656 L 31.496094 9.449219 L 31.503906 13.949219 L 18.003906 13.972656 M 35.996094 9.445312 L 49.496094 9.421875 L 49.503906 13.921875 L 36.003906 13.945312 M 53.996094 9.414062 L 67.496094 9.394531 L 67.503906 13.894531 L 54.003906 13.914062 M 71.996094 9.386719 L 85.496094 9.367188 L 85.503906 13.867188 L 72.003906 13.886719 M 89.996094 9.359375 L 103.496094 9.339844 L 103.503906 13.839844 L 90.003906 13.859375 M 107.996094 9.332031 L 121.496094 9.308594 L 121.503906 13.808594 L 108.003906 13.832031 M 125.996094 9.304688 L 139.496094 9.28125 L 139.503906 13.78125 L 126.003906 13.804688 M 143.996094 9.273438 L 157.496094 9.253906 L 157.503906 13.753906 L 144.003906 13.773438 M 161.996094 9.246094 L 175.496094 9.226562 L 175.503906 13.726562 L 162.003906 13.746094 M 179.996094 9.21875 L 193.496094 9.199219 L 193.503906 13.699219 L 180.003906 13.71875 M 197.996094 9.191406 L 211.496094 9.167969 L 211.503906 13.667969 L 198.003906 13.691406 M 215.996094 9.164062 L 229.496094 9.140625 L 229.503906 13.640625 L 216.003906 13.664062 M 233.996094 9.132812 L 247.496094 9.113281 L 247.503906 13.613281 L 234.003906 13.632812 M 251.996094 9.105469 L 265.496094 9.085938 L 265.503906 13.585938 L 252.003906 13.605469 M 269.996094 9.078125 L 283.496094 9.058594 L 283.503906 13.558594 L 270.003906 13.578125 M 287.996094 9.050781 L 301.496094 9.027344 L 301.503906 13.527344 L 288.003906 13.550781 M 305.996094 9.023438 L 319.496094 9 L 319.503906 13.5 L 306.003906 13.523438 M 323.996094 8.992188 L 337.496094 8.972656 L 337.503906 13.472656 L 324.003906 13.492188 M 341.996094 8.964844 L 355.496094 8.945312 L 355.503906 13.445312 L 342.003906 13.464844 M 359.996094 8.9375 L 373.496094 8.917969 L 373.503906 13.417969 L 360.003906 13.4375 M 377.996094 8.910156 L 391.496094 8.886719 L 391.503906 13.386719 L 378.003906 13.410156 M 395.996094 8.882812 L 409.496094 8.859375 L 409.503906 13.359375 L 396.003906 13.382812 M 413.996094 8.851562 L 427.496094 8.832031 L 427.503906 13.332031 L 414.003906 13.351562 M 431.996094 8.824219 L 445.496094 8.804688 L 445.503906 13.304688 L 432.003906 13.324219 M 449.996094 8.796875 L 463.496094 8.777344 L 463.503906 13.277344 L 450.003906 13.296875 M 467.996094 8.769531 L 481.496094 8.746094 L 481.503906 13.246094 L 468.003906 13.269531 M 485.996094 8.742188 L 499.496094 8.71875 L 499.503906 13.21875 L 486.003906 13.242188 M 503.996094 8.710938 L 517.496094 8.691406 L 517.503906 13.191406 L 504.003906 13.210938 M 521.996094 8.683594 L 535.496094 8.664062 L 535.503906 13.164062 L 522.003906 13.183594 M 539.996094 8.65625 L 553.496094 8.636719 L 553.503906 13.136719 L 540.003906 13.15625 M 557.996094 8.628906 L 571.496094 8.605469 L 571.503906 13.105469 L 558.003906 13.128906 M 575.996094 8.601562 L 589.496094 8.578125 L 589.503906 13.078125 L 576.003906 13.101562 M 593.996094 8.570312 L 607.496094 8.550781 L 607.503906 13.050781 L 594.003906 13.070312 M 611.996094 8.542969 L 625.496094 8.523438 L 625.503906 13.023438 L 612.003906 13.042969 M 629.996094 8.515625 L 643.496094 8.496094 L 643.503906 12.996094 L 630.003906 13.015625 M 647.996094 8.488281 L 661.496094 8.464844 L 661.503906 12.964844 L 648.003906 12.988281 M 665.996094 8.460938 L 679.496094 8.4375 L 679.503906 12.9375 L 666.003906 12.960938 M 683.996094 8.429688 L 697.496094 8.410156 L 697.503906 12.910156 L 684.003906 12.929688 M 701.996094 8.402344 L 715.496094 8.382812 L 715.503906 12.882812 L 702.003906 12.902344 M 719.996094 8.375 L 733.496094 8.355469 L 733.503906 12.855469 L 720.003906 12.875 M 737.996094 8.347656 L 751.496094 8.324219 L 751.503906 12.824219 L 738.003906 12.847656 M 755.996094 8.320312 L 769.496094 8.296875 L 769.503906 12.796875 L 756.003906 12.820312 M 773.996094 8.289062 L 787.496094 8.269531 L 787.503906 12.769531 L 774.003906 12.789062 M 791.996094 8.261719 L 805.496094 8.242188 L 805.503906 12.742188 L 792.003906 12.761719 M 809.996094 8.234375 L 823.496094 8.214844 L 823.503906 12.714844 L 810.003906 12.734375 M 827.996094 8.207031 L 841.496094 8.183594 L 841.503906 12.683594 L 828.003906 12.707031 M 845.996094 8.179688 L 859.496094 8.15625 L 859.503906 12.65625 L 846.003906 12.679688 M 863.996094 8.148438 L 877.496094 8.128906 L 877.503906 12.628906 L 864.003906 12.648438 M 881.996094 8.121094 L 895.496094 8.101562 L 895.503906 12.601562 L 882.003906 12.621094 M 899.996094 8.09375 L 913.496094 8.074219 L 913.503906 12.574219 L 900.003906 12.59375 M 917.996094 8.066406 L 931.496094 8.042969 L 931.503906 12.542969 L 918.003906 12.566406 M 935.996094 8.039062 L 949.496094 8.015625 L 949.503906 12.515625 L 936.003906 12.539062 M 953.996094 8.007812 L 967.496094 7.988281 L 967.503906 12.488281 L 954.003906 12.507812 M 971.996094 7.980469 L 985.496094 7.960938 L 985.503906 12.460938 L 972.003906 12.480469 M 989.996094 7.953125 L 1003.496094 7.933594 L 1003.503906 12.433594 L 990.003906 12.453125 M 1007.996094 7.925781 L 1021.496094 7.902344 L 1021.503906 12.402344 L 1008.003906 12.425781 M 1025.996094 7.898438 L 1039.496094 7.875 L 1039.503906 12.375 L 1026.003906 12.398438 M 1043.996094 7.867188 L 1057.496094 7.847656 L 1057.503906 12.347656 L 1044.003906 12.367188 M 1061.996094 7.839844 L 1075.496094 7.820312 L 1075.503906 12.320312 L 1062.003906 12.339844 M 1079.996094 7.8125 L 1093.496094 7.792969 L 1093.503906 12.292969 L 1080.003906 12.3125 M 1097.996094 7.785156 L 1111.496094 7.761719 L 1111.503906 12.261719 L 1098.003906 12.285156 M 1115.996094 7.757812 L 1129.496094 7.734375 L 1129.503906 12.234375 L 1116.003906 12.257812 M 1133.996094 7.726562 L 1147.496094 7.707031 L 1147.503906 12.207031 L 1134.003906 12.226562 M 1151.996094 7.699219 L 1165.496094 7.679688 L 1165.503906 12.179688 L 1152.003906 12.199219 M 1169.996094 7.671875 L 1183.496094 7.652344 L 1183.503906 12.152344 L 1170.003906 12.171875 M 1187.996094 7.644531 L 1201.496094 7.621094 L 1201.503906 12.121094 L 1188.003906 12.144531 M 1205.996094 7.617188 L 1219.496094 7.59375 L 1219.503906 12.09375 L 1206.003906 12.117188 M 1223.996094 7.585938 L 1237.496094 7.566406 L 1237.503906 12.066406 L 1224.003906 12.085938 M 1241.996094 7.558594 L 1255.496094 7.539062 L 1255.503906 12.039062 L 1242.003906 12.058594 M 1259.996094 7.53125 L 1273.496094 7.511719 L 1273.503906 12.011719 L 1260.003906 12.03125 M 1277.996094 7.503906 L 1291.496094 7.480469 L 1291.503906 11.980469 L 1278.003906 12.003906 M 1295.996094 7.476562 L 1309.496094 7.453125 L 1309.503906 11.953125 L 1296.003906 11.976562 M 1313.996094 7.445312 L 1327.496094 7.425781 L 1327.503906 11.925781 L 1314.003906 11.945312 M 1331.996094 7.417969 L 1345.496094 7.398438 L 1345.503906 11.898438 L 1332.003906 11.917969 M 1349.996094 7.390625 L 1363.496094 7.371094 L 1363.503906 11.871094 L 1350.003906 11.890625 M 1367.996094 7.363281 L 1381.496094 7.339844 L 1381.503906 11.839844 L 1368.003906 11.863281 M 1385.996094 7.335938 L 1399.496094 7.3125 L 1399.503906 11.8125 L 1386.003906 11.835938 M 1403.996094 7.304688 L 1417.496094 7.285156 L 1417.503906 11.785156 L 1404.003906 11.804688 M 1421.996094 7.277344 L 1435.496094 7.257812 L 1435.503906 11.757812 L 1422.003906 11.777344 M 1439.996094 7.25 L 1440.003906 11.75 " fill-opacity="1" fill-rule="nonzero"/></g></g></g></g></svg>