<svg xmlns="http://www.w3.org/2000/svg" xmlns:xlink="http://www.w3.org/1999/xlink" width="300" zoomAndPan="magnify" viewBox="0 0 224.87999 52.499999" height="70" preserveAspectRatio="xMidYMid meet" version="1.0"><defs><clipPath id="cafd3275e6"><path d="M 168 17.738281 L 220.875 17.738281 L 220.875 34.082031 L 168 34.082031 Z M 168 17.738281 " clip-rule="nonzero"/></clipPath><clipPath id="7c384f0095"><path d="M 163 17.738281 L 168 17.738281 L 168 31 L 163 31 Z M 163 17.738281 " clip-rule="nonzero"/></clipPath><clipPath id="7d0717f644"><path d="M 1 24 L 152 24 L 152 28 L 1 28 Z M 1 24 " clip-rule="nonzero"/></clipPath></defs><g clip-path="url(#cafd3275e6)"><path fill="#f2b705" d="M 220.917969 26.292969 C 220.824219 26.410156 220.695312 26.515625 220.625 26.652344 C 220.523438 26.933594 220.5 27.246094 220.347656 27.5 C 220.242188 27.699219 219.988281 27.976562 219.847656 27.953125 C 219.652344 27.929688 219.429688 27.675781 219.316406 27.46875 C 219.1875 27.234375 219.117188 26.933594 219.117188 26.652344 C 219.09375 25.492188 219.082031 24.332031 219.105469 23.171875 C 219.117188 22.253906 219 22.035156 218.128906 21.765625 C 217.539062 21.570312 217.273438 21.675781 217.0625 22.289062 C 216.75 23.207031 216.472656 24.160156 216.179688 25.085938 C 216.144531 25.203125 216.097656 25.308594 216.0625 25.421875 C 215.960938 25.25 215.925781 25.097656 215.925781 24.9375 C 215.902344 24.214844 215.867188 23.472656 215.832031 22.753906 C 215.808594 22.160156 215.472656 21.847656 214.832031 21.699219 C 214.265625 21.570312 214.054688 21.953125 213.882812 22.359375 C 213.742188 22.695312 213.613281 23.042969 213.488281 23.378906 C 213.371094 23.707031 213.253906 24.054688 213.117188 24.4375 C 213.058594 24.34375 213.035156 24.332031 213.035156 24.308594 C 213.035156 23.785156 213.023438 23.242188 213.023438 22.71875 C 213.023438 21.929688 213 21.894531 212.234375 21.742188 C 211.710938 21.640625 211.605469 21.722656 211.582031 22.242188 C 211.570312 23.4375 211.59375 24.632812 211.527344 25.839844 C 211.503906 26.351562 211.339844 26.886719 211.152344 27.375 C 211.039062 27.710938 210.828125 28.128906 210.351562 28.058594 C 209.867188 27.988281 209.820312 27.535156 209.796875 27.164062 C 209.773438 25.691406 209.761719 24.214844 209.773438 22.730469 C 209.773438 22.335938 209.761719 22.035156 209.308594 21.929688 C 208.878906 21.824219 208.414062 21.617188 208.195312 22.242188 C 206.8125 21.175781 205.664062 21.441406 204.886719 23.007812 C 204.328125 24.125 204.269531 25.34375 204.386719 26.5625 C 204.410156 26.769531 204.46875 27.015625 204.410156 27.210938 C 204.304688 27.605469 204.15625 28.058594 203.644531 28.082031 C 203.132812 28.105469 202.957031 27.675781 202.914062 27.292969 C 202.820312 26.675781 202.75 26.039062 202.796875 25.421875 C 202.855469 24.703125 203.050781 23.984375 203.179688 23.265625 C 203.296875 22.613281 202.992188 22.265625 202.332031 22.300781 C 202.078125 22.3125 201.84375 22.382812 201.601562 22.40625 C 201.308594 22.441406 201.03125 22.5 200.742188 22.535156 C 200.765625 22.5 200.8125 22.441406 200.835938 22.40625 C 200.671875 22.105469 200.578125 21.699219 200.335938 21.535156 C 200.125 21.40625 199.671875 21.476562 199.417969 21.617188 C 198.90625 21.894531 198.757812 22.730469 199.140625 23.195312 C 199.359375 23.460938 199.371094 23.695312 199.246094 23.960938 C 198.828125 24.855469 198.398438 25.761719 197.96875 26.652344 C 197.910156 26.769531 197.792969 26.875 197.710938 26.980469 C 197.605469 26.769531 197.605469 26.597656 197.605469 26.410156 C 197.617188 25.144531 197.628906 23.878906 197.628906 22.613281 C 197.628906 22.429688 197.597656 22.195312 197.492188 22.082031 C 197.097656 21.699219 196.410156 21.777344 196.074219 22.21875 C 196.015625 22.183594 195.96875 22.148438 195.914062 22.117188 C 194.925781 21.292969 193.8125 21.429688 193.09375 22.5 C 192.269531 23.742188 192.199219 25.132812 192.246094 26.5625 C 192.257812 26.957031 192.128906 27.421875 191.917969 27.757812 C 191.628906 28.257812 191.105469 28.175781 190.910156 27.640625 C 190.804688 27.351562 190.734375 27.027344 190.734375 26.722656 C 190.722656 25.34375 190.722656 23.972656 190.757812 22.589844 C 190.769531 22.023438 190.421875 21.941406 190.003906 21.859375 C 189.621094 21.777344 189.296875 21.777344 189.214844 22.3125 C 188.191406 21.394531 187.136719 21.347656 186.417969 22.230469 C 186.082031 22.636719 185.789062 23.148438 185.640625 23.648438 C 185.441406 24.308594 185.382812 25.015625 185.3125 25.703125 C 185.222656 26.457031 184.941406 27.105469 184.398438 27.640625 C 184.015625 28 183.6875 27.929688 183.503906 27.457031 C 183.386719 27.117188 183.292969 26.746094 183.292969 26.386719 C 183.304688 24.84375 183.351562 23.300781 183.375 21.753906 C 183.375 21.476562 183.492188 21.359375 183.769531 21.371094 C 184.222656 21.371094 184.664062 21.359375 185.117188 21.359375 C 185.511719 21.359375 185.628906 21.128906 185.652344 20.792969 C 185.6875 20.410156 185.417969 20.410156 185.164062 20.398438 C 184.964844 20.386719 184.769531 20.386719 184.570312 20.375 C 183.433594 20.339844 183.433594 20.339844 183.480469 19.226562 C 183.480469 19.167969 183.480469 19.121094 183.480469 19.085938 C 183.503906 18.214844 183.492188 18.191406 182.621094 18.007812 C 182.550781 17.996094 182.492188 17.984375 182.425781 17.972656 C 182.0625 17.890625 181.890625 18.03125 181.855469 18.390625 C 181.832031 18.875 181.785156 19.351562 181.785156 19.839844 C 181.785156 20.164062 181.65625 20.292969 181.320312 20.246094 C 181.007812 20.222656 180.695312 20.210938 180.371094 20.210938 C 179.894531 20.222656 179.90625 20.605469 179.859375 20.917969 C 179.800781 21.292969 180.066406 21.304688 180.335938 21.304688 C 180.636719 21.304688 180.925781 21.324219 181.226562 21.324219 C 181.542969 21.324219 181.65625 21.453125 181.65625 21.777344 C 181.644531 22.789062 181.667969 23.808594 181.621094 24.820312 C 181.589844 25.679688 181.136719 26.375 180.4375 27.082031 C 180.566406 25.214844 178.976562 24.761719 178.070312 23.84375 C 178.304688 23.390625 178.570312 22.996094 178.722656 22.566406 C 178.941406 21.917969 178.640625 21.570312 177.964844 21.59375 C 176.828125 21.628906 176.109375 22.929688 176.621094 23.9375 C 176.710938 24.113281 176.722656 24.402344 176.644531 24.554688 C 176.238281 25.332031 175.796875 26.097656 175.308594 26.828125 C 175.214844 27.105469 174.890625 27.304688 174.625 27.523438 C 174.53125 27.1875 174.34375 26.851562 174.34375 26.515625 C 174.332031 25.332031 174.378906 24.160156 174.425781 22.972656 C 174.4375 22.546875 174.285156 22.253906 173.925781 22.023438 C 173.125 21.535156 172.523438 21.558594 171.964844 22.3125 C 171.511719 22.917969 171.199219 23.625 170.863281 24.296875 C 170.699219 24.601562 170.628906 24.914062 170.503906 25.226562 C 170.46875 25.214844 170.421875 25.214844 170.375 25.203125 C 170.375 25.027344 170.375 24.84375 170.375 24.679688 C 170.386719 23.914062 170.398438 23.148438 170.398438 22.394531 C 170.398438 21.988281 169.921875 21.6875 169.375 21.699219 C 168.921875 21.710938 169.003906 22.058594 169.003906 22.3125 C 168.992188 24.078125 168.992188 25.839844 168.980469 27.59375 C 168.980469 27.804688 168.992188 28.023438 169.039062 28.246094 C 169.144531 28.800781 169.363281 28.941406 169.933594 28.953125 C 170.46875 28.964844 170.46875 28.617188 170.535156 28.246094 C 170.851562 26.574219 171.328125 24.960938 172.300781 23.519531 C 172.429688 23.324219 172.613281 23.136719 172.789062 22.953125 C 172.90625 23.230469 172.90625 23.4375 172.90625 23.648438 C 172.894531 24.984375 172.847656 26.304688 172.894531 27.640625 C 172.90625 28.140625 173.007812 28.707031 173.601562 28.90625 C 174.183594 29.105469 174.644531 28.789062 175.019531 28.394531 C 175.332031 28.082031 175.621094 27.722656 175.867188 27.351562 C 176.316406 26.664062 176.710938 25.957031 177.128906 25.261719 C 177.222656 25.097656 177.328125 24.960938 177.503906 24.703125 C 177.976562 25.226562 178.453125 25.679688 178.8125 26.191406 C 179.171875 26.699219 179.105469 27.386719 178.742188 27.699219 C 178.429688 27.988281 178.046875 27.917969 177.445312 27.511719 C 176.992188 27.210938 176.792969 27.246094 176.515625 27.699219 C 176.203125 28.199219 176.28125 28.464844 176.828125 28.707031 C 178.269531 29.359375 179.941406 28.929688 180.890625 27.652344 C 181.171875 27.28125 181.390625 26.875 181.679688 26.433594 C 181.808594 26.898438 181.890625 27.292969 182.019531 27.675781 C 182.238281 28.324219 182.621094 28.824219 183.363281 28.929688 C 184.09375 29.035156 184.535156 28.570312 184.917969 28.046875 C 185.105469 27.78125 185.246094 27.511719 185.429688 27.1875 C 186.148438 29.359375 188.191406 29.53125 189.480469 27.652344 C 190.339844 29.3125 191.140625 29.382812 192.59375 27.917969 C 193.894531 29.289062 194.242188 29.300781 196.167969 28.035156 C 196.191406 28.058594 196.226562 28.070312 196.238281 28.105469 C 196.332031 28.441406 196.15625 28.664062 195.9375 28.882812 C 195.113281 29.707031 194.183594 30.484375 193.5 31.4375 C 192.582031 32.726562 193.40625 34.175781 194.996094 34.234375 C 195.609375 34.257812 196.132812 34.046875 196.585938 33.640625 C 197.074219 33.214844 197.363281 32.65625 197.410156 32.039062 C 197.527344 30.960938 197.527344 29.859375 197.617188 28.777344 C 197.640625 28.476562 197.734375 28.117188 197.921875 27.882812 C 198.828125 26.722656 199.582031 25.480469 200.125 24.125 C 200.429688 23.390625 200.730469 23.242188 201.566406 23.507812 C 201.542969 23.683594 201.496094 23.84375 201.484375 24.03125 C 201.414062 24.855469 201.308594 25.679688 201.296875 26.503906 C 201.289062 27.164062 201.472656 27.792969 201.902344 28.300781 C 202.65625 29.195312 203.75 29.171875 204.457031 28.246094 C 204.539062 28.152344 204.617188 28.058594 204.722656 27.929688 C 205.199219 28.6875 205.8125 29.046875 206.671875 28.929688 C 207.484375 28.8125 207.984375 28.257812 208.472656 27.582031 C 208.726562 28.300781 209.089844 28.800781 209.820312 28.941406 C 210.585938 29.070312 211.0625 28.664062 211.363281 28.035156 C 211.550781 28.347656 211.628906 28.699219 211.839844 28.824219 C 212.617188 29.289062 213.21875 28.917969 213.242188 28.046875 C 213.242188 27.816406 213.242188 27.582031 213.253906 27.351562 C 213.3125 26.191406 213.582031 25.085938 214.066406 24.03125 C 214.148438 23.867188 214.265625 23.730469 214.425781 23.496094 C 214.449219 23.730469 214.484375 23.832031 214.484375 23.925781 C 214.601562 25.097656 214.707031 26.269531 214.855469 27.445312 C 214.878906 27.710938 215.03125 28.035156 215.230469 28.164062 C 215.484375 28.324219 215.84375 28.382812 216.132812 28.347656 C 216.25 28.335938 216.367188 27.941406 216.425781 27.699219 C 216.679688 26.609375 216.886719 25.503906 217.132812 24.390625 C 217.203125 24.101562 217.351562 23.832031 217.46875 23.566406 C 217.5625 23.683594 217.574219 23.785156 217.585938 23.878906 C 217.609375 24.761719 217.609375 25.644531 217.667969 26.515625 C 217.703125 27.1875 217.839844 27.828125 218.28125 28.371094 C 219.035156 29.265625 220.242188 29.125 220.707031 28.070312 C 220.882812 27.664062 220.964844 27.210938 221.019531 26.78125 C 221.136719 26.609375 220.984375 26.457031 220.917969 26.292969 Z M 188.9375 27.082031 C 188.75 27.558594 188.460938 28.046875 187.878906 27.988281 C 187.277344 27.929688 187.125 27.386719 187.03125 26.898438 C 186.941406 26.480469 186.929688 26.039062 186.847656 25.433594 C 186.960938 24.914062 187.054688 24.191406 187.265625 23.53125 C 187.449219 22.953125 187.878906 22.660156 188.320312 22.71875 C 188.890625 22.789062 189.097656 23.21875 189.191406 23.683594 C 189.445312 24.820312 189.378906 25.980469 188.9375 27.082031 Z M 195.949219 26.769531 C 195.890625 26.992188 195.820312 27.257812 195.65625 27.398438 C 195.390625 27.652344 195.078125 27.929688 194.75 27.976562 C 194.332031 28.035156 194.125 27.59375 194.019531 27.210938 C 193.660156 25.96875 193.730469 24.75 194.195312 23.554688 C 194.277344 23.359375 194.390625 23.171875 194.53125 23.019531 C 195.03125 22.488281 195.773438 22.601562 195.992188 23.289062 C 196.167969 23.785156 196.191406 24.332031 196.285156 24.867188 C 196.191406 25.503906 196.085938 26.15625 195.949219 26.769531 Z M 195.96875 32.980469 C 195.75 33.480469 195.203125 33.6875 194.773438 33.515625 C 194.378906 33.351562 194.183594 32.910156 194.324219 32.367188 C 194.636719 31.25 195.460938 30.484375 196.285156 29.730469 C 196.410156 30.878906 196.421875 31.960938 195.96875 32.980469 Z M 207.972656 26.910156 C 207.890625 27.199219 207.707031 27.488281 207.496094 27.710938 C 207.066406 28.1875 206.535156 28.105469 206.242188 27.535156 C 206.105469 27.257812 205.976562 26.945312 205.964844 26.644531 C 205.953125 25.785156 205.976562 24.914062 206.058594 24.066406 C 206.082031 23.742188 206.253906 23.390625 206.453125 23.113281 C 206.917969 22.453125 207.742188 22.546875 208.019531 23.300781 C 208.207031 23.808594 208.242188 24.390625 208.355469 24.972656 C 208.242188 25.621094 208.148438 26.28125 207.972656 26.910156 Z M 207.972656 26.910156 " fill-opacity="1" fill-rule="nonzero"/></g><g clip-path="url(#7c384f0095)"><path fill="#f2b705" d="M 164.257812 24.261719 C 164.453125 24.378906 164.6875 24.390625 164.917969 24.460938 C 164.953125 24.4375 164.988281 24.402344 165.023438 24.367188 C 163.875 22.289062 164.429688 20.523438 165.8125 18.898438 C 165.882812 18.910156 165.941406 18.921875 166 18.933594 C 166.011719 19.0625 166.023438 19.203125 166.023438 19.328125 C 166.011719 22.171875 166.011719 25.015625 165.964844 27.851562 C 165.953125 28.453125 165.777344 29.058594 165.683594 29.660156 C 165.660156 29.835938 165.625 29.984375 165.582031 30.242188 C 166.253906 30.160156 166.695312 29.835938 166.914062 29.359375 C 167.207031 28.707031 167.496094 28.011719 167.507812 27.328125 C 167.589844 24.460938 167.566406 21.582031 167.566406 18.703125 C 167.566406 18.515625 167.449219 18.25 167.296875 18.167969 C 166.867188 17.878906 166.371094 17.738281 165.847656 18.03125 C 164.304688 18.886719 163.363281 20.199219 163.097656 21.953125 C 162.957031 22.960938 163.375 23.753906 164.257812 24.261719 Z M 164.257812 24.261719 " fill-opacity="1" fill-rule="nonzero"/></g><g clip-path="url(#7d0717f644)"><path stroke-linecap="round" transform="matrix(0.742924, 0, 0, 0.742924, -4.956256, 24.88797)" fill="none" stroke-linejoin="miter" d="M 1.497468 1.502086 L 209.569804 1.502086 " stroke="#fabb17" stroke-width="3" stroke-opacity="1" stroke-miterlimit="4"/></g></svg>