<svg xmlns="http://www.w3.org/2000/svg" xmlns:xlink="http://www.w3.org/1999/xlink" width="100" zoomAndPan="magnify" viewBox="0 0 75 74.999997" height="100" preserveAspectRatio="xMidYMid meet" version="1.0"><defs><clipPath id="0d1d37d616"><path d="M 6.777344 6.777344 L 68.222656 6.777344 L 68.222656 68.222656 L 6.777344 68.222656 Z M 6.777344 6.777344 " clip-rule="nonzero"/></clipPath><clipPath id="6db7c241d0"><path d="M 37.5 6.777344 C 20.535156 6.777344 6.777344 20.535156 6.777344 37.5 C 6.777344 54.464844 20.535156 68.222656 37.5 68.222656 C 54.464844 68.222656 68.222656 54.464844 68.222656 37.5 C 68.222656 20.535156 54.464844 6.777344 37.5 6.777344 Z M 37.5 6.777344 " clip-rule="nonzero"/></clipPath></defs><g clip-path="url(#0d1d37d616)"><g clip-path="url(#6db7c241d0)"><path fill="#6a4933" d="M 6.777344 6.777344 L 68.222656 6.777344 L 68.222656 68.222656 L 6.777344 68.222656 Z M 6.777344 6.777344 " fill-opacity="1" fill-rule="nonzero"/></g></g><path fill="#f7e8d7" d="M 38.277344 17.207031 C 27.335938 17.207031 18.441406 26.105469 18.441406 37.046875 C 18.441406 40.875 19.546875 44.578125 21.589844 47.792969 L 22.078125 48.539062 L 20.164062 55.421875 L 27.433594 53.703125 L 28.117188 54.125 C 31.167969 55.941406 34.707031 56.914062 38.277344 56.914062 C 49.222656 56.914062 58.117188 48.019531 58.117188 37.078125 C 58.117188 26.136719 49.222656 17.207031 38.277344 17.207031 Z M 49.578125 45.585938 C 49.382812 46.558594 47.304688 47.792969 45.972656 48.148438 C 42.664062 49.027344 37.988281 46.492188 33.375 42.46875 C 28.734375 38.441406 25.617188 34.15625 26.007812 30.746094 C 26.167969 29.382812 27.144531 27.144531 28.050781 26.851562 C 28.960938 26.558594 29.609375 26.851562 30.550781 27.144531 C 31.007812 27.664062 31.589844 28.277344 32.242188 29.027344 C 33.117188 30 33.703125 30.875 34.058594 31.492188 C 34.351562 32.011719 34.253906 32.664062 33.796875 33.050781 L 32.207031 34.480469 C 31.914062 34.742188 31.816406 35.164062 31.980469 35.519531 C 32.46875 36.558594 33.605469 38.703125 35.324219 40.195312 C 37.011719 41.6875 39.316406 42.53125 40.421875 42.855469 C 40.777344 42.988281 41.203125 42.824219 41.394531 42.5 L 42.597656 40.746094 C 42.921875 40.257812 43.570312 40.066406 44.125 40.292969 C 44.773438 40.585938 45.746094 41.039062 46.816406 41.753906 C 47.628906 42.304688 48.34375 42.792969 48.894531 43.183594 C 49.382812 44.058594 49.773438 44.675781 49.578125 45.585938 Z M 49.578125 45.585938 " fill-opacity="1" fill-rule="nonzero"/><path fill="#f7e8d7" d="M 37.5 0 C 16.785156 0 0 16.785156 0 37.5 C 0 58.214844 16.785156 75 37.5 75 C 58.214844 75 75 58.214844 75 37.5 C 74.96875 16.785156 58.183594 0 37.5 0 Z M 38.277344 60.777344 C 34.253906 60.777344 30.324219 59.773438 26.816406 57.824219 L 14.644531 60.714844 L 17.855469 49.125 C 15.683594 45.453125 14.546875 41.296875 14.546875 37.011719 C 14.546875 23.929688 25.195312 13.277344 38.277344 13.277344 C 51.363281 13.277344 62.011719 23.960938 62.011719 37.046875 C 62.011719 50.128906 51.363281 60.777344 38.277344 60.777344 Z M 38.277344 60.777344 " fill-opacity="1" fill-rule="nonzero"/></svg>