<svg xmlns="http://www.w3.org/2000/svg" xmlns:xlink="http://www.w3.org/1999/xlink" width="500" zoomAndPan="magnify" viewBox="0 0 375 374.999991" height="500" preserveAspectRatio="xMidYMid meet" version="1.0"><defs><filter x="0%" y="0%" width="100%" height="100%" id="7d84635228"><feColorMatrix values="0 0 0 0 1 0 0 0 0 1 0 0 0 0 1 0 0 0 1 0" color-interpolation-filters="sRGB"/></filter><mask id="3fd069d878"><g filter="url(#7d84635228)"><rect x="-37.5" width="450" fill="#000000" y="-37.499999" height="449.999989" fill-opacity="0.39"/></g></mask><clipPath id="5011c9e07f"><path d="M 10 4 L 362 4 L 362 375 L 10 375 Z M 10 4 " clip-rule="nonzero"/></clipPath><clipPath id="740033f86d"><path d="M -8.664062 367.5 L 35.15625 -12.480469 L 383.84375 27.730469 L 340.023438 407.710938 Z M -8.664062 367.5 " clip-rule="nonzero"/></clipPath><clipPath id="851f042043"><path d="M -8.664062 367.5 L 35.15625 -12.480469 L 383.84375 27.730469 L 340.023438 407.710938 Z M -8.664062 367.5 " clip-rule="nonzero"/></clipPath><clipPath id="3af961665a"><path d="M -8.664062 367.5 L 35.15625 -12.480469 L 383.84375 27.730469 L 340.023438 407.710938 Z M -8.664062 367.5 " clip-rule="nonzero"/></clipPath><clipPath id="3614f85a02"><rect x="0" width="375" y="0" height="375"/></clipPath></defs><g mask="url(#3fd069d878)"><g transform="matrix(1, 0, 0, 1, 0, 0)"><g clip-path="url(#3614f85a02)"><g clip-path="url(#5011c9e07f)"><g clip-path="url(#740033f86d)"><g clip-path="url(#851f042043)"><g clip-path="url(#3af961665a)"><path fill="#fde1c1" d="M 137.980469 27.082031 C 127.941406 48.964844 135.574219 73.554688 129.347656 96.164062 C 126.582031 106.128906 120.851562 116.226562 111.339844 121.125 C 101.421875 126.265625 90.042969 124.289062 79.527344 122.21875 C 70.128906 120.371094 60.191406 118.273438 50.703125 120.511719 C 43.273438 122.226562 36.863281 126.628906 31.914062 132.4375 C 19.511719 146.71875 15.3125 167.464844 12.742188 185.640625 C 12.375 187.976562 12.105469 190.328125 11.835938 192.675781 C 4.597656 262.011719 40.65625 326.4375 102.753906 357.308594 C 134.527344 373.0625 179.671875 389.21875 204.1875 353.199219 C 214.15625 338.546875 218.65625 320.972656 228.179688 306.078125 C 233.402344 297.917969 240.007812 290.96875 248.792969 286.554688 C 257.980469 281.996094 268.175781 280.222656 278.222656 278.90625 C 297.066406 276.414062 315.636719 274.648438 332.246094 264.285156 C 347.421875 254.796875 359.074219 239.574219 360.78125 221.492188 C 362.375 204.347656 355.414062 187.167969 340.460938 178.207031 C 331.554688 172.894531 321.460938 170.496094 311.894531 166.820312 C 301.585938 162.964844 292.453125 157.152344 284.710938 149.214844 C 254.839844 118.632812 251.042969 73.160156 227.929688 38.410156 C 217.058594 22.113281 200.878906 7.296875 180.824219 4.601562 C 162.828125 2.242188 145.503906 10.527344 137.980469 27.082031 Z M 137.980469 27.082031 " fill-opacity="1" fill-rule="nonzero"/></g></g></g></g></g></g></g></svg>