<svg xmlns="http://www.w3.org/2000/svg" xmlns:xlink="http://www.w3.org/1999/xlink" width="500" zoomAndPan="magnify" viewBox="0 0 375 374.999991" height="500" preserveAspectRatio="xMidYMid meet" version="1.0"><defs><clipPath id="b4ea2d9684"><path d="M 67 34.453125 L 325 34.453125 L 325 172 L 67 172 Z M 67 34.453125 " clip-rule="nonzero"/></clipPath><clipPath id="036363eebf"><path d="M 20 112 L 322 112 L 322 340.453125 L 20 340.453125 Z M 20 112 " clip-rule="nonzero"/></clipPath></defs><path fill="#000000" d="M 236.890625 245.019531 C 236.835938 245.164062 236.75 245.53125 236.835938 246.292969 C 236.90625 246.90625 237.503906 247.789062 238.261719 248.730469 C 238.273438 247.367188 237.894531 246.265625 237.441406 245.589844 C 237.210938 245.246094 237.007812 245.082031 236.890625 245.019531 Z M 201.777344 290.6875 C 204.570312 290.6875 207.300781 291.261719 209.664062 292.402344 C 211.824219 293.441406 213.601562 295.128906 215.320312 296.761719 C 216.597656 297.976562 217.917969 299.230469 219.351562 300.160156 C 220.46875 300.886719 221.757812 301.394531 223.007812 301.882812 C 224.5625 302.492188 226.148438 303.113281 227.492188 304.171875 C 228.3125 303.789062 229.171875 303.496094 230.019531 303.207031 C 231.15625 302.820312 232.335938 302.417969 233.386719 301.800781 C 235.914062 300.324219 238.296875 298.257812 240.601562 296.257812 C 242.277344 294.804688 244.007812 293.304688 245.777344 292.042969 C 254.152344 286.078125 254.386719 277.292969 246.484375 265.941406 C 244.773438 263.480469 243.703125 260.867188 242.667969 258.34375 C 242.199219 257.207031 241.71875 256.03125 241.183594 254.871094 C 240.828125 254.105469 240.042969 253.140625 239.191406 252.15625 C 238.457031 254.988281 237.144531 258.972656 234.28125 260.847656 C 231.246094 262.828125 226.421875 262.71875 222.546875 260.582031 C 219.472656 258.886719 217.734375 256.316406 217.78125 253.527344 C 217.796875 252.492188 217.921875 251.507812 218.027344 250.644531 C 218.144531 249.695312 218.320312 248.265625 218.046875 248.074219 C 217.953125 248.003906 217.328125 247.75 214.1875 249.292969 C 212.988281 249.882812 211.585938 250.933594 210.101562 252.042969 C 207.136719 254.265625 203.785156 256.785156 200.652344 256.601562 C 199.328125 256.527344 198.390625 255.90625 197.5625 255.359375 C 196.878906 254.910156 196.289062 254.519531 195.558594 254.453125 C 192.023438 254.148438 190.363281 256.480469 188.4375 259.183594 C 187.6875 260.238281 186.90625 261.332031 185.992188 262.257812 C 184.070312 264.195312 181.382812 265.632812 177.53125 266.773438 C 176.144531 267.183594 174.566406 267.472656 172.894531 267.78125 C 167.890625 268.703125 162.222656 269.746094 160.59375 274.445312 C 159.367188 277.992188 161.308594 281.746094 163.1875 285.375 C 163.914062 286.785156 164.605469 288.121094 165.105469 289.433594 C 165.628906 290.792969 165.691406 292.539062 165.75 294.222656 C 165.824219 296.191406 165.898438 298.226562 166.699219 299.382812 C 167.15625 300.039062 167.605469 300.46875 168.035156 300.667969 C 168.835938 301.03125 169.699219 300.609375 171.039062 299.894531 C 171.757812 299.511719 172.570312 299.078125 173.476562 298.78125 C 175.589844 298.089844 177.910156 298.136719 180.152344 298.183594 C 183.191406 298.242188 186.058594 298.304688 188.398438 296.671875 C 189.207031 296.105469 189.820312 295.472656 190.410156 294.855469 C 191.308594 293.921875 192.238281 292.960938 193.78125 292.304688 C 196.3125 291.226562 199.070312 290.6875 201.777344 290.6875 Z M 227.257812 306.015625 C 226.425781 306.515625 225.6875 307.167969 225.101562 308.101562 C 224.125 309.671875 224.109375 310.996094 225.0625 311.839844 C 226.027344 312.691406 227.667969 312.796875 228.574219 312.0625 C 229.589844 311.242188 229.453125 309.496094 228.195312 307.28125 C 227.925781 306.800781 227.609375 306.382812 227.257812 306.015625 Z M 227.039062 314.0625 C 225.964844 314.0625 224.863281 313.699219 224.050781 312.980469 C 222.523438 311.625 222.433594 309.5 223.8125 307.296875 C 224.441406 306.289062 225.195312 305.558594 226.023438 304.992188 C 224.960938 304.285156 223.726562 303.800781 222.453125 303.300781 C 221.132812 302.78125 219.769531 302.246094 218.519531 301.4375 C 216.972656 300.429688 215.597656 299.128906 214.269531 297.867188 C 212.5625 296.242188 210.945312 294.710938 209.003906 293.773438 C 204.730469 291.710938 199.125 291.683594 194.378906 293.703125 C 193.121094 294.238281 192.375 295.015625 191.511719 295.910156 C 190.867188 296.582031 190.199219 297.269531 189.269531 297.917969 C 186.523438 299.835938 183.265625 299.769531 180.121094 299.707031 C 177.910156 299.660156 175.820312 299.617188 173.949219 300.230469 C 173.167969 300.484375 172.449219 300.867188 171.753906 301.238281 C 170.367188 301.980469 168.929688 302.746094 167.40625 302.050781 C 166.710938 301.738281 166.070312 301.148438 165.449219 300.253906 C 164.394531 298.730469 164.308594 296.46875 164.230469 294.28125 C 164.171875 292.71875 164.113281 291.101562 163.683594 289.972656 C 163.214844 288.742188 162.542969 287.445312 161.832031 286.074219 C 159.902344 282.339844 157.714844 278.109375 159.15625 273.945312 C 161.070312 268.410156 167.207031 267.277344 172.617188 266.28125 C 174.25 265.980469 175.789062 265.699219 177.097656 265.3125 C 180.695312 264.246094 183.175781 262.933594 184.910156 261.183594 C 185.738281 260.347656 186.480469 259.304688 187.199219 258.296875 C 189.117188 255.605469 191.296875 252.554688 195.691406 252.9375 C 196.808594 253.035156 197.65625 253.597656 198.402344 254.089844 C 199.132812 254.570312 199.824219 255.027344 200.738281 255.082031 C 203.296875 255.230469 206.429688 252.890625 209.1875 250.824219 C 210.730469 249.671875 212.1875 248.578125 213.511719 247.929688 C 216.472656 246.472656 217.992188 246.164062 218.929688 246.832031 C 219.945312 247.550781 219.765625 249 219.539062 250.832031 C 219.4375 251.660156 219.320312 252.597656 219.304688 253.554688 C 219.269531 255.757812 220.71875 257.835938 223.285156 259.25 C 226.683594 261.125 230.863281 261.257812 233.445312 259.570312 C 236.1875 257.777344 237.34375 253.347656 237.96875 250.753906 C 236.625 249.195312 235.464844 247.730469 235.324219 246.464844 C 235.160156 244.992188 235.4375 244.039062 236.148438 243.632812 C 236.671875 243.335938 237.308594 243.417969 237.898438 243.859375 C 239.183594 244.824219 240.179688 247.382812 239.625 250.332031 C 239.65625 250.367188 239.683594 250.398438 239.710938 250.429688 C 240.902344 251.792969 242.03125 253.082031 242.566406 254.230469 C 243.117188 255.421875 243.605469 256.613281 244.078125 257.765625 C 245.128906 260.328125 246.117188 262.75 247.734375 265.070312 C 256.089844 277.074219 255.71875 286.832031 246.660156 293.285156 C 244.949219 294.503906 243.246094 295.980469 241.601562 297.410156 C 239.242188 299.453125 236.804688 301.566406 234.15625 303.117188 C 232.972656 303.808594 231.722656 304.234375 230.511719 304.648438 C 229.886719 304.863281 229.269531 305.070312 228.679688 305.316406 C 228.984375 305.675781 229.269531 306.082031 229.523438 306.53125 C 231.878906 310.695312 230.3125 312.613281 229.53125 313.246094 C 228.855469 313.792969 227.957031 314.0625 227.039062 314.0625 " fill-opacity="1" fill-rule="nonzero"/><path fill="#000000" d="M 163.035156 204.605469 C 163.339844 204.742188 163.714844 204.8125 164.160156 204.800781 C 164.855469 204.78125 166.453125 203.765625 166.714844 202.894531 C 166.769531 202.710938 166.789062 202.511719 166.410156 202.25 C 165.707031 201.761719 164.1875 203.3125 163.035156 204.605469 Z M 174.714844 202.8125 C 173.644531 202.8125 172.578125 203.828125 171.808594 204.792969 C 169.867188 207.222656 169.445312 210.820312 170.644531 214.667969 C 171.089844 216.089844 171.71875 217.4375 172.476562 218.640625 C 174.953125 216.882812 176.910156 214.652344 177.707031 212.152344 C 178.699219 209.035156 177.503906 204.082031 175.503906 203.015625 C 175.242188 202.875 174.980469 202.8125 174.714844 202.8125 Z M 193.125 216.480469 C 192.84375 216.480469 192.292969 216.644531 191.617188 217.148438 C 190.648438 217.871094 189.78125 219.082031 190.074219 219.910156 C 190.273438 220.480469 190.539062 220.976562 190.867188 221.402344 C 191.921875 220.621094 192.714844 219.691406 193.074219 218.640625 C 193.582031 217.144531 193.402344 216.59375 193.300781 216.519531 C 193.269531 216.496094 193.207031 216.480469 193.125 216.480469 Z M 258.515625 235.730469 C 260.121094 236.652344 261.734375 237.269531 262.996094 236.933594 C 264.285156 236.59375 264.605469 236.210938 264.621094 236.125 C 264.617188 235.976562 264.101562 235.390625 262.558594 234.953125 C 261.511719 234.65625 260 235.144531 258.515625 235.730469 Z M 217.519531 220.660156 C 218.496094 221.367188 219.46875 222.089844 220.347656 222.8125 C 223.460938 225.367188 224.832031 227.484375 226.414062 229.933594 C 227.160156 231.085938 227.933594 232.277344 228.96875 233.660156 C 234.476562 240.996094 243.15625 238.664062 251.550781 236.40625 C 252.554688 236.136719 253.554688 235.871094 254.539062 235.621094 C 254.75 235.566406 254.976562 235.496094 255.222656 235.410156 C 254.820312 235.125 254.425781 234.84375 254.046875 234.570312 C 253.316406 234.039062 252.621094 233.542969 252.070312 233.199219 C 251.054688 232.574219 250.023438 231.925781 248.976562 231.265625 C 239.953125 225.59375 229.730469 219.164062 219.140625 220.347656 C 218.695312 220.394531 218.148438 220.507812 217.519531 220.660156 Z M 239.421875 240.144531 C 235.027344 240.144531 230.921875 238.800781 227.75 234.574219 C 226.683594 233.152344 225.859375 231.878906 225.136719 230.761719 C 223.558594 228.324219 222.308594 226.394531 219.382812 223.988281 C 218.296875 223.097656 217.09375 222.230469 215.820312 221.316406 C 215.757812 221.269531 215.695312 221.222656 215.632812 221.179688 C 214.785156 221.429688 213.859375 221.714844 212.886719 222.015625 C 205.691406 224.238281 195.382812 227.425781 190.628906 223.390625 C 186.777344 225.621094 181.238281 226.273438 178.316406 225.394531 C 176.03125 224.707031 173.828125 223.011719 172.082031 220.726562 C 167.460938 223.5625 161.65625 224.902344 157.492188 223.875 C 152.550781 222.65625 149.527344 218.941406 149.792969 214.414062 C 150.097656 209.226562 153.242188 208.234375 156.566406 207.183594 C 157.480469 206.894531 158.421875 206.59375 159.359375 206.195312 C 159.691406 206.054688 160.308594 205.390625 160.925781 204.695312 C 160.128906 203.410156 159.984375 201.605469 159.871094 200.207031 C 159.832031 199.710938 159.792969 199.234375 159.734375 198.8125 C 159.675781 198.394531 159.964844 198.007812 160.378906 197.949219 C 160.796875 197.890625 161.183594 198.179688 161.242188 198.597656 C 161.308594 199.046875 161.347656 199.554688 161.390625 200.085938 C 161.503906 201.488281 161.636719 202.65625 161.996094 203.476562 C 163.652344 201.628906 165.570312 199.808594 167.28125 200.996094 C 168.117188 201.578125 168.445312 202.429688 168.175781 203.332031 C 167.691406 204.941406 165.421875 206.292969 164.199219 206.320312 C 163.277344 206.34375 162.550781 206.144531 161.988281 205.789062 C 161.210938 206.667969 160.5625 207.335938 159.957031 207.597656 C 158.953125 208.023438 157.972656 208.332031 157.027344 208.632812 C 153.851562 209.636719 151.558594 210.363281 151.316406 214.503906 C 151.046875 219.074219 154.671875 221.613281 157.855469 222.398438 C 161.59375 223.320312 166.949219 222.058594 171.210938 219.476562 C 170.367188 218.148438 169.675781 216.675781 169.191406 215.121094 C 167.835938 210.785156 168.355469 206.671875 170.617188 203.84375 C 173.136719 200.691406 175.210938 201.128906 176.222656 201.671875 C 179.125 203.222656 180.285156 209.082031 179.160156 212.613281 C 178.253906 215.449219 176.085938 217.945312 173.347656 219.890625 C 174.882812 221.878906 176.789062 223.34375 178.75 223.933594 C 181.449219 224.746094 186.226562 224.050781 189.5625 222.230469 C 189.191406 221.707031 188.878906 221.105469 188.636719 220.417969 C 188.066406 218.808594 189.265625 217 190.707031 215.929688 C 192.058594 214.921875 193.367188 214.683594 194.199219 215.289062 C 195.0625 215.917969 195.167969 217.210938 194.515625 219.132812 C 194.066406 220.441406 193.164062 221.558594 191.984375 222.480469 C 196.332031 225.542969 205.796875 222.613281 212.433594 220.5625 C 213 220.386719 213.550781 220.214844 214.082031 220.054688 C 212.199219 218.664062 210.378906 217.203125 209 215.550781 C 208.730469 215.230469 208.769531 214.75 209.09375 214.480469 C 209.417969 214.210938 209.898438 214.25 210.167969 214.574219 C 211.664062 216.363281 213.789062 217.96875 215.921875 219.511719 C 217.132812 219.171875 218.175781 218.921875 218.972656 218.832031 C 230.085938 217.59375 240.554688 224.171875 249.789062 229.976562 C 250.832031 230.636719 251.859375 231.28125 252.867188 231.902344 C 253.46875 232.273438 254.183594 232.789062 254.9375 233.335938 C 255.554688 233.777344 256.226562 234.265625 256.929688 234.734375 C 258.925781 233.90625 261.179688 232.976562 262.976562 233.488281 C 265 234.0625 266.15625 235.03125 266.144531 236.140625 C 266.136719 237.164062 265.207031 237.925781 263.386719 238.40625 C 261.320312 238.953125 258.964844 237.859375 256.761719 236.453125 C 256.101562 236.71875 255.476562 236.953125 254.914062 237.097656 C 253.9375 237.34375 252.945312 237.609375 251.949219 237.878906 C 247.863281 238.976562 243.515625 240.144531 239.421875 240.144531 " fill-opacity="1" fill-rule="nonzero"/><g clip-path="url(#b4ea2d9684)"><path fill="#000000" d="M 101.824219 52.933594 C 99.085938 54.15625 96.417969 55.546875 93.855469 56.929688 C 78.949219 64.984375 69.75 72.324219 69.246094 76.558594 C 69.140625 77.441406 69.433594 78.183594 70.144531 78.824219 C 72.085938 80.570312 80.5 73.976562 83.507812 70.894531 C 85.011719 69.355469 86.488281 67.796875 87.957031 66.238281 C 92.277344 61.667969 96.722656 56.960938 101.824219 52.933594 Z M 324.136719 171.824219 C 323.75 171.824219 323.417969 171.53125 323.378906 171.136719 C 319.320312 131.441406 299.898438 102.472656 284.316406 85.15625 C 267.414062 66.375 251.261719 56.871094 251.097656 56.777344 C 230.992188 45.164062 203.472656 36.792969 184.175781 36.429688 C 170.289062 36.167969 155.5 36.3125 141.398438 39.113281 C 130.796875 41.222656 121.578125 43.320312 113.011719 47.609375 C 116.121094 46.855469 119.839844 46.210938 122.109375 47.089844 C 122.5 47.238281 122.695312 47.679688 122.542969 48.074219 C 122.390625 48.464844 121.949219 48.65625 121.558594 48.507812 C 119.023438 47.527344 113.589844 49 110.671875 49.792969 L 109.902344 50 C 109.128906 50.203125 108.359375 50.433594 107.59375 50.683594 C 106.632812 51.300781 105.675781 51.953125 104.726562 52.644531 C 98.882812 56.894531 93.890625 62.175781 89.066406 67.285156 C 87.589844 68.847656 86.109375 70.414062 84.597656 71.960938 C 84.484375 72.078125 72.898438 83.351562 69.125 79.953125 C 68.035156 78.976562 67.566406 77.769531 67.734375 76.378906 C 68.546875 69.566406 85.765625 59.570312 93.128906 55.589844 C 97.472656 53.242188 102.113281 50.894531 106.933594 49.300781 C 117.199219 42.765625 128.132812 40.203125 141.101562 37.621094 C 155.34375 34.789062 170.234375 34.640625 184.203125 34.90625 C 203.730469 35.277344 231.554688 43.726562 251.863281 55.460938 C 252.027344 55.554688 268.355469 65.152344 285.414062 84.097656 C 301.160156 101.585938 320.792969 130.855469 324.894531 170.984375 C 324.9375 171.402344 324.632812 171.773438 324.214844 171.820312 C 324.1875 171.820312 324.164062 171.824219 324.136719 171.824219 " fill-opacity="1" fill-rule="nonzero"/></g><path fill="#000000" d="M 233.859375 58.9375 C 235.09375 60.03125 236.40625 60.902344 237.34375 60.683594 C 237.902344 60.550781 238.367188 59.988281 238.730469 58.996094 C 237.386719 58.066406 235.601562 58.398438 233.859375 58.9375 Z M 227.265625 64.964844 C 227.171875 65.371094 227.078125 65.804688 226.976562 66.273438 C 226.859375 66.820312 226.734375 67.398438 226.59375 68.015625 C 225.886719 71.019531 226.027344 73.308594 226.984375 74.460938 C 227.492188 75.078125 228.25 75.394531 229.289062 75.429688 C 230.066406 73.273438 229.804688 70.148438 228.566406 67.292969 C 228.191406 66.425781 227.753906 65.640625 227.265625 64.964844 Z M 220.714844 95.6875 C 220.523438 95.6875 220.335938 95.617188 220.1875 95.476562 C 217.921875 93.316406 217.46875 90.164062 217.03125 87.117188 C 216.628906 84.300781 216.207031 81.390625 214.34375 79.351562 C 213.613281 78.558594 212.375 77.753906 211.066406 76.902344 C 208.492188 75.230469 205.828125 73.5 205.484375 71 C 205.304688 69.683594 205.824219 68.328125 207.019531 66.96875 C 210.078125 63.503906 219.675781 59.269531 224.496094 60.886719 C 225.226562 61.128906 225.929688 61.523438 226.597656 62.050781 C 227.324219 60.460938 228.53125 59.230469 231.015625 58.292969 C 230.738281 58.003906 230.472656 57.71875 230.21875 57.449219 C 229.753906 56.945312 229.347656 56.511719 229.050781 56.238281 C 225.796875 53.230469 222.046875 51.5 216.890625 50.625 C 214.410156 50.203125 211.820312 50.125 209.316406 50.050781 C 205.453125 49.929688 201.460938 49.8125 197.640625 48.457031 C 192.9375 46.792969 187.941406 47.148438 182.652344 47.53125 C 180.945312 47.652344 179.175781 47.78125 177.414062 47.835938 C 173.171875 47.96875 169.855469 46.585938 166.644531 45.25 C 164.15625 44.210938 161.582031 43.144531 158.542969 42.753906 C 153.03125 42.054688 147.394531 43.539062 141.941406 44.984375 C 137.589844 46.128906 133.089844 47.316406 128.585938 47.441406 C 128.167969 47.476562 127.816406 47.121094 127.804688 46.699219 C 127.792969 46.277344 128.121094 45.929688 128.542969 45.917969 C 132.875 45.800781 137.285156 44.632812 141.550781 43.507812 C 147.144531 42.035156 152.929688 40.503906 158.738281 41.246094 C 161.980469 41.65625 164.648438 42.769531 167.230469 43.84375 C 170.429688 45.175781 173.460938 46.429688 177.367188 46.316406 C 179.097656 46.257812 180.847656 46.132812 182.542969 46.011719 C 187.996094 45.617188 193.144531 45.25 198.148438 47.023438 C 201.746094 48.296875 205.445312 48.410156 209.363281 48.527344 C 211.917969 48.601562 214.558594 48.683594 217.144531 49.121094 C 222.609375 50.046875 226.601562 51.894531 230.085938 55.117188 C 230.425781 55.433594 230.84375 55.886719 231.335938 56.410156 C 231.695312 56.796875 232.128906 57.261719 232.605469 57.742188 C 235.050781 56.921875 237.949219 56.125 240.140625 58.183594 C 240.347656 58.382812 240.429688 58.679688 240.347656 58.957031 C 239.800781 60.800781 238.90625 61.882812 237.691406 62.167969 C 235.898438 62.585938 233.933594 61.15625 232.199219 59.492188 L 232.050781 59.539062 C 229.441406 60.417969 228.410156 61.464844 227.773438 63.171875 C 228.625 64.125 229.375 65.320312 229.96875 66.691406 C 231.453125 70.121094 231.65625 73.972656 230.492188 76.503906 C 230.371094 76.761719 230.117188 76.933594 229.832031 76.945312 C 228.070312 77.03125 226.710938 76.515625 225.808594 75.433594 C 224.1875 73.476562 224.53125 70.128906 225.109375 67.667969 C 225.25 67.0625 225.371094 66.492188 225.488281 65.953125 C 225.671875 65.097656 225.839844 64.308594 226.046875 63.578125 C 225.40625 62.992188 224.71875 62.566406 224.011719 62.328125 C 219.765625 60.90625 210.902344 64.871094 208.164062 67.976562 C 207.257812 69.003906 206.875 69.925781 206.996094 70.792969 C 207.242188 72.601562 209.714844 74.207031 211.894531 75.625 C 213.289062 76.53125 214.609375 77.386719 215.46875 78.324219 C 217.648438 80.707031 218.101562 83.855469 218.539062 86.902344 C 218.960938 89.820312 219.355469 92.578125 221.238281 94.375 C 221.542969 94.667969 221.554688 95.148438 221.265625 95.453125 C 221.113281 95.609375 220.914062 95.6875 220.714844 95.6875 " fill-opacity="1" fill-rule="nonzero"/><path fill="#000000" d="M 211.96875 83.5625 C 211.148438 83.820312 210.902344 84.265625 210.785156 84.582031 C 210.171875 86.261719 211.695312 89.363281 213.28125 91.964844 C 213.347656 89.246094 212.746094 84.382812 211.96875 83.5625 Z M 193.3125 110.5625 C 193.167969 111.265625 193.109375 112.023438 193.152344 112.839844 C 193.269531 115.015625 194.128906 116.105469 194.894531 116.398438 C 195.277344 116.546875 195.632812 116.492188 195.875 116.257812 C 196.21875 115.917969 196.40625 115.085938 195.914062 113.773438 C 195.53125 112.746094 194.652344 111.664062 193.3125 110.5625 Z M 208.636719 119.199219 C 208.648438 119.199219 208.660156 119.199219 208.671875 119.199219 C 213.203125 119.308594 217.894531 119.421875 220.253906 115.300781 C 222.589844 111.222656 220.332031 105.914062 217.75 101.570312 C 217.476562 101.976562 217.25 102.429688 217.074219 102.933594 C 216.613281 104.269531 216.671875 105.628906 216.734375 107.066406 C 216.828125 109.210938 216.921875 111.425781 215.3125 113.679688 C 214.019531 115.496094 212.070312 116.824219 210.191406 118.113281 C 209.65625 118.480469 209.132812 118.839844 208.636719 119.199219 Z M 204.507812 120.773438 C 202.84375 120.9375 199.964844 121.542969 198.835938 123.738281 C 198.070312 125.230469 198.332031 126.859375 199.054688 127.445312 C 199.796875 128.042969 200.828125 127.382812 201.375 126.9375 C 201.742188 126.640625 201.894531 125.898438 202.03125 125.242188 C 202.144531 124.714844 202.246094 124.214844 202.464844 123.792969 C 203.222656 122.328125 203.714844 121.597656 204.507812 120.773438 Z M 111.804688 199.035156 C 112.171875 199.683594 112.976562 200.703125 113.550781 201.25 L 113.828125 201.515625 C 113.964844 201.644531 114.097656 201.769531 114.230469 201.894531 C 113.734375 200.527344 113.046875 199.46875 112.039062 199.113281 C 111.953125 199.082031 111.875 199.054688 111.804688 199.035156 Z M 135.660156 231.058594 C 135.597656 231.058594 135.53125 231.050781 135.464844 231.03125 C 127.648438 228.972656 121.292969 222.804688 116.582031 212.699219 C 116.023438 211.496094 115.738281 209.613281 115.441406 207.621094 C 115.300781 206.664062 115.144531 205.636719 114.949219 204.640625 C 114.261719 204.015625 113.539062 203.34375 112.773438 202.617188 L 112.503906 202.355469 C 112.472656 202.324219 109.382812 199.367188 110.25 197.953125 C 110.800781 197.058594 112.113281 197.523438 112.542969 197.675781 C 114.757812 198.457031 115.742188 200.992188 116.34375 203.84375 C 122.597656 209.421875 124.023438 208.953125 124.261719 208.78125 C 125.570312 207.820312 122.816406 203.046875 121.910156 201.480469 C 121.683594 201.082031 121.496094 200.757812 121.375 200.527344 C 119.296875 196.53125 117.382812 191.753906 118.992188 186.617188 L 119.175781 186.011719 C 120.230469 182.597656 121.820312 177.441406 126.289062 176.800781 C 128.527344 176.484375 130.742188 177.96875 132.210938 179.273438 C 135.214844 181.933594 137.582031 185.9375 137.890625 188.753906 C 138.515625 188.710938 139.339844 188.359375 140.277344 187.730469 C 143.941406 185.269531 147.832031 179.777344 148.011719 177.988281 C 148.265625 175.496094 147.082031 174.613281 145.296875 173.277344 C 144.339844 172.5625 143.253906 171.75 142.304688 170.5625 C 138.375 165.636719 137.242188 161.292969 138.839844 157.277344 C 140.855469 152.222656 148.402344 151.953125 155.0625 151.714844 C 158.742188 151.582031 162.21875 151.457031 164.449219 150.605469 C 171.53125 147.898438 176.050781 144.3125 177.886719 139.949219 C 179.167969 136.90625 179.058594 133.476562 177.566406 130.042969 C 176.464844 127.503906 174.433594 125.539062 172.472656 123.640625 C 169.851562 121.105469 167.144531 118.484375 167.035156 114.636719 C 166.941406 111.414062 168.503906 108.640625 171.558594 106.625 C 175.914062 103.753906 182.605469 103.015625 186.792969 104.949219 C 189.054688 105.996094 190.96875 107.042969 192.527344 108.089844 C 193.675781 105.621094 195.753906 103.707031 197.910156 101.722656 C 199.691406 100.085938 202.453125 99.230469 205.125 98.402344 C 208.457031 97.371094 211.621094 96.394531 212.835938 94.105469 C 210.386719 90.339844 208.457031 86.519531 209.355469 84.0625 C 209.605469 83.367188 210.222656 82.453125 211.707031 82.050781 C 211.984375 81.976562 212.53125 81.9375 213.042969 82.492188 C 214.652344 84.230469 215.125 92.089844 214.554688 93.953125 C 214.964844 94.566406 215.335938 95.097656 215.621094 95.507812 C 215.839844 95.820312 216.027344 96.085938 216.164062 96.289062 L 216.417969 96.671875 C 216.910156 97.40625 217.449219 98.210938 218 99.070312 C 219.742188 97.621094 222.042969 96.808594 224.164062 96.054688 C 228.375 94.570312 232.011719 93.285156 231.257812 87.957031 C 231.203125 87.539062 231.492188 87.15625 231.90625 87.097656 C 232.328125 87.039062 232.710938 87.328125 232.769531 87.746094 C 233.691406 94.304688 228.898438 96 224.671875 97.492188 C 222.453125 98.277344 220.3125 99.035156 218.808594 100.367188 C 221.6875 105.113281 224.382812 111.15625 221.574219 116.058594 C 218.765625 120.96875 213.382812 120.835938 208.636719 120.722656 C 208.007812 120.707031 207.394531 120.691406 206.804688 120.691406 C 205.253906 122.101562 204.832031 122.535156 203.816406 124.492188 C 203.695312 124.730469 203.613281 125.132812 203.523438 125.554688 C 203.335938 126.457031 203.121094 127.480469 202.339844 128.117188 C 200.816406 129.355469 199.230469 129.546875 198.09375 128.628906 C 196.714844 127.511719 196.445312 125.058594 197.480469 123.046875 C 198.957031 120.167969 202.46875 119.433594 204.433594 119.25 C 205.007812 119.199219 205.605469 119.175781 206.214844 119.167969 C 207.164062 118.339844 208.261719 117.589844 209.332031 116.855469 C 211.101562 115.644531 212.933594 114.390625 214.074219 112.792969 C 215.378906 110.964844 215.296875 109.105469 215.214844 107.132812 C 215.148438 105.613281 215.082031 104.042969 215.636719 102.433594 C 215.9375 101.5625 216.367188 100.816406 216.894531 100.175781 C 216.289062 99.214844 215.6875 98.320312 215.152344 97.519531 L 214.894531 97.136719 C 214.761719 96.941406 214.585938 96.683594 214.371094 96.375 C 214.167969 96.085938 213.964844 95.792969 213.765625 95.496094 C 212.078125 97.847656 208.78125 98.867188 205.574219 99.859375 C 203.066406 100.636719 200.46875 101.4375 198.941406 102.84375 C 196.761719 104.847656 194.785156 106.667969 193.796875 109.003906 C 195.632812 110.421875 196.816406 111.835938 197.34375 113.238281 C 197.988281 114.957031 197.839844 116.453125 196.945312 117.339844 C 196.28125 117.996094 195.285156 118.183594 194.347656 117.820312 C 192.777344 117.214844 191.761719 115.386719 191.632812 112.921875 C 191.5625 111.683594 191.695312 110.574219 191.980469 109.5625 C 190.441406 108.496094 188.488281 107.414062 186.152344 106.332031 C 182.460938 104.625 176.289062 105.328125 172.398438 107.898438 C 170.589844 109.089844 168.457031 111.21875 168.554688 114.59375 C 168.648438 117.820312 171.019531 120.117188 173.53125 122.546875 C 175.601562 124.546875 177.742188 126.621094 178.960938 129.433594 C 180.625 133.261719 180.738281 137.101562 179.292969 140.542969 C 177.289062 145.300781 172.476562 149.167969 164.992188 152.027344 C 162.523438 152.96875 158.925781 153.101562 155.117188 153.234375 C 148.621094 153.46875 141.902344 153.707031 140.257812 157.84375 C 138.855469 161.351562 139.886719 165.09375 143.496094 169.613281 C 144.320312 170.648438 145.28125 171.363281 146.207031 172.058594 C 148.007812 173.402344 149.867188 174.792969 149.53125 178.140625 C 149.261719 180.753906 144.789062 186.535156 141.125 188.992188 C 139.476562 190.101562 138.070312 190.5 136.945312 190.167969 C 136.617188 190.070312 136.394531 189.765625 136.398438 189.421875 C 136.449219 187.078125 134.070312 182.953125 131.199219 180.414062 C 129.460938 178.871094 127.789062 178.121094 126.503906 178.308594 C 122.992188 178.808594 121.628906 183.234375 120.632812 186.460938 L 120.445312 187.070312 C 119.003906 191.679688 120.789062 196.105469 122.726562 199.824219 C 122.839844 200.039062 123.019531 200.347656 123.230469 200.71875 C 124.855469 203.53125 127.574219 208.242188 125.160156 210.007812 C 123.738281 211.050781 121.085938 209.878906 116.773438 206.234375 C 116.835938 206.625 116.890625 207.011719 116.949219 207.398438 C 117.230469 209.277344 117.496094 211.054688 117.964844 212.054688 C 122.476562 221.730469 128.496094 227.621094 135.851562 229.558594 C 136.257812 229.664062 136.503906 230.082031 136.394531 230.488281 C 136.304688 230.832031 135.996094 231.058594 135.660156 231.058594 " fill-opacity="1" fill-rule="nonzero"/><g clip-path="url(#036363eebf)"><path fill="#000000" d="M 46.144531 114.09375 C 45.816406 114.09375 45.375 114.207031 44.800781 114.554688 C 43.3125 115.460938 43.039062 119.742188 43.304688 121.886719 C 43.375 122.453125 43.503906 123.101562 43.675781 123.792969 C 45.40625 122.535156 47.023438 121.171875 47.691406 119.335938 C 48.3125 117.617188 47.953125 115.210938 46.945312 114.386719 C 46.832031 114.292969 46.589844 114.09375 46.144531 114.09375 Z M 30.789062 130.222656 C 30.363281 130.222656 29.898438 130.574219 29.550781 130.910156 C 27.613281 132.792969 26.429688 136.417969 25.894531 138.414062 C 24.746094 142.714844 23.644531 148.832031 24.726562 154 C 25.488281 150.378906 26.917969 147.121094 28.398438 143.753906 C 29.707031 140.765625 31.0625 137.679688 31.988281 134.203125 C 32.421875 132.578125 31.875 130.746094 31.136719 130.3125 C 31.027344 130.25 30.910156 130.222656 30.789062 130.222656 Z M 71.527344 183.867188 C 71.128906 186.421875 71.351562 189.453125 72.445312 190.929688 C 72.773438 191.371094 73.890625 192.769531 74.5625 192.324219 C 75.519531 191.691406 75.976562 188.414062 74.738281 186.300781 C 73.949219 184.945312 72.78125 184.394531 71.527344 183.867188 Z M 123.386719 207.699219 C 123.355469 207.699219 123.335938 207.703125 123.320312 207.714844 C 123.09375 207.871094 123.105469 207.964844 123.113281 208.019531 C 123.199219 208.707031 124.757812 209.859375 125.488281 210.132812 C 125.835938 210.265625 126.210938 210.390625 126.589844 210.5 C 124.980469 208.507812 124.035156 207.828125 123.480469 207.710938 C 123.445312 207.703125 123.414062 207.699219 123.386719 207.699219 Z M 196.453125 237.496094 C 196.214844 237.496094 196.058594 237.546875 195.976562 237.605469 C 195.929688 237.636719 195.878906 237.683594 195.894531 237.816406 C 195.917969 238.007812 196.085938 238.339844 196.53125 238.683594 C 196.769531 238.40625 196.988281 238.058594 197.199219 237.625 C 196.894531 237.53125 196.648438 237.496094 196.453125 237.496094 Z M 173.988281 340.242188 C 159.378906 340.242188 143.492188 338.15625 126.414062 333.132812 C 115.109375 329.808594 104.34375 325.179688 94.417969 319.367188 C 70.3125 305.261719 50.191406 283.519531 36.222656 256.503906 C 30.90625 246.210938 26.667969 235.601562 23.632812 224.972656 C 19.210938 209.488281 18.21875 197.058594 26.933594 182.949219 C 27.105469 182.667969 27.3125 182.339844 27.546875 181.972656 C 29.671875 178.644531 34.648438 170.84375 30.847656 168.28125 C 29.304688 167.242188 28.277344 167.265625 27.453125 167.277344 C 25.261719 167.328125 24.738281 166.449219 24.296875 162.09375 C 24.113281 160.285156 24.117188 158.597656 24.269531 156.996094 C 23.882812 156.464844 23.59375 155.804688 23.398438 155.027344 C 21.992188 149.410156 23.179688 142.679688 24.425781 138.019531 C 25.125 135.398438 26.398438 131.847656 28.488281 129.820312 C 30.066406 128.289062 31.308594 128.648438 31.90625 129 C 33.484375 129.921875 33.984375 132.636719 33.460938 134.59375 C 32.503906 138.1875 31.125 141.328125 29.789062 144.363281 C 28.058594 148.3125 26.390625 152.101562 25.859375 156.496094 C 26.042969 156.660156 26.246094 156.785156 26.46875 156.878906 C 27.75 157.421875 29.851562 156.910156 32.386719 155.4375 C 33.4375 154.828125 34.539062 154.214844 35.65625 153.59375 C 38.902344 151.792969 42.261719 149.925781 44.90625 147.78125 C 46.183594 146.742188 46.851562 145.253906 46.792969 143.585938 C 46.726562 141.757812 45.773438 139.980469 44.300781 138.949219 C 43.703125 138.535156 43.011719 138.140625 42.273438 137.726562 C 39.382812 136.085938 35.785156 134.046875 37.652344 129.550781 C 38.492188 127.527344 40.421875 126.097656 42.34375 124.738281 C 42.082031 123.773438 41.890625 122.859375 41.792969 122.074219 C 41.609375 120.605469 41.453125 114.804688 44.007812 113.253906 C 45.984375 112.050781 47.304688 112.710938 47.910156 113.207031 C 49.582031 114.574219 49.886719 117.75 49.121094 119.855469 C 48.246094 122.273438 46.199219 123.867188 44.113281 125.351562 C 44.769531 127.46875 45.714844 129.714844 46.613281 131.171875 C 48.019531 133.449219 49.773438 133.453125 51.988281 133.457031 C 54 133.460938 56.28125 133.46875 58.347656 135.410156 C 60.527344 137.457031 60.328125 140.832031 60.152344 143.808594 C 59.992188 146.550781 59.851562 148.917969 61.371094 149.734375 C 61.902344 150.023438 62.394531 149.785156 63.148438 149.375 C 63.867188 148.984375 64.765625 148.496094 65.664062 149.097656 C 67.347656 150.222656 67.542969 153.652344 67.609375 157.683594 C 67.625 158.585938 67.636719 159.367188 67.691406 159.851562 C 67.9375 162.082031 67.6875 164.640625 67.425781 167.351562 C 66.957031 172.171875 66.472656 177.152344 68.824219 180.363281 C 69.269531 180.972656 69.828125 181.382812 70.453125 181.71875 C 70.652344 181.070312 70.902344 180.484375 71.183594 179.988281 C 73.042969 176.761719 75.109375 173.484375 77.640625 171.351562 C 78.925781 170.269531 80.339844 169.535156 81.710938 168.820312 C 83.773438 167.75 85.71875 166.734375 87.050781 164.65625 C 87.8125 163.46875 88.292969 162.160156 88.796875 160.777344 C 89.25 159.542969 89.71875 158.265625 90.40625 157.070312 C 92.199219 153.949219 96.957031 149.089844 101.472656 148.570312 C 103.539062 148.332031 105.320312 148.992188 106.757812 150.53125 C 108.957031 152.890625 109 156.34375 109.042969 159.683594 C 109.074219 162.414062 109.109375 165.234375 110.351562 167.277344 C 111.507812 169.175781 113.039062 169.914062 114.664062 170.699219 C 116.257812 171.464844 117.90625 172.261719 119.226562 174.132812 C 120.492188 175.921875 120.945312 178.316406 121.386719 180.632812 C 121.683594 182.199219 121.988281 183.816406 122.539062 185.15625 C 123.625 187.808594 125.171875 190.371094 126.667969 192.851562 C 127.863281 194.832031 129.101562 196.882812 130.113281 198.992188 C 130.5625 199.917969 134.390625 208.140625 131.546875 211.253906 C 131.089844 211.753906 130.503906 212.085938 129.796875 212.246094 C 131.042969 214.019531 132.453125 216.207031 134.054688 218.832031 C 134.3125 219.257812 134.503906 219.570312 134.601562 219.722656 C 135.90625 221.71875 136.863281 224.226562 137.878906 226.886719 C 139.375 230.800781 140.917969 234.851562 143.585938 236.898438 C 147.878906 240.203125 156.453125 241.210938 160.964844 239.875 C 161.917969 239.59375 162.851562 239.089844 163.84375 238.5625 C 165.863281 237.480469 167.953125 236.367188 170.480469 236.925781 C 172.101562 237.289062 173.117188 238.109375 174.015625 238.832031 C 175.234375 239.8125 176.195312 240.585938 178.476562 240.289062 C 179.992188 240.085938 181.027344 239.574219 182.121094 239.03125 C 183.710938 238.246094 185.351562 237.433594 188.25 237.851562 C 189.335938 238.007812 190.398438 238.386719 191.425781 238.75 C 192.992188 239.3125 194.195312 239.695312 195.171875 239.503906 C 194.722656 239.046875 194.441406 238.527344 194.382812 237.988281 C 194.308594 237.332031 194.566406 236.738281 195.09375 236.363281 C 195.890625 235.796875 197.148438 235.855469 198.539062 236.519531 C 198.898438 236.695312 199.0625 237.113281 198.921875 237.484375 C 198.625 238.242188 198.296875 238.855469 197.9375 239.339844 C 199.199219 239.605469 200.726562 239.074219 202.332031 238.515625 C 204.53125 237.75 206.804688 236.957031 208.828125 238.09375 C 209.195312 238.300781 209.324219 238.761719 209.117188 239.128906 C 208.914062 239.496094 208.449219 239.625 208.082031 239.421875 C 206.65625 238.621094 204.800781 239.269531 202.832031 239.953125 C 200.824219 240.652344 198.75 241.378906 196.863281 240.601562 C 196.804688 240.574219 196.746094 240.550781 196.6875 240.523438 C 194.90625 241.609375 192.753906 240.84375 190.914062 240.1875 C 189.957031 239.84375 188.964844 239.492188 188.03125 239.359375 C 185.605469 239.007812 184.304688 239.652344 182.796875 240.398438 C 181.695312 240.945312 180.441406 241.5625 178.675781 241.796875 C 175.75 242.183594 174.320312 241.03125 173.0625 240.019531 C 172.21875 239.339844 171.421875 238.699219 170.148438 238.414062 C 168.175781 237.976562 166.421875 238.910156 164.5625 239.90625 C 163.546875 240.445312 162.496094 241.007812 161.398438 241.332031 C 156.441406 242.804688 147.375 241.734375 142.65625 238.105469 C 139.648438 235.792969 138.023438 231.542969 136.453125 227.429688 C 135.472656 224.847656 134.542969 222.414062 133.328125 220.558594 C 133.222656 220.394531 133.023438 220.070312 132.75 219.625 C 130.8125 216.441406 129.246094 214.074219 127.984375 212.328125 C 127.089844 212.238281 126.082031 211.984375 124.953125 211.558594 C 124.273438 211.304688 121.808594 209.878906 121.601562 208.207031 C 121.515625 207.523438 121.816406 206.902344 122.453125 206.460938 C 122.722656 206.277344 123.167969 206.085938 123.800781 206.222656 C 125.011719 206.480469 126.617188 207.953125 128.78125 210.84375 C 129.449219 210.828125 130.035156 210.652344 130.421875 210.226562 C 131.890625 208.625 130.6875 203.691406 128.742188 199.652344 C 127.757812 197.609375 126.542969 195.589844 125.363281 193.636719 C 123.839844 191.109375 122.261719 188.492188 121.128906 185.738281 C 120.519531 184.253906 120.199219 182.558594 119.886719 180.917969 C 119.460938 178.664062 119.054688 176.53125 117.980469 175.007812 C 116.886719 173.460938 115.488281 172.785156 114.003906 172.070312 C 112.25 171.226562 110.441406 170.351562 109.050781 168.070312 C 107.59375 165.671875 107.554688 162.636719 107.519531 159.703125 C 107.476562 156.511719 107.441406 153.496094 105.644531 151.570312 C 104.539062 150.386719 103.230469 149.902344 101.644531 150.082031 C 97.824219 150.523438 93.429688 154.863281 91.726562 157.832031 C 91.105469 158.914062 90.679688 160.074219 90.230469 161.300781 C 89.714844 162.699219 89.183594 164.148438 88.332031 165.476562 C 86.78125 167.898438 84.5625 169.054688 82.414062 170.171875 C 81.117188 170.847656 79.777344 171.546875 78.621094 172.519531 C 76.273438 174.496094 74.292969 177.644531 72.503906 180.75 C 72.25 181.191406 72.03125 181.738281 71.855469 182.355469 C 71.859375 182.355469 71.859375 182.355469 71.863281 182.355469 C 73.3125 182.960938 74.953125 183.644531 76.054688 185.535156 C 77.558594 188.105469 77.210938 192.398438 75.402344 193.59375 C 74.679688 194.070312 73.179688 194.476562 71.222656 191.839844 C 69.777344 189.890625 69.515625 186.242188 70.078125 183.234375 C 69.171875 182.796875 68.300781 182.226562 67.59375 181.261719 C 64.902344 177.582031 65.414062 172.308594 65.90625 167.207031 C 66.164062 164.578125 66.402344 162.089844 66.175781 160.019531 C 66.113281 159.464844 66.101562 158.652344 66.085938 157.710938 C 66.046875 155.414062 65.976562 151.136719 64.820312 150.363281 C 64.6875 150.277344 64.238281 150.515625 63.875 150.714844 C 63.054688 151.160156 61.933594 151.769531 60.644531 151.074219 C 58.273438 149.796875 58.457031 146.707031 58.632812 143.71875 C 58.796875 140.945312 58.964844 138.078125 57.304688 136.515625 C 55.675781 134.988281 53.882812 134.984375 51.984375 134.980469 C 49.726562 134.976562 47.167969 134.972656 45.316406 131.972656 C 44.414062 130.507812 43.492188 128.367188 42.808594 126.277344 C 41.15625 127.457031 39.683594 128.628906 39.058594 130.132812 C 37.800781 133.167969 39.71875 134.523438 43.027344 136.398438 C 43.761719 136.816406 44.519531 137.246094 45.171875 137.703125 C 47.058594 139.023438 48.234375 141.199219 48.316406 143.53125 C 48.394531 145.6875 47.523438 147.617188 45.867188 148.964844 C 43.117188 151.195312 39.699219 153.089844 36.394531 154.925781 C 35.285156 155.542969 34.195312 156.148438 33.152344 156.753906 C 31.058594 157.96875 28.097656 159.222656 25.875 158.285156 C 25.820312 158.261719 25.765625 158.238281 25.714844 158.210938 C 25.652344 159.402344 25.679688 160.640625 25.8125 161.941406 C 26.203125 165.78125 26.484375 165.777344 27.421875 165.757812 C 28.355469 165.738281 29.757812 165.710938 31.699219 167.019531 C 36.734375 170.414062 31.398438 178.773438 28.832031 182.792969 C 28.601562 183.152344 28.398438 183.472656 28.230469 183.746094 C 19.808594 197.378906 20.789062 209.46875 25.097656 224.554688 C 28.105469 235.085938 32.304688 245.601562 37.578125 255.804688 C 51.410156 282.566406 71.332031 304.089844 95.1875 318.054688 C 105.007812 323.800781 115.65625 328.382812 126.847656 331.671875 C 143.761719 336.648438 159.503906 338.714844 173.972656 338.714844 C 219.84375 338.714844 253.007812 317.941406 270.886719 303.046875 C 278.507812 296.695312 297.628906 277.878906 310.519531 240.398438 C 316.628906 222.625 323.96875 195.535156 317.1875 165.585938 C 317.09375 165.175781 317.351562 164.769531 317.761719 164.675781 C 318.171875 164.582031 318.582031 164.839844 318.671875 165.25 C 325.542969 195.578125 318.128906 222.945312 311.957031 240.894531 C 298.945312 278.738281 279.582031 297.785156 271.863281 304.21875 C 253.804688 319.257812 220.304688 340.242188 173.988281 340.242188 " fill-opacity="1" fill-rule="nonzero"/></g><path fill="#000000" d="M 339.707031 182.5 C 339.976562 183.332031 340.160156 184.109375 340.203125 184.683594 C 340.273438 185.636719 340.441406 186.589844 340.605469 187.164062 C 341.628906 186.128906 342.445312 184.335938 342.285156 183.285156 C 342.222656 182.832031 341.988281 182.703125 341.777344 182.628906 C 341.378906 182.503906 340.476562 182.488281 339.707031 182.5 Z M 354.589844 193.046875 Z M 354.796875 194.519531 C 354.515625 194.519531 354.242188 194.410156 354.019531 194.203125 C 352.746094 193.007812 352.882812 187.582031 352.886719 187.351562 C 352.910156 186.648438 353.007812 185.847656 353.113281 184.996094 C 353.242188 183.953125 353.539062 181.511719 353.136719 181.21875 C 352.835938 181.136719 352.378906 181.210938 351.800781 181.308594 C 350.273438 181.558594 347.964844 181.9375 344.277344 180.261719 C 343.105469 179.730469 342.125 179.273438 341.296875 178.882812 C 338.863281 177.746094 337.714844 177.214844 336.988281 177.285156 C 337.148438 177.527344 337.402344 177.859375 337.632812 178.164062 L 337.699219 178.25 C 338.175781 178.878906 338.703125 179.898438 339.148438 180.980469 C 339.15625 180.980469 339.160156 180.980469 339.164062 180.980469 C 340.496094 180.960938 341.570312 180.960938 342.25 181.183594 C 343.105469 181.460938 343.65625 182.128906 343.792969 183.058594 C 344.082031 185.003906 342.511719 187.765625 340.964844 188.847656 C 340.675781 189.050781 340.3125 189.082031 340.003906 188.933594 C 339.085938 188.5 338.785156 186.152344 338.683594 184.796875 C 338.640625 184.261719 338.421875 183.410156 338.105469 182.507812 C 335.78125 182.46875 333.441406 182.871094 331.417969 183.246094 C 331.003906 183.324219 330.609375 183.050781 330.53125 182.636719 C 330.457031 182.226562 330.730469 181.828125 331.140625 181.75 C 333.054688 181.394531 335.253906 181.019531 337.496094 180.984375 C 337.175781 180.265625 336.820312 179.613281 336.480469 179.171875 L 336.421875 179.089844 C 335.59375 178 335.09375 177.347656 335.386719 176.617188 C 335.644531 175.960938 336.398438 175.835938 336.679688 175.789062 C 337.863281 175.59375 338.972656 176.117188 341.941406 177.503906 C 342.765625 177.890625 343.742188 178.347656 344.90625 178.875 C 348.175781 180.359375 350.128906 180.039062 351.550781 179.804688 C 352.285156 179.683594 352.921875 179.578125 353.546875 179.753906 C 355.234375 180.226562 354.925781 182.746094 354.625 185.183594 C 354.523438 185.996094 354.429688 186.761719 354.410156 187.390625 C 354.351562 189.597656 354.59375 191.78125 354.882812 192.699219 C 355.316406 192.039062 356.167969 190.261719 357.742188 185.5 C 359.027344 181.617188 360.382812 177.808594 361.570312 176.269531 C 362.496094 175.074219 364.617188 174.296875 366.867188 173.476562 C 368.023438 173.050781 369.121094 172.652344 369.921875 172.230469 C 372.511719 170.871094 373.265625 169.699219 373.125 169.109375 C 373.078125 168.925781 372.980469 168.792969 372.792969 168.6875 C 372.449219 168.484375 371.300781 168.109375 368.132812 169.007812 C 367.054688 169.3125 366.152344 169.652344 365.355469 169.953125 C 363.292969 170.734375 361.664062 171.347656 358.691406 170.871094 C 356.152344 170.460938 351.714844 167.988281 348.152344 166 C 346.113281 164.867188 344.1875 163.792969 343.453125 163.589844 C 343.175781 163.511719 342.984375 163.484375 342.859375 163.476562 C 342.941406 163.6875 343.140625 164.027344 343.515625 164.441406 L 344.6875 165.710938 C 346.765625 167.972656 350.253906 171.761719 351.175781 172.902344 C 351.597656 173.425781 351.589844 173.921875 351.507812 174.246094 C 351.222656 175.359375 349.765625 176.03125 347.742188 176.859375 C 347.316406 177.035156 346.925781 177.191406 346.632812 177.335938 C 346.261719 177.523438 345.800781 177.367188 345.613281 176.992188 C 345.429688 176.613281 345.585938 176.15625 345.960938 175.972656 C 346.273438 175.8125 346.699219 175.640625 347.164062 175.449219 C 347.976562 175.117188 349.886719 174.335938 350.027344 173.867188 C 349.097656 172.757812 345.5 168.84375 343.5625 166.742188 L 342.390625 165.46875 C 341.371094 164.347656 341.035156 163.296875 341.472656 162.585938 C 341.863281 161.949219 342.667969 161.792969 343.855469 162.121094 C 344.773438 162.375 346.589844 163.386719 348.894531 164.671875 C 352.351562 166.597656 356.660156 169 358.9375 169.367188 C 361.503906 169.78125 362.890625 169.253906 364.820312 168.527344 C 365.640625 168.214844 366.578125 167.863281 367.71875 167.539062 C 370.5 166.753906 372.414062 166.699219 373.566406 167.371094 C 374.105469 167.6875 374.464844 168.164062 374.605469 168.753906 C 374.988281 170.347656 373.609375 172.015625 370.632812 173.578125 C 369.738281 174.046875 368.597656 174.464844 367.390625 174.90625 C 365.53125 175.582031 363.429688 176.351562 362.777344 177.199219 C 361.582031 178.746094 359.902344 183.816406 359.1875 185.980469 C 356.617188 193.742188 355.722656 194.4375 354.894531 194.515625 C 354.859375 194.519531 354.828125 194.519531 354.796875 194.519531 " fill-opacity="1" fill-rule="nonzero"/><path fill="#000000" d="M 47.917969 264.386719 C 20.980469 264.386719 5.484375 256.253906 2.582031 240.296875 C 0 226.097656 9.71875 214.164062 11.121094 213.066406 C 11.453125 212.808594 11.933594 212.867188 12.191406 213.199219 C 12.453125 213.53125 12.394531 214.011719 12.0625 214.269531 C 10.746094 215.296875 1.628906 226.539062 4.082031 240.023438 C 8.839844 266.207031 48.582031 265.1875 81.078125 259.71875 C 127.40625 251.921875 157.304688 243.425781 198.683594 231.664062 C 204.753906 229.941406 211.0625 228.144531 217.699219 226.277344 C 257.324219 215.117188 304.480469 196.261719 327.175781 184.480469 C 327.546875 184.289062 328.007812 184.433594 328.199219 184.808594 C 328.394531 185.179688 328.25 185.640625 327.875 185.835938 C 305.113281 197.648438 257.832031 216.558594 218.113281 227.742188 C 211.476562 229.613281 205.167969 231.40625 199.101562 233.128906 C 157.675781 244.902344 127.742188 253.410156 81.332031 261.21875 C 68.757812 263.335938 57.59375 264.386719 47.917969 264.386719 " fill-opacity="1" fill-rule="nonzero"/></svg>